<?xml version="1.0" standalone="no"?>
<!DOCTYPE svg PUBLIC "-//W3C//DTD SVG 1.1//EN" "http://www.w3.org/Graphics/SVG/1.1/DTD/svg11.dtd" >
<svg xmlns="http://www.w3.org/2000/svg">
<metadata>Generated by IcoMoon</metadata>
<defs>
<font id="icomoon" horiz-adv-x="1024">
<font-face units-per-em="1024" ascent="960" descent="-64" />
<missing-glyph horiz-adv-x="1024" />
<glyph unicode="&#x20;" horiz-adv-x="512" d="" />
<glyph unicode="&#xe900;" glyph-name="bb-aventyr" d="M356.546 175.528c-92.417 48.419-175.635 111.955-285.95 111.599 8.486 32.731 16.972 65.961 25.671 99.191 18.754 71.381 38.079 142.618 56.263 214.142 3.494 13.834 8.414 18.469 21.535 11.98 2.353-1.212 4.92-2.139 7.416-2.995 41.288-14.618 40.718-14.476 32.874-57.404-10.126-55.479 10.91-101.188 47.349-141.192 26.598-29.165 57.974-52.626 92.060-72.165 11.338-6.489 16.829-12.622 15.189-26.884-4.992-44.212-8.201-88.566-12.408-136.272zM94.485 223.305c84.501-7.202 168.931-49.275 248.798-102.97 8.272-5.562 7.844-12.978 7.131-21.108-3.494-38.935-7.416-77.941-10.197-116.947-0.998-13.477-3.851-16.686-17.542-10.982-95.911 40.147-192.178 79.581-288.446 118.872-11.053 4.492-14.191 9.128-10.269 21.678 9.056 28.809 15.759 58.331 23.318 87.568 6.632 25.6 6.632 25.671 47.207 23.889zM651.623 256.535c0-53.339 0.071-106.679-0.071-159.947 0-9.413 2.496-18.754-10.34-24.174-81.792-34.514-163.298-69.74-249.582-106.75 4.35 50.273 8.343 96.695 12.265 143.046 0.499 6.133 4.849 9.342 9.413 12.123 75.802 46.137 151.675 92.131 227.548 138.197 3.637-0.856 7.202-1.64 10.768-2.496zM781.905 430.957c28.452 38.65 54.837 74.019 80.651 109.816 7.060 9.841 12.836 20.323 27.24 12.978 12.978-6.632 32.66-3.209 34.228-26.741 1.497-22.962 6.774-45.638 9.983-68.528 0.856-6.347 4.35-14.119-7.202-16.33-88.067-16.758-143.545-73.092-180.484-150.32-39.577 14.69-54.908 40.361-54.409 83.147 0.856 74.589-4.778 149.25-8.486 223.911-0.856 17.542 0.927 23.175 20.965 16.9 22.462-7.060 35.013-16.9 40.147-41.787 9.484-46.636 23.746-92.345 37.366-143.046zM630.017 620.497c3.708-95.84 7.202-188.114 10.91-280.316 0.357-8.414-0.071-15.331-8.7-20.323-15.973-9.199-31.376-19.325-52.198-32.303 0 36.938 0.214 69.313-0.071 101.616-0.357 42.714-15.046 52.983-54.48 38.293-25.814-9.555-51.77-18.754-77.228-29.094-13.192-5.419-19.824-5.562-18.041 11.695 3.779 37.081 6.846 74.304 9.912 111.456 0.856 10.411 3.708 17.685 14.618 22.32 57.047 24.459 113.738 49.631 175.278 76.657zM704.321 249.547c57.404-41.359 116.519-82.291 182.195-112.526 28.31-13.050 56.905-25.101 87.568-31.733 7.773-1.64 16.258-2.924 17.257-13.549 3.209-35.298 14.832-69.669 11.623-108.319-45.567 14.547-90.064 28.595-134.418 42.999-47.349 15.403-94.342 31.947-142.048 46.208-16.33 4.92-22.962 11.695-22.605 29.237 1.070 48.704 0.428 97.48 0.428 147.681zM979.503 165.259c-67.886 14.404-120.156 50.13-173.709 83.218-8.486 5.277-6.489 11.481-3.779 18.255 23.247 57.475 61.397 99.334 122.937 116.163 10.055 2.781 20.323 6.489 22.89-10.982 9.769-67.387 20.608-134.703 31.661-206.654zM384.285 490.429c-2.211-26.527-4.492-52.983-6.418-79.581-0.642-9.342-1.997-16.758-13.763-10.197-43.57 24.174-83.004 52.127-93.843 105.395-1.212 6.061-2.068 12.265-1.925 18.398 0.927 45.424 8.557 50.772 50.273 35.726 9.199-3.28 18.326-6.703 27.454-9.983 41.716-14.904 41.716-14.904 38.222-59.757zM410.242 180.662c4.065 47.92 7.915 90.991 11.267 134.133 0.57 7.416 4.136 11.124 10.34 13.549 29.593 11.338 59.187 22.676 91.989 35.298 0-36.51-0.071-69.954 0.071-103.398 0-5.919-2.638-10.197-7.345-13.192-34.3-21.464-68.599-42.857-106.322-66.389zM959.465 867.013c-30.592 46.351-76.372 66.246-131.708 56.477-52.84-9.27-86.498-41.716-102.828-93.058-11.267-35.583-0.428-68.314 8.7-101.901 20.181-74.447 39.791-149.108 61.041-229.259 57.903 78.939 113.596 151.675 165.651 226.906 31.376 45.281 29.023 95.483-0.856 140.836zM849.506 724.394c-36.51-0.071-65.391 28.595-66.104 65.604-0.713 37.651 29.379 68.528 66.46 68.172 36.154-0.357 66.032-30.021 66.603-65.89 0.499-37.723-29.237-67.815-66.959-67.886z" />
<glyph unicode="&#xe901;" glyph-name="bb-berattelse" horiz-adv-x="1489" d="M782.678 77.602c0 165.105-0.097 329.243 0.097 493.381 0.097 57.937 1.741 115.873 0.774 173.81-0.387 23.504 7.157 41.107 22.536 58.42 66.545 74.67 154.175 99.914 249.157 106.782 65.481 4.739 129.801-6.094 193.928-18.764 18.571-3.675 22.923-11.607 22.923-28.92-0.387-237.84-0.387-475.777-0.097-713.618 0-16.54-1.354-25.148-21.859-17.41-162.881 62.096-316.863 44.202-461.269-53.584-0.871-0.484-2.321-0.097-6.19-0.097zM222.752 129.735c0 120.806 0 237.84 0 354.874 0 125.546 0.677 251.091-0.58 376.637-0.29 24.277 7.157 32.886 30.854 37.238 93.434 16.83 186.481 24.374 279.818-0.193 34.046-8.995 65.868-22.633 96.045-41.107 54.938-33.563 84.052-75.25 82.794-146.341-3.675-197.797 1.644-395.788 3.482-593.779 0.097-11.607 0-23.117 0-39.85-158.528 93.337-320.441 114.229-492.414 52.52zM77.571 368.252c0 102.719 0.193 205.438-0.097 308.061-0.097 27.179 1.741 53.971 36.755 54.745 37.818 0.774 39.366-28.243 39.366-56.099 0.097-194.509 0.677-389.017-0.677-583.623-0.193-32.692 7.254-33.273 35.11-22.826 177.969 67.125 350.329 50.005 517.078-38.689 9.382-5.030 23.407-8.415 22.053-20.795-1.451-12.477-14.218-18.667-25.922-22.923-16.926-5.997-32.402-3.675-48.458 5.126-165.299 89.468-332.532 99.237-502.956 14.025-43.912-21.956-72.155-2.128-72.252 47.684-0.193 105.137 0 210.178 0 315.315zM1340.959 49.455c0 201.183 0 395.304 0 589.523 0 15.669-0.967 31.435 0.484 47.007 2.321 24.664 14.218 41.204 41.687 39.463 28.92-1.838 28.533-22.44 28.533-44.396-0.387-213.563-0.193-427.126-0.193-640.786 0-45.556-24.954-61.515-67.416-41.010-45.846 22.149-92.853 40.333-142.956 49.812-125.062 23.697-242.096-1.257-352.843-60.451-20.312-10.833-39.463-17.603-61.322-5.707-8.705 4.739-18.474 9.576-19.344 19.731-0.967 11.413 10.543 14.895 18.861 19.441 107.168 58.42 221.204 87.437 343.848 79.796 71.575-4.449 139.764-22.923 210.661-52.424z" />
<glyph unicode="&#xe902;" glyph-name="bb-deckare" horiz-adv-x="851" d="M23.246-48.045c-4.62 96.162-9.241 191.025 62.737 268.49 36.675 39.49 80.641 66.635 133.992 76.020 10.901 1.949 25.051-0.505 34.509-6.209 116.16-70.389 231.526-70.028 347.47 0.505 8.808 5.342 21.947 8.086 32.054 6.209 112.839-21.008 196.44-120.059 198.895-234.703 0.794-36.025 0.144-72.122 0.144-110.24-269.645-0.072-538.134-0.072-809.8-0.072zM669.166 19.601c-17.543 41.295-0.794 69.523 29.166 95.657-44.832-3.754-65.841 21.153-80.929 57.827-10.035-42.594-37.541-58.91-79.486-59.56 37.252-23.968 43.389-55.301 31.116-96.307 33.787 30.755 65.624 25.845 100.133 2.382zM217.376 629.424c58.91-54.795 125.69-90.964 208.569-86.272 81.146 4.548 147.926 42.017 208.352 93.13 43.389-64.758 19.492-183.373-49.669-249.647-79.991-76.526-202.865-83.601-293.108-17.254-96.884 71.255-106.27 197.090-74.143 260.043zM122.080 742.191c85.983 29.744 99.050 42.45 121.791 116.81 70.245-4.476 133.342 8.808 168.429 84.034 42.811-62.087 107.208-73.927 172.905-80.785 15.45-69.523 18.915-73.205 118.543-123.596-23.319-18.626-44.832-37.324-68.151-53.351-5.487-3.754-18.626-0.866-25.845 3.177-69.523 38.768-143.233 58.622-223.224 51.763-54.073-4.62-104.032-21.947-149.369-51.402-13.356-8.735-22.813-9.818-36.025 0-24.474 18.049-50.391 34.148-79.052 53.351zM415.477 792.149c4.187-0.072 8.447-0.072 12.634-0.144 6.931 10.468 19.348 21.153 19.059 31.404-0.289 8.952-13.572 22.38-23.535 25.124-16.316 4.476-29.094-8.23-27.362-24.185 1.155-11.334 12.417-21.514 19.204-32.199zM616.032 658.012c-108.58-106.27-271.45-132.765-386.455-1.588 81.724 66.418 263.725 90.17 386.455 1.588z" />
<glyph unicode="&#xe903;" glyph-name="bb-djur" horiz-adv-x="1303" d="M925.261 239.694l-47.264-110.684c0 0 1.891-23.632 7.562-30.249s17.015-7.562 24.577-9.453 23.632-3.781 29.304-23.632 19.851-34.975 18.906-53.967h111.629c0 0-6.617 66.256-22.687 70.037s-53.881 5.328-53.881 5.328-45.46 129.934-51.131 135.605c-5.672 5.672-17.015 17.015-17.015 17.015zM291.319 320.559l40.733-127.699-34.030-107.848 56.803-8.508c0 0 12.804-7.133 17.015-21.312 4.297-14.179 15.64-43.483 15.64-43.483h-156.144l-22.687 138.613 82.669 170.237zM309.709 591.597c0 0-23.031-32.655-27.327-38.671s-70.209 2.492-138.355-63.506c-53.967-91.521-55.342-126.324-54.655-144.027-0.687 0.687 56.030-52.506 7.82-139.816 0 0-60.326 24.835-24.835 142.652 2.148 0.687 6.359 7.133 6.359 7.133s6.359 84.474 61.014 154.683 144.8 80.865 169.979 81.552zM1233.681 627.604c-12.289 3.781-40.647 23.632-41.592 26.468s0.945 53.022-5.672 57.748-21.742 34.030-36.866 34.030c1.891 1.891 23.632 31.194 31.194 34.030s-47.264 7.562-47.264 7.562-19.851 15.125 4.726 15.125 44.428 0 44.428 0 1.891 10.398-6.617 20.796-25.523 44.428-25.523 44.428-15.125 14.179-31.194 7.562c-16.070-6.617-25.523-13.234-64.365-7.562-38.757 5.672-79.49 16.070-79.49 16.070s-15.125 0-25.523-6.617-51.045-40.647-73.818-54.912-57.748-43.483-66.256-46.319-10.398-31.194-12.289-39.702c-1.891-8.508-15.125-134.316-59.639-132.426-44.428 1.891-151.331 17.015-230.821 13.234s-201.517 6.617-210.97-70.982-3.781-185.447 6.617-218.532 93.669-315.983 93.669-315.983h160.87c0 0-11.086 39.272-19.163 53.28-7.906 13.836-55.686 1.289-65.998 28.101-11.343 29.304-34.975 98.395-34.975 98.395l-21.742 57.748c0 0 86.794 97.88 146.605 258.234 42.967-42.967-77.599-184.502-70.982-191.119 14.867-16.414 239.329-35.921 239.329-35.921s55.256-9.453 62.475-24.577c7.219-15.296-11.601-77.255-14.179-103.122-3.523-35.061 5.672-140.933 5.672-140.933h160.87c0 0-10.398 63.42-19.851 65.311s-76.654 7.562-76.654 7.562l65.311 168.432c0 0 9.453 7.562-6.617 34.030s-62.475 126.754-55.858 223.259c0 1.891 63.42-206.244 70.982-216.642s17.015 35.921 22.687 25.523 8.508-47.264 23.632-49.155-2.836 85.161 17.96 81.38c7.304-4.039 7.562-44.428 6.617-53.022-0.945-8.508 11.343 3.781 16.070 12.289s107.848 193.955 107.848 199.627 4.726 16.070-24.577 24.577c-28.359 12.289-84.216 54.912-82.326 73.818s53.022-65.311 132.426-69.092c79.49-3.781 97.45 64.365 97.45 64.365s5.672 19.851-6.617 23.632zM1012.571 775.412c-17.015-9.968-9.968-40.475-9.968-40.475s-34.030 29.819-5.672 56.803c28.359 26.984 61.014-19.163 61.014-19.163s-28.359 12.804-45.374 2.836zM1152.988 671.087c-31.194-0.687-22.687 32.655-22.687 32.655 12.804 18.476 53.967-31.968 22.687-32.655z" />
<glyph unicode="&#xe904;" glyph-name="bb-fantasy" d="M237 228.935c-46.452 45.215-90.498 88.162-134.614 131.109 1.649 2.749 3.23 5.429 4.879 8.177 25.768-8.658 52.293-15.598 77.168-26.387 25.287-10.926 48.857-25.7 72.426-38.343 48.445 48.651 100.187 100.6 153.579 154.267-0.687 0.825-4.673 6.116-9.208 10.651-102.524 102.73-205.46 204.979-307.090 308.533-12.094 12.369-19.996 31.059-24.463 48.238-7.146 27.211-9.689 55.66-15.255 89.88 51.743-16.767 105.341-4.398 148.082-49.681 94.896-100.462 194.603-196.389 292.454-294.103 5.978-5.978 12.369-11.476 21.371-19.79 57.721 58.614 114.205 116.198 170.964 173.438 48.994 49.407 98.676 98.057 147.189 147.876 14.362 14.774 29.342 24.463 50.437 26.662 27.899 2.955 55.591 8.727 89.399 14.293-15.324-54.629-6.322-108.846-53.392-152.686-99.844-93.041-194.122-192.060-290.598-288.674-5.36-5.429-10.445-11.132-14.636-15.53 52.98-52.499 105.204-104.173 158.939-157.427 34.564 46.52 94.415 45.902 145.677 65.555-43.703-42.672-87.338-85.414-135.782-132.759 36.694-35.182 68.372-66.104 100.737-96.339 21.989-20.546 39.237-45.765 73.045-52.911 24.669-5.222 34.152-34.358 27.28-67.066-4.81-22.951-22.264-33.946-44.253-37.038-26.456-3.711-47.963 11.269-59.508 35.457-8.521 17.797-18.966 35.595-32.159 50.094-35.251 38.549-72.426 75.312-110.701 114.618-46.383-47.62-89.88-92.216-133.377-136.813-2.13 1.58-4.329 3.161-6.459 4.741 22.951 50.025 22.539 110.563 71.258 147.807-53.529 52.705-105.822 104.242-157.771 155.435-49.063-49.819-100.668-102.249-153.923-156.397 47.414-34.564 46.452-95.583 70.433-145.334-1.855-1.306-3.711-2.68-5.497-3.986-43.016 44.596-86.101 89.193-130.697 135.438-48.719-48.857-93.728-93.453-137.912-138.806-4.741-4.879-5.291-14.018-7.421-21.302-8.177-27.761-32.090-44.047-60.47-41.092-26.318 2.749-47.208 24.806-48.926 51.537-1.787 27.967 16.148 51.262 44.322 57.996 6.459 1.58 14.43 2.405 18.759 6.665 45.421 44.047 90.224 88.849 135.713 133.995z" />
<glyph unicode="&#xe905;" glyph-name="bb-hastar" horiz-adv-x="1001" d="M164.196 558.507c63.289 50.347 137.884 65.351 216.178 69.618 40.747 2.204 80.782 10.382 120.889 18.204 71.893 14.009 117.191 59.164 148.836 121.316 13.369 26.169 28.444 51.129 46.080 74.596 23.609 31.502 53.049 56.747 92.373 63.004 46.151 7.396 91.093 19.2 136.249 31.787 0.498-3.484 1.422-5.689 0.782-6.329-29.227-28.16-28.018-60.8-18.773-97.422 11.52-45.511 18.702-92.089 27.449-138.311 5.049-26.738-4.338-41.031-30.009-46.791-24.889-5.618-44.658 4.48-50.702 28.231-5.618 22.116-20.267 39.253-29.369 59.307-5.689 12.516-17.849 11.662-27.236 12.16-10.169 0.569-9.244-11.307-10.667-18.56-6.471-32-2.418-63.431 5.262-94.791 9.031-36.978 19.982-74.027 13.084-112.782-2.702-15.218 6.471-12.8 15.289-13.298 36.338-1.92 72.676-4.622 108.018-14.293 33.636-9.173 44.16-22.116 43.52-56.96-0.782-44.444-4.622-88.676-13.084-132.338-6.969-35.911-30.578-59.022-60.871-76.587-6.613-3.84-12.8-6.471-14.862 5.191-1.991 11.307-5.404 22.4-8.32 33.493-2.133 8.391-0.213 13.938 9.529 14.72 6.756 0.498 9.956 5.404 14.436 9.956 35.484 36.267 17.991 79.502 16.284 120.462-0.569 12.658-11.022 13.298-21.973 12.302-27.307-2.489-54.756-4.124-82.133-5.618-8.818-0.498-17.778 0.071-26.596 1.067-40.462 4.622-45.227 2.702-59.947-37.12-21.333-57.671-30.933-118.329-42.951-178.276-2.062-10.382-3.556-20.978-5.333-31.431-2.916-17.138 0.924-31.076 16.356-41.6 14.649-10.027 28.018-21.831 45.582-35.698-25.031-14.151-43.591-15.004-60.8-19.84-2.276-0.64-6.613-0.498-7.396 0.782-9.173 15.787-15.502 32.569-32.071 44.231-17.422 12.302-8.747 31.644-5.973 49.067 8.96 56.533 2.702 113.493 3.2 170.24 0.142 18.56 5.831 44.302-3.769 53.973-11.804 11.876-32.569-7.68-49.991-11.591-46.009-10.382-92.231-18.987-139.307-20.978-16.427-0.711-22.827-3.84-22.613-22.044 0.427-31.004-1.636-62.151-4.764-93.013-2.347-23.538 5.547-40.818 22.542-56.462 47.644-43.804 94.507-88.391 145.138-135.893-20.693-5.049-38.044-9.244-55.396-13.582-5.333-1.351-9.884-2.418-13.796 3.556-40.533 62.862-95.218 109.653-162.489 141.724-18.56 8.818-17.28 25.173-17.138 41.031 0.284 32.711-7.893 61.369-35.769 81.778-10.524 7.751-16.711 9.387-23.467-5.476-13.298-29.227-32.924-54.969-54.542-78.436-50.133-54.542-51.556-122.24-53.689-189.867-0.356-10.524 5.049-20.053 13.013-28.16 11.093-11.307 20.907-24.036 32.711-37.902-15.431-8.747-30.933-10.027-46.009-12.587-11.236-1.92-18.987 1.351-19.698 14.293-0.071 0.853-0.356 1.92-0.996 2.418-36.978 30.507-17.991 71.182-19.2 108.018-1.209 37.12 6.258 74.453-4.409 111.289-1.849 6.329-1.636 15.36 1.564 20.764 37.76 63.218 33.636 130.987 12.089 195.627-15.929 47.644 0.071 86.4 12.8 128.213 3.413 9.031 12.729 13.298 16.853 21.618zM164.196 558.507c-1.849-10.098-3.84-19.982-16.64-21.547-33.92-17.138-51.2-45.298-52.409-82.56-1.778-52.764 10.809-103.609 23.467-154.24 3.769-15.147 2.916-20.907-14.436-25.173-71.253-17.351-70.827-18.133-78.72 54.613-4.622 42.524-5.333 84.764 5.76 126.507 13.867 52.551 58.169 91.449 112.213 98.773 6.969 0.924 13.867 2.347 20.764 3.627z" />
<glyph unicode="&#xe906;" glyph-name="bb-skrack" d="M71.982 702.67c3.151-9.943 4.341-11.624 4.061-13.024-28.429-128.77 38.582-211.536 134.372-262.162 55.737-29.409 116.726-51.466 177.856-67.151 37.182-9.523 79.405-69.532 75.694-110.705-4.271-48.245-33.821-77.234-86.197-80.455-15.475-0.98-32-0.56-46.565 3.991-83.676 26.258-160.070 65.47-219.589 131.851-77.864 86.897-91.939 189.199-68.551 299.133 6.582 31.020 17.786 61.059 28.919 98.521zM954.188 692.376c24.508-53.707 37.532-103.282 39.982-154.748 7.702-162.241-70.092-277.777-234.993-346.818-33.19-13.864-69.742-24.718-105.243-26.678-52.656-2.871-84.306 28.429-88.928 76.044-4.832 49.225 30.46 101.742 74.923 112.105 85.987 20.096 167.352 50.626 235.974 108.324 65.47 54.967 94.67 123.869 78.495 209.646-0.98 4.832-0.21 9.803-0.21 22.127z" />
<glyph unicode="&#xe907;" glyph-name="bb-skrack2" horiz-adv-x="565" d="M553.572 509.814c3.41 7.038 2.539 14.075 2.249 21.258-1.524 32.576-3.773 65.152-4.788 97.728-3.337 111.513-44.837 204.089-135.89 271.345-106.724 78.864-232.747 63.701-312.917-39.904-78.139-100.92-104.548-216.931-90.327-342.881 1.886-16.687 7.328-32.648 18.065-44.692 28.803-32.503 39.033-72.407 49.771-112.601 6.312-23.797 3.337-42.661-17.92-58.622-28.876-21.693-46.288-52.31-47.884-88.078-2.322-51.512-3.192-103.459 0.29-154.826 4.498-66.893 53.834-109.046 121.089-109.046 46.216 0 92.431 0 138.647 0 50.714 0 101.5 0.798 152.214-0.363 23.289-0.508 42.588 7.183 59.855 21.113 34.027 27.497 49.118 64.209 49.626 107.159 0.508 39.904 0.435 79.735 0 119.638-0.363 37.945-13.567 71.174-41.572 97.002-10.012 9.287-12.914 16.397-7.981 29.746 22.926 61.887 38.525 126.386 67.473 186.024zM466.655 511.338c-47.449-86.41-75.744-179.421-93.302-275.988-4.353-24.16-10.81-47.667-21.766-69.65-26.046-52.165-79.952-58.695-118.985-14.656-28.295 31.923-38.888 71.754-44.039 112.020-9.867 76.542-32.648 148.151-72.625 213.956-29.746 48.9-42.225 98.236-20.097 154.318 9.432 24.015 11.173 51.077 16.179 76.76 18.356 94.318 76.18 142.13 172.601 142.492 85.176 0.363 144.451-46.216 162.952-129.796 10.375-46.724 19.299-93.81 27.352-140.969 3.99-23.072 3.918-46.288-8.271-68.489zM231.586 382.776c-0.073 15.381 0 30.762 5.006 45.635 5.877 17.34 15.308 30.835 35.043 33.519 20.968 2.902 37.147-4.716 48.682-22.346 14.51-22.128 19.009-47.667 18.065-72.77-2.104-57.897-8.779-115.43-24.305-171.513-3.12-11.318-6.602-25.466-19.952-26.409-15.526-1.088-20.532 14.438-23.725 25.901-11.318 39.976-21.403 80.315-30.762 120.799-5.079 21.983-8.851 44.402-8.053 67.183zM255.311 657.603c0.29-41.645-56.953-106.289-97.8-109.989-18.718-1.669-34.172 4.788-42.733 22.056-9.432 19.009 5.369 28.803 17.775 37.074 30.472 20.242 56.953 43.676 74.584 76.542 5.151 9.649 9.867 24.232 24.45 21.258 15.018-3.047 20.097-16.614 22.056-30.762 0.726-5.441 1.161-10.81 1.669-16.179zM397.15 547.324c-33.519 0.363-57.098 15.308-73.205 41.645-15.236 24.958-24.16 52.455-24.377 81.984-0.073 14.365 4.498 27.352 20.895 30.69 16.252 3.337 26.627-5.587 30.544-20.024 9.142-33.229 28.731-57.534 58.259-74.584 2.322-1.306 4.281-3.337 6.094-5.296 10.883-11.536 28.948-21.766 21.113-39.976-6.82-15.961-26.264-12.261-39.323-14.438zM275.916 530.927c-4.643-5.296-9.069-12.914-17.412-7.908-7.836 4.788-5.659 12.479-1.886 19.226 4.135 7.328 5.877 16.905 16.252 18.211 0.508 0.073 1.959-8.126 2.975-12.479 3.7-5.659 3.7-11.318 0.073-17.050zM284.622 547.977c1.669 3.482 1.161 12.261 5.296 9.432 8.634-6.022 15.744-16.977 12.044-27.425-3.047-8.634-11.608-4.934-17.050 1.088-3.773 5.587-3.845 11.173-0.29 16.905z" />
<glyph unicode="&#xe908;" glyph-name="bb-penna" horiz-adv-x="936" d="M465.606 432.091c-11.994-15.659-18.824-25.987-27.153-34.816-66.134-71.632-132.602-143.263-199.069-214.728-24.988-26.82-53.64-47.81-92.788-37.315-24.821 6.663-32.651-11.328-45.145-24.321s-27.653-22.822-42.646-6.997c-11.494 12.161-6.83 28.486 5.664 38.481 24.821 19.657 23.155 43.146 18.824 71.299-4.664 30.485 13.827 55.306 32.984 77.795 62.136 72.465 125.439 144.096 186.242 217.727 18.658 22.656 31.151 27.653 53.141 5.497 26.32-26.487 55.473-50.142 83.792-74.464 7.496-6.497 16.659-11.661 26.154-18.158zM636.856 856.384c37.149-3.165 68.633-17.325 85.958-51.975 16.825-33.484 20.157-70.799-4.664-99.785-64.635-75.13-132.935-147.261-199.569-220.892-11.994-13.327-22.989-15.826-35.816-1.666-4.165 4.498-9.162 8.329-13.993 12.327-108.78 90.956-108.78 90.956-17.325 197.903 34.983 40.813 70.132 81.46 104.949 122.607 21.156 25.154 47.81 38.981 80.461 41.48zM405.635-1.864c-82.293-1.832-161.588 12.161-237.384 43.645-13.493 5.497-34.483 8.329-25.321 33.65 9.829 26.987 25.654 17.825 43.812 10.495 132.602-53.807 268.202-46.81 404.303-17.991 21.989 4.664 43.479 13.993 63.636 24.321 22.156 11.328 46.477 24.821 47.144 53.141 0.666 28.653-27.487 32.318-46.477 43.812-55.473 33.65-115.444 66.134-110.779 143.93 3.332 54.973 58.805 89.123 152.426 105.115 49.642 8.496 99.285 9.662 149.094 8.662 18.824-0.333 38.481 0.167 35.982-28.986-2.332-26.987-21.323-19.657-36.649-19.657-56.139 0.167-112.279 1.999-167.418-12.161-34.317-8.829-74.963-14.66-83.792-54.307-9.829-44.312 29.985-63.969 59.638-85.958 9.995-7.33 21.156-13.16 32.151-18.991 82.626-43.479 87.124-116.61 7.663-166.419-87.624-55.306-188.241-58.471-288.026-62.303zM552.564 864.047c-0.333-1.999 0.167-4.664-0.833-6.164-53.64-73.464-112.778-142.43-180.578-203.401-10.828-9.662-24.821-1.333-33.317 7.663-13.16 13.993-11.994 31.318-0.167 45.145 51.475 59.471 103.949 118.109 156.257 176.914 10.661 11.994 24.155 16.992 38.981 9.329 11.328-5.664 18.658-15.826 19.657-29.486z" />
<glyph unicode="&#xe909;" glyph-name="bb-berattelse2" horiz-adv-x="904" d="M890.985 717.050c-10.569-74.92-20.276-144.016-30.414-215.7-43.643 3.739-85.633-0.791-112.38-37.604-13.949-19.269-24.59-44.722-26.531-68.233-4.961-61.546 32.427-100.876 107.491-117.125-6.902-47.095-13.23-94.62-21.426-141.931-1.007-5.752-11.001-10.857-17.831-14.452-104.255-54.5-208.438-109.288-313.556-162.063-12.151-6.112-32.571-6.183-44.65-0.144-105.118 52.847-209.229 107.562-313.412 162.35-7.981 4.242-18.478 11.935-19.773 19.413-7.693 44.938-13.086 90.306-19.557 137.473 36.885 7.406 69.743 21.858 85.849 55.363 10.066 20.923 16.968 46.519 15.459 69.312-4.17 60.756-45.297 90.306-133.303 100.444-9.635 68.233-19.413 137.113-30.054 212.105 14.021-5.968 23.439-9.563 32.571-13.877 127.335-60.468 254.814-120.72 381.861-181.979 16.321-7.837 28.976-7.693 45.225 0.072 126.185 60.827 252.872 120.648 379.416 180.757 9.707 4.674 19.485 8.844 35.015 15.818zM695.776 713.023c3.955-20.060-4.458-33.649-27.466-43.787-65.573-28.976-129.492-61.618-194.921-91.025-11.001-4.961-28.041-4.745-39.114 0.216-58.958 26.315-116.047 56.657-175.436 81.75-26.747 11.288-33.146 28.041-32.571 53.494 2.229 101.235 70.678 191.685 167.527 220.517 97.856 29.12 203.405-7.909 261.069-91.744 25.74-37.316 39.042-78.587 40.911-129.42z" />
<glyph unicode="&#xe90a;" glyph-name="bb-deckare2" horiz-adv-x="873" d="M834.675 514.989c-31.577 112.717-39.594 225.921-9.132 340.241 5.228 19.448 9.829 39.106 15.405 61.273-193.577-95.15-231.568-95.22-392.591-2.37-138.508-103.376-275.762-79.327-414.27 5.577 3.416-8.435 6.692-17.009 10.386-25.304 31.647-71.38 59.46-144.782 51.514-223.9-5.437-53.953-20.355-107.28-34.157-160.048-13.314-51.444-18.542-102.609-9.55-155.029 24.816-144.782 106.025-243 244.045-293.328 52.28-19.1 99.96-45.101 138.578-85.601 13.314-14.011 21.261-8.016 31.717 2.579 34.784 35.202 75.493 62.039 122.545 77.375 176.359 57.439 303.575 251.364 245.509 458.535zM652.321 369.44c14.011 0 25.304-11.362 25.304-25.304s-11.362-25.304-25.304-25.304-25.304 11.362-25.304 25.304c0 0.418 0.070 0.767 0.139 1.115l-121.709 13.244-49.422-112.089c8.923-3.904 15.126-12.826 15.126-23.143 0-14.011-11.362-25.304-25.304-25.304s-25.304 11.362-25.304 25.304c0 10.317 6.204 19.239 15.126 23.143l-49.422 112.089-121.988-13.244c0.139-1.185 0.349-2.3 0.349-3.485 0-14.011-11.362-25.304-25.304-25.304s-25.304 11.362-25.304 25.304 11.362 25.304 25.304 25.304c5.437 0 10.456-1.743 14.569-4.67l72.774 99.403-72.914 99.333c-4.113-2.928-9.132-4.67-14.569-4.67-14.011 0-25.304 11.362-25.304 25.304s11.362 25.304 25.304 25.304 25.304-11.362 25.304-25.304c0-1.185-0.209-2.3-0.349-3.416l121.988-13.244 49.422 112.089c-8.923 3.904-15.126 12.826-15.126 23.143 0 14.011 11.362 25.304 25.304 25.304s25.304-11.362 25.304-25.304c0-10.317-6.204-19.239-15.126-23.143l49.422-112.089 121.988 13.244c-0.139 1.115-0.349 2.231-0.349 3.416 0 14.011 11.362 25.304 25.304 25.304s25.304-11.362 25.304-25.304-11.362-25.304-25.304-25.304c-5.437 0-10.456 1.743-14.569 4.67l-72.705-99.333 71.659-97.869c4.322 3.416 9.689 5.507 15.684 5.507z" />
<glyph unicode="&#xe90b;" glyph-name="bb-default" d="M587.719 211.862c-53.542 0-105.979 0-161.11 0-6.425 89.743 3.938 173.269 73.094 238.279 40.208 37.79 82.42 73.439 124.425 109.226 42.488 36.201 64.527 79.588 45.666 135.064-19.068 56.029-63.905 82.144-119.658 89.122-102.524 12.85-173.683-35.441-202.7-134.926-1.934-6.563-4.076-12.988-6.909-21.9-27.773 3.247-54.993 6.287-82.144 9.603-26.46 3.247-52.989 6.701-84.838 10.708 3.316 19.759 4.629 39.103 9.948 57.411 25.769 89.536 83.249 153.787 168.018 188.606 117.309 48.153 237.312 47.048 350.89-10.847 95.478-48.706 153.717-126.774 151.161-239.799-1.174-52.368-21.831-98.241-57.549-135.064-41.936-43.317-85.46-85.529-132.024-123.734-49.742-40.83-77.791-88.845-72.817-154.132 0.276-3.385-0.138-6.909-0.622-10.294-0.207-1.727-1.244-3.316-2.833-7.323zM426.678 147.75c60.036 0 118.414 0 179.21 0 0-58.447 0-116.411 0-174.996-59.967 0-119.105 0-179.21 0 0 58.862 0 116.203 0 174.996z" />
<glyph unicode="&#xe90c;" glyph-name="bb-dikt" horiz-adv-x="1324" d="M500.042 37.946c-5.237-8.030-7.157-9.688-7.332-11.434-7.332-63.367-7.332-63.367-72.706-63.367-105.699 0-211.486 0.698-317.185-0.436-29.327-0.262-40.063 9.077-39.626 39.626 1.658 101.335 2.095 202.758 0.175 304.093-1.484 74.976 29.327 131.36 96.622 159.727 73.667 31.073 148.73 27.058 210.7-30.462 65.549-60.923 121.323-131.099 176.66-201.274 18.94-23.915 39.888-46.696 55.599-72.619 17.107-28.105 39.277-35.96 70.699-34.651 52.195 2.182 104.652 1.047 156.934 0.436 51.409-0.611 87.632-34.477 88.068-81.086 0.436-46.434-35.437-82.308-86.759-83.093-79.514-1.222-159.116-0.524-238.718-0.175-47.569 0.175-75.412 28.367-93.131 74.714zM264.292 517.913c-107.009 0.698-199.092 94.091-197.259 199.877 1.92 105.001 94.091 195.775 199.092 196.037 106.834 0.262 199.528-91.559 199.79-197.782 0.175-108.754-91.559-198.83-201.623-198.132zM1148.116 422.601c32.731 0 65.375 0.087 98.106 0 24.963-0.087 31.334-11.783 20.075-33.429-66.073-126.56-131.971-253.207-198.568-379.505-10.387-19.726-81.958-28.192-98.804-13.18-8.816 7.855-6.546 18.155-5.15 27.494 8.379 57.519-4.451 108.318-47.307 149.428-11.172 10.736-8.641 20.686-2.706 32.207 34.128 65.811 68.255 131.535 102.033 197.608 7.419 14.489 18.417 20.075 34.215 19.9 32.731-0.436 65.375-0.087 98.106-0.087 0-0.175 0-0.262 0-0.436zM1250.76 475.058c-9.688-10.299-20.075-7.157-29.414-7.594-59.789-2.706-119.665-2.095-179.453-5.848-30.025-1.92-44.514-14.14-56.559-38.666-37.008-75.238-76.285-149.341-112.769-224.84-11.609-24.003-26.359-33.778-53.068-32.818-47.831 1.746-95.836 1.135-143.755 0.262-24.265-0.436-35.262 7.244-35.437 33.691-0.262 67.906-0.611 73.667 67.208 65.724 69.739-8.117 107.532 14.053 130.138 80.998 20.075 59.439 52.893 114.515 78.729 172.121 10.125 22.432 22.257 30.287 48.005 24.352 84.839-19.551 170.288-36.31 255.389-54.464 10.387-2.182 22.083-1.92 30.985-12.918z" />
<glyph unicode="&#xe90d;" glyph-name="bb-karlek" horiz-adv-x="1019" d="M509.822-37.508c-231.756-15.6-485.789 190.085-485.297 483.68 0.351 268.157 218.194 484.524 486.421 486.772 252.346 2.108 505.746-213.486 485.999-524.86-14.757-233.091-231.194-461.334-487.124-445.593zM101.543 447.438c-2.67-223.886 178.912-407.998 406.382-412.074 224.659-4.005 411.019 178.982 414.252 406.803 3.162 225.151-179.404 410.247-407.717 413.338-225.221 3.022-410.176-179.755-412.917-408.068zM684.377 373.301c-31.974 27.687-64.369 53.266-93.672 82.077-14.476 14.265-26.563 33.098-33.66 52.142-11.525 30.779 0.070 61.347 23.822 77.018 26.141 17.287 55.796 14.546 82.569-7.8 6.043-5.060 11.665-10.681 18.833-17.357 8.573 7.308 16.725 14.968 25.438 21.714 23.4 18.060 52.985 20.027 76.456 5.622 23.049-14.195 37.033-42.866 27.055-70.904-8.222-23.049-22.276-45.747-39.071-63.596-26.211-28.038-57.061-51.79-87.769-78.915zM341.38 559.381c8.925 8.081 15.811 14.898 23.33 20.941 24.033 19.114 54.742 21.152 78.494 5.622 22.487-14.687 35.417-43.779 25.719-71.607-7.238-20.8-19.114-41.812-34.293-57.623-28.46-29.584-60.855-55.374-92.899-83.904-34.012 30.287-69.78 58.817-101.191 91.494-14.265 14.827-24.033 36.963-28.46 57.412-5.692 26.352 4.638 50.525 29.865 64.861 24.595 13.984 48.979 12.157 71.818-4.146 9.206-6.606 17.427-14.476 27.617-23.049zM248.411 316.030c174.485-102.386 348.759-103.299 524.368-2.178-65.353-84.467-152.138-127.684-257.405-128.668-109.694-1.054-199.431 43.428-266.962 130.846z" />
<glyph unicode="&#xe90e;" glyph-name="bb-ovrigt" horiz-adv-x="1009" d="M544.319 484.656c-13.082 0.839-20.847 6.296-28.402 12.452-114.866 92.9-229.662 185.8-344.458 278.77-6.576 5.317-16.649 9.444-15.74 19.447 1.119 12.032 13.291 12.872 21.896 15.46 127.248 37.916 254.706 75.411 382.024 113.047 20.707 6.086 38.755 2.868 56.663-10.283 115.496-84.925 231.481-169.151 347.116-253.796 6.716-4.897 17.139-8.465 15.11-19.308-1.889-10.213-12.312-11.333-20.357-14.131-128.787-44.631-257.574-89.193-386.431-133.614-9.794-3.568-20.007-5.946-27.422-8.045zM567.544 766.854c-28.682 0-49.178-18.678-50.018-45.681-0.909-27.912 25.464-51.347 57.573-51.277 29.521 0.14 49.878 20.147 49.388 48.549-0.56 28.052-24.484 48.409-56.943 48.409zM992.94 579.375c-8.045-35.327-17.699-77.86-27.492-120.392-23.295-101.225-47.22-202.31-69.465-303.814-6.296-28.821-21.126-44.841-48.829-54.915-121.442-44.142-242.324-90.032-363.416-135.293-5.736-2.099-11.543-4.337-17.489-5.456-25.534-4.757-31.899 1.819-26.303 27.702 30.92 142.498 62.4 284.786 92.55 427.425 6.226 29.241 19.308 47.080 49.248 56.943 129.347 42.742 258.064 87.444 386.781 131.935 17.489 6.016 27.702 5.107 24.414-24.134zM803.432 300.815c1.049 30.081-13.082 49.318-37.146 50.717-31.69 1.819-69.325-36.516-70.864-72.263-1.119-25.184 15.74-44.911 39.455-46.24 35.677-1.889 67.157 29.241 68.556 67.786zM925.993 550.694c-27.422 0.7-56.943-27.982-65.618-62.82-4.337-17.419 1.679-31.34 14.551-41.973 12.032-10.004 26.093-8.604 39.455-1.679 26.093 13.501 40.644 35.607 44.491 64.079 3.078 22.525-12.872 41.903-32.879 42.393zM619.101 105.221c0 26.583-17.769 44.561-39.594 40.084-30.57-6.226-58.063-40.504-57.993-72.263 0.14-30.29 23.015-46.030 51.277-35.257 25.114 9.584 46.31 40.434 46.31 67.437zM518.436 449.819c-6.296-29.871-12.242-59.811-18.888-89.612-26.163-117.664-52.466-235.258-78.769-352.853-1.119-5.107-2.239-10.213-3.498-15.32-8.115-33.718-13.851-35.957-39.944-13.501-111.298 95.698-222.317 191.746-333.545 287.515-11.403 9.794-18.258 20.147-14.97 36.307 29.311 144.667 58.342 289.334 87.444 434 0.7 3.428 1.889 6.716 2.868 10.074 6.995 24.694 16.16 28.122 36.726 12.102 37.216-29.031 73.872-58.692 110.739-88.213 76.391-61.141 152.782-122.351 229.172-183.632 11.613-9.374 23.505-18.888 22.665-36.866zM163.135 322.921c-0.070 34.278-22.176 60.651-51.067 61.001-28.612 0.35-51.557-26.373-52.046-60.511-0.49-34.418 23.925-63.239 52.956-62.54 28.402 0.7 50.228 27.702 50.158 62.050zM311.159 127.117c-0.28-34.068 21.756-60.581 50.787-61.141 29.241-0.49 52.186 25.603 52.326 59.672 0.21 35.117-23.155 63.379-52.256 63.309-27.562 0-50.577-27.982-50.857-61.84zM173.768 686.336c-28.332 0.909-50.997-24.064-52.116-57.433-1.259-38.405 18.258-64.289 48.829-64.988 29.381-0.7 53.446 25.603 54.145 59.182 0.77 32.179-23.575 62.4-50.857 63.239zM363.276 425.405c-0.14-36.656 20.147-60.931 50.717-60.581 29.661 0.35 51.627 26.163 51.907 61.001 0.28 32.879-24.484 62.47-51.837 62.050-28.472-0.49-50.647-27.702-50.787-62.47zM200.701 366.852c0-35.817 21.616-61.98 50.717-61.49 28.472 0.49 52.326 28.751 52.116 61.77-0.21 33.998-23.365 61.141-52.186 61.141-29.731 0-50.647-25.394-50.647-61.42z" />
<glyph unicode="&#xe90f;" glyph-name="bb-ramsa" horiz-adv-x="1174" d="M47.602-28.533c0 77.511-2.897 152.907 0.705 228.069 4.698 97.084 89.098 181.014 188.452 190.645 72.891 7.046 146.409 8.299 219.065 17.146 146.879 17.929 285.301 65.845 419.653 126.522 22.157 10.022 45.567 17.225 67.802 27.011 7.125 3.132 13.388 9.552 18.164 15.894 3.993 5.246 5.246 12.527 7.751 18.869 26.698 67.646 26.698 67.646 100.529 43.609-8.299-31.474-16.99-63.105-24.819-94.97-2.271-9.16-4.776-19.73-2.271-28.186 18.712-63.809 8.534-94.344-49.638-128.010-66.784-38.755-133.882-77.197-202.937-111.725-57.624-28.812-117.753-52.613-177.648-76.493-18.086-7.203-25.759-14.641-25.21-35.154 1.566-63.496 0.548-127.070 0.548-193.15-180.466-0.078-358.819-0.078-540.146-0.078zM361.246 461.427c-100.45-0.078-185.007 84.635-184.616 185.007 0.391 100.137 85.966 184.851 185.947 183.99 99.198-0.861 182.58-84.635 182.972-183.755 0.391-100.842-83.539-185.164-184.303-185.242zM635.899 868.475c0 15.58 0 28.107 0 42.905 163.555 0 326.014 0 489.96 0 0-14.171 0-27.481 0-42.905-162.615 0-325.074 0-489.96 0zM1011.865 766.85c0-14.876 0-27.324 0-42.435-124.8 0-248.817 0-375.026 0 0 13.388 0 26.463 0 42.435 123.86 0 247.955 0 375.026 0z" />
<glyph unicode="&#xe910;" glyph-name="bb-spanning" horiz-adv-x="1029" d="M521.676-35.561c-252.064-19.907-485.677 216.55-483.943 479.712 1.665 260.595 222.515 480.752 484.082 483.18 218.215 2.012 500.52-187.765 481.307-522.37-12-207.81-214.816-459.735-481.446-440.522zM120.622 441.515c2.15-213.429 167.303-399.112 401.193-399.598 221.891-0.486 400.014 172.158 400.846 399.459 0.902 232.157-183.742 401.679-400.708 402.442-221.752 0.694-402.095-180.898-401.332-402.303zM497.746 290.512c20.809-0.971 42.034-18.381 62.426-35.444 18.381-15.398 26.080-7.075 30.52 10.404 4.647 18.45 7.144 37.386 10.959 56.045 2.636 12.693 4.3 25.872 9.156 37.664 23.028 55.421 71.305 66.935 116.39 27.398 30.103-26.427 56.739-56.114 73.663-93.085 6.798-14.913 11.584-31.629-6.867-40.855-18.797-9.433-28.508 4.439-35.583 19.699-13.456 28.716-33.502 52.438-56.184 74.079-8.878 8.462-19.075 17.133-32.184 12.416-13.803-4.925-17.757-18.242-19.56-31.421-3.468-24.901-6.52-49.664-14.011-73.941-18.728-60.762-57.502-73.732-106.402-34.959-7.283 5.757-14.636 16.578-23.93 13.040-10.821-4.092-5.133-16.924-5.341-25.734-1.040-47.86-25.595-69.848-73.247-63.12-13.456 1.873-27.19 6.312-39.398 12.347-29.41 14.636-58.334 30.381-86.703 47.028-9.225 5.41-20.115 14.011-13.526 27.329 5.688 11.375 17.549 13.179 29.41 11.514 16.647-2.358 31.074-10.196 45.433-18.381 19.491-11.167 37.941-24.554 60.276-29.895 26.843-6.451 35.514 2.012 30.311 29.202-1.803 9.364-4.439 18.728-4.439 28.161 0.069 24.832 16.439 40.508 48.831 40.508zM749.948 592.17c0.277-30.242-6.867-58.473-24.277-83.374-29.548-42.242-78.172-41.964-107.581 0.139-33.71 48.207-34.057 118.402-0.832 166.54 30.658 44.392 81.432 43.698 110.633-1.803 15.884-24.762 22.612-52.23 22.057-81.501zM448.568 592.864c1.734-37.525-7.283-70.889-34.889-97.246-25.942-24.832-57.224-24.762-83.374-0.555-48.415 44.808-49.317 149.060-1.595 194.215 26.913 25.525 58.819 26.011 85.455 0.416 27.468-26.566 36.207-60.137 34.404-96.83z" />
<glyph unicode="&#xe911;" glyph-name="bb-skratta" horiz-adv-x="1042" d="M519.384-39.924c-254.128-20.017-490.059 218.434-488.239 484.18 1.75 262.876 224.523 485.019 488.519 487.399 219.973 1.96 504.966-189.319 485.509-527.222-12.038-209.545-216.614-463.743-485.789-444.356zM520.574 847.529c-223.473 0.49-406.493-181.62-405.653-405.233 0.77-213.745 166.082-402.923 403.763-404.043 226.272-1.12 405.863 176.231 405.373 404.743-0.56 236.631-188.689 402.643-403.483 404.533zM519.174 103.482c-155.024 3.569-248.249 108.622-262.246 244.819-1.89 18.127 4.269 20.787 21.067 15.607 160.553-49.902 321.387-49.202 482.010-0.49 17.287 5.249 22.676 1.26 21.416-15.747-8.539-115.761-89.305-222.283-217.944-239.71-14.698-2.030-29.535-3.010-44.303-4.479zM674.898 513.124c-19.527 1.19-38.004-4.619-56.901-7.839-21.696-3.639-29.815 5.389-24.566 26.106 12.388 48.992 63.13 75.727 110.092 58.37 28.415-10.498 53.051-26.456 73.068-49.202 6.439-7.279 12.528-15.607 7.489-25.896-4.689-9.448-14.488-9.098-23.096-8.539-28.765 1.89-57.39 4.549-86.086 6.999zM445.406 523.342c0.42-13.018-5.669-21.486-18.757-17.917-49.412 13.508-98.544 2.87-147.815 0.56-9.378-0.42-20.507-1.54-24.846 9.588-4.129 10.428 3.149 18.197 9.448 25.476 24.216 27.785 54.801 45.702 90.215 54.451 39.263 9.798 92.805-33.105 91.755-72.158z" />
<glyph unicode="&#xe912;" glyph-name="bb-sorgligt" horiz-adv-x="1037" d="M1011.927 444.928c8.215-137.448-45.221-252.392-139.948-348.191-105.658-106.801-235.39-145.52-386.268-142.949-221.317 3.786-464.708 212.458-464.708 494.855 0 269.466 229.103 498.069 499.713 498.498 266.18 0.429 512.643-236.604 491.211-502.213zM518.501 861.701c-228.532-0.929-414.415-187.669-412.2-415.487 2.143-221.888 175.239-411.057 413.986-410.557 232.175 0.429 411.915 181.811 411.915 412.343-0.071 241.391-192.313 412.7-413.701 413.701zM518.572 447.071c133.304 7.287 224.746-102.086 231.104-205.529 1.357-22.146-4.143-25.361-25.218-19.074-135.948 40.291-272.395 40.006-408.7 0.714-26.147-7.572-31.433-3.215-27.29 24.932 19.288 132.733 129.232 206.672 230.104 198.956zM904.412 471.575c-0.357-32.076-17.145-55.151-41.863-59.365-30.076-5.144-55.793 8.501-65.866 37.219-12.43 35.362-5.501 72.296-6.215 108.515-0.143 7.215 4.786 10.43 12.43 10.501 34.219 0.357 95.513-51.436 100.728-85.583 0.714-4.358 0.643-8.858 0.786-11.287zM286.826 472.218c0-12.43 0.786-24.932-0.143-37.362-2.143-29.218-19.431-54.722-41.934-59.294-22.36-4.572-44.506-4.715-60.008 17.36-15.645 22.217-16.359 53.936-0.286 77.797 20.431 30.29 51.221 45.792 84.44 57.651 12.502 4.429 18.788-0.214 18.788-13.359 0.071-14.216 0-28.504 0-42.72-0.286-0.071-0.572-0.071-0.857-0.071zM688.096 596.592c-19.217 3.143-41.72-1.786-64.438-6.215-26.075-5.072-35.505 6.287-26.861 31.076 18.503 53.15 69.653 74.939 120.302 51.007 25.932-12.287 50.007-27.575 67.224-51.15 13.145-18.003 7.144-31.79-15.216-31.719-25.646 0.071-51.221 4.215-81.011 7.001zM355.835 682.604c42.863-0.214 80.154-31.076 86.869-65.081 4.358-22.003-3.929-32.576-24.932-27.29-42.577 10.716-84.44 7.144-126.661-0.429-5.215-0.929-10.644-1-15.931-0.929-9.787 0.143-20.646-0.429-26.004 9.644-6.358 11.859 2.215 20.646 9.501 28.075 29.075 29.79 62.080 52.793 97.156 56.008z" />
<glyph unicode="&#xe913;" glyph-name="bb-spoken" horiz-adv-x="750" d="M406.304 34.216c25.295-11.925 47.265-25.006 70.897-32.883 47.265-15.827 83.617 2.385 96.12 50.589 6.999 25.531 11.020 54.847 11.020 85.101 0 3.849-0.065 7.683-0.194 11.501l0.015-0.555c-2.168 56.371-59.117 96.12-121.848 94.457-80.148-2.096-160.513-3.469-240.516 0.867-38.737 2.096-77.835 14.96-114.91 28.113-67.501 23.705-79.208 85.713-90.121 145.986-1.156 6.887-1.816 14.821-1.816 22.91s0.66 16.023 1.93 23.752l-0.114-0.843c5.131 36.713 43.362 61.141 76.462 45.603 11.563-5.565 21.898-25.801 23.271-40.255 4.77-49.505 25.801-74.728 75.45-76.101 25.914 0.557 50.745 4.082 74.511 10.25l-2.241-0.494c19.802 3.975 26.668 20.163 20.669 37.292-6.997 18.737-16.174 34.942-27.478 49.403l0.304-0.404c-42.856 56.949-80.726 116.211-86.725 189.421-4.77 61.358 21.248 107.972 74.728 139.482 47.482 28.041 96.409 39.821 144.541 4.842 42.206-30.643 63.237-77.691 85.424-123.221 6.909-16.337 14.604-30.33 23.529-43.418l-0.547 0.851c17.923-23.343 37.508-24.427 60.852-6.215 53.047 41.266 56.732 104.648 9.829 152.924-15.993 16.22-30.73 33.779-43.995 52.457l-0.885 1.312c-13.081 19.224-20.019 41.194-3.903 62.948 14.237 19.368 54.564 34.039 75.45 22.187 25.067-13.568 46.307-30.842 63.85-51.369l0.254-0.304c83.4-105.659 97.204-225.050 57.021-350.439-17.779-55.431-16.116-109.201-10.551-165.355 11.057-111.007 0.723-220.136-46.904-322.832-20.669-44.446-51.312-83.256-101.179-95.831-16.405-4.589-35.243-7.227-54.698-7.227-13.598 0-26.896 1.289-39.776 3.751l1.317-0.21c-37.653 8.311-52.83 42.278-59.045 81.955zM459.206 511.201c0.723 32.305-40.688 86.725-72.27 94.385-20.163 5.059-30.787-4.047-29.848-25.584 1.301-32.522 37.942-80.798 69.018-90.988 20.091-6.504 32.666 1.951 33.1 22.187zM400.306 690.72c0.506 26.523-22.982 61.213-37.725 59.479-6.657-2.67-11.604-8.356-13.197-15.32l-0.028-0.146c-2.457-19.947 20.814-54.853 36.135-54.347 6.143 0.217 11.997 8.167 14.815 10.335zM304.62 636.373c0 26.090-23.271 60.635-37.87 58.539-5.059-0.723-11.852-11.852-12.141-18.501-1.012-21.681 23.994-55.359 38.303-52.252 5.637 1.156 9.612 9.829 11.708 12.214z" />
<glyph unicode="&#xe914;" glyph-name="bb-tankar" horiz-adv-x="1047" d="M553.49 327.809c-167.212 4.278-298.135 28.84-413.642 107.32-24.857 16.891-48.607 37.175-68.301 59.819-89.986 103.853-77.669 229.391 30.020 321.517 82.389 70.514 180.268 106.582 285.522 123.178 170.163 26.775 335.015 11.064 487.254-75.308 37.765-21.39 72.284-51.263 102.378-82.832 78.259-82.315 70.44-215.967-11.433-296.586-69.334-68.227-152.755-109.311-245.618-130.406-64.318-14.678-130.48-21.169-166.18-26.701zM313.182 112.875c-34.667 0.811-77.447 9.736-113.811 38.429-45.067 35.552-44.477 86.003 0.885 121.113 64.318 49.861 182.333 50.304 247.020 0.885 46.911-35.847 47.427-86.446 1.254-122.883-30.463-23.972-75.825-37.617-135.348-37.543zM171.122-27.858c-21.464 8.851-43.149 14.236-60.556 25.89-20.358 13.645-18.735 34.298-0.295 51.041 28.324 25.816 93.822 26.258 123.326 0.811 19.399-16.67 20.8-39.461-0.59-53.033-17.776-11.211-39.609-16.080-61.884-24.709z" />
</font>
</defs>
</svg>
