<?xml version="1.0" encoding="utf-8"?>
<!-- Generator: Adobe Illustrator 24.2.0, SVG Export Plug-In . SVG Version: 6.00 Build 0)  -->
<svg version="1.1" id="Lager_1" xmlns="http://www.w3.org/2000/svg" xmlns:xlink="http://www.w3.org/1999/xlink" x="0px" y="0px"
	 viewBox="0 0 39.69 39.69" style="enable-background:new 0 0 39.69 39.69;" xml:space="preserve">
<style type="text/css">
	.st0{clip-path:url(#SVGID_2_);}
	.st1{clip-path:url(#SVGID_4_);fill:#FFFFFF;}
	.st2{clip-path:url(#SVGID_4_);fill:#E6007E;}
	.st3{clip-path:url(#SVGID_2_);fill:#F088B6;}
</style>
<g>
	<defs>
		<path id="SVGID_1_" d="M0.13,21.57C-0.83,10.68,7.23,1.08,18.12,0.13c10.89-0.95,20.49,7.1,21.44,17.99
			c0.95,10.89-7.1,20.49-17.99,21.44C10.68,40.51,1.08,32.46,0.13,21.57z"/>
	</defs>
	<use xlink:href="#SVGID_1_"  style="overflow:visible;fill-rule:evenodd;clip-rule:evenodd;fill:#F8C9DF;"/>
	<clipPath id="SVGID_2_">
		<use xlink:href="#SVGID_1_"  style="overflow:visible;"/>
	</clipPath>
	<g class="st0">
		<defs>
			<path id="SVGID_3_" d="M5.6,16.19c-0.71-0.3-0.26-1.23,0.52-0.75c1.47,0.91,4.6,0.71,8.2,0.26c0.69-0.09,2.06-0.49,5.32-0.64
				c6.44-0.79,7.79,2.1,14.11-0.07c0.71-0.52,1.35,0.15,0.67,0.67c-0.81,0.63-1.29,1.16-2.1,1.8c-1.97,1.57-2.79,2.75-4.19,4.79
				c-1.67,2.42-0.71,3.82-8.46,4.49c-7.69,0.67-7.6-3.33-10.63-6.89C7.73,18.32,7.4,17.61,5.6,16.19z"/>
		</defs>
		<use xlink:href="#SVGID_3_"  style="overflow:visible;fill-rule:evenodd;clip-rule:evenodd;fill:#C3006B;"/>
		<clipPath id="SVGID_4_">
			<use xlink:href="#SVGID_3_"  style="overflow:visible;"/>
		</clipPath>
		<path class="st1" d="M31.01,16.47c-0.24,0.58-0.78,0.66-1.38,0.6c-0.57-0.03-0.4-0.98-0.64-1.33c0.66-0.18,1.36-0.07,1.99-0.34
			C31.07,15.64,31.04,16.23,31.01,16.47z"/>
		<path class="st1" d="M28.55,15.74c0.09,0.57,0.45,1.44,0.21,2.01c-0.16,0.51-1.36,0.81-1.75,0.46c-0.15-0.18-0.34-1.77-0.37-2.28
			C27.27,15.86,27.86,15.68,28.55,15.74z"/>
		<path class="st1" d="M12.67,16.26c-0.36,0.39-0.6,1.78-1.35,1.54c-0.48-0.18-1.02-0.3-1.29-0.84c-0.06-0.3,0.12-0.51,0.21-0.78
			C11.1,15.89,11.9,16.32,12.67,16.26z"/>
		<path class="st1" d="M26.38,18.66c-0.41,0.67-2.02,0.9-2.51,0.49c-0.45-0.56-0.32-1.7-0.53-2.6c0.15-0.06,2.24-0.28,2.78-0.25
			C26.11,16.3,26.79,18.13,26.38,18.66z"/>
		<path class="st1" d="M22.78,19.52c-0.64,0.34-2.23,0.62-2.68,0.08c-0.45-0.84-0.24-2.09-0.24-3.08c0.84-0.15,2.19,0.14,3-0.04
			C22.89,17.65,23.46,19.03,22.78,19.52z"/>
		<path class="st1" d="M15.93,16.67c-0.27,0.78-0.45,2.34-1.35,2.4c-0.79,0.04-1.46-0.15-2.02-0.78c-0.27-0.57,0.49-1.44,0.64-1.95
			C13.41,16.19,16.02,16.55,15.93,16.67z"/>
		<path class="st1" d="M19.26,16.71c0.03,0.75,0.08,2.54-0.34,3.11c-0.75,0.36-2.25,0.22-2.73-0.34c-0.45-0.69-0.1-2.02,0.11-2.77
			C16.31,16.56,19.26,16.44,19.26,16.71z"/>
		<path class="st2" d="M21.88,20.66c3.87-1.98,7.75,1.73,7.53,2.94c-0.3-0.05-8.59,9.36-19.32-0.75c0.52-0.5,1.76-3.02,5.69-2.67
			C17.1,20.34,18.41,22.43,21.88,20.66z"/>
		<path class="st1" d="M30.64,20.57c-0.36,0.54-1.42,1.54-1.83,2.02c-0.21-0.3-1.34-1.29-1.4-1.44c-0.21-0.43,0.73-1.48,1.63-1.44
			C29.43,19.85,30.28,20.3,30.64,20.57z"/>
		<path class="st1" d="M11.85,21.06c0,0.15-1.64,1.72-1.76,1.9c-0.27-0.48-0.98-1.09-1.31-1.57c0.21-0.45,1.11-0.98,1.5-1.16
			C10.82,20.17,11.58,20.61,11.85,21.06z"/>
		<path class="st1" d="M13.8,22.66c-0.18,0.27-1.12,2.14-1.24,2.47c-0.3-0.09-1.71-1.47-1.95-1.65c-0.18-0.51,1.12-1.62,1.36-1.86
			C12.35,21.4,13.61,21.5,13.8,22.66z"/>
		<path class="st1" d="M28.43,22.81c-0.33,0.51-1.63,2.06-1.87,2.36c-0.21-0.42-1-1.39-1.42-2.21c-0.18-0.42,0.41-1.34,1.65-1.57
			C27.39,21.28,28.17,22.54,28.43,22.81z"/>
		<path class="st1" d="M16.08,23.37c0.11,0.52-0.61,2.77-0.52,2.77c-0.09,0.21-2.52-0.71-2.58-0.71c0.12-0.66,0.82-2.08,1.12-2.62
			C14.55,22.51,15.91,22.59,16.08,23.37z"/>
		<path class="st1" d="M25.96,25.13c-0.93,0.48-2.2,1.06-3.22,1.24c-0.03-0.72-0.6-2.4-0.41-2.66c0.41-0.6,1.99-0.88,2.47-0.67
			C25.04,23.13,25.96,24.92,25.96,25.13z"/>
		<path class="st1" d="M19.11,24.12c0.16,0.82-0.06,1.98,0,2.55c-0.99,0-2.26-0.13-3.22-0.22c0.24-0.09,0.26-2.25,0.64-2.69
			C16.87,23.22,18.94,23.21,19.11,24.12z"/>
		<path class="st1" d="M21.93,23.98c0.24,0.48,0.29,1.92,0.44,2.43c-0.87,0.15-2.02,0.49-2.88,0.49c0.18-0.75-0.15-2.7,0.11-3.07
			C19.93,23.36,21.6,23.23,21.93,23.98z"/>
	</g>
	<path class="st3" d="M24.35,14.53c2.67,1.28,5.76,1.39,5.55,1.24C18.63,18.06,9.75,16.19,9.6,16.04c0.81,0.09,3.59,0.11,6.36-1.38
		C17.12,14.03,22.36,13.58,24.35,14.53z"/>
	<path class="st3" d="M11.81,23.94c3.67,1.38,9.66,2.85,15.54-0.41c-0.85,2.96-3.14,4.53-7.49,4.46
		C15.26,28.05,12.99,26.58,11.81,23.94z"/>
</g>
</svg>
