<?xml version="1.0" encoding="utf-8"?>
<!-- Generator: Adobe Illustrator 24.2.0, SVG Export Plug-In . SVG Version: 6.00 Build 0)  -->
<svg version="1.1" id="Lager_1" xmlns="http://www.w3.org/2000/svg" xmlns:xlink="http://www.w3.org/1999/xlink" x="0px" y="0px"
	 viewBox="0 0 39.69 39.69" style="enable-background:new 0 0 39.69 39.69;" xml:space="preserve">
<style type="text/css">
	.st0{clip-path:url(#SVGID_2_);}
	.st1{clip-path:url(#SVGID_4_);fill-rule:evenodd;clip-rule:evenodd;fill:#F18700;}
</style>
<g>
	<defs>
		<path id="SVGID_1_" d="M0.13,21.57C-0.83,10.68,7.23,1.08,18.12,0.13c10.89-0.95,20.49,7.1,21.44,17.99
			c0.95,10.89-7.1,20.49-17.99,21.44C10.68,40.51,1.08,32.46,0.13,21.57z"/>
	</defs>
	<use xlink:href="#SVGID_1_"  style="overflow:visible;fill-rule:evenodd;clip-rule:evenodd;fill:#FFCC00;"/>
	<clipPath id="SVGID_2_">
		<use xlink:href="#SVGID_1_"  style="overflow:visible;"/>
	</clipPath>
	<g class="st0">
		<defs>
			<path id="SVGID_3_" d="M20.74,10.23c0.4,1.02,3.28-2.44,4.9-3.53c0.16-0.09,0.53-0.13,0.5,0.43c-0.11,1.42-0.79,4.64-0.24,4.58
				c1.98-0.54,2.96-0.78,4.84-1.21c0.41-0.09,0.57,0.27,0.45,0.52c-0.53,0.88-2.04,3.45-2.16,3.82c-0.09,0.31,3.51,0.22,4.61,0.34
				c0.31,0.04,0.6,0.27,0.17,0.74c-0.4,0.55-2.4,2.23-3.09,3.13c-0.39,0.38,2.21,1.22,3.48,1.98c0.34,0.15,0.56,0.56,0,0.81
				c-1.61,0.71-3.31,1.14-4.87,1.87c-0.42,0.12,0.82,2.39,1.42,4.33c0.16,0.91,0.06,1.26-0.69,1c-1.36-0.44-4.95-2.69-4.99-1.97
				c-0.43,2.29-0.3,4.4-0.58,5.39c-0.04,0.99-0.69,0.28-0.69,0.28c-0.9-1.27-3.23-4.24-3.73-4.18c-0.6,0.08-3.51,4.18-3.51,4.18
				c-0.82,1.33-1.41,0.77-1.47-0.03c-0.22-1.28,0.4-6.3-1.13-5.52c-1.54,0.96-2.63,1.66-3.97,2.6c-0.79,0.46-1.43,0.05-1.07-0.72
				c0.75-1.44,1.16-3.01,1.98-4.42c0.5-0.91-0.02-0.9-0.48-0.92c-1.64-0.09-1.8-0.15-3.53-0.21c-1.16,0-1.36-0.74-0.37-1.45
				c1.49-1.1,1.94-1.26,3.31-2.52c0.52-0.5-2.48-2.35-3.73-3.39c-0.05-0.09-0.54-0.48,0.45-0.71c1.09-0.25,3.96-0.7,4.65-0.95
				c0.39-0.08-0.33-3.19-0.59-5c-0.05-0.32,0-1.04,0.96-0.63c0.57,0.26,3.27,1.3,4.4,1.9c0.59,0.25,0.83-1.72,1.51-3.67
				c0.39-1.27,0.92-1.69,1.59-0.22C19.44,7.71,20.41,9.67,20.74,10.23z"/>
		</defs>
		<use xlink:href="#SVGID_3_"  style="overflow:visible;fill:#E30613;"/>
		<clipPath id="SVGID_4_">
			<use xlink:href="#SVGID_3_"  style="overflow:visible;"/>
		</clipPath>
		<path class="st1" d="M15.94,17.61c0.01-0.35-0.61-0.17-0.62,0.04c-0.03,0.22,0.01,0.41,0.01,0.41c-0.41-0.27-0.83-0.31-1.41-0.11
			c-1.09,0.38-1.72,1.39-1.6,2.6c0.04,0.41,0.17,0.73,0.37,0.94c0.23,0.23,0.51,0.3,1.12,0.27c1.1-0.05,1.1-0.05,1.32-0.03
			c0.23,0.02,0.35,0.15,0.38,0.42c0.04,0.47-0.26,0.89-0.77,1.07c-0.49,0.17-1.01,0.08-1.27-0.24c-0.13-0.15-0.16-0.16-0.29-0.6
			c-0.03-0.33-0.76-0.22-0.68,0.21c0.02,0.21,0.18,1.74,0.18,1.74c-0.03,0.38,0.62,0.08,0.59-0.12c0.03-0.11,0.07-0.35,0.07-0.35
			c0.46,0.31,0.95,0.34,1.59,0.12c1.09-0.38,1.7-1.36,1.58-2.57c-0.07-0.72-0.36-1.13-0.87-1.23c-0.31-0.06-0.49-0.05-1.4,0.02
			c-0.72,0.06-0.96-0.03-1-0.41c-0.05-0.47,0.29-0.93,0.79-1.1c0.47-0.16,0.92-0.05,1.19,0.31c0.14,0.18,0.19,0.25,0.26,0.62
			c0,0.33,0.73-0.02,0.65-0.21C16.1,19.22,15.94,17.61,15.94,17.61z"/>
		<path class="st1" d="M19.08,21.04c0.03,0.33-0.23,0.74-0.55,0.85c-0.22,0.08-0.4-0.06-0.42-0.35c-0.03-0.31,0.04-0.45,0.38-0.71
			c0.12-0.09,0.14-0.1,0.53-0.44L19.08,21.04z M20.46,20.53c0.02,0.14,0.03,0.29,0.03,0.29c0.03,0.29,0,0.41-0.21,0.48
			c-0.1,0.01-0.14-0.03-0.16-0.25l-0.19-1.94c-0.1-1.01-0.57-1.26-1.66-0.88c-0.3,0.11-0.55,0.24-0.71,0.37
			c-0.38,0.31-0.58,0.76-0.53,1.22c0.04,0.42,0.31,0.65,0.63,0.54c0.28-0.1,0.46-0.43,0.43-0.77c-0.02-0.25-0.13-0.37-0.36-0.41
			c0.13-0.13,0.2-0.18,0.39-0.24c0.48-0.17,0.78-0.02,0.82,0.4c0.03,0.36-0.09,0.56-0.57,0.87c-0.63,0.41-0.64,0.42-0.8,0.56
			c-0.34,0.29-0.49,0.73-0.44,1.26c0.07,0.7,0.48,1.02,1.07,0.82c0.45-0.16,0.77-0.49,1.01-1.01c0.19,0.39,0.46,0.5,0.92,0.34
			c0.77-0.28,0.9-0.7,0.82-1.51l-0.03-0.27C20.91,20.06,20.42,20.21,20.46,20.53z"/>
		<path class="st1" d="M22.18,16.98c-0.15,0.07-1.06,0.36-1.06,0.36c-0.44,0.13-0.38,0.94,0.18,0.67c0.18-0.06,0.25,0.02,0.28,0.31
			l0.19,1.96c0.03,0.29-0.02,0.41-0.21,0.48c-0.42,0.07-0.29,0.89,0,0.74c0.21-0.07,1.56-0.55,1.56-0.55
			c0.25-0.08,0.24-0.93-0.07-0.71c-0.18,0.06-0.25-0.02-0.28-0.31l-0.13-1.32c-0.03-0.34-0.02-0.58,0.04-0.75
			c0.07-0.23,0.27-0.44,0.49-0.51c0.36-0.12,0.52,0.06,0.58,0.67l0.15,1.53c0.03,0.29-0.02,0.41-0.21,0.48
			c-0.31,0.11-0.16,0.82,0.11,0.69c0.12-0.04,1.6-0.55,1.6-0.55c0.21-0.07,0.21-0.88-0.21-0.66c-0.19,0.07-0.26-0.02-0.29-0.31
			l-0.19-1.95c-0.07-0.77-0.52-1.1-1.17-0.87c-0.48,0.17-0.73,0.43-1.07,1.16C22.47,17.52,22.5,16.8,22.18,16.98z"/>
		<path class="st1" d="M26.64,14.14c0.01-0.48-0.74-0.22-0.62,0.31c-0.01,0.72-0.25,1.22-0.73,1.51c-0.3,0.11-0.2,0.78,0.17,0.6
			c0.09-0.04,0.37-0.13,0.37-0.13l0.24,2.47c0.07,0.71,0.44,0.96,1.07,0.77c0.74-0.22,0.98-0.75,0.91-1.47L28,17.74
			c-0.02-0.46-0.63-0.27-0.56,0.17c0.02,0.2,0.03,0.38,0.03,0.38c0.03,0.35-0.03,0.53-0.2,0.59c-0.13,0.05-0.2-0.06-0.23-0.38
			l-0.24-2.41l0.65-0.24c0.35-0.12,0.29-0.88-0.08-0.69c-0.16,0.06-0.64,0.22-0.64,0.22L26.64,14.14z"/>
	</g>
</g>
</svg>
