<?xml version="1.0" encoding="utf-8"?>
<!-- Generator: Adobe Illustrator 24.2.0, SVG Export Plug-In . SVG Version: 6.00 Build 0)  -->
<svg version="1.1" id="Lager_1" xmlns="http://www.w3.org/2000/svg" xmlns:xlink="http://www.w3.org/1999/xlink" x="0px" y="0px"
	 viewBox="0 0 39.69 39.69" style="enable-background:new 0 0 39.69 39.69;" xml:space="preserve">
<style type="text/css">
	.st0{clip-path:url(#SVGID_2_);}
	.st1{clip-path:url(#SVGID_4_);}
	.st2{clip-path:url(#SVGID_6_);fill:#FFFFFF;}
	.st3{clip-path:url(#SVGID_8_);fill:#FFFFFF;}
	.st4{clip-path:url(#SVGID_10_);fill-rule:evenodd;clip-rule:evenodd;fill:#F08050;}
	.st5{clip-path:url(#SVGID_12_);fill-rule:evenodd;clip-rule:evenodd;fill:#FFFFFF;}
	.st6{clip-path:url(#SVGID_2_);fill-rule:evenodd;clip-rule:evenodd;fill:#A84C4A;}
	.st7{clip-path:url(#SVGID_2_);fill-rule:evenodd;clip-rule:evenodd;fill:#AA9782;}
	.st8{clip-path:url(#SVGID_14_);}
	.st9{clip-path:url(#SVGID_14_);fill-rule:evenodd;clip-rule:evenodd;fill:#785F4B;}
</style>
<g>
	<g>
		<defs>
			<path id="SVGID_1_" d="M2.34,10.55C7.48,0.9,19.47-2.76,29.12,2.37c9.66,5.13,13.32,17.11,8.19,26.76
				c-5.13,9.65-17.12,13.31-26.78,8.18C0.74,32.11-2.66,19.96,2.34,10.55z"/>
		</defs>
		<use xlink:href="#SVGID_1_"  style="overflow:visible;fill-rule:evenodd;clip-rule:evenodd;fill:#A7D5C2;"/>
		<clipPath id="SVGID_2_">
			<use xlink:href="#SVGID_1_"  style="overflow:visible;"/>
		</clipPath>
		<g class="st0">
			<defs>
				<path id="SVGID_3_" d="M28.38,35.86c3.2-1.57,0.96-2.36,1.26-4.12c0.36-1.93,2.23-3.11,1.61-4.99
					c-0.41-1.27-1.68-2.14-2.21-2.61c-0.03-0.02,0.7-1.62,0.48-2.3c-0.34-1.06-2.17-1.1-3.23-0.75c-1.13,0.37-1.1,1.38-1.62,2.4
					c-0.09,0.18-3.59,1.39-4.56,2.61c0,0-1-0.85-2.1-0.49c-1.23,0.4-2.2,1.62-1.8,2.86c0.3,0.92,1.74,1.1,1.86,1.06
					c0.06-0.02,0.51,3.39,2.44,4.27c1.49,0.68,2.85-0.02,4.35,0.63C26.25,35.01,26.28,36.89,28.38,35.86z"/>
			</defs>
			<use xlink:href="#SVGID_3_"  style="overflow:visible;fill-rule:evenodd;clip-rule:evenodd;fill:#FFFFFF;"/>
			<clipPath id="SVGID_4_">
				<use xlink:href="#SVGID_3_"  style="overflow:visible;"/>
			</clipPath>
			<g class="st1">
				<defs>
					<path id="SVGID_5_" d="M17.84,29.65c1.5-0.46,3.27,0.17,4.45,1.2c1.18,1.03,2.01,0.58,2.46,2.08c0.22,0.71-0.36,1.73-0.32,2.47
						l1.19,0.46c-0.08-1.31-0.09-2.19,0.81-3.14c-0.91-1.55-1.35-2-2.27-3.12c-0.51-0.61-1.97-2.06-2.61-2.67
						c-0.67-0.64-0.72-1.81-0.54-2.74c0.16-0.85-3.66-0.12-4.49,0.13c-1.39,0.43-1.77,3.31-1.35,4.71
						C15.43,29.84,16.98,29.91,17.84,29.65z"/>
				</defs>
				<use xlink:href="#SVGID_5_"  style="overflow:visible;fill-rule:evenodd;clip-rule:evenodd;"/>
				<clipPath id="SVGID_6_">
					<use xlink:href="#SVGID_5_"  style="overflow:visible;"/>
				</clipPath>
				<path class="st2" d="M24.25,30.48c0.19,0.15,0.33,0.24,0.16,0.53c-0.1,0.09-0.18,0.17-0.39,0.21c-0.18-0.01-0.28-0.01-0.41-0.18
					c-0.14-0.18-0.11-0.22-0.05-0.33C23.75,30.33,24.03,30.36,24.25,30.48z"/>
			</g>
			<g class="st1">
				<defs>
					<path id="SVGID_7_" d="M23.32,23.74c1.52,0.37,1.53,2.3,1.9,3.48c0.63,2.05,1.11,3.14,1.81,5.17c1.22-0.37,2.3,0.09,3.14,0.92
						l0.39-0.2c-0.06-0.21,0.24,0.08,0.19-0.13c-0.47-1.79-2.67-1.42-2.69-2.06c-0.08-3.16-0.7-4.62,0.05-5.7
						c0.91-1.31,2.78-2.38,2.32-3.89c-0.33-1.07-2.21-1.21-3.28-0.88C25.47,20.97,21.62,23.33,23.32,23.74z"/>
				</defs>
				<use xlink:href="#SVGID_7_"  style="overflow:visible;fill-rule:evenodd;clip-rule:evenodd;"/>
				<clipPath id="SVGID_8_">
					<use xlink:href="#SVGID_7_"  style="overflow:visible;"/>
				</clipPath>
				<path class="st3" d="M27.38,29.49c-0.21,0.18-0.25,0.16-0.54,0.16c-0.15-0.05-0.2-0.17-0.17-0.36c0.04-0.19,0.02-0.28,0.28-0.49
					C27.29,28.62,27.66,28.99,27.38,29.49z"/>
			</g>
			<path class="st1" d="M29.27,34.26c0.04,0.37-0.77,1.02-1.48,1.16c-1.02,0.2-1.44-0.57-1.28-1.25
				C26.68,33.46,29.2,32.17,29.27,34.26z"/>
		</g>
		<g class="st0">
			<defs>
				<path id="SVGID_9_" d="M24.44,18.92c1.49,0.87,1.87,0.2,3.35-0.93c0.64-0.49,1.71-0.71,2.43-0.85c0.51-0.14,0.26-0.76,0.44-0.81
					c0.21-0.06,0.03,0.9,0.22,0.8c0.49-0.22,0.31-0.69,0.46-0.83c0.13-0.12,0.12,0.77,0.27,0.63c1.58-1.52,0.19-1.36-0.21-2.05
					c-0.01-0.03,0.54,0.66,1.05,0.29c2.17-1.58,2.88-2.81,2.03-3.82c-1.02-1.21-2.31,0.1-2.32,0.06c-0.54-2.79-2.75-4.94-7.03-2.91
					c0,0-0.63-2.77-2.51-1.41c-0.94,0.68-0.05,1.44-0.38,2.51c-0.4,1.32,0.49,1.37,0.94,1.53c0.03,0.01-2.02,0.02-1.58,1.22
					c-0.08,0.27,0.67-0.77,0.68-0.44c-0.56,0.52-0.64,0.88-0.57,1.1c0.06,0.19,0.96-0.53,1.04-0.37c-0.53,0.43-0.79,0.83-0.71,0.95
					c0.54,0.77,1.3,0.99,1.62,2C24.05,16.85,23.24,18.22,24.44,18.92z"/>
			</defs>
			<use xlink:href="#SVGID_9_"  style="overflow:visible;fill-rule:evenodd;clip-rule:evenodd;"/>
			<clipPath id="SVGID_10_">
				<use xlink:href="#SVGID_9_"  style="overflow:visible;"/>
			</clipPath>
			<path class="st4" d="M28.21,19.12l0.42-1.22c2.18-1.5,1.03-2.1,1.29-2.9c0.9-0.93,0.97-0.69,1.45-1.6
				c0.36-1.26-0.58-1.88-0.86-2.08c-0.86-0.62-1.28,0.54-2.5,0.46c-1-0.58-0.66-1.52-1.7-1.95c-0.69-0.36-1.41-0.19-1.87,0.44
				c-0.61,0.84,0.45,1.51-0.16,2.34c-0.39,0.53-1.02,0.43-1.41,0.96c-0.51,0.7,0.78,1.78,0.66,2.62c-0.19,1.53-0.84,2.5,0.41,3.41
				C25.29,20.56,27.43,20.58,28.21,19.12z"/>
			<path class="st4" d="M25.24,5.13c0.87,0.59,1.38,2.16,0.54,2.79c-2.04,1.53-1.99,2.53-2.24,2.91c-0.41,0.61-1.41,0.22-2.02-0.19
				c-0.46-0.31-0.29-0.87-0.28-1.43c0.03-1.17,0.36-1.87,1.02-2.84C22.97,5.33,24.19,4.43,25.24,5.13z"/>
			<path class="st4" d="M34.67,9.42c-0.96-0.41-2.07,0.41-2.48,1.37c-0.38,0.9,0.67,1.32-0.42,2.77c-0.27,0.37-0.69,1.43-0.02,1.72
				c0.52,0.22,1.2,0.04,1.66-0.28c0.97-0.66,1.37-1.32,1.83-2.4C35.74,11.43,35.83,9.91,34.67,9.42z"/>
		</g>
		<path class="st0" d="M26.99,12.41c0.02,0.38-0.18,0.47-0.32,0.42c-0.19-0.02-0.37-0.03-0.63-0.24c-0.17-0.22-0.27-0.33-0.2-0.65
			c0.07-0.33,0.14-0.34,0.33-0.39C26.79,11.39,26.91,12.04,26.99,12.41z"/>
		<path class="st0" d="M28.71,13.5c-0.42-0.06-0.36,0.03-0.65-0.3c-0.09-0.22,0.11-0.41,0.3-0.59c0.21-0.2,0.38-0.16,0.7-0.12
			C29.6,12.7,29.57,13.32,28.71,13.5z"/>
		<g class="st0">
			<defs>
				<path id="SVGID_11_" d="M28.63,16.11c0.74,0.35-0.33,1.02-1.36,1.65c-0.78,0.47-1.16,1.07-2.14,0.58
					c-0.38-0.19-0.53-0.87-0.73-1.66c-0.26-1.09-0.42-2.29,0.27-1.91c0.41,0.23-0.26,2.11,0.92,2.69
					C26.93,18.27,28.02,15.78,28.63,16.11z"/>
			</defs>
			<use xlink:href="#SVGID_11_"  style="overflow:visible;fill:#A62341;"/>
			<clipPath id="SVGID_12_">
				<use xlink:href="#SVGID_11_"  style="overflow:visible;"/>
			</clipPath>
			<path class="st5" d="M24.29,17.85c0.27-0.77,0.66-0.24,1.44,0.02c0.77,0.25,1.26,0.04,1.01,0.63c-0.12,0.28-0.65,0.55-1.43,0.29
				C24.53,18.54,24.18,18.14,24.29,17.85z"/>
		</g>
		<path class="st6" d="M26.59,14.84c-0.08-0.49,0.12-0.67-0.11-1.1c-0.41-0.47-0.51,0.01-0.47,0.12c0.15,0.4,0.1,0.65,0.3,1.03
			C26.59,15.35,26.59,14.84,26.59,14.84z"/>
		<path class="st6" d="M26.97,15c0.38-0.32,0.4-0.62,0.85-0.79c0.62-0.09,0.39,0.35,0.28,0.4c-0.38,0.21-0.5,0.45-0.9,0.6
			C26.81,15.36,26.97,15,26.97,15z"/>
		<path class="st6" d="M23.81,9.29c0.14,0.18,0.24-0.34,0.33-0.46c0.31-0.45-0.01-1.02-0.46-1.32c-0.11-0.07-0.43-0.34-0.72,0
			c0.02,0.46,0.83,0.31,0.66,0.55c-0.11,0.16-0.31,0.13-0.42,0.29c-0.44,0.65-0.37,0.91-0.22,1.68c0.13,0.26,0.43,0.19,0.46,0.14
			c0.26-0.39-0.49-0.83-0.23-1.23c0.2-0.3,0.16-0.38,0.5-0.54c0,0,0.19-0.17,0.12,0.05C23.82,8.72,23.6,9.09,23.81,9.29z"/>
		<path class="st6" d="M32.44,12.57c0.08-0.13,0.12-0.21,0.2-0.34c0.27-0.47,0.92-0.44,1.39-0.16c0.12,0.07,0.18,0.1,0.29,0.17
			c0,0,0.16,0.26-0.27,0.34c-0.28-0.04-0.38-0.28-0.46-0.15c-0.1,0.16,0.17,0.51,0,0.79c-0.5,0.81-1.5,1.52-1.59,0.97
			c-0.07-0.47,0.8-0.48,1.02-0.9c0.22-0.42,0.26-0.69,0.25-0.91C33.24,12.11,32.48,12.97,32.44,12.57z"/>
		<path class="st7" d="M13.42,9.46c-1.24-0.25-1.96-1.47-2.29-2.71c1.03-2.79,1.21,1.53,2.8,1.1c1.59-0.42,1.88-2.11,1.5-4.25
			c-0.3-2.12,0.91-2.26,1.14-0.93c0.54,1.61,0.26,3.51,1.32,3.39c0.62,0.25,1.42-1.84,1.02-4.09C18.9,0.23,20.2,1.45,20.3,2.01
			c0.28,1.62,0.85,3.37-0.04,4.72C19.17,8.37,16.35,8,15.41,9.62c-0.68,1.16-1.13,2.23-2.46,2.46C11.85,12.27,13.1,10.53,13.42,9.46
			z"/>
		<g class="st0">
			<defs>
				<path id="SVGID_13_" d="M2.28,14.1c0.43,0,0.69,0.02,1.12-0.05c1.83-0.32,3.33-1.24,4.96-2.11C7,10.88,5.72,10.38,4.91,8.86
					C4.29,7.81,5.52,8.02,5.98,7.94c2.25-0.4,3.71,0.94,5.14,2.86c0.09,0.13,3.58-0.85,5.26,0.23c1.35,0.88,0.81,2.72,2.1,3.69
					c1.67,1.26,3.75,1.51,4.12,3.62c0.22,1.27-0.07,2.04-0.44,3.27c-0.31,1.11-2.03,3.32-3.05,2.42c-2.34-2.06-2.1,0.09-3.59-1.47
					c-0.13-0.46-0.02-1.37-0.02-1.37s-1.86-1.92-1.46,0.33c0.09,0.89,0.37,1.28,0.52,2.15c0.2,1.12,0.15,1.86,0.52,2.95
					c-0.36,1.22-2.08-0.9-3.16-1.47c-1.6-0.88-1.98-3.85-3.19-2.48c-0.62,1.41-0.26,5.5-4.05,9.87c-0.44-0.13-0.64-0.77-1.04-1.33
					c-1.46-2.04-2.41-4.58-3.17-7.55c-0.54-2.12-0.33-4.11-0.32-4.76c0.03-1.82,0.42-3.09,0.8-4.86l1.76-0.02"/>
			</defs>
			<use xlink:href="#SVGID_13_"  style="overflow:visible;fill-rule:evenodd;clip-rule:evenodd;fill:#AA856B;"/>
			<clipPath id="SVGID_14_">
				<use xlink:href="#SVGID_13_"  style="overflow:visible;"/>
			</clipPath>
			<path class="st8" d="M14.51,14.17c0.09,0.3,0.05,0.58-0.36,0.71c-0.17,0.01-0.32,0.02-0.59-0.1c-0.19-0.15-0.3-0.22-0.31-0.49
				c-0.01-0.27,0.19-0.41,0.34-0.47C14.09,13.62,14.36,13.89,14.51,14.17z"/>
			<path class="st9" d="M19.02,20.64c0.46,0.79,0.97,0.91,1.16,1.81c0,1.19-0.69,0.63-0.75,0.41c-0.27-0.76-0.66-1.05-0.83-1.84
				C18.43,20.24,19.02,20.64,19.02,20.64z"/>
		</g>
	</g>
</g>
</svg>
