<?xml version="1.0" encoding="utf-8"?>
<!-- Generator: Adobe Illustrator 24.2.0, SVG Export Plug-In . SVG Version: 6.00 Build 0)  -->
<svg version="1.1" id="Lager_1" xmlns="http://www.w3.org/2000/svg" xmlns:xlink="http://www.w3.org/1999/xlink" x="0px" y="0px"
	 viewBox="0 0 39.69 39.69" style="enable-background:new 0 0 39.69 39.69;" xml:space="preserve">
<style type="text/css">
	.st0{clip-path:url(#SVGID_2_);}
	.st1{fill:none;}
	.st2{fill:#009640;}
	.st3{clip-path:url(#SVGID_4_);fill-rule:evenodd;clip-rule:evenodd;fill:#E84E0F;}
</style>
<g>
	<g>
		<defs>
			<path id="SVGID_1_" d="M0.13,21.57C-0.83,10.68,7.23,1.08,18.12,0.13C29-0.83,38.61,7.23,39.56,18.12
				c0.96,10.89-7.1,20.49-17.99,21.44C10.68,40.51,1.08,32.46,0.13,21.57z"/>
		</defs>
		<use xlink:href="#SVGID_1_"  style="overflow:visible;fill-rule:evenodd;clip-rule:evenodd;fill:#F18700;"/>
		<clipPath id="SVGID_2_">
			<use xlink:href="#SVGID_1_"  style="overflow:visible;"/>
		</clipPath>
		<g class="st0">
			<path class="st1" d="M0.46,23.82l17.22-5.51l2.47-0.79l19.14,6c0.33-1.74,0.43-3.55,0.27-5.39C38.61,7.23,29-0.83,18.12,0.13
				C7.23,1.08-0.83,10.68,0.13,21.57C0.19,22.33,0.31,23.08,0.46,23.82z"/>
			<path class="st2" d="M17.68,18.31L0.46,23.82c1.98,9.72,10.99,16.63,21.11,15.74c9.04-0.79,16.12-7.55,17.72-16.05l-19.14-6
				L17.68,18.31z"/>
		</g>
		<g class="st0">
			<defs>
				<path id="SVGID_3_" d="M24.83,10.19c0.22,2.28,0.38,3.26,0.53,5.37c1.17,0.06,5.06,0.39,6.17,0.47
					c0.93,0.04,0.79,0.72,0.86,1.32c0.21,2.65,0.56,8.1,0.5,8.64c-3.68,0.72-22.06,0.87-25.9,0.13c-0.29-3.15,0.14-7.41,0.18-8.16
					c0.07-0.65-0.11-1.43,1.83-1.61c1.93-0.21,4.41-0.32,5.21-0.54c0.29-1.92,0.58-5.22,0.62-5.51c0.02-0.18,0.14-0.93,1.22-0.9
					c1.74-0.31,5.69-0.25,7.87-0.14C24.12,9.37,24.75,9.41,24.83,10.19z"/>
			</defs>
			<use xlink:href="#SVGID_3_"  style="overflow:visible;fill:#FFFFFF;"/>
			<clipPath id="SVGID_4_">
				<use xlink:href="#SVGID_3_"  style="overflow:visible;"/>
			</clipPath>
			<path class="st3" d="M20.44,11.41c0-0.64-0.83-0.71-1.04-0.29c-0.07,0.22-0.22,0.39-0.48,0.48c-0.16,0.06-0.22,0.09-0.45,0.1
				c-0.42,0.03-0.45,0.6,0.03,0.67c0.22,0,0.6-0.01,0.6-0.01v1.9c-0.01,0.53-0.01,0.53-0.07,0.61c-0.04,0.06-0.14,0.09-0.32,0.09
				c-0.46,0.04-0.49,0.68,0.08,0.68c0.23-0.01,1.79,0,1.79,0c0.8,0,0.52-0.7,0.16-0.68c-0.19,0-0.2-0.03-0.24-0.09
				c-0.05-0.08-0.05-0.08-0.06-0.61L20.44,11.41z"/>
			<path class="st3" d="M12.79,21.33c-0.01,0.31-0.2,0.44-0.42,0.44c-0.1,0-0.21-0.01-0.34-0.04c-0.42-0.1-0.71-0.15-0.93-0.15
				c-0.33,0-0.53,0.07-0.84,0.27c0.32-0.43,0.43-0.48,1.52-0.77c0.45-0.12,0.82-0.28,1.03-0.44c0.35-0.26,0.54-0.65,0.54-1.08
				c0-0.87-0.8-1.47-1.96-1.47c-1.15,0-1.95,0.6-1.95,1.45c0,0.5,0.32,0.87,0.75,0.87c0.41,0,0.71-0.29,0.71-0.69
				c0-0.3-0.17-0.48-0.45-0.48c-0.12,0-0.2,0.03-0.35,0.12c0.13-0.36,0.45-0.57,0.88-0.57c0.55,0,0.87,0.26,0.87,0.72
				c0,0.21-0.06,0.38-0.2,0.53c-0.12,0.14-0.28,0.24-0.85,0.55c-1.12,0.62-1.46,0.98-1.45,2.02c0.07,0.33,0.67,0.31,0.75,0
				c0.05-0.13,0.19-0.22,0.32-0.22c0.17,0,0.35,0.05,0.68,0.19c0.53,0.22,0.77,0.28,1.09,0.28c0.54,0,0.99-0.22,1.14-0.66
				c0.1-0.31,0.11-0.47,0.13-0.87C13.46,20.99,12.81,20.91,12.79,21.33z"/>
			<path class="st3" d="M27.81,20.68c0.1,0,0.12,0.01,0.24,0.02c0.41,0.08,0.66,0.35,0.66,0.73c0,0.49-0.4,0.82-1.01,0.82
				c-0.36,0-0.59-0.07-0.78-0.26C26.97,22,27.01,22,27.04,22c0.28,0,0.48-0.23,0.48-0.55c0-0.37-0.28-0.63-0.67-0.63
				c-0.42,0-0.74,0.33-0.74,0.78c0,0.31,0.12,0.55,0.38,0.77c0.38,0.32,1.06,0.52,1.73,0.52c1.19,0,2.03-0.58,2.03-1.41
				c0-0.6-0.41-1-1.17-1.16c0.69-0.2,0.99-0.49,0.99-0.99c0-0.75-0.71-1.21-1.88-1.21c-0.63,0-1.09,0.11-1.45,0.36
				c-0.32,0.22-0.5,0.56-0.5,0.9c0,0.42,0.3,0.75,0.69,0.75c0.36,0,0.65-0.28,0.65-0.62c0-0.26-0.19-0.47-0.43-0.47
				c-0.05,0-0.1,0.01-0.21,0.03c0.19-0.23,0.41-0.32,0.77-0.32c0.53,0,0.88,0.26,0.88,0.65c0,0.42-0.3,0.65-0.8,0.67
				C27.45,20.06,27.44,20.69,27.81,20.68z"/>
		</g>
	</g>
</g>
</svg>
