<?xml version="1.0" encoding="utf-8"?>
<!-- Generator: Adobe Illustrator 24.2.0, SVG Export Plug-In . SVG Version: 6.00 Build 0)  -->
<svg version="1.1" id="Lager_1" xmlns="http://www.w3.org/2000/svg" xmlns:xlink="http://www.w3.org/1999/xlink" x="0px" y="0px"
	 viewBox="0 0 39.69 39.69" style="enable-background:new 0 0 39.69 39.69;" xml:space="preserve">
<style type="text/css">
	.st0{fill-rule:evenodd;clip-rule:evenodd;}
	.st1{fill:none;}
	.st2{fill:#BDC9E8;}
	.st3{fill:#FFFFFF;}
</style>
<g>
	<path class="st0" d="M0.08,21.57C-0.88,10.65,7.2,1.03,18.11,0.08c10.92-0.96,20.54,7.12,21.5,18.04
		c0.96,10.92-7.12,20.54-18.04,21.49C10.66,40.56,1.03,32.49,0.08,21.57z"/>
	<g>
		<path class="st1" d="M33.26,34.09c-1.2-0.14-2.44-0.42-3.58-0.57c-1.13-0.35-2.27-0.78-3.08-1.81c-0.71-0.74-1.56-1.52-1.66-2.62
			l0.11-0.14c-0.85-0.07-1.49,0.03-2.3-0.21c-1.52,2.16-1.49,4.99-2.02,7.54l-0.11,1.1h-0.04l-0.14,1.06h-0.04
			c-0.01,0.4-0.05,0.81-0.1,1.23c0.42-0.01,0.84-0.03,1.26-0.07c4.74-0.41,8.95-2.47,12.11-5.55
			C33.54,34.05,33.39,34.06,33.26,34.09z"/>
		<path class="st1" d="M13.33,27.54c-0.96-1.98-2.97-3.22-4.32-4.85c-1.42-1.81-3.72-3.61-3.58-6.23c0.46-2.19,0.28-4.67,1.31-6.76
			c0.46-0.67,1.35-0.39,1.98-0.6c0.88-0.35,2.12-0.67,2.87,0.04c0.07,0.18,0.21,0.28,0.28,0.46c0,0.07,0,0.14,0.07,0.18l0.78-0.11
			c0.21-2.58,0.53-5.42,0.71-8.07c0.01-0.17,0-0.35-0.01-0.52C4.98,3.94-0.74,12.29,0.08,21.57c0.63,7.25,5.1,13.25,11.22,16.18
			c0.64-1.85,1.29-3.7,1.96-5.53C13.58,30.76,14.21,28.92,13.33,27.54z"/>
		<path d="M34.33,33.4c-3.15,0.04-6.7-0.75-8.06-3.64c0.33-0.27,3.76-0.45,9.76-5.38c0.58-0.39-0.03-1.42-0.49-1.02
			c-2.47,2.17-6.63,4.2-6.63,4.2c-0.5,0.32-3.82,1.58-5.13,0.97c-0.12-0.07,0.21-0.45,0.84-2.17c0.65-3.23-4.02-5.82-3.98-5.93
			c0-0.09,8.5,1.86,9.69,0.18c1.89-4.3-0.83-5.89-2.04-5.97c-1.43-0.1-5.38-0.49-6.12-0.73c-0.08-0.81-0.48-2.06-1.36-2.36
			c-0.93-0.32-1.5,0.04-2.32-0.03c-0.37-1.6-3.41-1.13-3.41-1.13c-0.27-1.08-1.42-1.06-1.84-1.06c0.16-1.91,0.17-6.1,0.5-8.37
			c-0.1,0.03-0.2,0.06-0.3,0.1c0.01,0.18,0.02,0.35,0.01,0.52c-0.18,2.65-0.5,5.49-0.71,8.07l-0.78,0.11
			c-0.07-0.04-0.07-0.11-0.07-0.18c-0.07-0.18-0.21-0.28-0.28-0.46C10.85,8.42,9.61,8.74,8.73,9.1C8.09,9.31,7.21,9.03,6.74,9.7
			c-1.03,2.09-0.85,4.57-1.31,6.76c-0.14,2.62,2.16,4.42,3.58,6.23c1.35,1.63,3.36,2.87,4.32,4.85c0.88,1.38,0.25,3.22-0.07,4.67
			c-0.67,1.83-1.32,3.68-1.96,5.53c0.12,0.06,0.25,0.12,0.37,0.17c0.8-2.3,1.72-4.54,2.34-6.91c0.04-0.64,0.28-1.38,0.14-2.09
			l0.07-0.07c-0.5-2.48-2.73-4.18-4.46-6.02c-1.59-1.95-3.68-3.51-3.86-6.02c0.18-2.27,0.36-3.97,0.89-6.13
			c0.29-1.13,1.93-1.16,2.65-1.37c1.87-0.57,1.95,0.32,1.95,0.32c-0.42,0-1.52,0.15-1.92,1.01c-0.6,1.24-0.71,2.71-0.83,4.08
			c-0.06,0.66,0.69,0.64,0.72,0.26c0.11-0.88,0.32-1.84,0.46-2.73c0.14-0.64,0.21-1.52,1.03-1.81c1.1-0.28,3.35-0.44,3.5,0.21
			c-0.78,0.21-1.63,0.39-2.12,1.24c-0.53,1.35-0.77,2.91-0.91,4.33c0.11,0.51,0.74,0.37,0.78-0.03c0.5-1.81,0.03-4.55,2.57-4.76
			c0.85,0,2.26-0.68,2.99,0.34c-0.62,0.27-2.6,0.19-2.94,1.12c-0.35,1.06-0.7,2.59-0.73,4.07c0.11,0.11,0.6,0.33,0.71-0.02
			c0.18-0.67,0.24-3.91,1.53-4.14c1.26-0.22,2.1-0.27,3.34-0.46c2-0.32,1.47,2.25,1.93,3.39c0.11,0.46,0.01,0.69-0.22,0.8
			c-1.13,0.49-1.5-0.33-1.57-0.69c0-0.25-0.08-0.19,0.06-0.44c0.21-0.21,0.67-0.28,0.64-0.71c-0.14-0.57-1.66,0.25-2.02,0.28
			c0.12-0.88-0.71-0.78-0.78-0.42c-0.18,1.27-0.21,2.62,0.18,3.82c0.75,1.94,5.08,3.54,5.88,7.26c0.25,1.16-2.08,3.09-3.29,10.62
			l-0.48,3.43c0.14,0,0.28,0,0.42,0c0.05-0.41,0.09-0.82,0.1-1.23h0.04l0.14-1.06h0.04l0.11-1.1c0.53-2.55,0.5-5.38,2.02-7.54
			c0.81,0.25,1.45,0.14,2.3,0.21l-0.11,0.14c0.11,1.1,0.96,1.88,1.66,2.62c0.82,1.03,1.95,1.45,3.08,1.81
			c1.13,0.14,2.37,0.42,3.58,0.57c0.13-0.03,0.27-0.04,0.42-0.04C33.9,33.84,34.12,33.62,34.33,33.4z M24.3,19.86
			c-0.53,0-1.1-0.07-1.59-0.14c0.04-0.64-0.04-1.27,0.07-1.91c0.6-0.03,1.06,0.18,1.67,0.18C24.41,18.65,24.41,19.22,24.3,19.86z
			 M26.11,20.07c-0.5,0.04-0.85-0.14-1.35-0.14c0-0.71,0.07-1.17,0.11-1.88c0.58,0.07,1.03,0.09,1.38,0.21
			C26.25,18.9,26.17,19.45,26.11,20.07z M29.33,20.11c-0.39,0.14-0.65,0.17-1.04,0.1c0.01-0.65,0-1.08,0.09-1.84
			c0.6-0.04,1.1,0.11,1.59,0.04C29.83,18.97,29.86,19.72,29.33,20.11z M29.54,16.24c0.5,0.5,0.67,0.91,0.53,1.62
			c-0.38,0.02-0.8-0.07-0.8-0.07L29.54,16.24z M26.75,15.42c0.91,0.13,1.62,0.11,2.36,0.5c-0.04,0.74-0.07,1.08-0.28,1.86
			c-0.71-0.04-1.49,0.07-2.23-0.18C26.6,16.79,26.75,15.42,26.75,15.42z M26.71,18.23c0.42,0.07,0.74,0.07,1.2,0.11
			c0.02,0.83-0.09,1.23-0.09,1.9c-0.42,0.07-0.87-0.02-1.29-0.06C26.59,19.49,26.67,18.9,26.71,18.23z M24.05,15.14
			c0.78,0.09,1.54,0.05,2.29,0.26c0,0.78-0.06,1.39-0.16,2.17c-0.75-0.04-1.59-0.14-2.37-0.28C23.73,16.37,24.01,15.99,24.05,15.14z
			 M21.99,14.94l1.63,0.17c0,0.88-0.18,1.33-0.25,2.18c-0.32-0.07-1.14-0.07-1.5-0.21C22.54,16.41,21.95,15.82,21.99,14.94z
			 M21.26,17.52c0.5,0.07,0.64-0.03,1.06,0.21v1.88c-0.39,0.14-1.31-0.11-1.31-0.11C21.15,18.9,21.08,18.12,21.26,17.52z
			 M19.03,18.69c-0.32-0.32-0.53-0.89-0.53-1.45c0.17,0.02,0.37,0.13,0.64,0.07C19.1,17.81,19.1,18.27,19.03,18.69z M18.64,16.73
			c-0.53-0.21-0.31-0.66-0.32-1.26c0.32-0.11,0.67-0.14,0.96-0.32c-0.21,0.5-0.1,1.04,0.07,1.47
			C19.17,16.87,18.97,16.84,18.64,16.73z M19.7,17.24c0.33,0.13,0.67,0.32,1.1,0.29l-0.14,1.88c-0.6-0.04-0.95-0.1-1.31-0.49
			C19.5,18.35,19.46,17.77,19.7,17.24z"/>
		<path class="st2" d="M39.61,18.11C38.65,7.2,29.03-0.88,18.11,0.08c-1.52,0.13-2.99,0.44-4.38,0.89c-0.33,2.27-0.34,6.46-0.5,8.37
			c0.42,0,1.58-0.03,1.84,1.06c0,0,3.04-0.47,3.41,1.13c0.81,0.07,1.38-0.29,2.32,0.03c0.88,0.3,1.28,1.55,1.36,2.36
			c0.74,0.25,4.69,0.63,6.12,0.73c1.2,0.08,3.92,1.68,2.04,5.97c-1.19,1.68-9.69-0.27-9.69-0.18c-0.04,0.11,4.63,2.69,3.98,5.93
			c-0.63,1.72-0.97,2.1-0.84,2.17c1.31,0.6,4.64-0.66,5.13-0.97c0,0,4.16-2.04,6.63-4.2c0.46-0.41,1.07,0.63,0.49,1.02
			c-6,4.93-9.42,5.11-9.76,5.38c1.36,2.89,4.91,3.68,8.06,3.64C38.04,29.43,40.12,23.96,39.61,18.11z M25.23,8.46
			c-1.49,1.8-3.7,2.69-6.04,2.03c-1-0.27-1.5-1.07-1.82-1.78c-0.46-1.42-0.07-2.74,1.1-3.82c0.48-0.51,1.08-1.05,1.71-0.37
			c0.38,0.47-1.64,1.19-1.86,3.14c-0.11,0.99,0.58,1.48,1.46,1.9c1.33,0.35,3.26-0.24,4.43-1.59C24.6,7.5,25.42,8.18,25.23,8.46z"/>
		<path d="M24.2,7.96c-1.16,1.36-3.1,1.95-4.43,1.59c-0.89-0.42-1.57-0.92-1.46-1.9c0.22-1.95,2.24-2.67,1.86-3.14
			c-0.64-0.67-1.24-0.13-1.71,0.37c-1.16,1.09-1.56,2.41-1.1,3.82c0.32,0.71,0.82,1.51,1.82,1.78c2.35,0.66,4.56-0.22,6.04-2.03
			C25.42,8.18,24.6,7.5,24.2,7.96z"/>
		<path class="st2" d="M19.89,39.68l0.48-3.43c1.22-7.53,3.54-9.46,3.29-10.62c-0.8-3.72-5.13-5.32-5.88-7.26
			c-0.39-1.2-0.35-2.55-0.18-3.82c0.07-0.35,0.9-0.45,0.78,0.42c0.35-0.03,1.88-0.85,2.02-0.28c0.04,0.42-0.42,0.5-0.64,0.71
			c-0.14,0.25-0.06,0.19-0.06,0.44c0.07,0.35,0.44,1.18,1.57,0.69c0.23-0.1,0.33-0.33,0.22-0.8c-0.46-1.13,0.08-3.71-1.93-3.39
			c-1.24,0.2-2.08,0.24-3.34,0.46c-1.29,0.22-1.35,3.47-1.53,4.14c-0.11,0.35-0.6,0.13-0.71,0.02c0.04-1.49,0.38-3.01,0.73-4.07
			c0.34-0.93,2.32-0.86,2.94-1.12c-0.73-1.02-2.14-0.34-2.99-0.34c-2.55,0.21-2.08,2.95-2.57,4.76c-0.04,0.4-0.67,0.54-0.78,0.03
			c0.14-1.42,0.38-2.98,0.91-4.33c0.5-0.85,1.35-1.03,2.12-1.24c-0.15-0.66-2.41-0.5-3.5-0.21c-0.81,0.28-0.88,1.17-1.03,1.81
			c-0.14,0.89-0.35,1.84-0.46,2.73c-0.03,0.38-0.78,0.4-0.72-0.26c0.12-1.37,0.23-2.84,0.83-4.08c0.4-0.86,1.49-1.01,1.92-1.01
			c0,0-0.08-0.89-1.95-0.32c-0.71,0.22-2.36,0.25-2.65,1.37c-0.53,2.16-0.72,3.87-0.89,6.13c0.18,2.51,2.27,4.07,3.86,6.02
			c1.73,1.84,3.97,3.54,4.46,6.02l-0.07,0.07c0.14,0.71-0.11,1.45-0.14,2.09c-0.62,2.36-1.54,4.6-2.34,6.91
			C14.19,39.06,16.98,39.69,19.89,39.68z"/>
		<path class="st3" d="M23.38,17.29c0.07-0.85,0.25-1.3,0.25-2.18l-1.63-0.17c-0.04,0.89,0.56,1.48-0.11,2.14
			C22.23,17.22,23.06,17.22,23.38,17.29z"/>
		<path class="st3" d="M26.17,17.57c0.11-0.78,0.16-1.39,0.16-2.17c-0.74-0.21-1.5-0.18-2.29-0.26c-0.04,0.85-0.32,1.23-0.25,2.15
			C24.58,17.43,25.43,17.53,26.17,17.57z"/>
		<path class="st2" d="M19.28,15.15c-0.28,0.18-0.64,0.21-0.96,0.32c0.01,0.6-0.21,1.05,0.32,1.26c0.33,0.11,0.53,0.14,0.71-0.11
			C19.17,16.19,19.06,15.65,19.28,15.15z"/>
		<path class="st3" d="M28.83,17.78c0.21-0.78,0.25-1.12,0.28-1.86c-0.75-0.39-1.46-0.37-2.36-0.5c0,0-0.15,1.37-0.15,2.19
			C27.34,17.85,28.12,17.75,28.83,17.78z"/>
		<path class="st3" d="M30.07,17.85c0.14-0.71-0.04-1.12-0.53-1.62l-0.27,1.54C29.27,17.78,29.69,17.87,30.07,17.85z"/>
		<path class="st3" d="M18.5,17.24c0,0.57,0.21,1.13,0.53,1.45c0.07-0.42,0.07-0.89,0.11-1.38C18.86,17.37,18.66,17.26,18.5,17.24z"
			/>
		<path class="st3" d="M20.8,17.52c-0.42,0.04-0.76-0.15-1.1-0.29c-0.25,0.53-0.2,1.11-0.35,1.68c0.35,0.39,0.71,0.44,1.31,0.49
			L20.8,17.52z"/>
		<path class="st3" d="M22.32,19.61v-1.88c-0.42-0.25-0.56-0.14-1.06-0.21c-0.18,0.6-0.11,1.38-0.25,1.98
			C21.01,19.5,21.93,19.75,22.32,19.61z"/>
		<path class="st3" d="M22.78,17.81c-0.11,0.64-0.04,1.28-0.07,1.91c0.5,0.07,1.06,0.14,1.59,0.14c0.11-0.64,0.11-1.2,0.14-1.88
			C23.84,17.98,23.38,17.77,22.78,17.81z"/>
		<path class="st3" d="M24.76,19.93c0.5,0,0.85,0.18,1.35,0.14c0.05-0.62,0.14-1.17,0.14-1.81c-0.35-0.12-0.8-0.14-1.38-0.21
			C24.84,18.76,24.76,19.22,24.76,19.93z"/>
		<path class="st3" d="M27.83,20.24c0-0.67,0.11-1.07,0.09-1.9c-0.46-0.03-0.78-0.03-1.2-0.11c-0.04,0.67-0.13,1.26-0.18,1.95
			C26.96,20.21,27.4,20.31,27.83,20.24z"/>
		<path class="st3" d="M28.38,18.37c-0.09,0.75-0.08,1.19-0.09,1.84c0.39,0.07,0.65,0.04,1.04-0.1c0.53-0.39,0.5-1.13,0.64-1.7
			C29.47,18.48,28.98,18.32,28.38,18.37z"/>
	</g>
</g>
</svg>
