<?xml version="1.0" encoding="utf-8"?>
<!-- Generator: Adobe Illustrator 24.2.0, SVG Export Plug-In . SVG Version: 6.00 Build 0)  -->
<svg version="1.1" id="Layer_1" xmlns="http://www.w3.org/2000/svg" xmlns:xlink="http://www.w3.org/1999/xlink" x="0px" y="0px"
	 viewBox="0 0 39.69 39.69" style="enable-background:new 0 0 39.69 39.69;" xml:space="preserve">
<style type="text/css">
	.st0{clip-path:url(#SVGID_2_);}
	.st1{fill:#B287B1;}
	.st2{fill:#FFFFFF;}
	.st3{fill:none;stroke:#FFFFFF;stroke-width:0.79;stroke-linecap:round;stroke-linejoin:bevel;}
</style>
<g id="Layer_9">
	<g>
		<defs>
			<circle id="SVGID_1_" cx="19.84" cy="19.84" r="19.84"/>
		</defs>
		<clipPath id="SVGID_2_">
			<use xlink:href="#SVGID_1_"  style="overflow:visible;"/>
		</clipPath>
		<g class="st0">
			<circle cx="19.82" cy="19.85" r="19.84"/>
			
				<ellipse transform="matrix(0.9656 -0.26 0.26 0.9656 -5.6738 8.1871)" class="st1" cx="28.11" cy="25.54" rx="17.89" ry="17.59"/>
			<path d="M22.4,32.96h5.28c2.07,0,3.76,1.68,3.76,3.76v2.21c0,2.07-1.68,3.76-3.76,3.76H22.4c-2.07,0-3.76-1.68-3.76-3.76v-2.21
				C18.64,34.65,20.32,32.96,22.4,32.96z"/>
			<ellipse cx="29.6" cy="26.7" rx="5.25" ry="5.67"/>
			<ellipse class="st2" cx="29.58" cy="24.53" rx="1.93" ry="2.08"/>
			<ellipse cx="18.57" cy="26.7" rx="5.25" ry="5.67"/>
			<ellipse class="st2" cx="18.53" cy="24.61" rx="1.93" ry="2.08"/>
			<path class="st3" d="M16.27,19.98c-3.62,1.51-5.33,5.68-3.82,9.3c0.72,1.73,2.09,3.1,3.82,3.82"/>
			<path class="st3" d="M32.09,20.13c3.63,1.52,5.33,5.69,3.81,9.32c-0.72,1.72-2.09,3.09-3.81,3.81"/>
			<polygon class="st2" points="1.6,11.07 8.36,17.48 3.55,7.17 12.37,16.34 6.99,5 13.41,11.24 10.2,2.93 9.58,1.14 -0.02,9.57 			
				"/>
		</g>
	</g>
</g>
</svg>
