<?xml version="1.0" encoding="utf-8"?>
<!-- Generator: Adobe Illustrator 24.2.0, SVG Export Plug-In . SVG Version: 6.00 Build 0)  -->
<svg version="1.1" id="Lager_1" xmlns="http://www.w3.org/2000/svg" xmlns:xlink="http://www.w3.org/1999/xlink" x="0px" y="0px"
	 viewBox="0 0 39.69 39.69" style="enable-background:new 0 0 39.69 39.69;" xml:space="preserve">
<style type="text/css">
	.st0{fill-rule:evenodd;clip-rule:evenodd;fill:#C8D400;}
	.st1{clip-path:url(#SVGID_2_);fill:#FFFFFF;}
	.st2{clip-path:url(#SVGID_2_);}
</style>
<g>
	<path class="st0" d="M0.08,21.57C-0.88,10.68,7.18,1.08,18.07,0.13c10.89-0.95,20.49,7.1,21.44,17.99
		c0.96,10.89-7.1,20.49-17.99,21.44C10.63,40.51,1.03,32.46,0.08,21.57z"/>
	<g>
		<defs>
			<path id="SVGID_1_" d="M0.08,21.57C-0.88,10.68,7.18,1.08,18.07,0.13c10.89-0.95,20.49,7.1,21.44,17.99
				c0.96,10.89-7.1,20.49-17.99,21.44C10.63,40.51,1.03,32.46,0.08,21.57z"/>
		</defs>
		<clipPath id="SVGID_2_">
			<use xlink:href="#SVGID_1_"  style="overflow:visible;"/>
		</clipPath>
		<path class="st1" d="M19.9,9.37c-1.53-1.7-1.62-3.58-1.55-4.75c0,0,0.11-1.27,1.1,0.32c1.28,1.46,4.09,3.99,4.27,4.23
			c2.35,1.38,15.78,10.67,15.89,11.62C40.77,31,28.4,39.18,24.1,39.17c0.09-3.34,0.1-7.54-0.77-10.61c-0.99-2.71-1.88-4-2.33-4.77
			c1.07-0.74,1.68-2,2.33-3.04c0.24-0.6,0.47-1.05,0.69-1.82c0.13-0.31-0.39-0.4-0.39-0.21c-0.92,2.24-2.6,5.07-5.37,5.1
			c-0.66,0.03-1.22,0.39-1.7,0.86c-1.67,1.4-1.01,4.03-3.19,5.04c-0.66,0.33-1.55,0.66-2.3,0.24c-0.16-0.09-0.55-0.24-0.36-0.33
			c0.16-0.01,0.28,0,0.49-0.08c1.01-0.39,1.98-0.97,2.76-1.75c0.36-0.49-0.01-0.74-0.21-0.57c-1.43,1.31-3.28,2.6-5.19,1.76
			c-1.13-0.39-1.25-2.79-1.43-4.06c-0.21-1.34,1.22-2.03,1.67-3.13c0.72-1.34,1.85-2.6,2.3-4.09C12.53,10.73,19.95,9.75,19.9,9.37z"
			/>
		<path class="st2" d="M18.91,15.75c0.48,0.48-0.05,1.28-0.72,1.01c-0.18-0.03-0.28-0.22-0.36-0.36
			C17.56,15.91,18.41,15.2,18.91,15.75z"/>
		<path class="st2" d="M11,25.65c-0.12,0.15-0.27,0.33-0.48,0.45c-0.18,0.09-0.36-0.03-0.39-0.21c0-0.62,0.33-1.25,0.86-1.55
			C11.52,24.19,11.27,25.29,11,25.65z"/>
		<path class="st2" d="M31.33,12.11c2.59,2.21,4.95,4.62,7.28,7.13c0.78,3.37-2.51,11.52-2.62,11.07c-0.21-1.49,0.49-4.59,0.33-7.22
			c0.17-0.86-0.41-0.84-0.42-0.48c-0.09,2.03-0.27,5.31-1.34,7.1c-0.06,0.12-0.21,0.15-0.3,0.09c-1.1-0.14-0.42-2.48-0.39-2.84
			c0.12-0.92,0.33-2.83,0.33-2.83c0.06-1.22,0.12-2.38,0.15-3.61c0.04-0.22-0.06-0.39-0.24-0.48c-0.39,0.06-0.24,0.63-0.3,0.93
			c0.03,1.55-0.18,3.01-0.24,4.53c-0.21,0.75-0.17,2.44-1.16,2.27c-0.59-0.1-0.45-0.98-0.42-1.46c0.48-1.37,0.58-6.62,0.6-6.68
			c0.26-1.27-0.36-1.07-0.36-0.92c-0.24,2.33-0.18,4.77-0.84,6.92c-0.21,0.84-1.25,0.51-1.46,0.04c-0.28-0.65,0.3-0.78,0.43-4.1
			c0.06-1.55-0.11-3.25-0.08-4.86c0.04-0.21-0.47-0.27-0.46,0.01c0.04,2.09,0.13,3.5-0.04,5.51c-0.13,1.57-0.22,2.26-0.51,2.57
			c-0.18,0.21-0.45,0.36-0.77,0.36c-0.39,0-0.98-0.24-0.94-1.73c0.09-2.24,0.28-3.28,0.28-5.43c0.03-0.98,0-2.03-0.3-2.86
			c0-0.35-0.5-0.33-0.42-0.12c0.18,0.99,0.06,2.06,0.12,3.1c-0.03,1.49,0.15,4.3-0.47,4.9c-1.54,0.59-1.06-1.9-0.96-2.75
			c0.21-1.73-0.16-4.07-0.27-5.82c-0.18-1.58-0.6-3.19-1.31-4.65L23.9,9.36C26.71,9.42,29.21,10.32,31.33,12.11z"/>
		<path class="st2" d="M20.92,10.17c-1.6,1.62-4.9,3.17-7.33,7.16c-0.27,0.44-0.79,0.44-0.76-0.09c0.75-2.59,1.99-3.23,1.49-3.17
			c-1.38,0.6-1.23,2.52-2.22,3.5c-1.83,0.54,0.76-3.52,0.18-3.12c-0.76,0.93-0.89,1.56-1.13,2.43c-0.2,1.17-0.81,0.74-0.75,0.42
			c0.12-4.65,4.5-7.19,6.65-7.61c1.23-0.23,1.94-0.36,2.92-0.18"/>
	</g>
</g>
</svg>
