<?xml version="1.0" encoding="utf-8"?>
<!-- Generator: Adobe Illustrator 24.2.0, SVG Export Plug-In . SVG Version: 6.00 Build 0)  -->
<svg version="1.1" id="Lager_1" xmlns="http://www.w3.org/2000/svg" xmlns:xlink="http://www.w3.org/1999/xlink" x="0px" y="0px"
	 viewBox="0 0 39.69 39.69" style="enable-background:new 0 0 39.69 39.69;" xml:space="preserve">
<style type="text/css">
	.st0{fill-rule:evenodd;clip-rule:evenodd;fill:#D9BE00;}
	.st1{clip-path:url(#SVGID_2_);fill-rule:evenodd;clip-rule:evenodd;fill:#C94D1B;}
	.st2{clip-path:url(#SVGID_4_);fill:#C94D1B;}
	.st3{clip-path:url(#SVGID_6_);fill:#C94D1B;}
	.st4{clip-path:url(#SVGID_8_);fill:#C94D1B;}
	.st5{clip-path:url(#SVGID_10_);}
	.st6{fill:#C9DEE1;}
	.st7{fill:#FFFFFF;}
</style>
<g>
	<path class="st0" d="M0.13,21.57C-0.83,10.68,7.23,1.08,18.12,0.13c10.89-0.95,20.49,7.1,21.44,17.99
		c0.96,10.89-7.1,20.49-17.99,21.44C10.68,40.51,1.08,32.46,0.13,21.57z"/>
	<g>
		<defs>
			<path id="SVGID_1_" d="M25.36,6.56c0.67,1.15,0.9,2.42,1.26,3.62c0.08,0.32-0.03,0.68,0.15,0.95c1.36-0.89,2.65-1.89,4.3-2.12
				c0.5-0.02,0.82,0.37,0.94,0.78c0.31,0.83-0.68,1.3-1.33,1.52c-0.59,0.23-1.15,0.43-1.76,0.59c1.01,0.33,2.07,0.51,3.02,0.73
				c0.12,0.05,0.2,0.15,0.27,0.29c-0.03,0.16-0.06,0.24-0.23,0.31c-0.15-0.05-2.55-0.61-2.82-0.68c-0.59-0.18-1.14-0.25-1.79-0.28
				c0.02,0.07,2.38,1.82,2.87,3.19c0.12,0.73,0.25,1.55,0.08,2.27C30.14,19,29.9,19.9,29.6,21.09c-0.21,1.05-0.46,2.14-0.58,3.26
				c0.26,1.34,3.15,2.92,3.74,4.27c0.05,0.5,0.2,1.37-0.34,1.63c-0.68,0.43-1.51,0.17-2.14-0.2c-0.96-0.69-1.99-1.2-2.98-1.87
				c-0.61-0.27-1.81-0.7-2.42-1.03c-2.01-0.93-3.42-0.97-5.54-1.71c-2.39-0.33-3.8-0.11-5.65-0.18c-1.11,0.15-2.22,0.35-3.31,0.36
				c-0.3-0.07-0.52-0.5-0.56-0.81c0.06-0.67,0.24-1.52,0.98-1.72c1.3-0.41,2.26-1.08,3.47-1.56c1.01-0.54,2.22-0.77,2.94-1.73
				c1.27-1.99,1.63-4.51,3.07-6.38c2.07-1.72,4.7-1.69,5.21-1.78c-0.9-0.65-3.96-1.18-4.06-1.56c-0.06-0.15-0.01-0.32,0.19-0.44
				c0.77,0.26,1.41,0.52,2.53,0.84c0.49,0.22,1.01,0.62,1.54,0.63c-0.75-1.07-1.46-1.99-1.95-3.18c-0.31-1.04-0.41-1.4-0.23-2.02
				c0.14-0.35,0.5-0.46,0.84-0.47C24.85,5.56,25.17,6.1,25.36,6.56z M31.51,9.91c-0.54-0.85-2.52,0.51-3.02,0.75
				c-0.52,0.36-1.01,0.6-1.5,0.97c0,0,0.2,0.16,0.78,0.01C29.08,11.21,31.82,10.67,31.51,9.91z M25.53,8.21
				c-0.24-0.71-0.93-2.38-1.4-1.96c-0.64,0.78,1.13,3.59,2.02,4.77C26.6,11.39,25.69,9.04,25.53,8.21z"/>
		</defs>
		<use xlink:href="#SVGID_1_"  style="overflow:visible;fill:#D9BE00;"/>
		<clipPath id="SVGID_2_">
			<use xlink:href="#SVGID_1_"  style="overflow:visible;"/>
		</clipPath>
		<path class="st1" d="M20.7,9.6c0.41,1.33,4.79,1.9,5.05,2.12c0.37,0.31,0.82,0.58,1.61,0.52c0.02,0,1.72,1.63,4.16,1.67
			c1.22,0.02,2.33-0.83,2.35-2.04c0.01-0.6,0.02-0.93,0.03-1.53c0.04-2.46-1.92-3.6-4.04-4.8c-1.49-0.83-2.13-2.18-3.84-2.21
			C22.81,3.28,19.75,6.55,20.7,9.6z"/>
	</g>
	<g>
		<defs>
			<path id="SVGID_3_" d="M26.16,12.51c-0.33,1.04-0.77,1.97-1.05,3.04c-0.8-0.3-1.72-0.09-2.47,0.58c-1.19,1.01-2.01,2.38-2.9,3.68
				c-0.77,1.32-1.61,3.39-1.91,4.07l-0.23,0.8c-1.57,0.15-3.12-0.04-4.66,0.3c-0.86-0.06-1.73,0.41-2.63,0.19
				c-0.11-0.11-0.17-0.52-0.13-0.61c0.13-0.69,0.89-1.02,1.45-1.28c0.74-0.39,1.52-0.68,2.28-1.04c1.76-0.43,3.6-1.57,4.25-3.34
				c0.84-1.8,1.1-3.87,2.54-5.31C22.43,12.32,24.44,11.97,26.16,12.51z"/>
		</defs>
		<use xlink:href="#SVGID_3_"  style="overflow:visible;fill:#CE7717;"/>
		<clipPath id="SVGID_4_">
			<use xlink:href="#SVGID_3_"  style="overflow:visible;"/>
		</clipPath>
		<path class="st2" d="M29.25,11.76c-0.05,0.08-0.18,0.15-0.26,0.17l-0.06,0.03c-0.67,0.21-1.29,0.44-1.88,0.78
			c0.04,0.25,0.04,0.48,0.19,0.74c1.12-0.39,2.17-0.81,3.28-1.18c-0.03,0.38-0.56,0.48-0.92,0.64c-0.68,0.31-1.56,0.47-2.27,0.88
			c0.16,0.6,0.24,1.25,0.44,1.89l0.09,0.03l2.96-1c0.23-0.15,0.55-0.17,0.8-0.22c0.11,0.14-0.06,0.24-0.12,0.35
			c-0.94,0.63-2.05,0.9-3.1,1.26c-0.17-0.03-0.33,0.04-0.47,0.17c0.11,0.37,0.09,0.78,0.22,1.16c1.42-0.58,2.66-1.34,4.1-1.31
			c0.14,0.05,0.32,0.06,0.3,0.26c-0.14,0.26-0.48,0.2-0.73,0.32c-1.24,0.35-2.4,0.65-3.61,1.17c0.05,0.38,0.13,0.74,0.26,1.05
			c0.88-0.29,1.83-0.59,2.68-0.79c0.27-0.11,0.63-0.25,0.92-0.2c-0.07,0.34-0.51,0.34-0.73,0.47c-0.93,0.43-1.86,0.6-2.79,0.88
			c0.18,0.24-0.01,0.57,0.22,0.8c-0.03,0.17,0.07,0.31,0.1,0.47c1.22-0.31,2.38-0.68,3.61-0.85c0.11,0.22-0.19,0.25-0.31,0.36
			c-0.43,0.11-0.89,0.24-1.27,0.37c-0.23,0.13-0.48,0.12-0.7,0.23c-0.42,0.09-0.84,0.18-1.27,0.31c0.04,0.4,0.21,0.82,0.27,1.24
			l0.93-0.22c0.12,0.12-0.04,0.27-0.13,0.37c-0.21,0.24-0.88,0.14-0.66,0.57c0.03,0.29,0.17,0.63,0.16,0.96l0.07,0.1l0.9-0.21
			c-0.02,0.05,0.02,0.08,0.03,0.14c-0.12,0.5-1.06,0.31-0.78,0.92c0.09,0.19,0.08,0.44,0.16,0.65L31,25.13l0.11,0.06
			c0.03-0.25-0.12-0.48-0.08-0.75c-0.06-0.2-0.04-0.48,0.05-0.66c0.07-0.05,0.15,0,0.18,0.06c0.27,0.51,0.33,1.23,0.53,1.76
			c0.09,0.34,0.17,0.63,0.32,0.94c0.06-0.03,0.16-0.1,0.28-0.06c-0.11,0.33,0.55,0.06,0.31,0.45c-0.17,0.04-0.31,0.07-0.48,0.12
			l0.28,1.08c0.36-0.06,0.78-0.22,1.12-0.31c0.04,0.04,0.11,0.06,0.11,0.14l-0.03,0.09c-0.4,0.17-0.79,0.27-1.1,0.5
			c0.01,0.42,0.14,0.8,0.17,1.23c-0.02,0.07-0.06,0.16-0.16,0.15c-0.35-0.27-0.43-0.72-0.58-1.11c-0.44,0.14-0.84,0.26-1.28,0.39
			c0.08,0.21,0.16,0.44,0.01,0.65c-0.05,0.01-0.14,0.11-0.24,0.02c-0.12-0.17-0.15-0.39-0.22-0.57c-0.33,0.12-0.67,0.13-1.03,0.27
			c-0.02-0.03-0.19,0.04-0.18-0.09c0.09-0.1,0.2-0.21,0.35-0.27c0.2-0.21,0.98-0.08,0.7-0.59c-0.08-0.29-0.17-0.57-0.28-0.85
			c-0.44,0.14-0.85,0.15-1.28,0.34c0.07,0.41,0.18,0.76,0.11,1.18c-0.07,0.05-0.23,0.05-0.27-0.04l-0.32-1.02
			c-0.53,0.1-0.91,0.39-1.4,0.53c0.07,0.31,0.08,0.6,0.15,0.91c-0.07,0.05-0.12,0.12-0.2,0.14c-0.43-0.77-0.64-1.67-0.87-2.5
			c-0.35,0.19-0.67,0.21-0.99,0.38c0.05,0.15,0.1,0.3,0.03,0.45c-0.16,0.18-0.27-0.04-0.4-0.11c0.07-0.34-0.49-0.15-0.23-0.47
			l-0.3-1.01l-1.2,0.47c-0.02,0.07-0.09,0.1-0.16,0.08c-0.24-0.06-0.22-0.34-0.32-0.5c-0.32-0.42-0.26-0.84-0.62-1.22l-0.87,0.42
			c0.09,0.26,0.2,0.56,0.06,0.8c-0.15,0.05-0.22-0.18-0.33-0.24c-0.01-0.19-0.2-0.25-0.24-0.42c-0.22-0.13-0.68,0.33-0.71-0.12
			c0.07-0.21,0.24-0.31,0.45-0.39l-0.38-1.17c-0.5,0.19-0.98,0.44-1.52,0.59c0.19,0.58,0.56,1.15,0.56,1.75
			c-0.09,0.1-0.18-0.01-0.23-0.08l-0.09-0.19c-0.23-0.39-0.44-0.83-0.62-1.28c-0.23,0-0.44,0.14-0.67,0.21
			c-0.27,0.11-0.62,0.36-0.95,0.27l-0.15,0.05c0.05,0.38,0.23,0.83,0.27,1.23c-0.05,0.06-0.11,0.17-0.23,0.08
			c-0.46-0.78-0.86-1.64-1.28-2.52c-0.3,0.05-0.63,0.25-0.93,0.36c0.18,0.53,0.52,0.98,0.54,1.53c-0.05,0.01-0.14,0.18-0.25,0.04
			c-0.25-0.4-0.5-0.95-0.69-1.38c-0.44,0.13-0.86,0.4-1.31,0.56c-0.02,0.28,0.35,0.64,0,0.83c-0.63-0.5-0.63-1.41-1.04-2.1
			c-0.05-0.07-0.1-0.24-0.19-0.12L9.74,24.7c0.01,0.05,0.06,0.05,0.08,0.06c0.01,0.13-0.12,0.19-0.22,0.18
			c-0.12-0.04-0.22-0.13-0.18-0.24c0.02-0.12,0.28-0.14,0.13-0.29c0.33-0.35,0.78-0.38,1.17-0.61c-0.15-0.62-0.66-1.16-0.58-1.78
			c0.08,0.08,0.13-0.01,0.21,0.07c0.27,0.51,0.39,1.04,0.75,1.58l1.33-0.55c-0.22-0.64-0.79-1.16-0.99-1.79
			c0.08-0.16,0.19-0.04,0.29-0.03c0.06,0.12,0.18,0.01,0.24,0.13c0.33,0.48,0.48,1.07,0.81,1.55l1.03-0.42
			c-0.17-0.47-0.41-0.92-0.64-1.36c0.14-0.11,0-0.36,0.22-0.34c0.15,0.03,0.32,0.11,0.4,0.27c0.03,0.14,0.08,0.23,0.14,0.33
			l0.39,0.83l0.09,0.03c0.63-0.33,1.26-0.5,1.94-0.73l-0.24-0.58c-0.15-0.02-0.23,0.23-0.36,0.08c-0.03-0.06,0-0.15,0.04-0.19
			c0.12-0.04,0.19-0.12,0.22-0.26c0.01-0.26-0.27-0.43-0.19-0.72c-0.08-0.06-0.08-0.16-0.13-0.23c0.08-0.08,0.17-0.12,0.27-0.04
			c0.15,0.31,0.25,0.55,0.4,0.81l1.5-0.67c0.09-0.1-0.06-0.2-0.02-0.32l-0.05-0.02c-0.12-0.33-0.23-0.67-0.28-1
			c0.02-0.15-0.26-0.3-0.09-0.42c0.03-0.02,0.09-0.02,0.15,0c0.45-0.41,1.03-0.58,1.5-0.88c-0.08-0.29-0.1-0.53-0.26-0.76
			c-0.3,0.13-0.54,0.28-0.85,0.36c-0.04-0.12-0.25-0.19-0.1-0.32l0.83-0.52c-0.19-0.2-0.05-0.46-0.09-0.65
			c0.34-0.17,0.34,0.45,0.55,0.45c0.38-0.21,0.74-0.34,1.17-0.53c-0.05-0.38-0.2-0.77-0.21-1.13c-0.21,0.01-0.4,0.33-0.63,0.17
			c0.1-0.3,0.41-0.51,0.66-0.71c0.54-0.36,1.04-0.47,1.6-0.74c0.23-0.15-0.05-0.61,0.38-0.51c0.17,0.03,0.14,0.18,0.25,0.27
			c0.27-0.04,0.59-0.21,0.89-0.34l0.05-0.14c0.05-0.01,0.17-0.12,0.22-0.11c0.06-0.11,0.51-0.06,0.3-0.34
			c0.03-0.09,0.12-0.14,0.19-0.09l0.06,0.2l1-0.35c0.03,0.14,0.29,0.15,0.2,0.33c-0.38,0.13-0.82,0.19-1.11,0.42
			c0.36,0.3,0.3,0.78,0.48,1.23l1.53-0.77c0.04-0.35-0.32-0.65-0.09-0.94c0.22-0.18,0.46-0.05,0.63,0.14
			c-0.03,0.17,0.12,0.17,0.11,0.35l0.05,0.15c0.56-0.27,1.2-0.47,1.79-0.68C28.88,11.65,29.17,11.55,29.25,11.76z M13.04,24.39
			l-0.5-1.03c-0.42,0.17-0.87,0.35-1.26,0.58c0.21,0.36,0.42,0.74,0.59,1.08C12.21,24.67,12.62,24.63,13.04,24.39z M14.39,23.79
			l-0.45-0.96l-1.02,0.4l0.54,0.99C13.72,24.08,14.16,24,14.39,23.79z M17.08,23.63l-0.1-0.16c-0.55,0.25-1.21,0.41-1.75,0.72
			c0.08,0.05,0.08,0.13,0.13,0.23c0.08,0.13,0.2,0.33,0.23,0.47l0.23,0.52l0.06-0.19l1.49-0.73l-0.02-0.16
			c-0.17-0.11-0.16-0.37-0.2-0.54L17.08,23.63z M25.54,26.23c-0.13,0.01-0.03-0.14-0.12-0.2c-0.36,0.14-0.68,0.26-1,0.41l0.27,0.87
			c0.34-0.09,0.63-0.25,0.93-0.38C25.64,26.71,25.52,26.46,25.54,26.23z M27.95,27.81l-0.34-1.18c-0.46,0.13-0.77,0.36-1.24,0.45
			c0.07,0.46,0.18,0.89,0.28,1.36L27.95,27.81z M23.71,26.04c-0.19-0.43-0.21-0.88-0.47-1.27l-1.03,0.42
			c0.13,0.44,0.29,0.9,0.37,1.4C22.98,26.36,23.39,26.24,23.71,26.04z M30.71,28.76l1.15-0.41l-0.24-1.04l-1.18,0.35
			C30.57,28.02,30.54,28.42,30.71,28.76z M21.41,24.84c-0.01-0.34-0.22-0.8-0.31-1.14c-0.05-0.02-0.13,0.06-0.13,0.08
			c-0.31,0.07-0.6,0.23-0.91,0.31c0.11,0.35,0.27,0.72,0.45,1.11C20.84,25.13,21.12,25,21.41,24.84z M16.48,21.92l-0.07-0.02
			c-0.64,0.27-1.31,0.43-1.94,0.73c0.18,0.3,0.29,0.67,0.5,0.95c0.62-0.23,1.17-0.4,1.81-0.67C16.67,22.56,16.61,22.22,16.48,21.92z
			 M19.36,23.72c-0.03-0.37-0.27-0.64-0.39-0.99c-0.11-0.06-0.14,0.11-0.25,0.04c-0.31,0.15-0.69,0.28-1.03,0.35l-0.29,0.16
			c0.14,0.36,0.27,0.66,0.43,1C18.34,24.04,18.85,23.98,19.36,23.72z M27.49,26.28c0.01-0.33-0.14-0.64-0.25-0.94l-0.38,0.13
			c-0.14,0.03-0.34,0.17-0.48,0.12l-0.4,0.2l0.28,0.92L27.49,26.28z M29.72,27.26c-0.1-0.4-0.21-0.82-0.34-1.2
			c-0.44,0.08-0.79,0.27-1.19,0.37c0.12,0.41,0.21,0.82,0.27,1.23C28.86,27.5,29.31,27.4,29.72,27.26z M25.1,24.66
			c-0.13-0.15-0.09-0.42-0.22-0.57c-0.12,0.06-0.35,0.19-0.56,0.2c-0.11,0.17-0.42,0.17-0.56,0.27c0.15,0.47,0.31,0.83,0.46,1.3
			c0.37-0.08,0.71-0.25,1.07-0.41C25.25,25.2,25.1,24.94,25.1,24.66z M22.92,23.67c-0.08-0.23-0.1-0.4-0.2-0.61l-0.38,0.13
			c-0.24,0.17-0.5,0.17-0.76,0.33c0.15,0.39,0.27,0.71,0.45,1.09c0.35-0.11,0.73-0.32,1.05-0.42C23.04,24,23.05,23.82,22.92,23.67z
			 M20.73,22.43c-0.07-0.1,0.06-0.32-0.11-0.35l-1.17,0.48c0.06,0.28,0.23,0.68,0.39,0.99c0.39-0.15,0.75-0.23,1.11-0.37
			C20.95,22.92,20.81,22.66,20.73,22.43z M18.78,22.01c-0.13-0.23-0.27-0.64-0.36-0.85c-0.57,0.14-1.08,0.43-1.59,0.56
			c0.1,0.37,0.23,0.68,0.37,1.03c0.52-0.16,1.06-0.31,1.61-0.53L18.78,22.01z M31.45,26.74c0.04-0.48-0.19-0.81-0.29-1.26
			c-0.35,0.19-0.82,0.21-1.22,0.38c0.1,0.45,0.19,0.82,0.34,1.26C30.68,27.04,31.1,26.85,31.45,26.74z M29.29,25.63l-0.19-0.87
			c-0.38,0.05-0.87,0.27-1.29,0.36l0.29,0.96C28.5,25.9,28.93,25.87,29.29,25.63z M27.13,24.84c-0.07-0.47-0.17-0.94-0.3-1.37
			c-0.52,0.16-0.9,0.29-1.39,0.43c0.15,0.47,0.24,0.96,0.4,1.41C26.26,25.11,26.74,25.01,27.13,24.84z M18.17,20.46l-0.12-0.17
			l-1.51,0.62c0.04,0.19,0.11,0.35,0.2,0.54l1.53-0.54C18.37,20.73,18.18,20.59,18.17,20.46z M24.56,22.53L24.5,22.4
			c-0.41,0.14-0.83,0.31-1.27,0.45c0,0.39,0.22,0.8,0.32,1.17c0.4-0.17,0.79-0.32,1.21-0.41C24.73,23.26,24.6,22.88,24.56,22.53z
			 M22.43,22.18c0-0.23-0.12-0.48-0.22-0.72c-0.42,0.24-0.8,0.29-1.18,0.5c0.08,0.36,0.22,0.72,0.37,1.03l1.16-0.43
			c0.01-0.02-0.02-0.03,0.02-0.05C22.47,22.43,22.49,22.31,22.43,22.18z M20.49,21.41c-0.09-0.34-0.13-0.61-0.26-0.9
			c-0.46,0.13-0.91,0.31-1.36,0.49c0.14,0.36,0.21,0.75,0.39,1.04c0.4-0.17,0.8-0.29,1.28-0.47c0.1-0.07-0.09-0.11,0.02-0.2
			L20.49,21.41z M29,24.16l-0.28-1.21c-0.4,0.12-0.79,0.19-1.19,0.29c-0.51,0.13,0.07,0.54-0.01,0.85c0.03,0.22,0.1,0.4,0.15,0.54
			l1.28-0.41L29,24.16z M19.93,19.64l0.01-0.1c-0.3-0.03-0.54,0.23-0.85,0.28l-0.04-0.04c-0.11,0.17-0.39,0.15-0.52,0.31
			c0.15,0.18,0.09,0.71,0.43,0.64c0.35-0.19,0.81-0.32,1.17-0.45l0-0.23C19.94,19.92,20.08,19.74,19.93,19.64z M26.68,22.92
			l-0.29-1.19c-0.42,0.17-0.8,0.3-1.22,0.38c-0.31,0-0.1,0.3-0.1,0.43c0.05,0.3,0.1,0.6,0.26,0.84
			C25.8,23.29,26.24,23.08,26.68,22.92z M24.36,21.91l-0.31-1.12c-0.46,0.13-0.9,0.36-1.33,0.48c0.04,0.35,0.23,0.75,0.31,1.12
			l0.31-0.07C23.64,22.18,24.05,22.07,24.36,21.91z M22.04,20.75c-0.12-0.19-0.13-0.54-0.22-0.72c-0.38,0.13-0.79,0.19-1.19,0.37
			c0.03,0.35,0.08,0.73,0.25,1.02l1.17-0.38l0.05-0.09C22.08,20.87,21.99,20.81,22.04,20.75z M28.49,21.88
			c-0.09-0.19-0.16-0.44-0.2-0.69c-0.48,0.12-0.97,0.26-1.43,0.39c0.1,0.4,0.13,0.82,0.28,1.21c0.47-0.1,0.93-0.3,1.41-0.4
			C28.58,22.23,28.45,22.08,28.49,21.88z M21.68,19.69c0.02-0.28-0.11-0.58-0.2-0.85c-0.43,0.11-0.8,0.35-1.2,0.55l0.26,0.74
			L21.68,19.69z M23.89,20.33c-0.11-0.3-0.11-0.66-0.27-0.87c-0.19,0.01-0.45,0.18-0.64,0.19c-0.22,0.11-0.48,0.12-0.68,0.26
			l0.26,0.89C23,20.67,23.54,20.54,23.89,20.33z M24.89,21.79l1.4-0.45l-0.32-1.25c-0.48,0.2-0.91,0.31-1.36,0.49L24.89,21.79z
			 M19.71,18.94c-0.17-0.4-0.23-0.83-0.45-1.19l-1.19,0.45c-0.12,0.06-0.22-0.1-0.32,0.02l0.6,1.35l1.29-0.51L19.71,18.94z
			 M23.4,18.29c-0.06-0.05-0.05-0.15-0.08-0.21c-0.46,0.13-0.98,0.28-1.39,0.58l0.29,0.82l1.33-0.48
			C23.58,18.77,23.46,18.5,23.4,18.29z M25.89,19.72l-0.22-0.96l-0.18-0.01c-0.19,0.17-0.46,0.2-0.73,0.32
			c-0.16,0.1-0.45,0.03-0.48,0.27c0.18,0.24,0.13,0.61,0.26,0.82C25,20.04,25.46,19.85,25.89,19.72z M28.18,20.74
			c-0.08-0.37-0.15-0.85-0.27-1.23c-0.53,0.18-1.03,0.29-1.51,0.47c0.17,0.4,0.18,0.84,0.34,1.26
			C27.22,21.06,27.79,20.92,28.18,20.74z M21.28,18c-0.07-0.39-0.3-0.8-0.35-1.16c-0.15,0.05-0.37,0.16-0.5,0.24l-0.16,0.08
			c-0.09,0.18-0.46,0.2-0.55,0.38c0.17,0.42,0.22,0.85,0.38,1.3l0.89-0.32c0.09-0.1,0.2-0.14,0.35-0.19
			C21.27,18.23,21.38,18.06,21.28,18z M27.75,18.52c-0.09-0.11-0.11-0.27-0.17-0.42c-0.51,0.29-0.96,0.32-1.5,0.52
			c0.06,0.36,0.12,0.64,0.29,0.95c0.48-0.2,0.96-0.29,1.47-0.5C27.87,18.95,27.68,18.68,27.75,18.52z M20.71,16.33
			c-0.12-0.25-0.1-0.47-0.25-0.71l-0.65,0.32c-0.07,0.05-0.12,0.06-0.17,0.04c-0.08,0.08-0.23,0.15-0.33,0.2
			c-0.02,0.28,0.2,0.48,0.21,0.75l0.86-0.4c0.18,0.09,0.2-0.14,0.37-0.18L20.71,16.33z M25.6,18.32l-0.22-1.01l-0.06-0.05
			l-1.38,0.56l0.25,0.99C24.62,18.66,25.17,18.51,25.6,18.32z M22.98,16.82c0.04-0.35-0.19-0.58-0.23-0.91
			c-0.53,0.18-0.9,0.44-1.42,0.65c0.13,0.54,0.35,1.03,0.46,1.58c0.48-0.2,0.97-0.34,1.38-0.61C23.19,17.26,23.06,17.03,22.98,16.82
			z M27.39,16.95l-0.17-0.42l-1.43,0.54c-0.03,0.38,0.09,0.78,0.21,1.13l1.51-0.54C27.5,17.53,27.37,17.17,27.39,16.95z
			 M22.67,15.45c-0.1-0.24-0.16-0.44-0.23-0.68c-0.54,0.13-0.95,0.42-1.46,0.64c0.04,0.25,0.11,0.5,0.23,0.75
			c0.54-0.23,1.01-0.38,1.47-0.66L22.67,15.45z M25.13,16.81l0.05-0.14l-0.49-1.67c-0.47,0.25-0.89,0.39-1.36,0.64
			c0.16,0.29,0.14,0.64,0.27,0.95l0.21,0.75C24.23,17.15,24.7,17,25.13,16.81z M21.94,13.21l-0.04-0.04
			c-0.48,0.27-1.06,0.44-1.48,0.76l0.38,1.07c0.48-0.2,1.07-0.38,1.51-0.62C22.31,13.95,22.04,13.6,21.94,13.21z M24.59,14.61
			l-0.19-0.71l-0.8,0.37c-0.06,0.03-0.18,0.01-0.21,0.08c-0.71-0.04-0.15,0.65-0.16,0.93C23.75,15.02,24.1,14.83,24.59,14.61z
			 M27.12,16c-0.2-0.64-0.3-1.32-0.52-1.89c-0.51,0.21-1,0.49-1.51,0.7c0.23,0.62,0.29,1.19,0.52,1.79
			C26.16,16.37,26.59,16.18,27.12,16z M26.36,13.84c0.29-0.16-0.02-0.53-0.05-0.74c-0.48,0.2-1.05,0.42-1.52,0.67
			c0.11,0.22,0.1,0.45,0.21,0.67L26.36,13.84z M23.98,12.56c0.12-0.19-0.18-0.22-0.06-0.36c-0.41,0.3-0.96,0.45-1.44,0.72l0.41,1.21
			c0.45-0.18,1-0.35,1.41-0.71c-0.07-0.26-0.21-0.59-0.26-0.89L23.98,12.56z"/>
	</g>
	<g>
		<defs>
			<path id="SVGID_5_" d="M29.82,15.81c0.03,1.12-0.14,1.92-0.29,2.76c-0.16,1.4-0.61,3.05-0.99,4.59c-0.16,0.95-0.22,1.7,0.67,2.51
				c1.05,0.95,3.19,2.9,3.09,3.16c0.16,0.21,0.15,0.49,0.08,0.75c-0.12,0.23-0.33,0.36-0.55,0.42c-1.58,0-2.54-1.35-3.84-1.96
				c-0.39-0.27-0.83-0.49-1.3-0.68c0.18-1.71,0.3-3.02,0.5-4.72c0.13-1.14,0.58-4.38-0.71-6.06l-0.78-0.7c0.39-1,0.96-3.3,0.96-3.3
				C27.96,13.03,29.29,14.08,29.82,15.81z"/>
		</defs>
		<use xlink:href="#SVGID_5_"  style="overflow:visible;fill:#CE7717;"/>
		<clipPath id="SVGID_6_">
			<use xlink:href="#SVGID_5_"  style="overflow:visible;"/>
		</clipPath>
		<path class="st3" d="M29.25,11.76c-0.05,0.08-0.18,0.15-0.26,0.17l-0.06,0.03c-0.67,0.21-1.48,0.53-2.07,0.87
			c0.04,0.25,0.04,0.48,0.19,0.74c1.12-0.39,2.36-0.9,3.47-1.27c-0.03,0.38-0.56,0.48-0.92,0.64c-0.68,0.31-1.75,0.56-2.46,0.97
			c0.16,0.6,0.24,1.25,0.44,1.89l3.25-1.06c0.23-0.15,0.55-0.17,0.8-0.22c0.11,0.14-0.06,0.24-0.12,0.35
			c-0.94,0.63-2.05,0.9-3.1,1.26c-0.28,0.09-0.52,0.13-0.67,0.26c0.1,0.37,0.09,0.78,0.22,1.17c1.42-0.58,2.85-1.43,4.3-1.4
			c0.14,0.05,0.32,0.06,0.3,0.26c-0.14,0.26-0.48,0.2-0.73,0.32c-1.24,0.35-2.59,0.74-3.81,1.26c0.05,0.38,0.13,0.75,0.26,1.05
			c0.88-0.29,2.03-0.68,2.87-0.88c0.27-0.11,0.63-0.25,0.92-0.2c-0.07,0.34-0.51,0.34-0.73,0.47c-0.93,0.43-2.06,0.69-2.98,0.97
			c0.18,0.24,0.29,1.11,0.31,1.27c1.22-0.31,2.58-0.77,3.8-0.95c0.11,0.22-0.19,0.25-0.31,0.36c-0.43,0.11-0.89,0.24-1.27,0.37
			c-0.23,0.13-0.48,0.12-0.7,0.23c-0.42,0.09-1.03,0.27-1.47,0.4c0.04,0.4,0.4,0.73,0.47,1.14l0.93-0.22
			c0.12,0.12-0.04,0.27-0.13,0.37c-0.21,0.24-0.88,0.14-0.66,0.57c0.03,0.29,0.17,0.63,0.16,0.96l0.07,0.1l0.9-0.21
			c-0.02,0.05,0.02,0.08,0.03,0.14c-0.12,0.5-1.06,0.31-0.78,0.92c0.09,0.19,0.08,0.44,0.16,0.65L31,25.13l0.11,0.06
			c0.03-0.25-0.12-0.48-0.08-0.75c-0.06-0.2-0.04-0.48,0.05-0.66c0.07-0.05,0.15,0,0.18,0.06c0.27,0.51,0.33,1.23,0.53,1.76
			c0.09,0.34,0.17,0.63,0.32,0.94c0.06-0.03,0.16-0.1,0.28-0.06c-0.11,0.33,0.55,0.06,0.31,0.45c-0.17,0.04-0.31,0.07-0.48,0.12
			l0.28,1.08c0.36-0.06,0.78-0.22,1.12-0.31c0.04,0.04,0.11,0.06,0.11,0.14l-0.03,0.09c-0.4,0.17-0.79,0.27-1.1,0.5
			c0.01,0.42,0.14,0.8,0.17,1.23c-0.02,0.07-0.06,0.16-0.16,0.15c-0.35-0.27-0.43-0.72-0.58-1.11c-0.44,0.14-0.84,0.26-1.28,0.39
			c0.08,0.21,0.16,0.44,0.01,0.65c-0.05,0.01-0.14,0.11-0.24,0.02c-0.12-0.17-0.15-0.39-0.22-0.57c-0.33,0.12-0.67,0.13-1.03,0.27
			c-0.02-0.03-0.19,0.04-0.18-0.09c0.09-0.1,0.2-0.21,0.35-0.27c0.2-0.21,0.98-0.08,0.7-0.59c-0.08-0.29-0.17-0.57-0.28-0.85
			c-0.44,0.14-0.85,0.15-1.28,0.34c0.07,0.41,0.18,0.76,0.11,1.18c-0.07,0.05-0.23,0.05-0.27-0.04l-0.32-1.02
			c-0.53,0.1-0.91,0.39-1.4,0.53c0.07,0.31,0.08,0.6,0.15,0.91c-0.07,0.05-0.12,0.12-0.2,0.14c-0.43-0.77-0.64-1.67-0.87-2.5
			c-0.35,0.19-0.67,0.21-0.99,0.38c0.05,0.15,0.1,0.3,0.03,0.45c-0.16,0.18-0.27-0.04-0.4-0.11c0.07-0.34-0.49-0.15-0.23-0.47
			l-0.3-1.01l-1.2,0.47c-0.02,0.07-0.09,0.1-0.16,0.08c-0.24-0.06-0.22-0.34-0.32-0.5c-0.32-0.42-0.26-0.84-0.62-1.22l-0.87,0.42
			c0.09,0.26,0.2,0.56,0.06,0.8c-0.15,0.05-0.22-0.18-0.33-0.24c-0.01-0.19-0.2-0.25-0.24-0.42c-0.22-0.13-0.68,0.33-0.71-0.12
			c0.07-0.21,0.24-0.31,0.45-0.39l-0.38-1.17c-0.5,0.19-0.98,0.44-1.52,0.59c0.19,0.58,0.56,1.15,0.56,1.75
			c-0.09,0.1-0.18-0.01-0.23-0.08l-0.09-0.19c-0.23-0.39-0.44-0.83-0.62-1.28c-0.23,0-0.44,0.14-0.67,0.21
			c-0.27,0.11-0.62,0.36-0.95,0.27l-0.15,0.05c0.05,0.38,0.23,0.83,0.27,1.23c-0.05,0.06-0.11,0.17-0.23,0.08
			c-0.46-0.78-0.86-1.64-1.28-2.52c-0.3,0.05-0.63,0.25-0.93,0.36c0.18,0.53,0.52,0.98,0.54,1.53c-0.05,0.01-0.14,0.18-0.25,0.04
			c-0.25-0.4-0.5-0.95-0.69-1.38c-0.44,0.13-0.86,0.4-1.31,0.56c-0.02,0.28,0.35,0.64,0,0.83c-0.63-0.5-0.63-1.41-1.04-2.1
			c-0.05-0.07-0.1-0.24-0.19-0.12L9.74,24.7c0.01,0.05,0.06,0.05,0.08,0.06c0.01,0.13-0.12,0.19-0.22,0.18
			c-0.12-0.04-0.22-0.13-0.18-0.24c0.02-0.12,0.28-0.14,0.13-0.29c0.33-0.35,0.78-0.38,1.17-0.61c-0.15-0.62-0.66-1.16-0.58-1.78
			c0.08,0.08,0.13-0.01,0.21,0.07c0.27,0.51,0.39,1.04,0.75,1.58l1.33-0.55c-0.22-0.64-0.79-1.16-0.99-1.79
			c0.08-0.16,0.19-0.04,0.29-0.03c0.06,0.12,0.18,0.01,0.24,0.13c0.33,0.48,0.48,1.07,0.81,1.55l1.03-0.42
			c-0.17-0.47-0.41-0.92-0.64-1.36c0.14-0.11,0-0.36,0.22-0.34c0.15,0.03,0.32,0.11,0.4,0.27c0.03,0.14,0.08,0.23,0.14,0.33
			l0.39,0.83l0.09,0.03c0.63-0.33,1.26-0.5,1.94-0.73l-0.24-0.58c-0.15-0.02-0.23,0.23-0.36,0.08c-0.03-0.06,0-0.15,0.04-0.19
			c0.12-0.04,0.19-0.12,0.22-0.26c0.01-0.26-0.27-0.43-0.19-0.72c-0.08-0.06-0.08-0.16-0.13-0.23c0.08-0.08,0.17-0.12,0.27-0.04
			c0.15,0.31,0.25,0.55,0.4,0.81l1.5-0.67c0.09-0.1-0.06-0.2-0.02-0.32l-0.05-0.02c-0.12-0.33-0.23-0.67-0.28-1
			c0.02-0.15-0.26-0.3-0.09-0.42c0.03-0.02,0.09-0.02,0.15,0c0.45-0.41,1.03-0.58,1.5-0.88c-0.08-0.29-0.1-0.53-0.26-0.76
			c-0.3,0.13-0.54,0.28-0.85,0.36c-0.04-0.12-0.25-0.19-0.1-0.32l0.83-0.52c-0.19-0.2-0.05-0.46-0.09-0.65
			c0.34-0.17,0.34,0.45,0.55,0.45c0.38-0.21,0.74-0.34,1.17-0.53c-0.05-0.38-0.2-0.77-0.21-1.13c-0.21,0.01-0.4,0.33-0.63,0.17
			c0.1-0.3,0.41-0.51,0.66-0.71c0.54-0.36,1.04-0.47,1.6-0.74c0.23-0.15-0.05-0.61,0.38-0.51c0.17,0.03,0.14,0.18,0.25,0.27
			c0.27-0.04,0.59-0.21,0.89-0.34l0.05-0.14c0.05-0.01,0.17-0.12,0.22-0.11c0.06-0.11,0.51-0.06,0.3-0.34
			c0.03-0.09,0.12-0.14,0.19-0.09l0.06,0.2l1-0.35c0.03,0.14,0.29,0.15,0.2,0.33c-0.38,0.13-0.82,0.19-1.11,0.42
			c0.36,0.3,0.3,0.78,0.48,1.23l1.53-0.77c0.04-0.35-0.32-0.65-0.09-0.94c0.22-0.18,0.46-0.05,0.63,0.14
			c-0.03,0.17,0.12,0.17,0.11,0.35l0.05,0.15c0.56-0.27,1.2-0.47,1.79-0.68C28.88,11.65,29.17,11.55,29.25,11.76z M13.04,24.39
			l-0.5-1.03c-0.42,0.17-0.87,0.35-1.26,0.58c0.21,0.36,0.42,0.74,0.59,1.08C12.21,24.67,12.62,24.63,13.04,24.39z M14.39,23.79
			l-0.45-0.96l-1.02,0.4l0.54,0.99C13.72,24.08,14.16,24,14.39,23.79z M17.08,23.63l-0.1-0.16c-0.55,0.25-1.21,0.41-1.75,0.72
			c0.08,0.05,0.08,0.13,0.13,0.23c0.08,0.13,0.2,0.33,0.23,0.47l0.23,0.52l0.06-0.19l1.49-0.73l-0.02-0.16
			c-0.17-0.11-0.16-0.37-0.2-0.54L17.08,23.63z M25.54,26.23c-0.13,0.01-0.03-0.14-0.12-0.2c-0.36,0.14-0.68,0.26-1,0.41l0.27,0.87
			c0.34-0.09,0.63-0.25,0.93-0.38C25.64,26.71,25.52,26.46,25.54,26.23z M27.95,27.81l-0.34-1.18c-0.46,0.13-0.77,0.36-1.24,0.45
			c0.07,0.46,0.18,0.89,0.28,1.36L27.95,27.81z M23.71,26.04c-0.19-0.43-0.21-0.88-0.47-1.27l-1.03,0.42
			c0.13,0.44,0.29,0.9,0.37,1.4C22.98,26.36,23.39,26.24,23.71,26.04z M30.71,28.76l1.15-0.41l-0.24-1.04l-1.18,0.35
			C30.57,28.02,30.54,28.42,30.71,28.76z M21.41,24.84c-0.01-0.34-0.22-0.8-0.31-1.14c-0.05-0.02-0.13,0.06-0.13,0.08
			c-0.31,0.07-0.6,0.23-0.91,0.31c0.11,0.35,0.27,0.72,0.45,1.11C20.84,25.13,21.12,25,21.41,24.84z M16.48,21.92l-0.07-0.02
			c-0.64,0.27-1.31,0.43-1.94,0.73c0.18,0.3,0.29,0.67,0.5,0.95c0.62-0.23,1.17-0.4,1.81-0.67C16.67,22.56,16.61,22.22,16.48,21.92z
			 M19.36,23.72c-0.03-0.37-0.27-0.64-0.39-0.99c-0.11-0.06-0.14,0.11-0.25,0.04c-0.31,0.15-0.69,0.28-1.03,0.35l-0.29,0.16
			c0.14,0.36,0.27,0.66,0.43,1C18.34,24.04,18.85,23.98,19.36,23.72z M27.49,26.28c0.01-0.33-0.14-0.64-0.25-0.94l-0.38,0.13
			c-0.14,0.03-0.34,0.17-0.48,0.12l-0.4,0.2l0.28,0.92L27.49,26.28z M29.72,27.26c-0.1-0.4-0.21-0.82-0.34-1.2
			c-0.44,0.08-0.79,0.27-1.19,0.37c0.12,0.41,0.21,0.82,0.27,1.23C28.86,27.5,29.31,27.4,29.72,27.26z M25.1,24.66
			c-0.13-0.15-0.09-0.42-0.22-0.57c-0.12,0.06-0.35,0.19-0.56,0.2c-0.11,0.17-0.42,0.17-0.56,0.27c0.15,0.47,0.31,0.83,0.46,1.3
			c0.37-0.08,0.71-0.25,1.07-0.41C25.25,25.2,25.1,24.94,25.1,24.66z M22.92,23.67c-0.08-0.23-0.1-0.4-0.2-0.61l-0.38,0.13
			c-0.24,0.17-0.5,0.17-0.76,0.33c0.15,0.39,0.27,0.71,0.45,1.09c0.35-0.11,0.73-0.32,1.05-0.42C23.04,24,23.05,23.82,22.92,23.67z
			 M20.73,22.43c-0.07-0.1,0.06-0.32-0.11-0.35l-1.17,0.48c0.06,0.28,0.23,0.68,0.39,0.99c0.39-0.15,0.75-0.23,1.11-0.37
			C20.95,22.92,20.81,22.66,20.73,22.43z M18.78,22.01c-0.13-0.23-0.27-0.64-0.36-0.85c-0.57,0.14-1.08,0.43-1.59,0.56
			c0.1,0.37,0.23,0.68,0.37,1.03c0.52-0.16,1.06-0.31,1.61-0.53L18.78,22.01z M31.45,26.74c0.04-0.48-0.19-0.81-0.29-1.26
			c-0.35,0.19-0.82,0.21-1.22,0.38c0.1,0.45,0.19,0.82,0.34,1.26C30.68,27.04,31.1,26.85,31.45,26.74z M29.29,25.63l-0.19-0.87
			c-0.38,0.05-0.87,0.27-1.29,0.36l0.29,0.96C28.5,25.9,28.93,25.87,29.29,25.63z M27.13,24.84c-0.07-0.47-0.17-0.94-0.3-1.37
			c-0.52,0.16-0.9,0.29-1.39,0.43c0.15,0.47,0.24,0.96,0.4,1.41C26.26,25.11,26.74,25.01,27.13,24.84z M18.17,20.46l-0.12-0.17
			l-1.51,0.62c0.04,0.19,0.11,0.35,0.2,0.54l1.53-0.54C18.37,20.73,18.18,20.59,18.17,20.46z M24.56,22.53L24.5,22.4
			c-0.41,0.14-0.83,0.31-1.27,0.45c0,0.39,0.22,0.8,0.32,1.17c0.4-0.17,0.79-0.32,1.21-0.41C24.73,23.26,24.6,22.88,24.56,22.53z
			 M22.43,22.18c0-0.23-0.12-0.48-0.22-0.72c-0.42,0.24-0.8,0.29-1.18,0.5c0.08,0.36,0.22,0.72,0.37,1.03l1.16-0.43
			c0.01-0.02-0.02-0.03,0.02-0.05C22.47,22.43,22.49,22.31,22.43,22.18z M20.49,21.41c-0.09-0.34-0.13-0.61-0.26-0.9
			c-0.46,0.13-0.91,0.31-1.36,0.49c0.14,0.36,0.21,0.75,0.39,1.04c0.4-0.17,0.8-0.29,1.28-0.47c0.1-0.07-0.09-0.11,0.02-0.2
			L20.49,21.41z M29,24.16l-0.28-1.21c-0.4,0.12-0.79,0.19-1.19,0.29c-0.51,0.13,0.07,0.54-0.01,0.85c0.03,0.22,0.1,0.4,0.15,0.54
			l1.28-0.41L29,24.16z M19.93,19.64l0.01-0.1c-0.3-0.03-0.54,0.23-0.85,0.28l-0.04-0.04c-0.11,0.17-0.39,0.15-0.52,0.31
			c0.15,0.18,0.09,0.71,0.43,0.64c0.35-0.19,0.81-0.32,1.17-0.45l0-0.23C19.94,19.92,20.08,19.74,19.93,19.64z M26.68,22.92
			l-0.29-1.19c-0.42,0.17-0.8,0.3-1.22,0.38c-0.31,0-0.1,0.3-0.1,0.43c0.05,0.3,0.1,0.6,0.26,0.84
			C25.8,23.29,26.24,23.08,26.68,22.92z M24.36,21.91l-0.31-1.12c-0.46,0.13-0.9,0.36-1.33,0.48c0.04,0.35,0.23,0.75,0.31,1.12
			l0.31-0.07C23.64,22.18,24.05,22.07,24.36,21.91z M22.04,20.75c-0.12-0.19-0.13-0.54-0.22-0.72c-0.38,0.13-0.79,0.19-1.19,0.37
			c0.03,0.35,0.08,0.73,0.25,1.02l1.17-0.38l0.05-0.09C22.08,20.87,21.99,20.81,22.04,20.75z M28.49,21.88
			c-0.09-0.19-0.16-0.44-0.2-0.69c-0.48,0.12-0.97,0.26-1.43,0.39c0.1,0.4,0.13,0.82,0.28,1.21c0.47-0.1,0.93-0.3,1.41-0.4
			C28.58,22.23,28.45,22.08,28.49,21.88z M21.68,19.69c0.02-0.28-0.11-0.58-0.2-0.85c-0.43,0.11-0.8,0.35-1.2,0.55l0.26,0.74
			L21.68,19.69z M23.89,20.33c-0.11-0.3-0.11-0.66-0.27-0.87c-0.19,0.01-0.45,0.18-0.64,0.19c-0.22,0.11-0.48,0.12-0.68,0.26
			l0.26,0.89C23,20.67,23.54,20.54,23.89,20.33z M24.89,21.79l1.4-0.45l-0.32-1.25c-0.48,0.2-0.91,0.31-1.36,0.49L24.89,21.79z
			 M19.71,18.94c-0.17-0.4-0.23-0.83-0.45-1.19l-1.19,0.45c-0.12,0.06-0.22-0.1-0.32,0.02l0.6,1.35l1.29-0.51L19.71,18.94z
			 M23.4,18.29c-0.06-0.05-0.05-0.15-0.08-0.21c-0.46,0.13-0.98,0.28-1.39,0.58l0.29,0.82l1.33-0.48
			C23.58,18.77,23.46,18.5,23.4,18.29z M25.89,19.72l-0.22-0.96l-0.18-0.01c-0.19,0.17-0.46,0.2-0.73,0.32
			c-0.16,0.1-0.45,0.03-0.48,0.27c0.18,0.24,0.13,0.61,0.26,0.82C25,20.04,25.46,19.85,25.89,19.72z M28.18,20.74
			c-0.08-0.37-0.15-0.85-0.27-1.23c-0.53,0.18-1.03,0.29-1.51,0.47c0.17,0.4,0.18,0.84,0.34,1.26
			C27.22,21.06,27.79,20.92,28.18,20.74z M21.28,18c-0.07-0.39-0.3-0.8-0.35-1.16c-0.15,0.05-0.37,0.16-0.5,0.24l-0.16,0.08
			c-0.09,0.18-0.46,0.2-0.55,0.38c0.17,0.42,0.22,0.85,0.38,1.3l0.89-0.32c0.09-0.1,0.2-0.14,0.35-0.19
			C21.27,18.23,21.38,18.06,21.28,18z M27.59,18.1c-0.51,0.29-0.96,0.32-1.5,0.52c0.06,0.36,0.12,0.64,0.29,0.95
			c0.48-0.2,0.96-0.29,1.47-0.5C27.87,18.95,27.64,18.25,27.59,18.1z M20.71,16.33c-0.12-0.25-0.1-0.47-0.25-0.71l-0.65,0.32
			c-0.07,0.05-0.12,0.06-0.17,0.04c-0.08,0.08-0.23,0.15-0.33,0.2c-0.02,0.28,0.2,0.48,0.21,0.75l0.86-0.4
			c0.18,0.09,0.2-0.14,0.37-0.18L20.71,16.33z M25.6,18.32l-0.22-1.01l-0.06-0.05l-1.38,0.56l0.25,0.99
			C24.62,18.66,25.17,18.51,25.6,18.32z M22.98,16.82c0.04-0.35-0.19-0.58-0.23-0.91c-0.53,0.18-0.9,0.44-1.42,0.65
			c0.13,0.54,0.35,1.03,0.46,1.58c0.48-0.2,0.97-0.34,1.38-0.61C23.19,17.26,23.06,17.03,22.98,16.82z M27.39,16.95l-0.17-0.42
			l-1.43,0.54c-0.03,0.38,0.09,0.78,0.21,1.13l1.51-0.54C27.5,17.53,27.37,17.17,27.39,16.95z M22.67,15.45
			c-0.1-0.24-0.16-0.44-0.23-0.68c-0.54,0.13-0.95,0.42-1.46,0.64c0.04,0.25,0.11,0.5,0.23,0.75c0.54-0.23,1.01-0.38,1.47-0.66
			L22.67,15.45z M25.13,16.81l0.05-0.14l-0.49-1.67c-0.47,0.25-0.89,0.39-1.36,0.64c0.16,0.29,0.14,0.64,0.27,0.95l0.21,0.75
			C24.23,17.15,24.7,17,25.13,16.81z M21.94,13.21l-0.04-0.04c-0.48,0.27-1.06,0.44-1.48,0.76l0.38,1.07
			c0.48-0.2,1.07-0.38,1.51-0.62C22.31,13.95,22.04,13.6,21.94,13.21z M24.59,14.61l-0.19-0.71l-0.8,0.37
			c-0.06,0.03-0.18,0.01-0.21,0.08c-0.71-0.04-0.15,0.65-0.16,0.93C23.75,15.02,24.1,14.83,24.59,14.61z M27.12,16
			c-0.2-0.64-0.3-1.32-0.52-1.89c-0.51,0.21-1,0.49-1.51,0.7c0.23,0.62,0.29,1.19,0.52,1.79C26.16,16.37,26.59,16.18,27.12,16z
			 M26.36,13.84c0.29-0.16-0.02-0.53-0.05-0.74c-0.48,0.2-1.05,0.42-1.52,0.67c0.11,0.22,0.1,0.45,0.21,0.67L26.36,13.84z
			 M23.98,12.56c0.12-0.19-0.18-0.22-0.06-0.36c-0.41,0.3-0.96,0.45-1.44,0.72l0.41,1.21c0.45-0.18,1-0.35,1.41-0.71
			c-0.07-0.26-0.21-0.59-0.26-0.89L23.98,12.56z"/>
		<path class="st3" d="M28.77,13.38l1.21,4.78c0.09,0.39-0.3,0.54-0.39,0.15l-1.4-4.79C28.1,13.13,28.68,12.99,28.77,13.38z"/>
	</g>
	<g>
		<defs>
			<path id="SVGID_7_" d="M26.15,17.65c1.2,2.96,0.3,6.39-0.08,9.5c-0.79-0.36-1.52-0.58-2.31-0.91c-1.82-0.47-3.71-1.36-5.56-1.43
				c0.66-2.01,1.75-3.97,2.66-5.46c0.56-0.91,1.96-2.33,1.96-2.33c0.6-0.32,1.25-0.8,2.33-0.46C25.66,16.71,25.92,17.13,26.15,17.65
				z"/>
		</defs>
		<use xlink:href="#SVGID_7_"  style="overflow:visible;fill:#CE7717;"/>
		<clipPath id="SVGID_8_">
			<use xlink:href="#SVGID_7_"  style="overflow:visible;"/>
		</clipPath>
		<path class="st4" d="M29.25,11.76c-0.05,0.08-0.18,0.15-0.26,0.17l-0.06,0.03c-0.67,0.21-1.29,0.44-1.88,0.78
			c0.04,0.25,0.04,0.48,0.19,0.74c1.12-0.39,2.17-0.81,3.28-1.18c-0.03,0.38-0.56,0.48-0.92,0.64c-0.68,0.31-1.56,0.47-2.27,0.88
			c0.16,0.6,0.24,1.25,0.44,1.89l0.09,0.03l2.96-1c0.23-0.15,0.55-0.17,0.8-0.22c0.11,0.14-0.06,0.24-0.12,0.35
			c-0.94,0.63-2.05,0.9-3.1,1.26c-0.17-0.03-0.33,0.04-0.47,0.17c0.11,0.37,0.09,0.78,0.22,1.16c1.42-0.58,2.66-1.34,4.1-1.31
			c0.14,0.05,0.32,0.06,0.3,0.26c-0.14,0.26-0.48,0.2-0.73,0.32c-1.24,0.35-2.4,0.65-3.61,1.17c0.05,0.38,0.13,0.74,0.26,1.05
			c0.88-0.29,1.83-0.59,2.68-0.79c0.27-0.11,0.63-0.25,0.92-0.2c-0.07,0.34-0.51,0.34-0.73,0.47c-0.93,0.43-1.86,0.6-2.79,0.88
			c0.18,0.24-0.01,0.57,0.22,0.8c-0.03,0.17,0.07,0.31,0.1,0.47c1.22-0.31,2.38-0.68,3.61-0.85c0.11,0.22-0.19,0.25-0.31,0.36
			c-0.43,0.11-0.89,0.24-1.27,0.37c-0.23,0.13-0.48,0.12-0.7,0.23c-0.42,0.09-0.84,0.18-1.27,0.31c0.04,0.4,0.21,0.82,0.27,1.24
			l0.93-0.22c0.12,0.12-0.04,0.27-0.13,0.37c-0.21,0.24-0.88,0.14-0.66,0.57c0.03,0.29,0.17,0.63,0.16,0.96l0.07,0.1l0.9-0.21
			c-0.02,0.05,0.02,0.08,0.03,0.14c-0.12,0.5-1.06,0.31-0.78,0.92c0.09,0.19,0.08,0.44,0.16,0.65L31,25.13l0.11,0.06
			c0.03-0.25-0.12-0.48-0.08-0.75c-0.06-0.2-0.04-0.48,0.05-0.66c0.07-0.05,0.15,0,0.18,0.06c0.27,0.51,0.33,1.23,0.53,1.76
			c0.09,0.34,0.17,0.63,0.32,0.94c0.06-0.03,0.16-0.1,0.28-0.06c-0.11,0.33,0.55,0.06,0.31,0.45c-0.17,0.04-0.31,0.07-0.48,0.12
			l0.28,1.08c0.36-0.06,0.78-0.22,1.12-0.31c0.04,0.04,0.11,0.06,0.11,0.14l-0.03,0.09c-0.4,0.17-0.79,0.27-1.1,0.5
			c0.01,0.42,0.14,0.8,0.17,1.23c-0.02,0.07-0.06,0.16-0.16,0.15c-0.35-0.27-0.43-0.72-0.58-1.11c-0.44,0.14-0.84,0.26-1.28,0.39
			c0.08,0.21,0.16,0.44,0.01,0.65c-0.05,0.01-0.14,0.11-0.24,0.02c-0.12-0.17-0.15-0.39-0.22-0.57c-0.33,0.12-0.67,0.13-1.03,0.27
			c-0.02-0.03-0.19,0.04-0.18-0.09c0.09-0.1,0.2-0.21,0.35-0.27c0.2-0.21,0.98-0.08,0.7-0.59c-0.08-0.29-0.17-0.57-0.28-0.85
			c-0.44,0.14-0.85,0.15-1.28,0.34c0.07,0.41,0.18,0.76,0.11,1.18c-0.07,0.05-0.23,0.05-0.27-0.04l-0.32-1.02
			c-0.53,0.1-0.91,0.39-1.4,0.53c0.07,0.31,0.08,0.6,0.15,0.91c-0.07,0.05-0.12,0.12-0.2,0.14c-0.43-0.77-0.64-1.67-0.87-2.5
			c-0.35,0.19-0.67,0.21-0.99,0.38c0.05,0.15,0.1,0.3,0.03,0.45c-0.16,0.18-0.27-0.04-0.4-0.11c0.07-0.34-0.49-0.15-0.23-0.47
			l-0.3-1.01l-1.2,0.47c-0.02,0.07-0.09,0.1-0.16,0.08c-0.24-0.06-0.22-0.34-0.32-0.5c-0.32-0.42-0.26-0.84-0.62-1.22l-0.87,0.42
			c0.09,0.26,0.2,0.56,0.06,0.8c-0.15,0.05-0.22-0.18-0.33-0.24c-0.01-0.19-0.2-0.25-0.24-0.42c-0.22-0.13-0.68,0.33-0.71-0.12
			c0.07-0.21,0.24-0.31,0.45-0.39l-0.38-1.17c-0.5,0.19-0.98,0.44-1.52,0.59c0.19,0.58,0.56,1.15,0.56,1.75
			c-0.09,0.1-0.18-0.01-0.23-0.08l-0.09-0.19c-0.23-0.39-0.44-0.83-0.62-1.28c-0.23,0-0.44,0.14-0.67,0.21
			c-0.27,0.11-0.62,0.36-0.95,0.27l-0.15,0.05c0.05,0.38,0.23,0.83,0.27,1.23c-0.05,0.06-0.11,0.17-0.23,0.08
			c-0.46-0.78-0.86-1.64-1.28-2.52c-0.3,0.05-0.63,0.25-0.93,0.36c0.18,0.53,0.52,0.98,0.54,1.53c-0.05,0.01-0.14,0.18-0.25,0.04
			c-0.25-0.4-0.5-0.95-0.69-1.38c-0.44,0.13-0.86,0.4-1.31,0.56c-0.02,0.28,0.35,0.64,0,0.83c-0.63-0.5-0.63-1.41-1.04-2.1
			c-0.05-0.07-0.1-0.24-0.19-0.12L9.74,24.7c0.01,0.05,0.06,0.05,0.08,0.06c0.01,0.13-0.12,0.19-0.22,0.18
			c-0.12-0.04-0.22-0.13-0.18-0.24c0.02-0.12,0.28-0.14,0.13-0.29c0.33-0.35,0.78-0.38,1.17-0.61c-0.15-0.62-0.66-1.16-0.58-1.78
			c0.08,0.08,0.13-0.01,0.21,0.07c0.27,0.51,0.39,1.04,0.75,1.58l1.33-0.55c-0.22-0.64-0.79-1.16-0.99-1.79
			c0.08-0.16,0.19-0.04,0.29-0.03c0.06,0.12,0.18,0.01,0.24,0.13c0.33,0.48,0.48,1.07,0.81,1.55l1.03-0.42
			c-0.17-0.47-0.41-0.92-0.64-1.36c0.14-0.11,0-0.36,0.22-0.34c0.15,0.03,0.32,0.11,0.4,0.27c0.03,0.14,0.08,0.23,0.14,0.33
			l0.39,0.83l0.09,0.03c0.63-0.33,1.26-0.5,1.94-0.73l-0.24-0.58c-0.15-0.02-0.23,0.23-0.36,0.08c-0.03-0.06,0-0.15,0.04-0.19
			c0.12-0.04,0.19-0.12,0.22-0.26c0.01-0.26-0.27-0.43-0.19-0.72c-0.08-0.06-0.08-0.16-0.13-0.23c0.08-0.08,0.17-0.12,0.27-0.04
			c0.15,0.31,0.25,0.55,0.4,0.81l1.5-0.67c0.09-0.1-0.06-0.2-0.02-0.32l-0.05-0.02c-0.12-0.33-0.23-0.67-0.28-1
			c0.02-0.15-0.26-0.3-0.09-0.42c0.03-0.02,0.09-0.02,0.15,0c0.45-0.41,1.03-0.58,1.5-0.88c-0.08-0.29-0.1-0.53-0.26-0.76
			c-0.3,0.13-0.54,0.28-0.85,0.36c-0.04-0.12-0.25-0.19-0.1-0.32l0.83-0.52c-0.19-0.2-0.05-0.46-0.09-0.65
			c0.34-0.17,0.34,0.45,0.55,0.45c0.38-0.21,0.74-0.34,1.17-0.53c-0.05-0.38-0.2-0.77-0.21-1.13c-0.21,0.01-0.4,0.33-0.63,0.17
			c0.1-0.3,0.41-0.51,0.66-0.71c0.54-0.36,1.04-0.47,1.6-0.74c0.23-0.15-0.05-0.61,0.38-0.51c0.17,0.03,0.14,0.18,0.25,0.27
			c0.27-0.04,0.59-0.21,0.89-0.34l0.05-0.14c0.05-0.01,0.17-0.12,0.22-0.11c0.06-0.11,0.51-0.06,0.3-0.34
			c0.03-0.09,0.12-0.14,0.19-0.09l0.06,0.2l1-0.35c0.03,0.14,0.29,0.15,0.2,0.33c-0.38,0.13-0.82,0.19-1.11,0.42
			c0.36,0.3,0.3,0.78,0.48,1.23l1.53-0.77c0.04-0.35-0.32-0.65-0.09-0.94c0.22-0.18,0.46-0.05,0.63,0.14
			c-0.03,0.17,0.12,0.17,0.11,0.35l0.05,0.15c0.56-0.27,1.2-0.47,1.79-0.68C28.88,11.65,29.17,11.55,29.25,11.76z M13.04,24.39
			l-0.5-1.03c-0.42,0.17-0.87,0.35-1.26,0.58c0.21,0.36,0.42,0.74,0.59,1.08C12.21,24.67,12.62,24.63,13.04,24.39z M14.39,23.79
			l-0.45-0.96l-1.02,0.4l0.54,0.99C13.72,24.08,14.16,24,14.39,23.79z M17.08,23.63l-0.1-0.16c-0.55,0.25-1.21,0.41-1.75,0.72
			c0.08,0.05,0.08,0.13,0.13,0.23c0.08,0.13,0.2,0.33,0.23,0.47l0.23,0.52l0.06-0.19l1.49-0.73l-0.02-0.16
			c-0.17-0.11-0.16-0.37-0.2-0.54L17.08,23.63z M25.54,26.23c-0.13,0.01-0.03-0.14-0.12-0.2c-0.36,0.14-0.68,0.26-1,0.41l0.27,0.87
			c0.34-0.09,0.63-0.25,0.93-0.38C25.64,26.71,25.52,26.46,25.54,26.23z M27.95,27.81l-0.34-1.18c-0.46,0.13-0.77,0.36-1.24,0.45
			c0.07,0.46,0.18,0.89,0.28,1.36L27.95,27.81z M23.71,26.04c-0.19-0.43-0.21-0.88-0.47-1.27l-1.03,0.42
			c0.13,0.44,0.29,0.9,0.37,1.4C22.98,26.36,23.39,26.24,23.71,26.04z M30.71,28.76l1.15-0.41l-0.24-1.04l-1.18,0.35
			C30.57,28.02,30.54,28.42,30.71,28.76z M21.41,24.84c-0.01-0.34-0.22-0.8-0.31-1.14c-0.05-0.02-0.13,0.06-0.13,0.08
			c-0.31,0.07-0.6,0.23-0.91,0.31c0.11,0.35,0.27,0.72,0.45,1.11C20.84,25.13,21.12,25,21.41,24.84z M16.48,21.92l-0.07-0.02
			c-0.64,0.27-1.31,0.43-1.94,0.73c0.18,0.3,0.29,0.67,0.5,0.95c0.62-0.23,1.17-0.4,1.81-0.67C16.67,22.56,16.61,22.22,16.48,21.92z
			 M19.36,23.72c-0.03-0.37-0.27-0.64-0.39-0.99c-0.11-0.06-0.14,0.11-0.25,0.04c-0.31,0.15-0.69,0.28-1.03,0.35l-0.29,0.16
			c0.14,0.36,0.27,0.66,0.43,1C18.34,24.04,18.85,23.98,19.36,23.72z M27.49,26.28c0.01-0.33-0.14-0.64-0.25-0.94l-0.38,0.13
			c-0.14,0.03-0.34,0.17-0.48,0.12l-0.4,0.2l0.28,0.92L27.49,26.28z M29.72,27.26c-0.1-0.4-0.21-0.82-0.34-1.2
			c-0.44,0.08-0.79,0.27-1.19,0.37c0.12,0.41,0.21,0.82,0.27,1.23C28.86,27.5,29.31,27.4,29.72,27.26z M25.1,24.66
			c-0.13-0.15-0.09-0.42-0.22-0.57c-0.12,0.06-0.35,0.19-0.56,0.2c-0.11,0.17-0.42,0.17-0.56,0.27c0.15,0.47,0.31,0.83,0.46,1.3
			c0.37-0.08,0.71-0.25,1.07-0.41C25.25,25.2,25.1,24.94,25.1,24.66z M22.92,23.67c-0.08-0.23-0.1-0.4-0.2-0.61l-0.38,0.13
			c-0.24,0.17-0.5,0.17-0.76,0.33c0.15,0.39,0.27,0.71,0.45,1.09c0.35-0.11,0.73-0.32,1.05-0.42C23.04,24,23.05,23.82,22.92,23.67z
			 M20.73,22.43c-0.07-0.1,0.06-0.32-0.11-0.35l-1.17,0.48c0.06,0.28,0.23,0.68,0.39,0.99c0.39-0.15,0.75-0.23,1.11-0.37
			C20.95,22.92,20.81,22.66,20.73,22.43z M18.78,22.01c-0.13-0.23-0.27-0.64-0.36-0.85c-0.57,0.14-1.08,0.43-1.59,0.56
			c0.1,0.37,0.23,0.68,0.37,1.03c0.52-0.16,1.06-0.31,1.61-0.53L18.78,22.01z M31.45,26.74c0.04-0.48-0.19-0.81-0.29-1.26
			c-0.35,0.19-0.82,0.21-1.22,0.38c0.1,0.45,0.19,0.82,0.34,1.26C30.68,27.04,31.1,26.85,31.45,26.74z M29.29,25.63l-0.19-0.87
			c-0.38,0.05-0.87,0.27-1.29,0.36l0.29,0.96C28.5,25.9,28.93,25.87,29.29,25.63z M27.13,24.84c-0.07-0.47-0.17-0.94-0.3-1.37
			c-0.52,0.16-0.9,0.29-1.39,0.43c0.15,0.47,0.24,0.96,0.4,1.41C26.26,25.11,26.74,25.01,27.13,24.84z M18.17,20.46l-0.12-0.17
			l-1.51,0.62c0.04,0.19,0.11,0.35,0.2,0.54l1.53-0.54C18.37,20.73,18.18,20.59,18.17,20.46z M24.56,22.53L24.5,22.4
			c-0.41,0.14-0.83,0.31-1.27,0.45c0,0.39,0.22,0.8,0.32,1.17c0.4-0.17,0.79-0.32,1.21-0.41C24.73,23.26,24.6,22.88,24.56,22.53z
			 M22.43,22.18c0-0.23-0.12-0.48-0.22-0.72c-0.42,0.24-0.8,0.29-1.18,0.5c0.08,0.36,0.22,0.72,0.37,1.03l1.16-0.43
			c0.01-0.02-0.02-0.03,0.02-0.05C22.47,22.43,22.49,22.31,22.43,22.18z M20.49,21.41c-0.09-0.34-0.13-0.61-0.26-0.9
			c-0.46,0.13-0.91,0.31-1.36,0.49c0.14,0.36,0.21,0.75,0.39,1.04c0.4-0.17,0.8-0.29,1.28-0.47c0.1-0.07-0.09-0.11,0.02-0.2
			L20.49,21.41z M29,24.16l-0.28-1.21c-0.4,0.12-0.79,0.19-1.19,0.29c-0.51,0.13,0.07,0.54-0.01,0.85c0.03,0.22,0.1,0.4,0.15,0.54
			l1.28-0.41L29,24.16z M19.93,19.64l0.01-0.1c-0.3-0.03-0.54,0.23-0.85,0.28l-0.04-0.04c-0.11,0.17-0.39,0.15-0.52,0.31
			c0.15,0.18,0.09,0.71,0.43,0.64c0.35-0.19,0.81-0.32,1.17-0.45l0-0.23C19.94,19.92,20.08,19.74,19.93,19.64z M26.68,22.92
			l-0.29-1.19c-0.42,0.17-0.8,0.3-1.22,0.38c-0.31,0-0.1,0.3-0.1,0.43c0.05,0.3,0.1,0.6,0.26,0.84
			C25.8,23.29,26.24,23.08,26.68,22.92z M24.36,21.91l-0.31-1.12c-0.46,0.13-0.9,0.36-1.33,0.48c0.04,0.35,0.23,0.75,0.31,1.12
			l0.31-0.07C23.64,22.18,24.05,22.07,24.36,21.91z M22.04,20.75c-0.12-0.19-0.13-0.54-0.22-0.72c-0.38,0.13-0.79,0.19-1.19,0.37
			c0.03,0.35,0.08,0.73,0.25,1.02l1.17-0.38l0.05-0.09C22.08,20.87,21.99,20.81,22.04,20.75z M28.49,21.88
			c-0.09-0.19-0.16-0.44-0.2-0.69c-0.48,0.12-0.97,0.26-1.43,0.39c0.1,0.4,0.13,0.82,0.28,1.21c0.47-0.1,0.93-0.3,1.41-0.4
			C28.58,22.23,28.45,22.08,28.49,21.88z M21.68,19.69c0.02-0.28-0.11-0.58-0.2-0.85c-0.43,0.11-0.8,0.35-1.2,0.55l0.26,0.74
			L21.68,19.69z M23.89,20.33c-0.11-0.3-0.11-0.66-0.27-0.87c-0.19,0.01-0.45,0.18-0.64,0.19c-0.22,0.11-0.48,0.12-0.68,0.26
			l0.26,0.89C23,20.67,23.54,20.54,23.89,20.33z M24.89,21.79l1.4-0.45l-0.32-1.25c-0.48,0.2-0.91,0.31-1.36,0.49L24.89,21.79z
			 M19.71,18.94c-0.17-0.4-0.23-0.83-0.45-1.19l-1.19,0.45c-0.12,0.06-0.22-0.1-0.32,0.02l0.6,1.35l1.29-0.51L19.71,18.94z
			 M23.4,18.29c-0.06-0.05-0.05-0.15-0.08-0.21c-0.46,0.13-0.98,0.28-1.39,0.58l0.29,0.82l1.33-0.48
			C23.58,18.77,23.46,18.5,23.4,18.29z M25.89,19.72l-0.22-0.96l-0.18-0.01c-0.19,0.17-0.46,0.2-0.73,0.32
			c-0.16,0.1-0.45,0.03-0.48,0.27c0.18,0.24,0.13,0.61,0.26,0.82C25,20.04,25.46,19.85,25.89,19.72z M28.18,20.74
			c-0.08-0.37-0.15-0.85-0.27-1.23c-0.53,0.18-1.03,0.29-1.51,0.47c0.17,0.4,0.18,0.84,0.34,1.26
			C27.22,21.06,27.79,20.92,28.18,20.74z M21.28,18c-0.07-0.39-0.3-0.8-0.35-1.16c-0.15,0.05-0.37,0.16-0.5,0.24l-0.16,0.08
			c-0.09,0.18-0.46,0.2-0.55,0.38c0.17,0.42,0.22,0.85,0.38,1.3l0.89-0.32c0.09-0.1,0.2-0.14,0.35-0.19
			C21.27,18.23,21.38,18.06,21.28,18z M27.75,18.52c-0.09-0.11-0.11-0.27-0.17-0.42c-0.51,0.29-0.96,0.32-1.5,0.52
			c0.06,0.36,0.12,0.64,0.29,0.95c0.48-0.2,0.96-0.29,1.47-0.5C27.87,18.95,27.68,18.68,27.75,18.52z M20.71,16.33
			c-0.12-0.25-0.1-0.47-0.25-0.71l-0.65,0.32c-0.07,0.05-0.12,0.06-0.17,0.04c-0.08,0.08-0.23,0.15-0.33,0.2
			c-0.02,0.28,0.2,0.48,0.21,0.75l0.86-0.4c0.18,0.09,0.2-0.14,0.37-0.18L20.71,16.33z M25.6,18.32l-0.22-1.01l-0.06-0.05
			l-1.38,0.56l0.25,0.99C24.62,18.66,25.17,18.51,25.6,18.32z M22.98,16.82c0.04-0.35-0.19-0.58-0.23-0.91
			c-0.53,0.18-0.9,0.44-1.42,0.65c0.13,0.54,0.35,1.03,0.46,1.58c0.48-0.2,0.97-0.34,1.38-0.61C23.19,17.26,23.06,17.03,22.98,16.82
			z M27.39,16.95l-0.17-0.42l-1.43,0.54c-0.03,0.38,0.09,0.78,0.21,1.13l1.51-0.54C27.5,17.53,27.37,17.17,27.39,16.95z
			 M22.67,15.45c-0.1-0.24-0.16-0.44-0.23-0.68c-0.54,0.13-0.95,0.42-1.46,0.64c0.04,0.25,0.11,0.5,0.23,0.75
			c0.54-0.23,1.01-0.38,1.47-0.66L22.67,15.45z M25.13,16.81l0.05-0.14l-0.49-1.67c-0.47,0.25-0.89,0.39-1.36,0.64
			c0.16,0.29,0.14,0.64,0.27,0.95l0.21,0.75C24.23,17.15,24.7,17,25.13,16.81z M21.94,13.21l-0.04-0.04
			c-0.48,0.27-1.06,0.44-1.48,0.76l0.38,1.07c0.48-0.2,1.07-0.38,1.51-0.62C22.31,13.95,22.04,13.6,21.94,13.21z M24.59,14.61
			l-0.19-0.71l-0.8,0.37c-0.06,0.03-0.18,0.01-0.21,0.08c-0.71-0.04-0.15,0.65-0.16,0.93C23.75,15.02,24.1,14.83,24.59,14.61z
			 M27.12,16c-0.2-0.64-0.3-1.32-0.52-1.89c-0.51,0.21-1,0.49-1.51,0.7c0.23,0.62,0.29,1.19,0.52,1.79
			C26.16,16.37,26.59,16.18,27.12,16z M26.36,13.84c0.29-0.16-0.02-0.53-0.05-0.74c-0.48,0.2-1.05,0.42-1.52,0.67
			c0.11,0.22,0.1,0.45,0.21,0.67L26.36,13.84z M23.98,12.56c0.12-0.19-0.18-0.22-0.06-0.36c-0.41,0.3-0.96,0.45-1.44,0.72l0.41,1.21
			c0.45-0.18,1-0.35,1.41-0.71c-0.07-0.26-0.21-0.59-0.26-0.89L23.98,12.56z"/>
	</g>
	<g>
		<defs>
			<path id="SVGID_9_" d="M16.63,19.07c-0.7,0.86-1.53,1.27-2.48,1.8c0.39,1.01,0.53,1.4,0.75,2.1c0.27-0.05,0.41-0.11,0.67,0.16
				c0.47,0.44,0.51,1.02,0.77,1.65c0.47,1.17,0.79,2.38,1.29,3.55c0.45,1.05,0.83,2.09,1.14,3.2c-0.06,0.49-0.51,0.64-1.07,0.87
				c-0.29,0.12-1.16,0.3-1.47,0.05c-0.22-0.39-0.36-0.86-0.53-1.31c-0.67-1.95-1.59-3.81-2.34-5.76c-0.14-0.53-0.69-1.5,0-1.84
				c-0.14-0.78-0.47-1.45-0.78-2.14c-1.47,0.28-3.03,0.27-4.51-0.45c-1.59-0.78-2.98-2.27-3.03-4.04c-0.13-4.12,3.65-5.77,5.59-6.07
				C16.23,9.71,19.12,15.54,16.63,19.07z"/>
		</defs>
		<use xlink:href="#SVGID_9_"  style="overflow:visible;fill:#006E73;"/>
		<clipPath id="SVGID_10_">
			<use xlink:href="#SVGID_9_"  style="overflow:visible;"/>
		</clipPath>
		<path class="st5" d="M16.68,23.35c0.64,2.4,1.83,4.55,2.5,6.91c0.32,0.92,1.36,2.87,1.39,3.89c-0.14,0.18-1.4,0.84-1.61,0.95
			c-0.53,0.28-2.09,0.57-2.66,0.57c-0.46-1.76-1.84-4.53-2.62-6.18c-0.49-1.69-0.99-3.33-1.73-4.99c0.11-0.6,3.72-2,4.21-1.72
			L16.68,23.35z"/>
	</g>
	<path class="st6" d="M16.94,16.93c-0.31,1.75-1.48,2.86-3,3.48c-1.16,0.48-2.13,0.69-3.08,0.47c-1.7-0.19-3.14-1.59-3.84-3
		c-0.49-1.28-0.98-4.17,2.39-5.96C12.96,10.02,17.09,12.14,16.94,16.93z"/>
	<path class="st7" d="M10.64,14.75c-0.06,0.48-0.45,0.86-0.86,1.03c-0.47,0.03-0.92-0.11-1.22-0.44c-0.25-0.25-0.25-0.71-0.08-0.95
		C9.32,13.13,10.74,13.91,10.64,14.75z"/>
</g>
</svg>
