<?xml version="1.0" encoding="utf-8"?>
<!-- Generator: Adobe Illustrator 24.2.0, SVG Export Plug-In . SVG Version: 6.00 Build 0)  -->
<svg version="1.1" id="Lager_1" xmlns="http://www.w3.org/2000/svg" xmlns:xlink="http://www.w3.org/1999/xlink" x="0px" y="0px"
	 viewBox="0 0 39.69 39.69" style="enable-background:new 0 0 39.69 39.69;" xml:space="preserve">
<style type="text/css">
	.st0{fill-rule:evenodd;clip-rule:evenodd;fill:#4AA0AF;}
	.st1{clip-path:url(#SVGID_2_);fill-rule:evenodd;clip-rule:evenodd;}
	.st2{fill:#E5A55B;}
	.st3{fill:#BB624F;}
	.st4{fill-rule:evenodd;clip-rule:evenodd;}
	.st5{fill:#F4DDC5;}
	.st6{fill-rule:evenodd;clip-rule:evenodd;fill:#FFFFFF;}
	.st7{fill-rule:evenodd;clip-rule:evenodd;fill:#BB624F;}
	.st8{clip-path:url(#SVGID_4_);fill:#E5A55B;}
</style>
<g>
	<path class="st0" d="M0.08,20.88C-0.5,9.96,7.89,0.65,18.81,0.08c10.92-0.57,20.23,7.81,20.8,18.73
		c0.57,10.92-7.81,20.23-18.73,20.8C9.96,40.18,0.65,31.79,0.08,20.88z"/>
	<g>
		<defs>
			<path id="SVGID_1_" d="M16.23,20.19c0.3,0.55,0.03,1.34-0.38,1.81c-0.1,0.03-0.1,0.09-0.2,0.14c0.82,0.71,1.1,1.64,1.38,2.62
				c0.92,0.63,2.12,1.33,2.15,2.61c0.15,1.41-0.63,2.76-1.83,3.42c-1.3,0.81-2.92,1.2-4.49,0.96c-0.49-0.13-0.84-0.43-1.34-0.5
				c-0.59,0.92-1.72,0.97-2.67,0.78c-0.45-0.19-1-0.41-1.15-0.92c-0.19-0.36-0.19-0.89-0.01-1.25c-0.51-0.35-0.81-0.87-1.06-1.35
				c-0.44,0.12-0.98,0.24-1.37-0.06c-0.24-0.17-0.34-0.43-0.32-0.71C5,27.48,5.15,27.21,5.43,27.1c0.35-0.04,0.69-0.04,1.02,0.1
				c-0.02-1.34,0.45-2.37,0.45-2.37c-0.22-0.01-0.5,0.06-0.74-0.05c-0.54-0.24-0.58-0.66-0.52-1.1c0.08-0.21,0.12-0.33,0.22-0.51
				c0.36-0.22,0.77-0.26,1.12-0.05c0.18,0.11,0.43,0.31,0.51,0.5c0.35-0.69,0.84-1.12,1.43-1.52c-0.3-0.18-0.63-0.36-0.7-0.74
				c-0.03-0.47,0.03-0.93,0.51-1.12c0.41-0.13,0.88-0.04,1.14,0.31c0.14,0.23,0.21,0.53,0.25,0.79c1.24-0.35,2.79-0.65,4.22-0.14
				c-0.1-0.32,0.05-0.78,0.32-1.04C15.08,19.77,15.87,19.57,16.23,20.19z"/>
		</defs>
		<use xlink:href="#SVGID_1_"  style="overflow:visible;fill:#BB624F;"/>
		<clipPath id="SVGID_2_">
			<use xlink:href="#SVGID_1_"  style="overflow:visible;"/>
		</clipPath>
		<path class="st1" d="M7.34,30.42C8,28.75,9.52,29.89,9.6,28.79c0.08-1.12-0.71-2.04-0.64-3.16c0.18-2.54,2.64-4.1,5.18-3.92
			c1.47,0.1,2.86,1.37,2.89,0.98c0.09-1.28,0.46-3.16-0.82-3.25c-2.13-0.15-6.63-0.39-8.43,0.81c-1.96,1.31-2.98,3.61-3.14,5.94
			C4.6,26.8,4.75,27.43,4.7,28.05C4.63,29.16,6.52,29.66,7.34,30.42z"/>
	</g>
	<path d="M15.65,24.52c0.06,0.39-0.26,0.48-0.42,0.49c-0.18-0.05-0.39-0.16-0.44-0.35c-0.05-0.19,0.19-0.36,0.35-0.41
		C15.37,24.15,15.56,24.31,15.65,24.52z"/>
	<path d="M16.22,26.17c0.12,0.51-0.09,1.03-0.47,1.31c-0.49,0.36-1.14,0.67-1.8,0.31c-0.42-0.17-0.11-0.6,0.21-0.36
		c0.62,0.2,1.24,0.05,1.56-0.51c0.24-0.36,0.07-0.62-0.1-0.91C15.53,25.9,15.91,25.43,16.22,26.17z"/>
	<path d="M12.42,26.53c0.11,0.16,0.13,0.41-0.01,0.56c-0.17,0.18-0.38,0.1-0.6,0.11c-0.21-0.08-0.37-0.55,0.03-0.84
		C12.03,26.35,12.31,26.31,12.42,26.53z"/>
	<path d="M17.98,27.33c-0.08,0.27-0.3,0.39-0.51,0.62c-0.87,0.87-2.06,1.45-3.15,1.87c-0.17,0.07-0.25-0.05-0.26-0.24
		c0.18-0.3,1.2-0.17,3.3-2.03c0.2-0.19,0.23-0.33,0.42-0.42C17.85,27.08,17.95,27.23,17.98,27.33z"/>
	<path class="st2" d="M21.36,10.01c-0.24,0.64,0.16,2.04,0.22,2.68c-0.22-0.25-0.65-0.56-1.05-0.46c-0.27,0.06-0.54,0.25-0.66,0.46
		c-0.31,0.93-0.29,1.39,0.22,2.25c0.83,1.39,1.75-0.2,1.44,1.38c-0.52,2.06,2.12,3.09,2.91,3.11c2.51,0.38,4.38-0.19,5.32-1.37
		c0.41-0.54,0.27-2.01,0.98-1.38c0.33,0.29,1.02-0.19,1.36-0.44c0.56-0.68,1.06-1.81,0.64-2.62c-0.12-0.35-0.1-0.47-0.63-0.7
		c-0.54-0.04-1,0.34-1.43,0.62c0,0-0.07-0.11,0.02-0.14c1.55-2.14,0.53-4.23,0.53-4.23c-0.63-1.09-1.29-1.68-2.78-2.16
		C24.29,5.68,21.61,8.74,21.36,10.01z"/>
	<path d="M22.92,11.18c-0.21,0.09-0.34,0.31-0.04,0.43c0.13,0.09,1.58,0.08,2.11-0.27c0.16-0.22,0.05-0.27-0.08-0.39
		C24.39,10.58,23.03,11.01,22.92,11.18z"/>
	<path d="M27.81,11.64c0.11,0.06,1.23,0.42,1.83,0.48c0.19,0.04,0.28-0.04,0.3-0.26c-0.26-0.46-1.95-1.02-2.2-0.56
		C27.65,11.45,27.81,11.64,27.81,11.64z"/>
	<path d="M23.24,12.91c0.04,0.42,0.41,0.42,0.58,0.36c0.51-0.09,0.31-0.63,0.09-0.69C23.65,12.47,23.36,12.53,23.24,12.91z"/>
	<path d="M28.06,13.03c0.04,0.22,0.25,0.34,0.45,0.37c0.19-0.03,0.41-0.14,0.39-0.4c0.01-0.17-0.13-0.3-0.32-0.35
		C28.33,12.57,28.02,12.74,28.06,13.03z"/>
	<path class="st3" d="M23.08,17.13c1.26,0.67,2.84,1.07,4.49,0.69c0.27-0.06,0.56-0.16,0.75-0.39c0.05-0.1,0.01-0.29-0.16-0.27
		c-0.38,0.33-0.84,0.34-1.21,0.42c-1.3,0.15-2.67-0.2-3.83-0.79C22.96,16.75,22.82,17,23.08,17.13z"/>
	<path class="st3" d="M25.41,11.87c-0.56,1.15-0.9,2.45-1.17,3.59c0.02,0.48,0.16,0.77,0.29,0.95c0.29,0.36,0.68,0.38,1.16,0.42
		c1.07,0.08,1.41-1.47,1.41-1.57c-0.03-0.09-0.2-0.24-0.39-0.07c-0.25,0.64-0.35,1.08-0.79,1.27c-0.34,0.05-0.83-0.05-1.1-0.35
		c-0.46-1.25,0.4-2.59,0.79-3.7C26.01,11.79,25.56,11.66,25.41,11.87z"/>
	<path class="st4" d="M27.36,10.83c0.83,0.08,0.28-0.84,0.1-1.33c0.96,1.28,2.86,1.35,2.96,2.71c0.07,1.02-0.17,0.85-0.23,1.87
		c0.1,0.51,0.52,0.28,0.64,0.25c0.66-0.18,0.59-0.97,0.8-1.6c0.43-1.21,0.69-2.23,0.36-3.46c-0.67-2.49-2.85-3.4-5.69-2.95
		c-0.63,0.1-1.24-0.52-1.86-0.35c-0.86,0.23-1.6,0.56-2.22,1.17c-1.35,1.34-1.84,2.59-1.34,4.45c0.18,0.68-0.07,1.9,0.62,2.04
		c0.89,0.18,0.44-0.29,0.72-1.77c0.43-2.27,2.64-3.36,3.16-2.42C25.38,9.44,26.48,10.74,27.36,10.83z"/>
	<path class="st5" d="M31.67,23.93c0.42,1.17,0.11,2.44-0.16,3.69c0.35-0.07-1.84,3.79-2.08,3.49c-0.18,0.33-0.8,1.36-2.39,1.92
		c-7.37,2.57-7.17-3.09-7-4.25c0.2-2.8,1.14-5.73,3.83-7.09c1.32-0.79,3.06-0.8,4.52-0.51C28.58,21.22,31.48,21.25,31.67,23.93z"/>
	<path d="M22.88,26.29c-0.14,0.15-0.33,0.2-0.54,0.12c-0.48-0.26-0.11-0.7,0.05-0.75C22.83,25.52,23.08,26,22.88,26.29z"/>
	<path d="M26.86,26.18c0,0.28-0.16,0.39-0.32,0.48c-0.65,0.17-0.8-0.5-0.55-0.73C26.31,25.64,26.8,25.67,26.86,26.18z"/>
	<path class="st3" d="M21.95,30.55c1.16,0.65,2.54,0.68,3.8,0.33c0.24-0.09,0.39,0.24,0.08,0.33c-1.55,0.55-3.24,0.27-4.39-0.54
		c-0.06-0.07-0.11-0.2-0.04-0.29C21.63,30.18,21.74,30.47,21.95,30.55z"/>
	<path class="st2" d="M24.21,27.2c-0.1,0.47-0.29,1.47-0.57,1.24c-0.33-0.26-1.06-0.65-1.31-0.04c-0.13,0.56,0.13,1.01,0.49,1.29
		c0.51,0.32,1.08,0.03,1.56-0.07c0.12,0.04,0.18,0.2,0.11,0.29c-0.52,0.25-1.07,0.43-1.69,0.26c-0.49-0.19-0.93-0.73-0.95-1.27
		c-0.01-0.38,0.08-0.72,0.32-0.99c0.34-0.36,0.85-0.32,1.24-0.07c0.37,0.28,0.35-0.58,0.5-0.82C24,26.95,24.21,26.98,24.21,27.2z"/>
	<path class="st6" d="M24.93,22.38c0.47,0.05,4.79,0.02,2.91,6.92c-0.26,0.98-0.4,1.73-1.86,4.67c-0.6,0.9,0.68,1.47,2.56-1.17
		c-0.44,1.33,1.28,0.64,1.77-1.5c0.04,0.08,0.34,2.29,2.41-1.13c0.94-1.92,2.52-5.83-1.47-7.75c4.29,1.28-0.68-3.84-6.28-1.96
		c-3.95,1.33-4.89,4.54-4.83,6.6C20.17,28.49,21.29,21.97,24.93,22.38z"/>
	<path class="st2" d="M24.17,26.29c0.03,0.21-0.15,0.26-0.24,0.25c-0.26,0.02-0.23-0.27-0.13-0.33
		C23.92,26.12,24.07,26.12,24.17,26.29z"/>
	<path class="st2" d="M25.15,27.12c0.03,0.21-0.15,0.26-0.24,0.25c-0.26,0.02-0.23-0.27-0.13-0.33
		C24.89,26.95,25.05,26.94,25.15,27.12z"/>
	<path class="st2" d="M25.04,28.25c0.03,0.21-0.15,0.26-0.24,0.25c-0.26,0.02-0.23-0.28-0.13-0.33
		C24.78,28.08,24.93,28.07,25.04,28.25z"/>
	<path class="st2" d="M26.24,27.64c0.03,0.21-0.15,0.25-0.24,0.25c-0.26,0.02-0.23-0.27-0.13-0.33
		C25.98,27.48,26.14,27.47,26.24,27.64z"/>
	<path class="st2" d="M23.08,27.15c0.03,0.21-0.15,0.26-0.24,0.25c-0.26,0.02-0.23-0.27-0.13-0.33
		C22.83,26.99,22.98,26.98,23.08,27.15z"/>
	<path class="st6" d="M24.4,22.08c-1.01,0.41-1.66,1.03-1.28,2.07c0.37,1.01,1.62-0.71,1.62-0.71c0.22-0.29,0.29-0.2,0.24,0.07
		c-0.04,0.21-0.08,0.57,0.1,1.05c0,0,1.58,2.14,2.63-1.88C27.85,22.17,24.93,22.12,24.4,22.08z"/>
	<path class="st7" d="M28.28,26.25c0,0,0.1,0.53,0.19-1.39c0.09-2.09-0.49-3.84-2.86-3.84c-2.79,0-4.4,2.48-4.7,4.59
		C20.85,25.97,24.86,18.47,28.28,26.25z"/>
	<g>
		<defs>
			<path id="SVGID_3_" d="M6.99,9.9c-2,3.04-2.6,6.31-1.37,7.42c0.89,1.08,1.75,1.31,3.03,1.99c0.58,0.29,1.05,0.5,1.6,0.31
				c0.5-0.17,0.21-1.38,0.21-1.53c0.17,0.14,1.53,0.78,2.25,1.04c1.75,0.44,3.5-0.09,4.57-1.4c1.1-1.37,1.25-3.3,0.92-5.05
				c-0.34-0.97-0.9-2.65-3-4.07c-0.53-0.28-0.42-0.32-1.13-0.62C11.7,7.06,8.39,7.77,6.99,9.9z"/>
		</defs>
		<use xlink:href="#SVGID_3_"  style="overflow:visible;fill:#FCCB8D;"/>
		<clipPath id="SVGID_4_">
			<use xlink:href="#SVGID_3_"  style="overflow:visible;"/>
		</clipPath>
		<path class="st8" d="M6.25,9.31c-0.9,2.13-1.93,5.47-1.63,7.91c0.68,1.1,2.6,1.61,3.64,2.26c0.45,0.15,2.17,0.86,2.67,0.89
			c-0.82-2.63-0.61-5.92,0.07-8.24c0.45-1.56,0.97-2.45,2.61-3.24c0.34-0.16,1.72-0.33,2.11-0.33c-0.21-0.09-1.8-1.22-2.19-1.22
			C12.24,6.78,7.25,6.93,6.25,9.31z"/>
	</g>
	<path d="M15.97,11.55c-0.02,0.16-0.07,0.32,0.06,0.48c0.13,0.02,0.25,0.08,0.4,0.05c0.48-0.1,0.36-0.59,0.17-0.72
		C16.39,11.17,16.1,11.31,15.97,11.55z"/>
	<path d="M12.49,11.82c-0.01,0.19-0.08,0.4,0.24,0.5c0.51,0.17,0.77-0.44,0.45-0.68C12.91,11.44,12.58,11.55,12.49,11.82z"/>
	<path class="st3" d="M14.72,13.13c-0.03,0.18,2.04,0.48,2.12,0.58c0.18,0.22-0.59,0.4-0.86,0.55c-0.48,0.21-0.8,0.38-1.28,0.55
		c-0.12,0.14-0.01,0.34,0.2,0.25c0.79-0.3,1.37-0.55,2.11-0.94c0.22-0.11,0.27-0.33,0.24-0.45c-0.09-0.29-0.78-0.34-1.34-0.49
		C15.32,13.01,14.73,12.72,14.72,13.13z"/>
	<path class="st3" d="M11.47,16.35c1.66,0.71,3.74,0.68,5.37,0c0.37-0.14,0.18-0.43,0.09-0.39c-1.81,0.8-3.71,0.74-5.52-0.03
		C11.29,15.88,10.98,16.17,11.47,16.35z"/>
	<path class="st3" d="M14.58,11.99c-0.18-0.8-1.31-1.35-2.52-1.24c-1.22,0.11-2.06,0.85-1.89,1.64c0.18,0.8,1.31,1.35,2.52,1.25
		C13.91,13.53,14.76,12.79,14.58,11.99z M13.48,12.09c0.09,0.4-0.33,0.77-0.94,0.82c-0.61,0.06-1.17-0.22-1.26-0.62
		c-0.09-0.4,0.34-0.77,0.94-0.82C12.83,11.42,13.39,11.7,13.48,12.09z"/>
	<path class="st3" d="M19.25,11.05c-0.31-0.75-1.52-1.11-2.7-0.79c-1.18,0.32-1.89,1.19-1.57,1.95c0.31,0.76,1.52,1.11,2.7,0.79
		C18.86,12.67,19.56,11.8,19.25,11.05z M18.18,11.34c0.16,0.38-0.2,0.81-0.79,0.97c-0.59,0.16-1.2-0.02-1.35-0.39
		c-0.16-0.38,0.2-0.81,0.79-0.97C17.42,10.78,18.03,10.96,18.18,11.34z"/>
</g>
</svg>
