<?xml version="1.0" encoding="utf-8"?>
<!-- Generator: Adobe Illustrator 24.2.0, SVG Export Plug-In . SVG Version: 6.00 Build 0)  -->
<svg version="1.1" id="Layer_1" xmlns="http://www.w3.org/2000/svg" xmlns:xlink="http://www.w3.org/1999/xlink" x="0px" y="0px"
	 viewBox="0 0 39.69 39.69" style="enable-background:new 0 0 39.69 39.69;" xml:space="preserve">
<style type="text/css">
	.st0{clip-path:url(#SVGID_2_);fill:#8A77B2;}
	.st1{clip-path:url(#SVGID_4_);}
	.st2{stroke:#000000;stroke-width:0.0863;}
	.st3{clip-path:url(#SVGID_6_);}
</style>
<g id="Layer_3">
</g>
<g id="Layer_1_1_">
</g>
<g id="Layer_2_1_">
</g>
<g id="Layer_1_copy">
	<g>
		<g>
			<defs>
				<circle id="SVGID_1_" cx="19.84" cy="19.84" r="19.85"/>
			</defs>
			<clipPath id="SVGID_2_">
				<use xlink:href="#SVGID_1_"  style="overflow:visible;"/>
			</clipPath>
			<circle class="st0" cx="19.84" cy="19.84" r="19.85"/>
		</g>
		<g>
			<defs>
				<circle id="SVGID_3_" cx="19.84" cy="19.84" r="19.85"/>
			</defs>
			<clipPath id="SVGID_4_">
				<use xlink:href="#SVGID_3_"  style="overflow:visible;"/>
			</clipPath>
			<g id="layer2" class="st1">
				<path id="path2995" class="st2" d="M23.63,6.59c0,0-3.04,0.51-3.21,0.54c-0.16,0.03-0.22-0.23-0.22-0.23s-0.09-0.17-0.48-0.81
					s-0.88-0.74-1.43-0.9c-0.55-0.16-1.26-0.03-1.76,0.18c-0.51,0.22-1.14,0.86-1.22,0.93c-0.08,0.08-0.33-0.09-0.33-0.09
					s-2.11-2.03-2.12-2.11c-0.01-0.09,0.3-0.47,0.88-1.06c0.58-0.58,1.24-0.93,2.74-1.54c1.5-0.6,2.79-0.44,3.47-0.28
					s1.2,0.71,2.32,1.88c1.12,1.17,1.5,3.33,1.5,3.33L23.63,6.59z"/>
				<path id="path3785" class="st2" d="M23.79,7.85c0.16,0.05,0.1,0.27,0.1,0.27s0.03,1.31,0.04,1.51c0.01,0.19-0.02,0.39-0.05,0.46
					c-0.03,0.07-0.13,0.01-0.35-0.01c-0.2-0.03-0.33-0.09-0.54-0.03c-0.22,0.05-0.19,0.07-0.28,0.05s-0.76-0.03-0.89-0.06
					c-0.13-0.03-0.76,0.02-1.02,0.03c-0.27,0.01-0.29-0.29-0.25-0.37c0.04-0.08,0.03-0.43,0.04-0.76c0.01-0.32-0.08-0.47-0.08-0.58
					C20.5,8.24,20.79,8.2,20.79,8.2l2.53-0.39C23.33,7.8,23.62,7.8,23.79,7.85z"/>
				<path id="path3787" class="st2" d="M23.08,11.45c0,0,0.04-0.03,0.13-0.04c0.08-0.01,0.2-0.02,0.41,0.03
					c0.2,0.05,0.1,0.07,0.19,0.2c0.09,0.13,0.03,0.18,0.04,0.46c0.02,0.28,0,0.49-0.01,0.75s-0.05,0.33-0.09,0.58
					s-0.1,0.22-0.23,0.28c-0.12,0.06-0.23-0.02-0.55-0.06c-0.34-0.04-0.3,0-0.51-0.02c-0.22-0.01-0.4,0.02-0.61-0.02
					c-0.22-0.04-0.57-0.12-0.86-0.19s-0.51-0.14-0.63-0.23s-0.11-0.26-0.06-0.45c0.06-0.2,0.2-1.15,0.22-1.27
					c0.01-0.13,0.19-0.06,0.19-0.06s0.22-0.02,0.48,0.03C21.44,11.5,23.08,11.45,23.08,11.45L23.08,11.45z"/>
				<path id="path3789" class="st2" d="M22.59,17.43c0,0-0.17-0.04-0.4-0.09c-0.23-0.05-0.61-0.12-1.11-0.31
					c-0.49-0.17-1.7-0.72-1.78-0.8c-0.09-0.08,0.04-0.15,0.19-0.46c0.15-0.31,0.44-1.35,0.44-1.35l3.33,0.68L22.59,17.43z"/>
				<path id="path3791" class="st2" d="M21.88,18.78c0,0-0.92,1.59-1.06,1.79c-0.13,0.2-0.15,0.17-0.15,0.17s-2.93-1.9-2.99-1.94
					c-0.06-0.04,0.01-0.13,0.01-0.13s0.87-1.29,0.95-1.37c0.08-0.07,0.14-0.05,0.14-0.05l3.16,1.33L21.88,18.78z"/>
				<path id="path3793" class="st2" d="M18.4,23.81c0,0-2.48-2.43-2.57-2.48c-0.09-0.06-0.01-0.16-0.01-0.16l1.17-1.42l2.85,2.23
					L18.4,23.81z"/>
				<path id="path3795" class="st2" d="M18.62,6.55c-0.1,0-0.07,0.03-0.12,0.1c-0.05,0.07-0.13,0.25-0.22,0.37
					c-0.08,0.12-0.05,0.41-0.05,0.41s0.05,0.08,0.09,0.14c0.05,0.04,0.12,0.13,0.35,0.37c0.22,0.24,0.23,0.32,0.3,0.48
					c0.07,0.16,0.24,0.54,0.29,0.64c0.05,0.08,0.1,0.16,0.2,0.19c0.1,0.02,0.11-0.11,0.12-0.17s-0.02-0.27-0.01-0.45
					c0.01-0.18-0.04-0.43-0.07-0.64c-0.03-0.2-0.14-0.64-0.26-0.85c-0.11-0.22-0.42-0.52-0.42-0.52C18.83,6.6,18.73,6.55,18.62,6.55
					z"/>
				<path id="path3797" class="st2" d="M17.77,8.95c0,0-0.3,0.85-0.43,1.22c-0.13,0.37-0.05,0.49-0.05,0.49s1.7,2.42,1.78,2.46
					s0.09-0.04,0.09-0.04l0.37-1.78l-1.62-2.35L17.77,8.95z"/>
				<path id="path3799" class="st2" d="M18.76,14.76c0,0-0.45,1.1-0.52,1.22c-0.06,0.12-0.24-0.04-0.24-0.04s-1.58-2.02-1.66-2.11
					s-0.07-0.29-0.07-0.29s0.36-1.18,0.42-1.36c0.06-0.18,0.22-0.02,0.22-0.02L18.76,14.76L18.76,14.76z"/>
				<path id="path3801" class="st2" d="M17.42,17.42c0,0-0.37,0.68-0.49,0.92c-0.13,0.25-0.31-0.05-0.31-0.05s-1.05-1.52-1.18-1.69
					c-0.13-0.17-0.11-0.29-0.11-0.29s0.12-0.37,0.28-0.94c0.15-0.58,0.38-0.33,0.38-0.33l1.5,2.11L17.42,17.42z"/>
				<path id="path3803" class="st2" d="M14.97,18.08c0,0,0.99,1.09,1.11,1.16c0.11,0.07,0,0.24,0,0.24l-0.88,1.01l-0.8-1.14
					l0.43-1.28L14.97,18.08z"/>
				<path id="path3805" class="st2" d="M17.52,6.07c0.07,0.02,0.1,0.08,0.1,0.08l-0.25,0.96h-0.06c0,0-0.3,0.04-0.51,0.06
					c-0.22,0.02-0.82,0.37-0.96,0.39c-0.15,0.02-0.34,0.2-0.44,0.18c-0.1-0.02-0.05-0.12-0.05-0.12s0.1-0.16,0.63-0.72
					c0.52-0.55,1.43-0.88,1.43-0.88S17.45,6.05,17.52,6.07z"/>
				<path id="path3807" class="st2" d="M16.66,8.54c0,0,0.11,0.03,0.17,0.04c0.06,0.01-0.07,0.26-0.07,0.26s-0.24,0.72-0.33,1.11
					c-0.09,0.38-0.14,0.28-0.14,0.28s-2.67,0.72-2.78,0.68c-0.1-0.03-0.05-0.07-0.08-0.17c-0.02-0.1,0.04-0.13,0.16-0.18
					c0.12-0.05,0.06-0.17,0.13-0.46c0.07-0.29,0.23-0.4,0.44-0.71s0.1-0.11,0.33-0.35c0.23-0.25,0.14-0.08,0.31-0.09
					c0.16-0.01,0.26,0.01,0.26,0.01L16.66,8.54L16.66,8.54z"/>
				<path id="path3809" class="st2" d="M15.65,11.52c0,0,0.17,0.04,0.24,0.1c0.07,0.06,0,0.15,0,0.15s-0.33,0.87-0.36,1.05
					c-0.03,0.17-0.22,0.24-0.22,0.24s-2.35,0.87-2.64,0.98c-0.31,0.12-0.32-0.18-0.32-0.18s0.42-1.47,0.47-1.61
					c0.05-0.14,0.23-0.05,0.23-0.05l2.52-0.63L15.65,11.52z"/>
				<path id="path3811" class="st2" d="M14.88,14.74c0,0-0.33,1.21-0.31,1.27s-0.2,0.19-0.2,0.19s-1.61,0.56-1.88,0.66
					c-0.28,0.09-0.45,0.07-0.66,0.03c-0.2-0.04-0.1-0.12-0.08-0.44s0.1-0.71,0.17-0.96s0.15-0.2,0.43-0.34
					c0.28-0.13,2.45-0.56,2.45-0.56L14.88,14.74z"/>
				<path id="path3813" class="st2" d="M13.12,17.9c0,0,0.19-0.06,0.59-0.23c0.4-0.16,0.24,0.31,0.24,0.31s-0.23,0.79-0.26,1.01
					c-0.03,0.22-0.28,0.26-0.28,0.26s-0.99,0.45-1.43,0.65c-0.44,0.19-0.4-0.08-0.4-0.08s0.03-0.49,0.05-0.96
					c0.02-0.47,0.32-0.41,0.32-0.41L13.12,17.9L13.12,17.9z"/>
				<path id="path3815" class="st2" d="M14.39,7.25c0.05,0.04-0.09,0.33-0.18,0.33c-0.09,0-0.63,0.84-0.81,1.19
					c-0.19,0.35-0.4-0.04-0.5-0.2c-0.1-0.16-0.29-0.17-0.29-0.17S11.29,7.35,11,7.18c-0.3-0.16,0.04-0.52,0.04-0.52
					s0.8-1.23,0.96-1.34c0.17-0.11,0.29,0.11,0.29,0.11l1.81,1.6C14.09,7.02,14.34,7.2,14.39,7.25z"/>
				<path id="path3817" class="st2" d="M12.39,9.79c0,0,0.16,0.1,0.23,0.18s0.04,0.22,0.01,0.25c-0.03,0.03-0.13,0.13-0.18,0.32
					c-0.05,0.17-0.04,0.24-0.13,0.51c-0.09,0.28-0.16,0.47-0.2,0.56c-0.04,0.08-0.11,0.09-0.27,0.07c-0.15-0.02-0.16-0.14-0.2-0.26
					c-0.03-0.1-0.1-0.06-0.28-0.15s-0.26-0.08-0.4-0.13s-0.5-0.24-0.68-0.32c-0.17-0.08-0.71-0.33-0.85-0.36
					c-0.14-0.03-0.32-0.22-0.32-0.35S9.2,9.9,9.3,9.61c0.09-0.29,0.39-0.86,0.47-1.07c0.08-0.2,0.24-0.15,0.39-0.12
					c0.15,0.03,0.25,0.08,0.42,0.17c0.17,0.09,0.04,0.13,0.14,0.24c0.1,0.11,0.08,0.05,0.32,0.09c0.24,0.03,0.2,0.09,0.61,0.29
					C12.05,9.4,12.39,9.79,12.39,9.79L12.39,9.79z"/>
				<path id="path3819" class="st2" d="M11.34,12.62c0,0,0.08,0.05,0.23,0.14c0.14,0.08,0.05,0.2,0.05,0.2s-0.22,0.88-0.28,1.15
					s-0.15,0.15-0.2,0.17s-0.1,0-0.1,0s-0.02,0.01-0.1-0.01c-0.08-0.02-0.17-0.04-0.28-0.14c-0.11-0.1-0.31-0.01-0.31-0.01
					s-1.98-0.53-2.13-0.59s-0.14-0.42-0.14-0.42s0.41-1.31,0.44-1.37s0.06-0.16,0.25-0.23s0.22,0,0.35,0.06
					c0.13,0.05,0.29,0.24,0.43,0.3s0.09,0.03,0.25,0.05c0.16,0.02,0.22,0.05,0.42,0.12c0.2,0.07,0.25,0.17,0.45,0.25
					C10.86,12.34,11.34,12.62,11.34,12.62L11.34,12.62z"/>
				<path id="path3821" class="st2" d="M10.87,15.41c0,0,0.1,0.02,0.17,0.06s0.03,0.13,0.05,0.2c0.02,0.06-0.13,0.58-0.12,0.68
					c0,0.08-0.08,0.38-0.14,0.56c-0.07,0.18-0.04,0.12-0.12,0.19c-0.08,0.07-0.06,0.02-0.23,0.09c-0.16,0.07-0.26-0.01-0.43-0.05
					c-0.17-0.04-0.28-0.05-0.58-0.1C9.16,17,9.28,17.03,9.05,17.01c-0.24-0.02-0.44-0.02-0.52-0.03C8.44,16.97,7.91,17,7.78,16.96
					c-0.13-0.04-0.3-0.12-0.3-0.12s0.04-0.08,0.06-0.17c0.02-0.09-0.09-0.38-0.05-0.74c0.04-0.36,0.02-0.74,0.07-0.99
					c0.05-0.27,0.16-0.19,0.28-0.25c0.1-0.04,0.35,0.07,0.4,0.12c0.05,0.05,0.08,0.09,0.22,0.11c0.12,0.02,0.13-0.05,0.19-0.03
					c0.07,0.02,0.23,0.05,0.46,0.08C9.36,14.99,10.87,15.41,10.87,15.41L10.87,15.41z"/>
				<path id="path3823" class="st2" d="M10.5,18.55c0,0,0.18-0.02,0.31,0.01s-0.05,0.31-0.05,0.39c0,0.08,0.04,0.58,0.05,0.65
					c0.01,0.06,0,0.49-0.01,0.73c-0.01,0.24-0.29,0.14-0.29,0.14s-2.63,0.73-2.97,0.8s-0.39-0.32-0.39-0.32l0.02-0.74
					c0,0,0.04-1.02,0.1-1.37c0.06-0.35,0.19-0.22,0.41-0.24c0.22-0.02,0.25,0.03,0.63-0.06C8.7,18.45,10.5,18.55,10.5,18.55
					L10.5,18.55z"/>
				<path id="path3825" class="st2" d="M9.11,34.45c0,0,0.12-0.1,0.25-0.13c0.12-0.03,0.2-0.01,0.31,0.02
					c0.1,0.03,0.18,0.23,0.32,0.41s0.31,0.27,0.56,0.4c0.26,0.13,0.46,0.14,0.85,0.23c0.39,0.08,0.5,0.01,0.86,0
					c0.36-0.01,0.42-0.17,0.57-0.32s0.1-0.17,0.38-0.22c0.28-0.04,0.45,0.11,0.45,0.11s1.81,1.15,2.05,1.27
					c0.24,0.12,0.33,0.18,0.44,0.28c0.11,0.08-0.02,0.24-0.02,0.24s-0.18,0.28-0.35,0.49c-0.15,0.22-1.38,0.72-1.95,1.04
					c-0.56,0.32-2.03,0.36-2.6,0.32c-0.57-0.04-2.02-0.45-2.57-0.64c-0.55-0.18-1.7-1.57-1.8-1.69c-0.1-0.12-0.31-0.65-0.41-0.8
					s0.15-0.23,0.15-0.23l2.58-0.77C9.24,34.46,9.11,34.45,9.11,34.45z"/>
				<path id="path3827" class="st2" d="M9.77,27.28c0,0,0.05-0.03,0.16-0.01c0.11,0.03,0.04,0.22,0.04,0.22s-0.22,1.55-0.26,1.71
					c-0.04,0.16-0.27,0.13-0.27,0.13s-2.64-0.18-2.88-0.18c-0.24,0-0.23-0.2-0.23-0.2s0.22-1.74,0.26-1.92
					c0.04-0.18,0.27-0.11,0.27-0.11L9.77,27.28L9.77,27.28z"/>
				<path id="path3831" class="st2" d="M9.2,30.25c0,0,0.15-0.06,0.3-0.05c0.14,0.01,0.14,0.16,0.15,0.27
					c0.01,0.1-0.05,0.3-0.07,0.55c-0.03,0.26-0.11,0.42-0.16,0.52c-0.05,0.1-0.43,0.05-0.79,0.05c-0.36,0-1.73,0.06-1.96,0.05
					s-0.46-0.07-0.52-0.15c-0.06-0.08-0.11-0.22-0.11-0.36c0-0.14,0.01-0.6,0.05-0.84c0.03-0.24,0.13-0.14,0.19-0.16
					s0.25,0.01,0.43,0.04C6.89,30.21,9.2,30.25,9.2,30.25L9.2,30.25z"/>
				<path id="path3833" class="st2" d="M9.38,32.66c0.12,0.09,0,0.19,0.01,0.47c0,0.28-0.06,0.3-0.1,0.37
					c-0.04,0.07-0.3,0.14-0.5,0.11c-0.2-0.03-1,0.29-1.4,0.45c-0.41,0.16-0.95,0.32-1.07,0.36c-0.11,0.04-0.06-0.04-0.2-0.26
					c-0.14-0.22-0.17-0.97-0.18-1.2c-0.02-0.24,0.22-0.3,0.22-0.3l3-0.13C9.13,32.54,9.25,32.57,9.38,32.66z"/>
				<path id="path3835" class="st2" d="M17.1,33.82c0.05,0.04,0.03,0.18,0.04,0.29c0.01,0.1-0.07,0.38-0.12,0.6
					s-0.11,0.37-0.18,0.66c-0.07,0.29-0.12,0.19-0.12,0.19s-2.7-1.43-2.89-1.52c-0.19-0.08-0.08-0.18-0.07-0.26
					c0.02-0.07,0.11-0.44,0.17-0.55c0.05-0.12,0.08-0.12,0.17-0.16c0.09-0.04,0.17,0.08,0.17,0.08L17.1,33.82L17.1,33.82z"/>
				<path id="path3837" class="st2" d="M17.26,31.23c0,0,0.22,0.1,0.29,0.2c0.07,0.1,0.01,0.22,0.01,0.39
					c0.01,0.16-0.05,0.35-0.05,0.72c-0.01,0.37-0.2,0.28-0.2,0.28s-0.11-0.03-0.23-0.05c-0.11-0.03-0.45-0.11-0.56-0.13
					c-0.11-0.02-0.54-0.13-0.95-0.2c-0.41-0.07-0.46-0.08-0.83-0.15c-0.38-0.07-0.54-0.26-0.54-0.26s-0.11-0.23-0.06-0.44
					c0.05-0.22,0.07-0.41,0.12-0.56c0.05-0.15,0.27-0.12,0.27-0.12s0.39,0.06,0.58,0.09c0.19,0.03,0.37-0.01,0.82,0.03
					C16.35,31.02,17.26,31.23,17.26,31.23L17.26,31.23z"/>
				<path id="path3839" class="st2" d="M17.48,27.92c0,0-0.03,0.27-0.02,0.35c0,0.08,0.03,0.27,0.08,0.39
					c0.05,0.12,0.07,0.27,0.05,0.47c-0.01,0.2-0.04,0.41,0.04,0.72c0.08,0.31-0.06,0.44-0.06,0.44l-3.18-0.59
					c0,0,0.02-0.58,0.09-0.87c0.07-0.3,0.02-0.45,0.09-0.77c0.06-0.32,0.15-0.36,0.3-0.33c0.13,0.03,0.23,0,0.39-0.03
					c0.16-0.02,0.3,0.02,0.51,0c0.22-0.02,0.13,0.05,0.37,0.11s1.16,0.08,1.16,0.08L17.48,27.92z"/>
				<path id="path3841" class="st2" d="M13.55,28.58c0,0,0.1,0.07,0.16,0.19c0.06,0.12,0.01,0.35,0,0.52
					c-0.01,0.17-0.15,0.44-0.17,0.48c-0.02,0.04-0.11,0.14-0.15,0.17c-0.03,0.04-0.27,0.1-0.34,0.16c-0.07,0.06-0.39,0.09-0.52,0.08
					c-0.12-0.02-0.01-0.15-0.01-0.15s0.01-0.45,0.05-0.72c0.04-0.27,0.1-0.29,0.1-0.29l0.77-0.48L13.55,28.58z"/>
				<path id="path3843" class="st2" d="M13.09,31.07c0,0,0.17,0.03,0.24,0.08c0.06,0.05,0.1,0.24,0.09,0.44c0,0.2-0.1,0.3-0.19,0.4
					c-0.08,0.1-0.31,0.12-0.41,0.18c-0.11,0.07-0.38,0.09-0.48,0.06c-0.1-0.02-0.05-0.2,0.02-0.47c0.06-0.27,0.14-0.28,0.14-0.28
					L13.09,31.07L13.09,31.07z"/>
				<path id="path3845" class="st2" d="M12.92,33.24c0,0,0.09,0.08,0.11,0.16c0.03,0.08,0.01,0.16-0.01,0.24
					c-0.02,0.07-0.12,0.19-0.17,0.31c-0.05,0.1-0.22,0.24-0.28,0.32c-0.07,0.08-0.16,0.12-0.23,0.18s-0.12,0.11-0.23,0.09
					c-0.1-0.02-0.07-0.06-0.08-0.18c-0.02-0.12,0.07-0.36,0.14-0.6c0.07-0.25,0.13-0.25,0.27-0.32s0.39-0.17,0.39-0.17L12.92,33.24z
					"/>
				<path id="path3847" class="st2" d="M11.66,28.99c0,0-0.05,0.22-0.06,0.26s-0.01,0.2-0.03,0.34c-0.02,0.13-0.06,0.25-0.09,0.34
					c-0.03,0.09-0.16,0.11-0.16,0.11L11.11,30c0,0-0.32-0.27-0.52-0.45c-0.2-0.18-0.03-0.08-0.01-0.16s0.05-0.28,0.07-0.43
					c0.01-0.15,0.05-0.35,0.08-0.49c0.03-0.14,0.07-0.15,0.1-0.14c0.03,0.01,0.22,0.15,0.26,0.27c0.04,0.1,0.2,0.15,0.32,0.18
					C11.51,28.81,11.66,28.99,11.66,28.99L11.66,28.99z"/>
				<path id="path3849" class="st2" d="M11.31,31.43c0,0,0,0.25,0,0.34c0,0.08-0.04,0.28-0.13,0.33c-0.09,0.05-0.31-0.12-0.42-0.17
					c-0.11-0.05-0.26-0.22-0.34-0.29c-0.08-0.07-0.01-0.19-0.01-0.19s0.04-0.15,0.07-0.33c0.03-0.17,0.07-0.18,0.26-0.1
					C10.9,31.08,11.31,31.43,11.31,31.43L11.31,31.43z"/>
				<path id="path3851" class="st2" d="M11.01,33.61c0,0-0.05,0.44-0.1,0.67s-0.12,0.16-0.22,0.11c-0.09-0.05-0.2-0.2-0.28-0.33
					c-0.08-0.12-0.04-0.76-0.04-0.76S10.29,33,10.34,32.9c0.05-0.1,0.22,0.03,0.22,0.03l0.38,0.48L11.01,33.61z"/>
			</g>
		</g>
		<g>
			<defs>
				<circle id="SVGID_5_" cx="19.84" cy="19.84" r="19.85"/>
			</defs>
			<clipPath id="SVGID_6_">
				<use xlink:href="#SVGID_5_"  style="overflow:visible;"/>
			</clipPath>
			<g id="layer2_1_" class="st3">
				<path id="path2995_1_" class="st2" d="M34.89-15.21c0,0,1.29-1.77,2.82-2.33c1.52-0.54,2.22-0.81,2.91-0.66
					c0.69,0.15,1.92,0.58,2.99,1.79c1.08,1.21,1.51,1.8,1.76,2.59s0.37,1.26,0.32,1.33s-2.84,0.95-2.84,0.95s-0.3,0.05-0.34-0.06
					c-0.04-0.11-0.32-0.96-0.68-1.38c-0.36-0.42-0.93-0.85-1.5-0.94c-0.56-0.09-1.06-0.23-1.69,0.17c-0.63,0.4-0.79,0.51-0.79,0.51
					s-0.16,0.19-0.3,0.1c-0.13-0.09-2.62-1.91-2.62-1.91L34.89-15.21z"/>
				<path id="path3785_1_" class="st2" d="M34.67-13.81l2.09,1.48c0,0,0.25,0.17,0.18,0.27c-0.06,0.09-0.19,0.19-0.34,0.48
					c-0.13,0.29-0.31,0.59-0.3,0.7c0,0.09-0.15,0.35-0.38,0.23c-0.24-0.12-0.77-0.45-0.9-0.48c-0.13-0.03-0.75-0.33-0.83-0.34
					c-0.08-0.02-0.05-0.02-0.23-0.17c-0.17-0.14-0.3-0.14-0.5-0.2c-0.19-0.07-0.32-0.06-0.32-0.14c0.01-0.08,0.06-0.27,0.16-0.44
					c0.1-0.16,0.71-1.32,0.71-1.32s0.04-0.22,0.2-0.19C34.41-13.94,34.67-13.81,34.67-13.81z"/>
				<path id="path3787_1_" class="st2" d="M33.29-10.42c0,0,1.44,0.77,1.7,0.84c0.26,0.07,0.45,0.18,0.45,0.18s0.19,0.02,0.14,0.14
					c-0.05,0.12-0.34,1.02-0.38,1.24c-0.03,0.2-0.12,0.37-0.26,0.38c-0.13,0.02-0.38-0.01-0.66-0.08c-0.29-0.06-0.65-0.14-0.86-0.2
					c-0.22-0.06-0.37-0.17-0.56-0.26s-0.14-0.1-0.46-0.22c-0.32-0.11-0.45-0.08-0.52-0.19c-0.07-0.11-0.15-0.1-0.07-0.35
					c0.08-0.25,0.07-0.33,0.17-0.56c0.1-0.24,0.18-0.43,0.32-0.68s0.11-0.32,0.25-0.4c0.13-0.07,0.05-0.14,0.26-0.09
					c0.2,0.05,0.31,0.1,0.38,0.15S33.29-10.42,33.29-10.42L33.29-10.42z"/>
				<path id="path3789_1_" class="st2" d="M31.49-7.26l3.29,0.88c0,0-0.2,1.06-0.2,1.4s0.08,0.47-0.03,0.5
					c-0.11,0.03-1.43-0.02-1.96-0.07c-0.52-0.06-0.9-0.17-1.13-0.23c-0.23-0.05-0.4-0.09-0.4-0.09L31.49-7.26z"/>
				<path id="path3791_1_" class="st2" d="M31.12-3.5l3.41,0.2c0,0,0.07,0,0.1,0.1c0.04,0.1,0.25,1.65,0.25,1.65
					s0.02,0.11-0.05,0.12c-0.07,0.01-3.55,0.41-3.55,0.41s-0.03,0.02-0.05-0.23s-0.14-2.08-0.14-2.08L31.12-3.5z"/>
				<path id="path3793_1_" class="st2" d="M31.51,0.44l3.55-0.74l0.41,1.79c0,0,0.03,0.13-0.08,0.14c-0.11,0.01-3.41,1.08-3.41,1.08
					L31.51,0.44z"/>
				<path id="path3795_1_" class="st2" d="M39.24-12.88c0,0-0.41,0.13-0.61,0.28c-0.19,0.14-0.49,0.47-0.61,0.65
					c-0.12,0.17-0.28,0.37-0.35,0.54c-0.07,0.17-0.19,0.35-0.22,0.4c-0.01,0.06-0.06,0.18,0.03,0.22c0.1,0.02,0.18-0.03,0.27-0.08
					c0.08-0.05,0.4-0.33,0.54-0.44c0.14-0.11,0.18-0.18,0.48-0.3c0.3-0.11,0.4-0.15,0.47-0.19c0.07-0.03,0.15-0.08,0.15-0.08
					s0.16-0.24,0.13-0.39c-0.03-0.15-0.02-0.34-0.03-0.42c-0.02-0.08,0.03-0.1-0.06-0.14C39.35-12.89,39.24-12.88,39.24-12.88z"/>
				<path id="path3797_1_" class="st2" d="M39-10.37l-2.49,1.38l-0.46,1.76c0,0-0.03,0.07,0.06,0.07c0.09,0,2.68-1.41,2.68-1.41
					s0.12-0.07,0.17-0.46s0.16-1.28,0.16-1.28L39-10.37z"/>
				<path id="path3799_1_" class="st2" d="M35.67-5.55l2.82-1.52c0,0,0.2-0.08,0.18,0.11c-0.02,0.2-0.23,1.42-0.23,1.42
					s-0.08,0.18-0.19,0.23c-0.11,0.04-2.43,1.15-2.43,1.15s-0.24,0.08-0.24-0.06C35.59-4.37,35.67-5.55,35.67-5.55L35.67-5.55z"/>
				<path id="path3801_1_" class="st2" d="M35.77-2.83l2.28-1.23c0,0,0.32-0.13,0.19,0.46s-0.17,0.97-0.17,0.97s-0.02,0.11-0.23,0.2
					c-0.2,0.09-1.8,0.99-1.8,0.99s-0.29,0.18-0.3-0.09c-0.01-0.28-0.04-1.05-0.04-1.05L35.77-2.83z"/>
				<path id="path3803_1_" class="st2" d="M37.73-0.83l-0.18,1.34l-1.22,0.67l-0.34-1.3c0,0-0.03-0.19,0.11-0.22
					c0.14-0.02,1.51-0.55,1.51-0.55L37.73-0.83z"/>
				<path id="path3805_1_" class="st2" d="M40.78-12.77c0,0,0.67,0.7,0.89,1.42c0.23,0.73,0.25,0.92,0.25,0.92s0,0.1-0.1,0.08
					c-0.1-0.02-0.18-0.27-0.31-0.36c-0.12-0.09-0.5-0.65-0.7-0.78c-0.18-0.12-0.43-0.29-0.43-0.29l-0.05-0.02l0.2-0.97
					c0,0,0.06-0.05,0.12-0.03C40.71-12.77,40.78-12.77,40.78-12.77z"/>
				<path id="path3807_1_" class="st2" d="M40.32-10.19l1.24,1.07c0,0,0.09,0.02,0.24,0.1s0.14-0.1,0.24,0.22
					c0.09,0.32,0.07,0.09,0.13,0.46c0.06,0.37,0.15,0.54,0.08,0.83c-0.06,0.29-0.16,0.37-0.08,0.47c0.08,0.1,0.13,0.16,0.06,0.24
					c-0.06,0.08-0.04,0.13-0.14,0.12c-0.1-0.01-2.18-1.84-2.18-1.84s-0.09,0.07,0-0.31c0.09-0.39,0.19-1.14,0.19-1.14
					s-0.01-0.28,0.05-0.27C40.2-10.23,40.32-10.19,40.32-10.19L40.32-10.19z"/>
				<path id="path3809_1_" class="st2" d="M39.95-6.97l1.99,1.68c0,0,0.2,0,0.18,0.14c-0.02,0.15-0.29,1.65-0.29,1.65
					s-0.14,0.27-0.36,0.02s-1.94-2.06-1.94-2.06s-0.13-0.13-0.08-0.31c0.05-0.16,0.14-1.1,0.14-1.1s-0.02-0.11,0.07-0.14
					c0.09-0.03,0.26,0.01,0.26,0.01L39.95-6.97z"/>
				<path id="path3811_1_" class="st2" d="M39.29-3.95c0,0,1.76,1.35,1.95,1.6s0.28,0.23,0.24,0.49c-0.05,0.27-0.14,0.65-0.28,0.93
					c-0.13,0.29-0.07,0.41-0.27,0.36c-0.2-0.06-0.37-0.12-0.57-0.32c-0.2-0.2-1.39-1.42-1.39-1.42s-0.14-0.22-0.09-0.26
					c0.05-0.05,0.29-1.28,0.29-1.28L39.29-3.95z"/>
				<path id="path3813_1_" class="st2" d="M39.34-0.23l0.81,0.99c0,0,0.29,0.08,0.1,0.51c-0.19,0.43-0.38,0.89-0.38,0.89
					s-0.09,0.27-0.4-0.1c-0.31-0.37-0.99-1.21-0.99-1.21s-0.2-0.14-0.13-0.35s0.22-1.02,0.22-1.02S38.62-1,38.91-0.69
					C39.19-0.36,39.34-0.23,39.34-0.23L39.34-0.23z"/>
				<path id="path3815_1_" class="st2" d="M43.3-10.41l2.33-0.63c0,0,0.2-0.15,0.31,0.02c0.1,0.17,0.28,1.63,0.28,1.63
					s0.14,0.47-0.19,0.49c-0.34,0.02-1.98,0.36-1.98,0.36s-0.17-0.07-0.34,0.03c-0.16,0.1-0.52,0.36-0.54-0.04
					c-0.02-0.4-0.11-1.38-0.19-1.42c-0.08-0.04-0.08-0.37-0.02-0.37C43-10.35,43.3-10.41,43.3-10.41z"/>
				<path id="path3817_1_" class="st2" d="M43.59-7.16c0,0,0.47-0.2,0.92-0.19c0.45,0.01,0.45-0.06,0.68,0.01s0.17,0.11,0.32,0.06
					c0.14-0.05,0.03-0.14,0.24-0.15c0.2,0,0.31,0,0.46,0.03c0.14,0.03,0.31,0.06,0.3,0.28c-0.01,0.23-0.01,0.87-0.05,1.17
					s0,0.42-0.06,0.53c-0.06,0.11-0.3,0.2-0.44,0.17c-0.14-0.03-0.74-0.05-0.92-0.05c-0.18-0.01-0.59,0.01-0.75-0.01
					c-0.15-0.02-0.23-0.06-0.41-0.06c-0.19,0-0.24-0.06-0.31,0.01c-0.08,0.08-0.14,0.18-0.3,0.13c-0.15-0.05-0.2-0.08-0.2-0.17
					c0-0.09,0.02-0.31,0.06-0.59c0.04-0.29,0.08-0.34,0.1-0.52c0.03-0.18-0.01-0.33-0.02-0.36c-0.01-0.04,0.02-0.16,0.12-0.22
					C43.4-7.15,43.59-7.16,43.59-7.16L43.59-7.16z"/>
				<path id="path3819_1_" class="st2" d="M43.27-4.17c0,0,0.55-0.04,0.78,0s0.3-0.04,0.51-0.01c0.22,0.03,0.28,0.02,0.43,0.07
					c0.15,0.06,0.09,0.06,0.25,0.07c0.15,0.01,0.38-0.08,0.51-0.07c0.14,0.01,0.19-0.04,0.34,0.1c0.13,0.13,0.12,0.25,0.12,0.32
					c0,0.07-0.22,1.42-0.22,1.42s-0.14,0.33-0.31,0.31c-0.16-0.01-2.18-0.41-2.18-0.41s-0.13-0.17-0.28-0.13
					c-0.14,0.04-0.23,0.02-0.31,0c-0.08-0.02-0.1-0.04-0.1-0.04s-0.06,0-0.09-0.04c-0.04-0.04-0.17,0.02-0.11-0.26
					C42.67-3.1,42.88-4,42.88-4s-0.04-0.15,0.13-0.16C43.17-4.16,43.27-4.17,43.27-4.17L43.27-4.17z"/>
				<path id="path3821_1_" class="st2" d="M42.45-1.45c0,0,1.55,0.3,1.77,0.37c0.23,0.07,0.38,0.11,0.45,0.12
					c0.07,0.02,0.04,0.08,0.16,0.12c0.12,0.04,0.17,0.02,0.24-0.01c0.06-0.02,0.34-0.02,0.41,0.07s0.2,0.08,0.13,0.34
					c-0.07,0.26-0.26,0.58-0.38,0.92c-0.12,0.34-0.35,0.55-0.37,0.65c-0.02,0.09-0.02,0.18-0.02,0.18s-0.17,0-0.32-0.02
					c-0.13-0.02-0.6-0.28-0.68-0.31s-0.26-0.12-0.48-0.2c-0.22-0.08-0.09-0.06-0.39-0.15c-0.3-0.09-0.4-0.12-0.57-0.16
					c-0.17-0.04-0.3-0.01-0.41-0.14c-0.11-0.13-0.12-0.07-0.16-0.18c-0.04-0.1-0.04-0.03-0.02-0.23s0.07-0.49,0.11-0.56
					c0.04-0.07,0.14-0.61,0.18-0.66c0.05-0.05,0.05-0.15,0.13-0.16C42.34-1.48,42.45-1.45,42.45-1.45L42.45-1.45z"/>
				<path id="path3823_1_" class="st2" d="M41.39,1.52c0,0,1.66,0.71,1.96,0.96s0.34,0.23,0.53,0.34s0.37,0.06,0.27,0.39
					c-0.1,0.34-0.51,1.27-0.51,1.27l-0.31,0.67c0,0-0.22,0.33-0.49,0.11c-0.28-0.22-2.31-2.04-2.31-2.04s-0.29-0.04-0.19-0.26
					c0.09-0.22,0.28-0.6,0.32-0.66c0.03-0.05,0.29-0.48,0.33-0.55s0.01-0.4,0.13-0.38C41.24,1.42,41.39,1.52,41.39,1.52L41.39,1.52z
					"/>
				<path id="path3825_1_" class="st2" d="M35.52,16.37l1.98,1.84c0,0,0.19,0.17,0.03,0.27c-0.16,0.09-0.58,0.47-0.73,0.53
					c-0.14,0.06-1.78,0.8-2.37,0.72c-0.57-0.08-2.05-0.36-2.58-0.57c-0.53-0.22-1.82-0.9-2.19-1.43s-1.23-1.53-1.28-1.79
					c-0.05-0.26-0.09-0.59-0.09-0.59s-0.05-0.19,0.08-0.22c0.13-0.03,0.25-0.05,0.51-0.05s2.4-0.23,2.4-0.23s0.23-0.05,0.45,0.1
					c0.23,0.15,0.16,0.16,0.24,0.36s0.06,0.37,0.38,0.53c0.32,0.16,0.39,0.28,0.77,0.38c0.38,0.1,0.57,0.17,0.86,0.17
					c0.29-0.01,0.47,0,0.68-0.1c0.2-0.11,0.36-0.24,0.47-0.23c0.1,0.01,0.18,0.03,0.29,0.11c0.1,0.08,0.16,0.23,0.16,0.23
					S35.46,16.34,35.52,16.37z"/>
				<path id="path3827_1_" class="st2" d="M38.17,9.66l2.76,0.96c0,0,0.23,0.04,0.18,0.23c-0.04,0.18-0.61,1.82-0.61,1.82
					s-0.08,0.19-0.3,0.09c-0.22-0.11-2.66-1.12-2.66-1.12s-0.23-0.07-0.18-0.25c0.04-0.17,0.54-1.65,0.54-1.65s0.02-0.19,0.13-0.17
					C38.14,9.6,38.17,9.66,38.17,9.66L38.17,9.66z"/>
				<path id="path3831_1_" class="st2" d="M37.35,12.58c0,0,2.09,0.98,2.28,1.04c0.17,0.05,0.36,0.1,0.41,0.15
					c0.05,0.05,0.17,0.02,0.1,0.24c-0.07,0.23-0.27,0.65-0.33,0.77c-0.06,0.12-0.17,0.24-0.27,0.28c-0.09,0.04-0.33,0-0.53-0.1
					c-0.2-0.09-1.41-0.76-1.73-0.91c-0.32-0.15-0.69-0.28-0.69-0.39c0-0.12,0-0.3,0.08-0.54c0.09-0.25,0.12-0.45,0.18-0.53
					c0.05-0.08,0.12-0.23,0.26-0.16C37.24,12.46,37.35,12.58,37.35,12.58L37.35,12.58z"/>
				<path id="path3833_1_" class="st2" d="M36.41,14.66l2.63,1.46c0,0,0.17,0.16,0.06,0.36c-0.11,0.19-0.48,0.87-0.7,0.99
					c-0.22,0.13-0.2,0.23-0.3,0.13c-0.08-0.09-0.5-0.47-0.79-0.8c-0.3-0.33-0.86-0.95-1.07-1.02c-0.19-0.07-0.4-0.25-0.4-0.33
					s-0.05-0.13,0.07-0.38c0.12-0.25,0.06-0.39,0.22-0.42C36.29,14.63,36.41,14.66,36.41,14.66z"/>
				<path id="path3835_1_" class="st2" d="M28.69,12.27l2.84,0.66c0,0,0.12-0.07,0.18,0.01c0.06,0.07,0.08,0.09,0.08,0.23
					c-0.01,0.13-0.08,0.5-0.09,0.57c-0.02,0.07,0.03,0.22-0.17,0.19c-0.22-0.01-3.27,0.08-3.27,0.08s-0.08,0.06-0.02-0.23
					c0.07-0.3,0.08-0.45,0.13-0.68c0.05-0.23,0.1-0.51,0.16-0.59C28.59,12.42,28.63,12.28,28.69,12.27L28.69,12.27z"/>
				<path id="path3837_1_" class="st2" d="M29.72,9.88c0,0,0.9,0.22,1.32,0.38c0.41,0.16,0.55,0.28,0.75,0.34
					c0.19,0.05,0.56,0.17,0.56,0.17s0.2,0.07,0.18,0.24c-0.02,0.16-0.09,0.35-0.14,0.56c-0.05,0.22-0.25,0.37-0.25,0.37
					s-0.24,0.09-0.6-0.02c-0.37-0.1-0.41-0.11-0.82-0.24c-0.4-0.11-0.83-0.22-0.94-0.24c-0.11-0.03-0.45-0.1-0.56-0.13
					c-0.11-0.03-0.23-0.05-0.23-0.05s-0.23,0-0.06-0.34c0.16-0.34,0.18-0.51,0.27-0.67c0.08-0.15,0.07-0.28,0.18-0.34
					S29.72,9.88,29.72,9.88L29.72,9.88z"/>
				<path id="path3839_1_" class="st2" d="M31.15,6.87c0,0,0.84,0.39,1.08,0.45c0.24,0.05,0.19-0.05,0.38,0.06
					c0.18,0.11,0.33,0.13,0.46,0.23c0.13,0.09,0.2,0.16,0.34,0.19c0.13,0.03,0.2,0.1,0.12,0.42c-0.09,0.31-0.2,0.42-0.27,0.72
					c-0.07,0.3-0.31,0.82-0.31,0.82l-3.12-0.87c0,0-0.06-0.18,0.14-0.42c0.2-0.24,0.28-0.44,0.36-0.63
					c0.08-0.18,0.15-0.31,0.26-0.39c0.1-0.08,0.2-0.24,0.25-0.31c0.04-0.07,0.13-0.33,0.13-0.33L31.15,6.87z"/>
				<path id="path3841_1_" class="st2" d="M34.3,9.18l0.48,0.78c0,0,0.05,0.05-0.03,0.3c-0.08,0.26-0.27,0.67-0.27,0.67
					s0.04,0.17-0.08,0.13c-0.12-0.04-0.39-0.2-0.43-0.3c-0.04-0.09-0.22-0.26-0.23-0.3c-0.01-0.05-0.05-0.17-0.05-0.23
					s-0.02-0.35,0.06-0.51c0.07-0.16,0.12-0.39,0.24-0.47c0.11-0.08,0.24-0.1,0.24-0.1L34.3,9.18z"/>
				<path id="path3843_1_" class="st2" d="M33.51,11.59l0.36,0.64c0,0,0.06,0.04,0,0.31c-0.06,0.27-0.09,0.45-0.19,0.43
					s-0.33-0.16-0.4-0.27c-0.07-0.11-0.26-0.23-0.29-0.35s-0.08-0.26,0-0.44c0.09-0.18,0.2-0.34,0.29-0.35
					C33.35,11.54,33.51,11.59,33.51,11.59L33.51,11.59z"/>
				<path id="path3845_1_" class="st2" d="M32.76,13.64c0,0,0.18,0.19,0.27,0.33c0.09,0.12,0.14,0.15,0.1,0.4s-0.07,0.51-0.14,0.61
					c-0.07,0.1-0.06,0.15-0.16,0.13c-0.1-0.02-0.13-0.1-0.16-0.18s-0.09-0.16-0.12-0.27c-0.02-0.1-0.11-0.29-0.11-0.41
					c0-0.12-0.03-0.28-0.02-0.35s0.04-0.15,0.09-0.22c0.06-0.06,0.17-0.09,0.17-0.09L32.76,13.64z"/>
				<path id="path3847_1_" class="st2" d="M35.72,10.36c0,0,0.22-0.1,0.33-0.08c0.11,0.03,0.28,0.05,0.36-0.02
					c0.09-0.07,0.32-0.13,0.35-0.12c0.03,0.01,0.06,0.03,0.03,0.17c-0.03,0.14-0.09,0.34-0.14,0.48c-0.05,0.14-0.11,0.32-0.13,0.41
					c-0.02,0.09,0.18,0.08-0.08,0.14c-0.27,0.07-0.67,0.17-0.67,0.17l-0.2-0.06c0,0-0.1-0.08-0.09-0.17s0.02-0.2,0.06-0.34
					s0.11-0.28,0.12-0.32C35.67,10.58,35.72,10.36,35.72,10.36L35.72,10.36z"/>
				<path id="path3849_1_" class="st2" d="M34.96,12.7c0,0,0.52-0.13,0.72-0.12c0.2,0.01,0.23,0.04,0.17,0.2
					c-0.05,0.16-0.08,0.33-0.08,0.33s0,0.14-0.1,0.16c-0.1,0.02-0.3,0.11-0.43,0.1c-0.13-0.01-0.39,0.05-0.46-0.03
					c-0.06-0.08-0.02-0.28,0.02-0.35C34.84,12.92,34.96,12.7,34.96,12.7L34.96,12.7z"/>
				<path id="path3851_1_" class="st2" d="M34.4,14.63l0.56-0.27c0,0,0.22-0.05,0.2,0.07c0,0.12-0.22,0.36-0.22,0.36
					s-0.26,0.58-0.38,0.67c-0.12,0.08-0.29,0.17-0.4,0.17c-0.1,0-0.19,0.03-0.14-0.19c0.05-0.23,0.2-0.65,0.2-0.65L34.4,14.63z"/>
			</g>
		</g>
	</g>
</g>
</svg>
