<?xml version="1.0" encoding="utf-8"?>
<!-- Generator: Adobe Illustrator 24.2.0, SVG Export Plug-In . SVG Version: 6.00 Build 0)  -->
<svg version="1.1" id="Lager_1" xmlns="http://www.w3.org/2000/svg" xmlns:xlink="http://www.w3.org/1999/xlink" x="0px" y="0px"
	 viewBox="0 0 39.69 39.69" style="enable-background:new 0 0 39.69 39.69;" xml:space="preserve">
<style type="text/css">
	.st0{clip-path:url(#SVGID_2_);fill:#D1DEF3;}
	.st1{clip-path:url(#SVGID_2_);fill:#FFFFFF;}
	.st2{clip-path:url(#SVGID_2_);}
</style>
<g>
	<g>
		<defs>
			<path id="SVGID_1_" d="M0.13,21.57C-0.83,10.68,7.23,1.08,18.12,0.13c10.89-0.95,20.49,7.1,21.44,17.99
				c0.95,10.89-7.1,20.49-17.99,21.44C10.68,40.51,1.08,32.46,0.13,21.57z"/>
		</defs>
		<use xlink:href="#SVGID_1_"  style="overflow:visible;fill-rule:evenodd;clip-rule:evenodd;fill:#4A96D2;"/>
		<clipPath id="SVGID_2_">
			<use xlink:href="#SVGID_1_"  style="overflow:visible;"/>
		</clipPath>
		<path class="st0" d="M24.08,11.24c0.04,0.48-0.08,3.15,0.39,8.1c0.23,2.43,0.92,4.65,1.91,6.86c0.53,1.19,1.91,5.07-1.54,5.97
			c-1.19,0.26-2.51,0.06-3.3-0.96c-1.83-2.36-0.08-4.75,0.65-7.36c0.9-3.23,1.02-8.26,1.05-9.75C23.08,12.98,24.1,11,24.08,11.24z"
			/>
		<path class="st1" d="M23.88,27.72c0.4,0.54,0.46,2.34-0.89,2.31c-0.5-0.08-0.75-0.88-0.69-1.46
			C22.17,27.43,23.48,27.06,23.88,27.72z"/>
		<path class="st2" d="M24.93,11.09c-0.06,0.06-1.22,1.88-0.63,2.75c0.15,0.12,1.28,1.7,1.73,2.36c0.41,0.8-0.41,1-1.43-0.12
			c-0.6-0.56-1.12-1.31-1.64-0.96c-0.51,0.36-0.88,0.81-1.5,1.42c0.09,1.1,0.81,1.83,0.96,2.93c0.16,0.65-0.18,0.91-0.54,0.36
			c-0.6-0.78-0.87-1.73-1.61-2.39c-0.38,0.16-0.59,0.36-1,0.55c-0.21,1.07,0.31,2.17,0.4,3.21c-0.06,0.27,0.06,0.63-0.3,0.74
			c-0.33-0.12-0.97-2.3-1.4-3.46c-0.45,0.05-0.64,0.14-1.1,0.21c-0.6,1.16-0.15,2.26-0.47,3.62c-0.04,0.34-0.35,0.34-0.45,0.02
			c-0.39-1.21-0.1-2.36-0.73-3.47l-0.57,0.03c-1.02,0.92-0.96,2.33-1.55,3.4c-0.17,0.26-0.47,0.09-0.45-0.24
			c0.03-1.13,0.42-2.27,0.18-3.37c-0.42-0.15-0.84-0.3-1.31-0.39c-0.72,0.57-1.43,1.37-2.18,1.91c-0.12,0.03-0.18-0.03-0.24-0.15
			c-0.03-0.57,1.34-1.85,1.37-2.27c-0.24-0.18-0.54-0.33-0.63-0.66c0.08-0.72,0.83-0.32,1.55,0.09c1.58,0.91,2.87,0.74,4.51,0.63
			c3.74-0.67,5.46-2.69,6.6-4.39c0.96-1.25,1.46-2.72,1.91-4.18c0.25-0.54,0.51-0.42,0.51-0.42C25.72,9.04,25.17,10.43,24.93,11.09z
			"/>
	</g>
</g>
</svg>
