<?xml version="1.0" encoding="utf-8"?>
<!-- Generator: Adobe Illustrator 24.2.0, SVG Export Plug-In . SVG Version: 6.00 Build 0)  -->
<svg version="1.1" id="Lager_1" xmlns="http://www.w3.org/2000/svg" xmlns:xlink="http://www.w3.org/1999/xlink" x="0px" y="0px"
	 viewBox="0 0 39.69 39.69" style="enable-background:new 0 0 39.69 39.69;" xml:space="preserve">
<style type="text/css">
	.st0{fill:#9FC2E5;}
	.st1{fill:none;}
	.st2{fill:#A7C05B;}
	.st3{fill:#D6D54A;}
</style>
<g>
	<path class="st0" d="M0,19.84C0,8.88,8.88,0,19.84,0s19.84,8.88,19.84,19.84c0,10.96-8.88,19.84-19.84,19.84S0,30.8,0,19.84
		L0,19.84z"/>
	<g>
		<path class="st1" d="M16.32,37.49c0-0.32,0-1.11,0-1.43c0-1.27-0.99-0.76-0.99-2.03c0-1.25,0.57-1.29,0.67-2.32
			c-0.13,0.01-0.22,0-0.22-0.01c-0.02-0.27,0.06-0.47,0.19-0.62c-0.21-0.86-1.25-1.58-1.61-2.41c-0.56-1.33,0.93-2.35-0.96-2.74
			c-0.07,0.71-0.16,1.49-0.48,2.21c-0.44,0.98-0.87,1.33-1.25,2.62c-0.18,0.62-0.01,0.9-0.23,1.5c-0.07,0.18-2.48-0.35-4.26-0.86
			c0.22-1.45,2.16-0.15,2.94-1.22c0.61-0.83,1.06-1.74,1.21-3.09c0.05-0.47,0.04-0.81,0.02-1.2c-0.98,0.09-2.04,0.25-2.74,0.25
			c-1.57,0-2.61-0.8-3.03-2.32c-0.38-1.35-1.73-1.45-1.73-2.57c0-0.87,1.01-0.95,0.92-1.9c-0.12-1.3,0.18-2.97,1.17-3.63
			c0.62-0.42,1.17-0.04,1.61-0.69c0.63-0.91,0.6-1.74,1.94-2.57c-0.48-0.12-0.7-0.68-0.7-1.08c0-1.35,0.13-2.2,1.83-2.1
			c0.26,0.01,0.76,0.68,1.06,0.04c-0.42-0.76-0.18-1.92,0.64-1.86c1.32,0.1,2.62-1.12,2.75-1.66c0.28-1.15-0.52-0.44-0.8-1.06
			c-0.71-1.58,0.9-1.27,1.57-2.04c0.85-1,1.74-2.13,3.08-2.13c1,0,1.12,0.89,1.96,1.44c0.57-0.64,1.03-1.3,1.53-1.84
			C21.56,0.06,20.71,0,19.84,0c-2.47,0-4.83,0.45-7.01,1.28c0.3,0.18,0.46,0.57,0.46,0.96c0,0.79-0.28,0.63-0.95,1.06
			c-1.09,0.69-1.99-0.24-1.81-0.98C4.27,5.65,0,12.25,0,19.84c0,10.28,7.81,18.73,17.82,19.74c-0.02-0.05-0.04-0.1-0.07-0.15
			C17.35,38.74,16.32,38.39,16.32,37.49z M10.87,4.85c0.61-0.04,0.76,0.8,0.95-0.11c-0.08-0.78,0.02-1.14,0.79-1.14
			c0.61,0,0.68,0.74,0.91,1.29c0.19,0.47,0.38,0.64,0.38,1.17c0,0.87-1.1,0.98-1.93,0.61c-0.45-0.2-0.32,0.68-0.83,0.68
			c-0.72,0-1.51-0.04-1.51-0.76C9.62,5.81,10.1,4.89,10.87,4.85z"/>
		<path class="st1" d="M39.2,16.09c-0.38,0.38,0,2.27-0.57,4.05c0,0-0.46,0.57-0.72,0.3c-0.89-0.7-1.44-1.04-1.97-2.01
			c-0.81-1.48-0.91-2.73-1.51-2.73c-0.36,0-2.54-0.57-2.5-0.08c-0.23,0.34,0.91,0.63,0.91,1.44c0,1.06-0.15,2.16-1.14,2.5
			c-0.1,0.04-0.22,0.08-0.36,0.13c0.06,0.08,0.12,0.17,0.17,0.25c0.65,1.04,0.78,1.5,0.57,3.07c-0.12,0.85,1.35,0.47,0.57,1.44
			c-0.08,0.06-0.34,0.15-0.64,0.08c-1.7-0.7-0.3-3-2.04-4.26c-0.36,0.17-0.7,0.36-0.97,0.55c0.03,0.29,0.07,0.61,0.11,0.91
			c0.38-0.2,0.83-0.57,0.94-0.57c0.38,0,0.61,0.38,0.61,0.76c0,1.5-0.21,2.57-1.09,3.69c0.1,0.36,0.21,0.69,0.37,0.93
			c0.71,1.09,2.23,2.76,2.54,3.48c0.02,0.05-0.4,0.46-0.83,0.87c0,0.15-0.02,0.3-0.08,0.44c-0.24,0.56,0.11,1.17,0.11,1.78
			c0,1.14-1.29,1.16-1.87,2.1c-0.66,1.06-0.7,2.21-1.95,2.21c-0.79,0-1.27-0.51-1.27-1.31c0-0.7,0.28-0.76,0.51-1.4
			c0.4-1.06,0.21-1.69,1.02-2.5c0.83-0.83,1.17-0.38,2.14-2.16c0.1-0.11,0.21-0.18,0.32-0.21c-0.1-0.76-1.53-1.2-2.23-2.33
			c-0.09-0.14-0.17-0.33-0.25-0.54c-0.26,0.23-0.5,0.48-0.7,0.85c-0.89,1.59,0.02,3.15-0.47,4.89c-0.19,0.7-1.19,1.22-1.68,1.77
			c-0.55,0.62-0.88,1.2-1.17,2c-0.23,0.61-0.24,1.32-0.66,1.81c-0.5,0.61-1.08,0.84-1.52,1.28c10-1.03,17.8-9.47,17.8-19.74
			c0-1.29-0.13-2.56-0.36-3.78C39.29,16.06,39.25,16.07,39.2,16.09z"/>
		<path class="st2" d="M11.14,7.35c0.51,0,0.39-0.89,0.83-0.68c0.83,0.38,1.93,0.27,1.93-0.61c0-0.53-0.19-0.7-0.38-1.17
			c-0.23-0.55-0.3-1.29-0.91-1.29c-0.78,0-0.87,0.36-0.79,1.14c-0.19,0.91-0.34,0.08-0.95,0.11C10.1,4.89,9.62,5.81,9.62,6.59
			C9.62,7.31,10.42,7.35,11.14,7.35z M11.96,5.78c0.27-0.49,0.3-1.48,0.83-1.48c0.51,0-0.27,1.1,0.38,1.44
			c0.27,0.23,0.02,0.61-0.49,0.61C12.22,6.35,11.74,6.18,11.96,5.78z M10.48,6.01c0.21-0.28,0.02-0.72,0.53-0.57
			c0.23,0.23,0.38,0.38,0.38,0.68c0,0.27-0.19,0.98-0.98,0.68C10.41,6.8,9.84,6.31,10.48,6.01z"/>
		<path class="st2" d="M12.35,3.29c0.67-0.43,0.95-0.27,0.95-1.06c0-0.39-0.16-0.78-0.46-0.96c-0.79,0.3-1.56,0.65-2.3,1.04
			C10.36,3.05,11.26,3.99,12.35,3.29z M11.69,2.18c0.62-0.15,0.15-0.5,0.8-0.45c0.53,0.04,0.23,0.83,0.23,0.83
			c-0.38,0.4-0.64,0.61-1.14,0.61C11.01,3.17,10.48,2.14,11.69,2.18z"/>
		<path class="st2" d="M28.99,20.82c0.27-0.19,0.62-0.38,0.97-0.55c-0.28-0.2-0.64-0.38-1.1-0.51
			C28.86,19.77,28.92,20.24,28.99,20.82z"/>
		<path class="st2" d="M15.14,27.93c0-0.49,0.38-0.72,0.38-1.21c0-1.08-0.89-1.67-1.96-1.94c-0.08,0.34-0.12,0.73-0.16,1.14
			c1.88,0.39,0.39,1.41,0.96,2.74c0.36,0.83,1.39,1.55,1.61,2.41c0.24-0.26,0.65-0.38,1.03-0.53
			C16.38,29.67,15.14,29.17,15.14,27.93z"/>
		<path class="st2" d="M29.51,22.19c0.32-0.4,0.64,0.55,0.51,0.95c-0.17,0.52-0.41,0.94-0.68,1.31c0.05,0.41,0.12,0.8,0.21,1.16
			c0.88-1.12,1.09-2.19,1.09-3.69c0-0.38-0.23-0.76-0.61-0.76c-0.12,0-0.56,0.37-0.94,0.57c0.04,0.3,0.07,0.59,0.09,0.83
			C29.27,22.46,29.37,22.33,29.51,22.19z"/>
		<path class="st2" d="M17.11,35.66c-0.32-0.72-0.91-1.02-0.91-1.82c0-0.98,1.12-1.28,1.13-2.25c-0.51,0.04-1.05,0.1-1.34,0.11
			c-0.1,1.04-0.67,1.08-0.67,2.32c0,1.27,0.99,0.76,0.99,2.03c0,0.32,0,1.11,0,1.43c0,0.91,1.04,1.26,1.43,1.94
			c0.03,0.05,0.05,0.1,0.07,0.15c0.27,0.03,0.54,0.05,0.8,0.06c-0.38-0.64-0.94-1.03-1.38-1.92C16.96,37.16,17.37,36.24,17.11,35.66
			z"/>
		<path class="st2" d="M23.41,38.3c0.42-0.49,0.43-1.2,0.66-1.81c0.28-0.8,0.62-1.38,1.17-2c0.49-0.55,1.49-1.07,1.68-1.77
			c0.49-1.74-0.42-3.3,0.47-4.89c0.2-0.37,0.44-0.62,0.7-0.85c-0.11-0.29-0.2-0.63-0.3-0.96c-0.87,0.78-1.63,1.56-1.63,3.09
			c0,1.06,0.09,1.79-0.02,2.91c-0.09,0.85-1.46,2.08-2.05,2.67c-0.8,0.79-0.39,2.12-1.78,3.37c-0.7,0.63-1.12,1.11-1.44,1.59
			c0.34-0.02,0.68-0.04,1.02-0.08C22.33,39.14,22.91,38.91,23.41,38.3z"/>
		<path class="st2" d="M18.91,0.56c-1.34,0-2.23,1.13-3.08,2.13c-0.66,0.78-2.28,0.46-1.57,2.04c0.28,0.63,1.08-0.09,0.8,1.06
			c-0.13,0.53-1.43,1.76-2.75,1.66c-0.83-0.06-1.06,1.1-0.64,1.86c-0.3,0.64-0.8-0.02-1.06-0.04c-1.69-0.09-1.83,0.76-1.83,2.1
			c0,0.4,0.22,0.96,0.7,1.08c-1.34,0.83-1.32,1.66-1.94,2.57c-0.44,0.64-0.98,0.27-1.61,0.69c-0.98,0.66-1.29,2.33-1.17,3.63
			c0.09,0.95-0.92,1.03-0.92,1.9c0,1.12,1.34,1.21,1.73,2.57c0.43,1.52,1.46,2.32,3.03,2.32c0.71,0,1.76-0.16,2.74-0.25
			c-0.01-0.2-0.02-0.41-0.02-0.66c0-0.2,0.04-0.37,0.1-0.53c-0.39,0.16-0.7,0.42-1.2,0.42c-1.33,0-2.59,0.42-3.46-0.57
			c-0.53-0.61-0.25-1.06-0.73-1.7c-0.45-0.62-1.17-0.83-1.17-1.63c0-0.89,0.72-1.12,0.72-2.01c0-0.3-0.08-0.75-0.08-1.06
			c0-1.25,0.55-1.76,1.74-2.12c1.53-0.47,1.81-2.55,3.02-3.12c0.82-0.39,1.02,0.62,1.93,0.62c0.04,0.01,0.08,0.01,0.12,0.02
			c0.31-0.45,0.65-0.68,0.97-0.81c-1.25-0.21-2.12-0.37-2.12-0.37c1.82-0.3,1.29-1.89,2.5-1.89c0.07,0,0.13,0.01,0.2,0.02
			c-0.2-0.23-0.25-0.54-0.27-0.89c-0.23,0.12-0.45,0.26-0.66,0.43c-1.06,0.85-1.21,1.97-2.57,1.97c-0.51,0-0.91,0.02-0.91-0.49
			c0-0.62-0.02-1.51,0.61-1.51c0.64,0,0.95,0.36,1.55,0.19c0.8,0.08,1.27-0.79,0.87-0.76c-0.53,0.04-0.42-0.7-0.42-1.06
			c0.11-0.57,1.12-0.3,1.32-0.3c0.11,0,0.21-0.01,0.31-0.03c0.12-0.49,0.4-0.87,1-1.17c0.07-0.02,0.15-0.04,0.23-0.06
			c0.23-0.35,0.53-0.63,1.15-0.63c0.18,0,0.3,0.23,0.38,0.52c0.32,0.04,0.61,0.12,0.86,0.26c0.46-0.24,1-0.07,1.34-0.85
			c0.26-0.59,0.19-1.21,1.52-1.51c0.26-0.06,0.3-0.79-0.15-0.91c-0.62,0-1.29,0.87-1.63,0c-0.07-0.4,0.35-0.43,0.35-0.87
			c-0.02-0.17,0.03-0.5-0.31-0.5c0,0-0.34-0.08-0.76,0.53c-0.26,0.35-0.51,0.9-0.41,0.95c0.08,0.04,0.53,0.32-0.01,0.94
			c-0.64,0.42-0.52,1.19-0.87,1.06c-0.49-0.04-0.24-0.89-0.24-0.89c0.09-0.44,0.25-0.85-0.07-0.76c-0.38,0.02-0.68,0.81-1.08,0.17
			c-0.4-0.77,0.52-0.75,0.76-0.87c1.82-0.91,1.04-2.01,2.99-2.01c0.91,0,1.48,0.87,1.63,1.78c1.75-0.14,2.36-1.96,3.58-2.82
			c-0.51-0.11-1.02-0.19-1.54-0.26c-0.5,0.53-0.96,1.2-1.53,1.84C20.04,1.46,19.92,0.56,18.91,0.56z M17.84,4.67
			C17.72,3.71,18.23,4,18.18,4.2c-0.08,0.3,0.3,0.46,0.29,0.66c-0.02,0.25-0.04,0.81-0.4,0.96c-0.26,0.11-0.58,0.7-0.84,0.58
			C16.39,6.02,17.72,5.35,17.84,4.67z"/>
		<path class="st2" d="M23.05,15.92c0,0.94,0.44,1.07,1.07,1.27c0.1-0.15,0.21-0.27,0.33-0.38c-0.37-0.09-0.69-0.24-0.76-0.71
			c-0.08-0.45,0.58-0.4,0.76-0.4c0.32,0,0.64,0.13,0.85,0.34c0.07-0.1,0.13-0.2,0.16-0.32c0.05-0.19,0-0.29-0.11-0.37
			c-0.3-0.08-0.62-0.13-0.97-0.13C23.56,15.21,23.05,15.1,23.05,15.92z"/>
		<path class="st2" d="M38.29,15.49c0,1.29-0.02,5.61-1.14,3.33c-0.72-1.04-0.64-1.06-1.21-2.2c-0.57-1.15-0.53-1.97-1.82-1.97
			c-0.74,0-1.19,0.29-2.78,0.02c-0.69-0.12-0.68-0.55-1.25-0.95c-0.68-0.47-1.46,0.09-2.23-0.19c-0.09-0.03-0.17-0.07-0.25-0.11
			c0,0.45-0.12,0.72-0.26,0.92c1.78,0.83,1.04,2.26,2.4,2.26c0.47,0,0.78-0.3,1.25-0.3c0.74,0,0.79,0.66,0.79,1.4
			c0,0.57-0.49,0.95-1.1,1.16c0.24,0.28,0.45,0.57,0.64,0.84c0.14-0.05,0.26-0.09,0.36-0.13c0.98-0.34,1.14-1.44,1.14-2.5
			c0-0.81-1.14-1.1-0.91-1.44c-0.04-0.49,2.14,0.08,2.5,0.08c0.61,0,0.7,1.25,1.51,2.73c0.53,0.97,1.08,1.31,1.97,2.01
			c0.26,0.26,0.72-0.3,0.72-0.3c0.57-1.78,0.19-3.67,0.57-4.05c0.05-0.03,0.09-0.03,0.12-0.03c-0.07-0.38-0.15-0.75-0.25-1.12
			C38.04,13.92,38.29,14.9,38.29,15.49z M30.49,15.64c-1.21,0.8-1.63-0.76-1.82-1.21c0.08-0.45,0.7-0.11,0.95-0.11
			C30.13,14.31,30.77,15.45,30.49,15.64z"/>
		<path class="st2" d="M17.84,11.93c0.3-1.74,0.27,1.38,1.82,1.04c0.55-0.12,0.84-0.83,0.6-1.34c-0.38-0.79,0.27-0.61,0.27-0.61
			c0.42,0.15,0.06,2.01,1.69,1.89c0.59-0.04,1.38-0.95,1.3,0.55c-0.03,0.64-0.85,0.66-1.5,0.72c-0.17-0.01-0.78-0.1-1.62-0.24
			c0.3,0.23,0.58,0.47,0.83,0.69c0.44,0.07,0.89,0.15,1.33,0.24c0.84,0.17,1.1-0.41,1.67-0.76c-0.08-0.26-0.13-0.59-0.15-1.01
			c-0.01-0.3,0.07-0.59,0.22-0.84c-0.31-0.14-0.52-0.46-0.92-0.46c-0.49,0-0.76,0.46-1.25,0.46c-0.44,0-0.8-0.17-0.8-0.61
			c0-0.38,0.66-1.06,1.19-1.06c0.72,0,1.12,0.3,1.84,0.3c0.4,0,0.91-0.06,0.91-0.45c0-0.74-0.66-0.97-1.21-1.44
			c-0.42-0.36-0.38-0.94-0.95-0.98c-3.11-0.23-1.86,1.44-2.76,2.2c-0.47,0.4-1.06,0.21-1.06,0.83c0,0.44,0.63,0.6,0.46,1
			c-0.61,1.42-1.21-2.21-1.89-1.84c-0.72,0.53-0.15,1.89-1.06,1.89c-0.04,0-0.07,0-0.1-0.01c0.18,0.18,0.5,0.22,0.94,0.33
			C17.72,12.3,17.78,12.14,17.84,11.93z M21.85,8.97c0.25-0.04,0.51-0.23,0.76-0.23c0.55,0,1.95,1.21,1.25,1.33
			c-0.3,0.15-1.1-0.3-1.78,0.04C20.47,10.91,21.4,8.86,21.85,8.97z"/>
		<path class="st2" d="M14.33,10.81C14.33,10.81,14.33,10.81,14.33,10.81c0.14,0.17,0.26,0.4,0.36,0.65
			C14.73,11.16,14.74,10.88,14.33,10.81z"/>
		<path class="st2" d="M30.42,31.76c0.04,0,0.08,0,0.11,0.01c0.4-0.02,0.36,0.51,0.36,0.74c0,1.27-0.83,1.23-1.97,2.61
			c-0.42,0.52-0.38,1.58-1.06,1.51c-0.94-0.09,0.44-4.59,2.29-4.87c-0.24,0-0.5-0.01-0.68,0v-0.49c0.23-0.49,0.91,0.22,1.1-1.25
			c0.01-0.06,0.01-0.12,0-0.17c-0.11,0.03-0.22,0.1-0.32,0.21c-0.96,1.78-1.31,1.33-2.14,2.16c-0.81,0.81-0.62,1.44-1.02,2.5
			c-0.23,0.64-0.51,0.7-0.51,1.4c0,0.8,0.47,1.31,1.27,1.31c1.25,0,1.29-1.15,1.95-2.21c0.59-0.95,1.87-0.97,1.87-2.1
			c0-0.61-0.35-1.22-0.11-1.78c0.06-0.14,0.08-0.29,0.08-0.44c-0.46,0.43-0.95,0.86-0.95,0.84C30.6,31.75,30.51,31.76,30.42,31.76z"
			/>
		<path class="st0" d="M29.62,14.31c-0.25,0-0.87-0.34-0.95,0.11c0.19,0.45,0.61,2.01,1.82,1.21
			C30.77,15.45,30.13,14.31,29.62,14.31z"/>
		<path class="st0" d="M22.08,10.11c0.68-0.34,1.48,0.11,1.78-0.04c0.7-0.11-0.7-1.33-1.25-1.33c-0.25,0-0.51,0.19-0.76,0.23
			C21.4,8.86,20.47,10.91,22.08,10.11z"/>
		<path class="st0" d="M23.52,13.46c0.08-1.5-0.71-0.59-1.3-0.55c-1.63,0.11-1.27-1.75-1.69-1.89c0,0-0.65-0.19-0.27,0.61
			c0.24,0.51-0.04,1.22-0.6,1.34c-1.55,0.34-1.52-2.78-1.82-1.04c-0.06,0.21-0.13,0.37-0.2,0.5c0.27,0.07,0.58,0.16,0.92,0.33
			c0.65,0.32,1.28,0.75,1.85,1.18c0.84,0.14,1.45,0.23,1.62,0.24C22.67,14.12,23.49,14.1,23.52,13.46z"/>
		<path class="st0" d="M14.66,11.78c0-0.1,0.02-0.21,0.03-0.32c-0.1-0.24-0.22-0.47-0.36-0.65c-0.21-0.07-0.35-0.17-0.45-0.29
			c-0.06-0.01-0.13-0.02-0.2-0.02c-1.21,0-0.68,1.59-2.5,1.89c0,0,0.87,0.15,2.12,0.37C14.02,12.44,14.66,12.61,14.66,11.78z"/>
		<path class="st0" d="M17.22,6.4c0.26,0.12,0.59-0.48,0.84-0.58c0.36-0.15,0.38-0.71,0.4-0.96c0.02-0.2-0.37-0.36-0.29-0.66
			c0.06-0.2-0.46-0.49-0.34,0.47C17.72,5.35,16.39,6.02,17.22,6.4z"/>
		<path class="st0" d="M23.69,16.09c0.08,0.47,0.4,0.63,0.76,0.71c0.31-0.3,0.64-0.5,0.84-0.77c-0.21-0.22-0.53-0.34-0.85-0.34
			C24.28,15.7,23.62,15.64,23.69,16.09z"/>
		<path class="st3" d="M13.7,8.06c-0.09,0.02-0.19,0.03-0.31,0.03c-0.21,0-1.21-0.26-1.32,0.3c0,0.36-0.11,1.1,0.42,1.06
			c0.4-0.03-0.08,0.83-0.87,0.76c-0.61,0.17-0.91-0.19-1.55-0.19c-0.62,0-0.61,0.89-0.61,1.51c0,0.51,0.4,0.49,0.91,0.49
			c1.36,0,1.51-1.12,2.57-1.97c0.21-0.17,0.44-0.31,0.66-0.43c0-0.11-0.01-0.23-0.01-0.35C13.6,8.81,13.62,8.41,13.7,8.06z"/>
		<path class="st3" d="M20.36,3.24c-0.15-0.91-0.72-1.78-1.63-1.78c-1.95,0-1.17,1.1-2.99,2.01c-0.23,0.12-1.16,0.1-0.76,0.87
			c0.4,0.64,0.71-0.15,1.08-0.17c0.32-0.09,0.17,0.32,0.07,0.76c0,0-0.25,0.85,0.24,0.89c0.35,0.13,0.23-0.65,0.87-1.06
			c0.54-0.62,0.09-0.9,0.01-0.94c-0.1-0.05,0.15-0.6,0.41-0.95c0.42-0.61,0.76-0.53,0.76-0.53c0.34,0,0.29,0.33,0.31,0.5
			c0,0.44-0.41,0.46-0.35,0.87c0.34,0.87,1,0,1.63,0c0.45,0.11,0.41,0.85,0.15,0.91c-1.33,0.3-1.26,0.92-1.52,1.51
			c-0.34,0.78-0.88,0.61-1.34,0.85c0.36,0.21,0.61,0.54,0.63,1.05c0.16,3.33-1.4,2.04-1.4,3.6c0,0.23,0.05,0.37,0.15,0.47
			c0.03,0,0.06,0.01,0.1,0.01c0.91,0,0.34-1.36,1.06-1.89c0.68-0.38,1.29,3.26,1.89,1.84c0.17-0.4-0.46-0.57-0.46-1
			c0-0.62,0.59-0.44,1.06-0.83c0.91-0.76-0.34-2.42,2.76-2.2C23.7,8.05,23.66,8.64,24.08,9c0.55,0.47,1.21,0.7,1.21,1.44
			c0,0.4-0.51,0.45-0.91,0.45c-0.72,0-1.12-0.3-1.84-0.3c-0.53,0-1.19,0.68-1.19,1.06c0,0.44,0.36,0.61,0.8,0.61
			c0.49,0,0.76-0.46,1.25-0.46c0.4,0,0.6,0.32,0.92,0.46c0.17-0.27,0.42-0.49,0.73-0.6c1.29-0.46,2.47-0.19,2.57,1.63
			c0,0.05,0,0.09,0,0.14c0.08,0.04,0.16,0.08,0.25,0.11c0.78,0.28,1.55-0.28,2.23,0.19c0.57,0.4,0.56,0.83,1.25,0.95
			c1.59,0.27,2.04-0.02,2.78-0.02c1.29,0,1.25,0.81,1.82,1.97c0.57,1.14,0.49,1.15,1.21,2.2c1.12,2.27,1.14-2.04,1.14-3.33
			c0-0.59-0.25-1.57,0.78-0.54C37.22,7.66,31.34,1.98,23.94,0.43C22.73,1.28,22.11,3.1,20.36,3.24z"/>
		<path class="st3" d="M16.46,6.71c-0.08-0.28-0.19-0.52-0.38-0.52c-0.62,0-0.92,0.28-1.15,0.63C15.38,6.72,15.94,6.65,16.46,6.71z"
			/>
		<path class="st3" d="M22.31,38.06c1.39-1.26,0.99-2.58,1.78-3.37c0.59-0.59,1.96-1.82,2.05-2.67c0.11-1.12,0.02-1.85,0.02-2.91
			c0-1.53,0.76-2.31,1.63-3.09c-0.24-0.83-0.48-1.58-0.86-1.34c-1.12,0.61-1.27,1.63-1.67,2.84c-0.42,1.27-0.91,2.52-0.91,3.86
			l-3.18-0.45c-0.04-0.87,1.38-0.62,2.01-1.25c0.23-0.23,0.32-1.68,0.64-2.92c0.4-1.57,1.02-1.89,1.02-3.52
			c0-0.83,0.42-3.56-0.34-2.61c-0.4,0.68-0.11,1.59-2.54,1.25c-0.88-0.12-0.83-0.32-0.83-1.21c0-0.83,0.04-3.37-0.19-3.75
			c-0.33-0.55-1.06-0.95-1.93-1.29c-0.11-0.04-0.53,0.08-0.45,0.49c0.45,1.87,0.45,1.79,0.95,3.67c0.4,1.52,1.29,2.2,1.68,3.07
			c0.05,0.12-1.6,0.87-2.72,1.08c-0.36,1.32,0.66,1.76,0.77,2.77c0.12,0.95,0.06,1.78,0.06,2.37c0,1.48,0.66,1.52,0.42,2.35
			c-0.04,0.13-0.85,0.04-1.78,0.1c-0.18,0.01-0.39,0.03-0.6,0.05c-0.02,0.97-1.13,1.27-1.13,2.25c0,0.79,0.59,1.1,0.91,1.82
			c0.27,0.59-0.15,1.5,0.14,2.07c0.44,0.89,1,1.28,1.38,1.92c0.4,0.03,0.81,0.04,1.22,0.04c0.34,0,0.69-0.01,1.03-0.03
			C21.19,39.17,21.61,38.69,22.31,38.06z"/>
		<path class="st3" d="M29.51,22.19c-0.14,0.14-0.24,0.26-0.32,0.37c0.03,0.28,0.05,0.48,0.05,0.53c0.01,0.42,0.04,0.89,0.1,1.36
			c0.27-0.37,0.51-0.8,0.68-1.31C30.15,22.74,29.83,21.8,29.51,22.19z"/>
		<path class="st3" d="M10.04,22.3c-0.87-0.72,1.25-1.06,2.46-4.43c0.27-0.34-0.15-0.53-0.27-0.19c-2.2,2.39-2.22,1.29-3.64,2.04
			c-0.53,0.27,0.27,1.1-1.14,1.06c-0.3-0.01-0.61-0.42-0.49-0.83c0.51-1.55,1.48-0.61,3.56-2.92c0.61-0.68,0.78-1.53,1.55-3.07
			c0.08-0.16,0.16-0.29,0.24-0.41c-0.04-0.01-0.08-0.01-0.12-0.02c-0.91,0-1.11-1.01-1.93-0.62c-1.21,0.57-1.48,2.64-3.02,3.12
			c-1.19,0.36-1.74,0.87-1.74,2.12c0,0.3,0.08,0.75,0.08,1.06c0,0.89-0.72,1.12-0.72,2.01c0,0.8,0.72,1,1.17,1.63
			c0.47,0.64,0.2,1.1,0.73,1.7c0.87,0.98,2.14,0.57,3.46,0.57c0.5,0,0.81-0.27,1.2-0.42c0.16-0.42,0.46-0.73,0.5-1.27
			C11.09,23.04,10.72,22.91,10.04,22.3z"/>
		<path class="st3" d="M22.57,14.87c-0.45-0.09-0.89-0.17-1.33-0.24c0.66,0.59,1.09,1.09,1.11,1.23c0.17,1.37,0,2.75,0,4.13
			c0,0.34-0.06,0.76,0.15,0.76c0.27,0,0.52,0.12,0.68-0.08c0.52-0.65,0.41-2.14,0.68-2.95c0.07-0.21,0.16-0.38,0.27-0.54
			c-0.64-0.2-1.07-0.32-1.07-1.27c0-0.81,0.51-0.71,1.32-0.71c0.35,0,0.67,0.05,0.97,0.13c-0.25-0.2-0.83-0.27-1.11-1.23
			C23.67,14.46,23.41,15.03,22.57,14.87z"/>
		<path class="st3" d="M26.9,15.43c0.11,0.81,0.56,0.3,1.88,1.46c0.52,0.45,1.27,1.21,1.92,1.98c0.61-0.21,1.1-0.59,1.1-1.16
			c0-0.74-0.06-1.4-0.79-1.4c-0.47,0-0.78,0.3-1.25,0.3c-1.36,0-0.62-1.43-2.4-2.26C27.12,14.68,26.83,14.85,26.9,15.43z"/>
		<path class="st3" d="M15.52,26.72c0,0.49-0.38,0.72-0.38,1.21c0,1.24,1.24,1.74,1.86,2.61c0.56-0.23,1.05-0.54,0.85-1.5
			c-0.91-4.17-1.61-2.07-1.55-5c0-0.02-0.93,0.02-2.33-0.13c-0.2,0.23-0.32,0.53-0.4,0.87C14.63,25.05,15.52,25.64,15.52,26.72z"/>
		<path class="st3" d="M11.58,3.17c0.49,0,0.76-0.21,1.14-0.61c0,0,0.3-0.79-0.23-0.83c-0.64-0.05-0.17,0.3-0.8,0.45
			C10.48,2.14,11.01,3.17,11.58,3.17z"/>
		<path class="st3" d="M10.41,6.8c0.79,0.3,0.98-0.42,0.98-0.68c0-0.3-0.15-0.45-0.38-0.68c-0.51-0.15-0.32,0.28-0.53,0.57
			C9.84,6.31,10.41,6.8,10.41,6.8z"/>
		<path class="st3" d="M12.68,6.35c0.51,0,0.76-0.38,0.49-0.61C12.53,5.4,13.3,4.3,12.79,4.3c-0.53,0-0.57,0.98-0.83,1.48
			C11.74,6.18,12.22,6.35,12.68,6.35z"/>
		<path class="st3" d="M27.86,36.64c0.68,0.06,0.64-1,1.06-1.51c1.14-1.38,1.97-1.34,1.97-2.61c0-0.23,0.04-0.76-0.36-0.74
			c-0.04-0.01-0.08-0.01-0.11-0.01c-0.09,0-0.18,0.01-0.27,0.01C28.31,32.05,26.92,36.55,27.86,36.64z"/>
		<path d="M28.79,16.89c-1.33-1.16-1.78-0.65-1.88-1.46c-0.08-0.58,0.22-0.75,0.45-1.08c0.14-0.2,0.26-0.47,0.26-0.92
			c0-0.05,0-0.09,0-0.14c-0.1-1.82-1.29-2.08-2.57-1.63c-0.31,0.11-0.56,0.33-0.73,0.6c-0.15,0.25-0.24,0.54-0.22,0.84
			c0.02,0.42,0.07,0.74,0.15,1.01c0.28,0.97,0.85,1.04,1.11,1.23c0.1,0.08,0.15,0.18,0.11,0.37c-0.03,0.12-0.09,0.23-0.16,0.32
			c-0.2,0.27-0.53,0.47-0.84,0.77c-0.12,0.11-0.23,0.23-0.33,0.38c-0.1,0.15-0.2,0.33-0.27,0.54c-0.27,0.81-0.16,2.31-0.68,2.95
			c-0.16,0.2-0.42,0.08-0.68,0.08c-0.21,0-0.15-0.42-0.15-0.76c0-1.38,0.17-2.76,0-4.13c-0.02-0.15-0.45-0.65-1.11-1.23
			c-0.25-0.22-0.53-0.46-0.83-0.69c-0.56-0.43-1.2-0.86-1.85-1.18c-0.34-0.17-0.65-0.27-0.92-0.33c-0.44-0.11-0.76-0.15-0.94-0.33
			c-0.1-0.1-0.15-0.25-0.15-0.47c0-1.55,1.56-0.27,1.4-3.6c-0.03-0.52-0.27-0.85-0.63-1.05c-0.25-0.14-0.55-0.23-0.86-0.26
			c-0.52-0.06-1.08,0-1.53,0.12c-0.08,0.02-0.16,0.04-0.23,0.06c-0.6,0.3-0.87,0.68-1,1.17c-0.09,0.35-0.1,0.75-0.1,1.22
			c0,0.12,0,0.24,0.01,0.35c0.01,0.34,0.07,0.65,0.27,0.89c0.11,0.12,0.25,0.22,0.45,0.29c0,0,0,0,0,0
			c0.41,0.07,0.39,0.35,0.36,0.65c-0.01,0.11-0.03,0.22-0.03,0.32c0,0.84-0.64,0.67-1.36,0.97c-0.32,0.13-0.66,0.36-0.97,0.81
			c-0.08,0.12-0.17,0.25-0.24,0.41c-0.77,1.54-0.94,2.39-1.55,3.07c-2.08,2.31-3.05,1.36-3.56,2.92c-0.11,0.42,0.19,0.83,0.49,0.83
			c1.4,0.04,0.61-0.8,1.14-1.06c1.42-0.76,1.44,0.34,3.64-2.04c0.11-0.34,0.53-0.15,0.27,0.19c-1.21,3.37-3.33,3.71-2.46,4.43
			c0.68,0.61,1.05,0.74,1.89,1.14c-0.04,0.53-0.34,0.85-0.5,1.27c-0.06,0.16-0.1,0.33-0.1,0.53c0,0.25,0.01,0.46,0.02,0.66
			c0.02,0.38,0.03,0.73-0.02,1.2c-0.15,1.34-0.61,2.25-1.21,3.09c-0.78,1.07-2.72-0.23-2.94,1.22c1.78,0.51,4.19,1.04,4.26,0.86
			c0.23-0.61,0.05-0.88,0.23-1.5c0.38-1.29,0.81-1.63,1.25-2.62c0.33-0.72,0.41-1.5,0.48-2.21c0.04-0.41,0.08-0.8,0.16-1.14
			c0.08-0.34,0.19-0.64,0.4-0.87c1.4,0.15,2.33,0.11,2.33,0.13c-0.06,2.93,0.64,0.83,1.55,5c0.21,0.96-0.29,1.27-0.85,1.5
			c-0.38,0.16-0.79,0.28-1.03,0.53c-0.14,0.15-0.21,0.34-0.19,0.62c0,0.01,0.08,0.02,0.22,0.01c0.29-0.01,0.83-0.07,1.34-0.11
			c0.21-0.02,0.42-0.04,0.6-0.05c0.93-0.06,1.75,0.03,1.78-0.1c0.23-0.83-0.42-0.87-0.42-2.35c0-0.59,0.06-1.41-0.06-2.37
			c-0.11-1.01-1.13-1.45-0.77-2.77c1.13-0.21,2.78-0.96,2.72-1.08c-0.38-0.87-1.28-1.55-1.68-3.07c-0.5-1.88-0.49-1.8-0.95-3.67
			c-0.08-0.42,0.35-0.53,0.45-0.49c0.87,0.34,1.6,0.74,1.93,1.29c0.23,0.38,0.19,2.92,0.19,3.75c0,0.89-0.05,1.09,0.83,1.21
			c2.42,0.34,2.14-0.57,2.54-1.25c0.76-0.95,0.34,1.78,0.34,2.61c0,1.63-0.63,1.95-1.02,3.52c-0.32,1.23-0.42,2.69-0.64,2.92
			c-0.63,0.62-2.04,0.38-2.01,1.25l3.18,0.45c0-1.34,0.49-2.59,0.91-3.86c0.4-1.21,0.55-2.23,1.67-2.84
			c0.38-0.25,0.62,0.51,0.86,1.34c0.09,0.33,0.19,0.67,0.3,0.96c0.08,0.21,0.16,0.4,0.25,0.54c0.7,1.13,2.13,1.57,2.23,2.33
			c0.01,0.06,0.01,0.11,0,0.17c-0.19,1.46-0.87,0.76-1.1,1.25v0.49c0.18-0.01,0.44,0,0.68,0c0.09,0,0.18,0,0.27-0.01
			c0.09-0.01,0.18-0.02,0.26-0.03c0,0.02,0.48-0.41,0.95-0.84c0.43-0.41,0.85-0.82,0.83-0.87c-0.3-0.72-1.83-2.4-2.54-3.48
			c-0.16-0.24-0.28-0.57-0.37-0.93c-0.09-0.36-0.16-0.75-0.21-1.16c-0.05-0.46-0.08-0.93-0.1-1.36c0-0.05-0.02-0.26-0.05-0.53
			c-0.03-0.23-0.06-0.52-0.09-0.83c-0.03-0.31-0.07-0.62-0.11-0.91c-0.07-0.59-0.13-1.06-0.13-1.06c0.46,0.14,0.82,0.31,1.1,0.51
			c1.74,1.25,0.35,3.56,2.04,4.26c0.3,0.08,0.57-0.01,0.64-0.08c0.79-0.97-0.68-0.59-0.57-1.44c0.21-1.57,0.08-2.03-0.57-3.07
			c-0.05-0.08-0.11-0.17-0.17-0.25c-0.19-0.27-0.4-0.55-0.64-0.84C30.06,18.1,29.31,17.34,28.79,16.89z"/>
	</g>
</g>
</svg>
