<?xml version="1.0" encoding="utf-8"?>
<!-- Generator: Adobe Illustrator 24.2.0, SVG Export Plug-In . SVG Version: 6.00 Build 0)  -->
<svg version="1.1" id="Layer_1" xmlns="http://www.w3.org/2000/svg" xmlns:xlink="http://www.w3.org/1999/xlink" x="0px" y="0px"
	 viewBox="0 0 39.69 39.69" style="enable-background:new 0 0 39.69 39.69;" xml:space="preserve">
<style type="text/css">
	.st0{clip-path:url(#SVGID_2_);fill:#5E71AC;}
	.st1{clip-path:url(#SVGID_4_);fill:#FFFFFF;}
	.st2{clip-path:url(#SVGID_6_);}
	.st3{clip-path:url(#SVGID_8_);}
</style>
<g id="Layer_4">
</g>
<g id="Layer_5">
</g>
<g id="moon">
</g>
<g id="palm">
</g>
<g id="Layer_3">
</g>
<g id="Layer_5_copy">
	<g>
		<g>
			<defs>
				<circle id="SVGID_1_" cx="19.84" cy="19.84" r="19.85"/>
			</defs>
			<clipPath id="SVGID_2_">
				<use xlink:href="#SVGID_1_"  style="overflow:visible;"/>
			</clipPath>
			<circle class="st0" cx="19.84" cy="19.84" r="19.85"/>
		</g>
		<g>
			<defs>
				<circle id="SVGID_3_" cx="19.84" cy="19.84" r="19.85"/>
			</defs>
			<clipPath id="SVGID_4_">
				<use xlink:href="#SVGID_3_"  style="overflow:visible;"/>
			</clipPath>
			<path class="st1" d="M23.11,3.84c2.56,2.61,2.52,6.79-0.09,9.35c-2.03,2-5.04,2.41-7.47,1.25c0.25,0.37,0.54,0.72,0.86,1.06
				c2.97,3.02,7.82,3.07,10.84,0.1c3.02-2.97,3.07-7.82,0.1-10.84c-1.67-1.71-3.94-2.46-6.15-2.27C21.9,2.82,22.54,3.26,23.11,3.84z
				"/>
		</g>
		<g>
			<defs>
				<circle id="SVGID_5_" cx="19.84" cy="19.84" r="19.85"/>
			</defs>
			<clipPath id="SVGID_6_">
				<use xlink:href="#SVGID_5_"  style="overflow:visible;"/>
			</clipPath>
			<path class="st2" d="M20.05,28.89l0.07-0.44l0.1,0.37l0.28-0.03l0.15-0.47l0.03,0.37l0.85-0.18l0.08-0.7l0.18,0.49l0.41-0.1
				l0.08-0.37l0.07,0.42l0.83,0.07l0.18-0.36l-0.03,0.41l0.35,0.06l0,0l0.22,0.04l0.34-0.47c0,0,0,0-0.08,0.59
				c0.21,0.02,0.74,0.2,1.01,0.29l0,0c0.01,0,0.03,0.01,0.04,0.01c-0.03,0.01-0.06,0.02-0.09,0.02l0.01-0.02c0,0,0,0-0.01,0
				s-0.01,0-0.03,0c0,0,0,0-0.01,0c-0.29-0.04-2.13-0.21-3.84,1.2c0.03,0.2,0.03,0.2,0.03,0.2L21,30.32l0.07,0.15l-0.64,0.44
				l0.05,0.12c0,0-0.19,0.16-0.4,0.58c-0.01,0.01-0.01,0.03-0.02,0.04c-0.03,0.06-0.05,0.11-0.07,0.18
				c-0.01,0.02-0.02,0.04-0.03,0.07c-0.02,0.07-0.05,0.14-0.07,0.21c-0.01,0.02-0.01,0.05-0.02,0.07c-0.06,0.2-0.1,0.44-0.14,0.7
				c-0.01,0.04-0.01,0.08-0.01,0.12c-0.01,0.1-0.02,0.2-0.03,0.3c0,0.05-0.01,0.11-0.01,0.16c-0.01,0.11-0.01,0.22-0.01,0.35
				c0,0.05,0,0.11,0,0.16c0,0.12,0.01,0.26,0.01,0.4c0,0.02,0,0.05,0,0.07c0,0.06,0.01,0.09,0.01,0.09s0-0.02,0-0.04
				c0,0.01,0,0.03,0,0.04c0.07-0.14,0.14-0.26,0.21-0.39c0.02-0.03,0.04-0.06,0.05-0.09c0.06-0.11,0.13-0.21,0.19-0.32
				c0.01-0.01,0.01-0.02,0.02-0.03c0.06-0.09,0.12-0.17,0.17-0.25c0.02-0.03,0.04-0.05,0.05-0.07c0.05-0.07,0.11-0.14,0.16-0.21
				c0.01-0.01,0.02-0.02,0.03-0.03c0.05-0.06,0.1-0.11,0.14-0.16c0.02-0.02,0.03-0.03,0.05-0.05c0.05-0.05,0.09-0.1,0.13-0.14
				l0.01-0.01c0.04-0.04,0.08-0.07,0.12-0.1c0.01-0.01,0.02-0.01,0.02-0.02c0.04-0.03,0.07-0.06,0.1-0.08l0,0
				c0.08-0.06,0.13-0.09,0.13-0.09l-0.18-0.32l0.21,0.13c0,0,0.8-0.63,1.12-0.75l-0.05-0.37l0.13,0.21l0.1-0.16l0.07,0.05l0.75-0.32
				c-0.05,0.04-0.12,0.09-0.22,0.16c-0.16,0.55-0.17,1.98-0.17,2.16l0,0c0,0.01,0,0.02,0,0.02l0.25-0.11c0,0,0,0-0.23,0.52
				c-0.01,0.42,0.18,1.1,0.24,1.31l0,0c0.01,0.04,0.02,0.07,0.02,0.07l0.21-0.09l-0.15,0.22l0.09,0.4l0.22-0.1c0,0,0,0-0.16,0.25
				c0.07,0.53,0.54,1.27,0.54,1.27l0.24,0.01c0,0,0,0-0.12,0.22c0.25,0.62,1.45,1.85,1.45,1.85c-0.07-0.26-0.17-1.01-0.17-1.01
				l-0.16-0.04l0.16-0.19l-0.1-0.12l0.23,0.04l-0.14-1.4l-0.27-0.11l0.22-0.16l-0.3-0.19l0.51-0.03l0.06-1.36L25.6,34.4l0.14-0.13
				l-0.25-0.24h0.38l0.37-1.37l-0.16-0.26l0.23,0.07l0.36-0.89l-0.22-0.39l0.44,0.24l0.46-0.64c0.14,0.37,0.41,1.09,0.51,1.47
				c0.04-0.02,0.07-0.03,0.1-0.04c0.18,0.51,0.54,1.62,0.54,2.32c0.07-0.02,0.12-0.04,0.17-0.05c0,0.01,0,0.02,0,0.03
				c0.01,0.06,0.02,0.13,0.03,0.2l0,0c0.09,0.64,0.22,1.76,0.19,2.55c0.05,0.01,0.09,0.01,0.13,0.01c0,0.06,0,0.14,0,0.22
				c0,0.04,0,0.08,0,0.13l0,0c-0.02,0.77-0.07,2.04-0.22,2.65c0.06,0.01,0.1,0.02,0.15,0.03l-0.21,2.76h0.12l-0.16,0.71
				c-0.01,0.01-0.01,0.02-0.01,0.02s0-0.42-0.42-1.01c0.25,0.5,0.16,1.02,0.16,1.02s-0.1-0.62-0.55-0.7
				c0.3,0.15,0.47,1.02,0.47,1.02c-0.16-0.52-0.85-0.64-0.85-0.64s0.78,0.64,0.75,1.09c-0.18-0.49-0.67-0.57-0.67-0.57
				s0.37,0.32,0.47,0.88c-0.01-0.03-0.03-0.06-0.05-0.1v-0.01c-0.02-0.04-0.05-0.07-0.07-0.11l-0.01-0.01
				c-0.03-0.04-0.06-0.08-0.1-0.12c0-0.01-0.01-0.01-0.01-0.02c-0.04-0.04-0.08-0.08-0.12-0.12c0,0-0.01-0.01-0.02-0.01
				c-0.04-0.04-0.09-0.07-0.14-0.11l-0.01-0.01c-0.05-0.03-0.11-0.06-0.16-0.08c0,0,0,0-0.01,0c-0.12-0.05-0.25-0.06-0.4-0.04
				c0,0,0,0-0.01,0l0,0c-0.04,0.01-0.09,0.02-0.14,0.04c0.66,0,0.95,0.63,1.04,0.89c-0.35,0.02-0.85,0.06-1.49,0.18
				c-1.27,0.24,1.07,0.03,2.93,0.18c1.86,0.15,4.41,0.33,3.79,0.11c-0.63-0.2-0.3-0.19,1.23-0.12c1.35,0.07,0.37-0.33-0.83-0.43
				c0.24-0.12,0.56-0.23,0.78-0.21c-0.32-0.1-0.62-0.07-0.78-0.05c0-0.02,0-0.04,0.01-0.06c0.21-0.16,0.71-0.49,1.1-0.5
				c-0.62-0.05-0.99,0.07-0.99,0.07s0.45-0.5,1.02-0.55c0,0-0.5-0.1-1.07,0.09c0-0.06,0.01-0.12,0.01-0.17
				c0.3-0.3,0.66-0.59,0.66-0.59s-0.34-0.02-0.65,0.22c0-0.07,0.01-0.14,0.01-0.2c0.22-0.4,0.44-0.7,0.44-0.7s-0.18,0.07-0.42,0.24
				c0-0.01,0-0.02,0-0.02c0-0.02,0-0.04,0-0.06c0-0.05,0-0.1,0-0.14c0-0.02,0-0.05,0-0.07c0-0.04,0-0.08-0.01-0.11
				c0-0.01,0-0.02,0-0.03c0.05-0.51,0.15-1.53,0.18-2.28l0,0c0-0.01,0-0.01,0-0.02h0.04c0,0,0.21-1.35-0.07-2.44l0,0l0,0
				c-0.02-0.06-0.04-0.13-0.06-0.19l0.3,0.06c0,0,0.08-0.91-0.07-1.81l0,0v-0.01c-0.01-0.05-0.02-0.09-0.03-0.14l0,0
				c0-0.01,0-0.01,0-0.02l0.12-0.01l0,0l0.23-0.02c0,0-0.01-0.38-0.04-0.85l0,0c-0.01-0.19-0.03-0.41-0.05-0.61
				c0-0.02,0-0.03,0-0.05c0-0.05-0.01-0.1-0.01-0.14c0-0.03-0.01-0.06-0.01-0.09c0-0.04-0.01-0.08-0.01-0.11
				c0-0.04-0.01-0.07-0.01-0.11c0-0.03-0.01-0.06-0.01-0.09c-0.01-0.04-0.01-0.07-0.02-0.11c0-0.01,0-0.03-0.01-0.04l0,0v-0.01
				c0-0.01,0-0.01,0-0.02c-0.01-0.03-0.01-0.06-0.02-0.09c0-0.02-0.01-0.04-0.01-0.06v-0.01c0-0.02-0.01-0.03-0.01-0.04l0.03-0.01
				l0,0l0.22-0.09c0,0,0-0.07,0-0.17c0.05,0.03,0.1,0.07,0.15,0.11c0.07,0.05,0.15,0.11,0.22,0.18c0.02,0.01,0.03,0.02,0.04,0.04
				c0.08,0.07,0.17,0.15,0.25,0.23c0.02,0.02,0.03,0.03,0.05,0.05c0.09,0.09,0.17,0.18,0.26,0.29c0.01,0.02,0.03,0.03,0.04,0.05
				c0.09,0.11,0.19,0.23,0.28,0.37c0.13-0.18,0.13-0.18,0.13-0.18l0.05,0.18c0,0,0.42-0.1,0.67,0.64c0,0,0.44-1.04,0.07-2.61
				c-0.18,0.03-0.18,0.03-0.18,0.03l0.03-0.25c0,0-0.01-0.01-0.02-0.03c0,0,0-0.01-0.01-0.01c-0.01-0.02-0.03-0.04-0.05-0.07
				c0,0,0-0.01-0.01-0.01c-0.02-0.03-0.05-0.07-0.08-0.1c0-0.01-0.01-0.01-0.01-0.02c-0.03-0.04-0.06-0.07-0.09-0.11l-0.01-0.01l0,0
				c-0.12-0.15-0.26-0.3-0.37-0.37c-0.13,0.16-0.13,0.16-0.13,0.16v-0.28c0,0-0.72-0.67-0.96-0.83c-0.07,0.21-0.15,0.3-0.15,0.3
				l0.03-0.45l-0.29-0.13c-0.01-0.37-0.04-0.9-0.12-1.47c0.02,0.01,0.04,0.01,0.06,0.02c0.13-0.29,0.13-0.35,0.13-0.35v0.25
				c0,0,0.39,0.08,0.81,0.25c0.08,0.03,0.16,0.07,0.24,0.11c0.01,0.01,0.02,0.01,0.04,0.02c0.08,0.04,0.16,0.08,0.24,0.13
				c0.01,0.01,0.02,0.01,0.03,0.02c0.08,0.05,0.15,0.1,0.22,0.16c0.01,0.01,0.01,0.01,0.02,0.02c0.07,0.06,0.14,0.13,0.19,0.2
				c-0.02-0.3-0.06-0.42-0.06-0.42s0.34,0.57,0.37,0.73c0,0,0.04-0.23,0.01-0.59c0.01,0.03,0.01,0.05,0.01,0.05s0-0.02-0.01-0.05
				c-0.05-0.52-0.26-1.3-1.02-2.05c-0.25,0.05-0.25,0.05-0.25,0.05l0.06-0.15c0,0-0.01,0-0.02-0.01c0,0,0,0-0.01,0
				c-0.01-0.01-0.02-0.02-0.04-0.03c0,0-0.01,0-0.01-0.01c-0.02-0.01-0.04-0.03-0.06-0.04c-0.01,0-0.01-0.01-0.02-0.01
				c-0.03-0.02-0.05-0.03-0.09-0.05c-0.01,0-0.01-0.01-0.02-0.01l0,0c-0.26-0.16-0.69-0.4-1.13-0.53c-0.08-0.48-0.18-1.05-0.3-1.61
				l0,0v-0.01c-0.02-0.07-0.03-0.14-0.05-0.21l0,0c0-0.02-0.01-0.03-0.01-0.05c-0.01-0.03-0.01-0.06-0.02-0.09L33.39,24l0,0
				l0.12-0.09c0,0-0.35-1.04-0.65-1.81c0-0.01-0.01-0.01-0.01-0.02c-0.02-0.06-0.05-0.13-0.07-0.19c0-0.01-0.01-0.02-0.01-0.03
				c-0.02-0.05-0.04-0.1-0.06-0.15c-0.01-0.01-0.01-0.03-0.02-0.04c-0.02-0.05-0.04-0.09-0.06-0.13v-0.01l0.14-0.06l-0.19-0.36
				c0.05,0.03,0.1,0.05,0.14,0.06c0.2-0.36,0.2-0.36,0.2-0.36l-0.03,0.45l0.33,0.33l0.27-0.3l-0.12,0.38c0,0,0.63,0.72,0.96,1.23
				c0.05,0.08,0.1,0.16,0.13,0.22c0.18-0.11,0.25-0.14,0.25-0.14l-0.08,0.22c0,0,0.3,0.53,0.47,0.88l0,0
				c0.02,0.05,0.04,0.1,0.06,0.14c0,0,0,0,0,0.01c0.01,0.04,0.02,0.08,0.03,0.11c0.36-0.21,0.5-0.25,0.5-0.25l-0.17,0.36
				c0,0,1.02,0.78,1.15,1.69c0,0,0-0.01,0-0.02v-0.01c0-0.01,0-0.02,0.01-0.04c0-0.01,0-0.01,0-0.02c0-0.02,0-0.04,0.01-0.06
				c0-0.01,0-0.02,0-0.03c0-0.03,0-0.05,0.01-0.08c0-0.01,0-0.02,0-0.03c0-0.04,0.01-0.09,0.01-0.13c0,0,0,0,0-0.01
				c0-0.05,0.01-0.11,0.01-0.17c0-0.01,0-0.02,0-0.02c0-0.05,0-0.11,0-0.16c0-0.02,0-0.04,0-0.06c0-0.05,0-0.1,0-0.15
				c0-0.02,0-0.05,0-0.07c0-0.05,0-0.1-0.01-0.16c0-0.03,0-0.05,0-0.08c0-0.06-0.01-0.12-0.01-0.18c0-0.02,0-0.05-0.01-0.07
				c-0.01-0.08-0.02-0.17-0.03-0.26c0-0.02-0.01-0.05-0.01-0.07c-0.01-0.07-0.02-0.13-0.03-0.2c-0.01-0.04-0.02-0.08-0.02-0.13
				c-0.01-0.05-0.02-0.1-0.03-0.16c-0.01-0.05-0.02-0.1-0.03-0.15c-0.01-0.02-0.01-0.05-0.02-0.07l0,0
				c-0.07-0.27-0.15-0.56-0.26-0.85c-0.2-0.05-0.2-0.05-0.2-0.05l0.05-0.15c0,0-0.28-0.92-0.87-1.53c-0.23,0.02-0.23,0.02-0.23,0.02
				l0.05-0.23c0,0-0.01-0.01-0.03-0.04c-0.02-0.02-0.04-0.05-0.07-0.08l0,0c-0.21-0.25-0.71-0.82-0.85-0.99l-0.28,0.11V19.5
				c0,0-0.08-0.05-0.24-0.12l0,0h-0.01c-0.03-0.01-0.07-0.03-0.12-0.04c-0.01,0-0.02-0.01-0.03-0.01s-0.01,0-0.02-0.01
				c0.01-0.01,0.02-0.02,0.02-0.03c0.03-0.03,0.06-0.07,0.09-0.1c0.16-0.17,0.38-0.36,0.64-0.45c-0.05-0.41-0.05-0.41-0.05-0.41
				l0.25,0.27c0,0,0.03-0.03,0.09-0.07l0,0c0.18-0.13,0.59-0.43,0.84-0.49c-0.07-0.36-0.07-0.36-0.07-0.36l0.22,0.17
				c0,0,0.55-0.22,0.87-0.27c0.07-0.36,0.07-0.36,0.07-0.36l0.07,0.2c0,0,0.1-0.05,0.26-0.1c0.03-0.01,0.06-0.02,0.1-0.03
				c0.02-0.01,0.04-0.01,0.06-0.02c0.03-0.01,0.05-0.02,0.08-0.02c0.02-0.01,0.04-0.01,0.07-0.02c0.05-0.01,0.09-0.02,0.14-0.03
				c0.02,0,0.04-0.01,0.06-0.01c0.04-0.01,0.07-0.01,0.11-0.02c0.02,0,0.05-0.01,0.07-0.01c0.04,0,0.09-0.01,0.13-0.01
				c0.02,0,0.04,0,0.06,0c0.06,0,0.12,0,0.19,0c0.02,0,0.04,0,0.06,0c0.05,0,0.1,0.01,0.14,0.01c0.02,0,0.04,0.01,0.06,0.01
				c0.07,0.01,0.14,0.02,0.2,0.04c0,0,0,0,0-0.01c0,0,0,0,0-0.01s-0.01-0.01-0.01-0.02s-0.01-0.01-0.01-0.02
				c-0.01-0.01-0.01-0.02-0.02-0.03c0-0.01-0.01-0.01-0.01-0.02c-0.01-0.02-0.03-0.04-0.04-0.06c-0.01-0.01-0.02-0.02-0.02-0.03
				c-0.01-0.02-0.02-0.03-0.04-0.05c-0.01-0.01-0.02-0.03-0.03-0.04c-0.01-0.02-0.03-0.03-0.05-0.05c-0.01-0.01-0.03-0.03-0.04-0.04
				c-0.02-0.02-0.05-0.05-0.07-0.07c-0.02-0.02-0.05-0.04-0.07-0.06c-0.02-0.02-0.05-0.04-0.07-0.06c-0.02-0.02-0.05-0.04-0.07-0.05
				c-0.02-0.02-0.05-0.03-0.07-0.05c-0.03-0.02-0.05-0.04-0.08-0.06c-0.03-0.02-0.06-0.04-0.09-0.05c-0.05-0.03-0.1-0.06-0.15-0.09
				c-0.04-0.02-0.07-0.04-0.11-0.06c-0.04-0.02-0.07-0.03-0.11-0.05c-0.03-0.02-0.07-0.03-0.11-0.05c-0.04-0.02-0.08-0.03-0.13-0.05
				c-0.01,0-0.02-0.01-0.04-0.01l0,0c-0.35-0.13-0.77-0.23-1.29-0.29c-0.3,0.15-0.36,0.25-0.36,0.25l0.05-0.1
				c0,0-0.67,0.07-1.19,0.29l0,0c-0.01,0-0.01,0.01-0.02,0.01c-0.05,0.02-0.1,0.05-0.15,0.07c-0.01,0-0.01,0.01-0.02,0.01
				c-0.05,0.03-0.1,0.06-0.14,0.1c-0.01,0.01-0.02,0.02-0.03,0.03c-0.03,0.03-0.06,0.06-0.08,0.09c-0.01,0.01-0.02,0.02-0.03,0.04
				c-0.03,0.04-0.05,0.08-0.07,0.13c-0.07-0.15-0.07-0.15-0.07-0.15l-0.61,0.42l0.05-0.21l-0.27-0.02l0.27-0.1l0.43-1.38l-0.27-0.12
				l0.4,0.05c0,0,0.03-0.05,0.07-0.14l0,0c0.14-0.25,0.47-0.81,0.83-1.17c-0.18-0.18-0.18-0.18-0.18-0.18l0.24,0.13
				c0,0,0.6-0.84,0.9-1.02c-0.12-0.26-0.12-0.26-0.12-0.26l0.2,0.18c0,0,0.53-1.13,1.05-1.24c0,0-0.74-0.05-2.24,0.25
				c0.01,0.2,0.01,0.2,0.01,0.2l-0.12-0.09c0,0-1.06,0.5-1.39,0.91c-0.02,0.06-0.04,0.11-0.06,0.15l0,0v0.01
				c-0.01,0.03-0.02,0.05-0.02,0.07c-0.01,0.02-0.02,0.04-0.02,0.06c-0.01,0.02-0.01,0.03-0.01,0.04c-0.01,0.02-0.01,0.03-0.01,0.05
				c0,0.01,0,0.01-0.01,0.02c0,0.01-0.01,0.02-0.01,0.02l-0.12-0.26c0,0-0.5,0.42-0.85,1.22c0.1,0.26,0.08,0.36,0.08,0.36l-0.2-0.23
				c0,0-0.1,0.11-0.19,0.39l0,0c-0.02,0.05-0.03,0.1-0.05,0.16c0,0.01-0.01,0.03-0.01,0.04c-0.01,0.05-0.03,0.11-0.04,0.18
				c0,0.01,0,0.02-0.01,0.03c-0.01,0.07-0.03,0.15-0.04,0.23c0,0.02,0,0.04-0.01,0.07c-0.01,0.07-0.01,0.14-0.02,0.22
				c0,0.02,0,0.04,0,0.07c0,0.05,0,0.1,0,0.16c-0.34-0.62-0.8-1.29-0.8-1.29l-0.42,0.03c0,0,0,0,0.11-0.15
				c-0.2-0.36-0.44-0.52-0.44-0.52l-0.25,0.07c0,0,0,0,0.16-0.26c-0.78-0.59-1.34-0.67-1.34-0.67l-0.28,0.26c0,0,0.02-0.08,0.1-0.34
				c-1.63-0.2-2.71,0.36-3.26,0.95c-0.01,0-0.02,0.01-0.02,0.01s0.01,0,0.02-0.01c-0.08,0.09-0.16,0.18-0.21,0.27
				c0.78-0.18,1.66,0.2,1.66,0.2l0.4-0.15l-0.15,0.2l0.94,0.55l0.57-0.23c0,0-0.07,0.08-0.28,0.28c0.21,0.13,0.97,0.87,0.97,0.87
				l0.64-0.28c0,0,0.02,0.1-0.32,0.41c0.04,0.01,0.07,0.01,0.1,0.02c0.05,0.01,0.1,0.03,0.13,0.05c0.01,0,0.01,0.01,0.02,0.01
				c0.03,0.02,0.06,0.04,0.08,0.06l0.01,0.01c0.02,0.02,0.03,0.03,0.04,0.05c0,0,0,0,0,0.01c0.01,0.01,0.01,0.02,0.01,0.02
				l0.32-0.12c0,0,0,0-0.26,0.25c0.37,0.23,0.87,1.16,0.87,1.16l0.26-0.03c0,0,0,0-0.11,0.17c0.28,0.16,0.67,0.72,0.95,1.14
				c-0.03-0.02-0.05-0.05-0.08-0.07c-0.01-0.01-0.03-0.02-0.05-0.04c-0.04-0.03-0.08-0.06-0.12-0.09c-0.02-0.02-0.05-0.03-0.07-0.05
				c-0.04-0.03-0.09-0.05-0.13-0.08c-0.03-0.02-0.05-0.03-0.08-0.05c-0.06-0.03-0.12-0.06-0.18-0.09c-0.02-0.01-0.04-0.02-0.07-0.03
				c-0.09-0.04-0.18-0.07-0.28-0.11c-0.03-0.01-0.06-0.02-0.08-0.03c-0.06-0.02-0.11-0.04-0.17-0.05c0.01,0,0.01,0.01,0.02,0.01
				c-0.42-0.11-0.91-0.19-1.54-0.2c0,0.26,0,0.26,0,0.26l-0.2-0.2c0,0-0.6,0.03-1.78,0.7c0.2,0.34,0.2,0.34,0.2,0.34l-0.41-0.26
				c0,0-1.07,0.6-1.44,0.83C24.79,20,24.79,20,24.79,20l-0.23-0.13c0,0-0.22,0.14-0.5,0.43l0,0l0,0c-0.06,0.06-0.13,0.14-0.2,0.21
				c0,0,0,0.01-0.01,0.01c-0.07,0.08-0.13,0.17-0.2,0.26c0,0,0,0.01-0.01,0.01c-0.07,0.09-0.13,0.2-0.2,0.32v0.01
				c-0.06,0.11-0.12,0.23-0.18,0.37c0.06,0.12,0.07,0.2,0.05,0.24c-0.01,0.02-0.02,0.04-0.03,0.05c0,0,0,0-0.01,0
				c-0.01,0.01-0.02,0.02-0.03,0.02h-0.01c-0.01,0-0.02,0.01-0.02,0.01s0,0-0.01,0c-0.01,0-0.01,0-0.01,0s-0.9,1.53,0.1,3.31
				c0.4-1.04,1.06-1.56,1.06-1.56l-0.16-0.35l0.21,0.14l0.63-0.86l-0.14-0.27l0.23,0.07l1.1-1l-0.14-0.49l0.27,0.33
				c0,0,0.25-0.25,0.47-0.35c0-0.23,0-0.23,0-0.23l0.16,0.14c0,0,0.88-0.65,1.35-0.77c0.05-0.33,0.05-0.33,0.05-0.33l0.11,0.16
				c0,0,0.4-0.18,0.89-0.21c0.09-0.01,0.19-0.01,0.28,0c0.11-0.25,0.11-0.25,0.11-0.25l0.07,0.18c0,0,0.16,0,0.4,0
				c-0.01,0-0.02,0.01-0.03,0.01c-0.06,0.02-0.12,0.04-0.18,0.06c-0.01,0.01-0.03,0.01-0.04,0.01l0,0
				c-0.38,0.16-0.78,0.48-1.13,1.08c0.18,0.02,0.18,0.02,0.18,0.02l-0.3,0.18l0.06,0.14c0,0-0.49,0.95-0.59,1.53
				c0.26,0.06,0.26,0.06,0.26,0.06l-0.24,0.16l0.12,0.02c0,0-0.05,0.03-0.1,0.1l0,0v0.01c-0.01,0.01-0.02,0.03-0.03,0.05
				c0,0,0,0.01-0.01,0.01c-0.01,0.02-0.02,0.05-0.03,0.08c0,0.01,0,0.01-0.01,0.02c-0.01,0.02-0.02,0.05-0.02,0.08
				c0,0.01-0.01,0.02-0.01,0.03c-0.01,0.03-0.01,0.06-0.02,0.1c0,0.01,0,0.02,0,0.03c-0.01,0.05-0.01,0.1-0.01,0.15
				c0,0.01,0,0.01,0,0.02c0,0.05,0,0.1,0,0.16c0,0.02,0,0.03,0,0.05c0,0.05,0.01,0.1,0.01,0.16c0,0.02,0,0.04,0,0.06
				c0.01,0.07,0.02,0.15,0.03,0.24c0.14,0.02,0.14,0.02,0.14,0.02l-0.15,0.26l0.16,0.06c0,0,0.09,1.18,0.51,2.27
				c-0.06,0.25-0.09,0.38-0.09,0.38l-0.1-0.26c0,0-0.2,0.18-0.44,0.58c0-0.01,0-0.02,0-0.03c0-0.02,0-0.04,0-0.05
				c0-0.08,0.01-0.16,0.01-0.23c0-0.03,0-0.05,0-0.08c0-0.05,0-0.1,0-0.14c0-0.03,0-0.06,0-0.08c0-0.04,0-0.09-0.01-0.13
				c0-0.02,0-0.05-0.01-0.07c0-0.05-0.01-0.1-0.02-0.15c0-0.03-0.01-0.05-0.01-0.08s-0.01-0.06-0.01-0.09s-0.01-0.05-0.01-0.07
				c0-0.01,0-0.02,0-0.03l0,0c-0.03-0.16-0.05-0.26-0.05-0.26h-0.28l0.23-0.12l-0.3-0.75L27.54,25l0.03-0.15l-0.2-0.5l-0.21,0.03
				c0,0,0,0,0.08-0.25c-0.69-1.12-2.07-1.49-2.07-1.49l0.13,0.9h0.25l-0.18,0.2l0.26,0.97l0.32,0.02l-0.23,0.21l0.18,0.64l0.25,0.07
				c0,0,0,0-0.17,0.16l0,0l-0.01,0.01c0.3,0.45,0.41,1.24,0.44,1.61v0.01v0.01c-0.28-0.22-0.52-0.35-0.52-0.35l0.05-0.2l-0.34,0.1
				c0,0,0,0,0.08-0.18c-0.09-0.06-0.19-0.11-0.3-0.17c-0.01,0-0.01-0.01-0.02-0.01c0,0,0,0-0.01,0l0,0
				c-0.1-0.05-0.21-0.09-0.33-0.13c-0.01,0-0.02-0.01-0.03-0.01c-0.11-0.04-0.22-0.07-0.35-0.1c-0.01,0-0.02,0-0.02-0.01
				c-0.65-0.18-1.27-0.23-1.27-0.23l-0.47,0.3c0,0,0.05-0.07,0.12-0.26c-0.41,0-0.8,0.13-0.8,0.13l-0.21,0.37l0.03-0.28l-0.88,0.23
				l-0.25,0.42c0,0,0,0-0.03-0.3c-0.64,0.47-1.49,1.56-1.56,2.58C19.5,29.07,20.05,28.89,20.05,28.89z M31.64,19.29L31.64,19.29
				L31.64,19.29L31.64,19.29z M31.63,19.28l-0.06-0.12c0,0-0.01,0.01-0.02,0.02l0,0c0.01-0.05,0.01-0.09,0.02-0.14
				c0.03,0.1,0.06,0.17,0.07,0.21C31.63,19.26,31.63,19.27,31.63,19.28z M27.53,29.35L27.53,29.35c0,0.01,0,0.03-0.01,0.05
				c-0.01,0.02-0.02,0.03-0.03,0.05l-0.01-0.02c0.01-0.05,0.01-0.09,0.01-0.14L27.53,29.35z M27.56,29.64
				c-0.01,0.01-0.01,0.01-0.02,0.02l-0.03-0.12L27.56,29.64z M31.15,44.7L31.15,44.7c0-0.01,0-0.02,0-0.03l0.01-0.01
				c0,0.03,0,0.06,0,0.07l0,0C31.15,44.73,31.15,44.72,31.15,44.7z M28.72,30.73l0.23-0.54l0.15,0.46l0.6,0.15l0.08-0.49l0.13,0.41
				l1.24,0.6l0.21-0.37l0.05,0.32l0.42,0.07l0.16-0.32l0.02,0.36l0.32,0.22l-0.11,1.21h0.13c0,0.06,0,0.13,0,0.21l0,0
				c-0.02,0.54-0.1,1.46-0.43,1.98c0.11,0.01,0.2,0.02,0.28,0.03c0,0,0,0,0,0.01l0,0c-0.02,0.33-0.11,1.23-0.42,1.8
				c0.09,0.02,0.16,0.04,0.23,0.05c-0.02,0.08-0.04,0.19-0.06,0.3l0,0c-0.13,0.66-0.39,1.75-0.67,2.26c0.08,0.02,0.14,0.04,0.2,0.06
				l-0.06,0.22l0,0l-0.64,2.51h0.03L30.8,42.4c-0.03-0.48-0.07-1.18-0.13-1.7l0,0c-0.01-0.08-0.02-0.16-0.03-0.23l0,0
				c0-0.02-0.01-0.05-0.01-0.07l0.09-0.03c0,0-0.01-1.6-0.38-2.78c-0.02-0.07-0.04-0.13-0.06-0.2l0.14,0.01c0,0-0.21-1.42-0.56-2.74
				v-0.01c0-0.01-0.01-0.02-0.01-0.03c-0.02-0.06-0.04-0.13-0.05-0.19l0,0c0-0.01-0.01-0.02-0.01-0.03
				c-0.01-0.04-0.02-0.07-0.03-0.11l0.04-0.03l0,0l0.12-0.09c0,0-0.14-0.39-0.34-0.85l0,0c-0.04-0.1-0.09-0.21-0.13-0.34
				c-0.02-0.04-0.03-0.08-0.05-0.12c-0.01-0.03-0.03-0.06-0.04-0.09c-0.02-0.05-0.04-0.09-0.06-0.14c-0.01-0.03-0.03-0.06-0.04-0.09
				c-0.02-0.04-0.04-0.09-0.06-0.13c-0.01-0.03-0.03-0.06-0.04-0.09c-0.02-0.04-0.03-0.08-0.05-0.12c-0.01-0.03-0.03-0.06-0.04-0.09
				c-0.02-0.04-0.03-0.07-0.05-0.1c-0.01-0.03-0.03-0.05-0.04-0.08c-0.02-0.03-0.03-0.07-0.05-0.1c-0.01-0.01-0.01-0.02-0.02-0.03
				l0.15-0.06l-0.68-1.14L28.72,30.73z M33.54,34.93L33.54,34.93L33.54,34.93L33.54,34.93z M30.24,28.4c0-0.05,0.01-0.08,0.01-0.1
				l0,0c0-0.03,0-0.04,0-0.05c0,0,0,0.01,0,0.05c0.01,0,0.02,0,0.03,0l0.07,0.12l0.86-0.04L31.2,28.1l0.14,0.2
				c0,0,0.3-0.05,0.66-0.09c0.16-0.01,0.4-0.03,0.58-0.04c-0.01,0.17-0.02,0.36-0.04,0.53l-0.56-0.11l-0.36,0.21l0.1-0.23
				c0,0-0.72-0.12-1.32-0.11c-0.27,0.23-0.27,0.23-0.27,0.23l0.04-0.24c0,0-0.24,0.02-0.59,0.07c-0.02,0-0.05,0.01-0.07,0.01
				c-0.03,0-0.05,0.01-0.08,0.01c-0.06,0.01-0.11,0.02-0.17,0.03c-0.01,0-0.02,0.01-0.04,0.01c-0.05,0.01-0.11,0.02-0.16,0.04
				c-0.02,0-0.03,0.01-0.05,0.01c-0.14,0.03-0.27,0.07-0.42,0.12c-0.02,0.01-0.03,0.01-0.05,0.02c-0.06,0.02-0.12,0.04-0.17,0.06
				c-0.01,0-0.02,0.01-0.03,0.01c-0.04,0.02-0.08,0.03-0.12,0.05c0.02-0.01,0.03-0.02,0.04-0.03c0.01-0.01,0.02-0.01,0.04-0.02
				c0.05-0.03,0.11-0.06,0.17-0.08C28.88,28.55,29.48,28.37,30.24,28.4z M30.24,45.05L30.24,45.05c0,0.01-0.01,0.01-0.01,0.01
				C30.23,45.05,30.24,45.04,30.24,45.05z M29.64,25.27l-0.12-0.18l0.18,0.06l0.12-0.37l0,0l0.22-0.68l-0.16-0.08l0.35-0.18
				l0.22-0.49l-0.2-0.18l0.37,0.12l0.72-1.58l-0.2-0.35l0.33,0.24l0.05-0.09c0.05,0.17,0.09,0.34,0.12,0.46
				c0.03-0.02,0.06-0.03,0.09-0.04c0.15,0.51,0.47,1.63,0.46,2.33c0.07-0.02,0.12-0.04,0.16-0.05c0.01,0.06,0.02,0.13,0.02,0.21
				c0.04,0.36,0.09,0.88,0.12,1.41c-0.13,0.01-0.27,0.01-0.4,0.03c-0.19,0.28-0.19,0.28-0.19,0.28l-0.06-0.23
				c0,0-1.02,0.01-1.73,0.27c-0.2,0.3-0.25,0.37-0.25,0.37l-0.05-0.33c0,0-0.41,0.21-0.77,0.4C29.37,25.48,29.64,25.27,29.64,25.27z
				 M31.01,16.07c0,0.01,0,0.02,0,0.03c0,0.01,0,0.03,0,0.04h-0.06C30.95,16.15,30.95,16.14,31.01,16.07z"/>
		</g>
		<g>
			<defs>
				<circle id="SVGID_7_" cx="19.84" cy="19.84" r="19.85"/>
			</defs>
			<clipPath id="SVGID_8_">
				<use xlink:href="#SVGID_7_"  style="overflow:visible;"/>
			</clipPath>
			<g class="st3">
				<path d="M-0.38,12.29c0.74-4.7,4.72-8.1,9.78-8.06c2.35,0.02,4.43,0.84,6.17,2.45c1.52,1.42,2.52,3.17,3.01,5.19
					c0.09,0.38,0.19,0.74-0.11,1.12c-1.45,1.8-2.9,3.61-4.34,5.42c-0.95,1.18-1.89,2.37-2.83,3.56c-0.09,0.11-0.36,0.27-0.03,0.4
					c1.03,0.39,1.9,1.12,3.04,1.25c0.6,0.07,1.18,0.24,1.79,0.29c0.18,0.01,0.44,0.06,0.41,0.33c-0.03,0.26-0.26,0.3-0.49,0.29
					c-0.42-0.02-0.87,0.39-1.23-0.14c0-0.01-0.03,0-0.05,0c-0.94,0.15-1.84,0-2.73-0.3c-0.3-0.1-0.44,0.03-0.43,0.34
					c0,0.5,0.02,1,0.01,1.49c-0.01,0.38,0.1,0.66,0.47,0.81c1.13,0.49,1.86,1.33,2.19,2.52c0.02,0.08,0.08,0.16,0.11,0.24
					c0.1,0.35,0.25,0.56,0.67,0.47c0.21-0.05,0.44,0.05,0.5,0.29c0.06,0.26-0.08,0.46-0.33,0.55s-0.51,0.16-0.77,0.22
					c-0.21,0.05-0.39-0.03-0.5-0.21c-0.18-0.3-0.4-0.6-0.52-0.92c-0.4-1.04-1.09-1.72-2.18-1.98c-0.15-0.04-0.29-0.19-0.44-0.05
					c-0.16,0.15-0.01,0.3,0.08,0.43c0.62,0.83,0.81,1.76,0.72,2.77c-0.04,0.37-0.03,0.72,0.48,0.78c0.2,0.02,0.34,0.2,0.32,0.44
					c-0.03,0.25-0.2,0.39-0.44,0.39c-0.32,0.01-0.64-0.02-0.96-0.05c-0.16-0.01-0.23-0.13-0.27-0.28c-0.08-0.42-0.24-0.82-0.26-1.24
					c-0.04-0.95-0.42-1.71-1.07-2.37c-0.12-0.12-0.2-0.29-0.34-0.42c-0.53-0.49-0.69-1.11-0.69-1.79c0-0.49-0.14-0.95-0.29-1.4
					c-0.12-0.38-0.28-0.38-0.57-0.16c-0.55,0.42-1.15,0.73-1.85,0.77c-0.34,0.02-0.59,0.1-0.69,0.46c-0.03,0.1-0.14,0.25-0.2,0.17
					c-0.19-0.3-0.4-0.09-0.6-0.05c-0.14,0.03-0.3,0.01-0.38-0.13c-0.08-0.17,0.07-0.25,0.18-0.34c0.19-0.12,0.4-0.23,0.6-0.35
					c1.01-0.57,2.07-1.05,2.84-1.97c0.19-0.23,0.34-0.52,0.57-0.68c0.27-0.2,0.2-0.29,0-0.48c-2.52-2.24-5-4.5-7.56-6.7
					c-0.7-0.6-0.97-1.23-0.86-2.08C-0.45,13.14-0.45,12.7-0.38,12.29z M10.99,21.95c2.4-2.99,4.79-5.98,7.19-8.95
					c0.27-0.35,0.21-0.54-0.1-0.77c-1.38-1.05-2.87-1.03-4.41-0.46c-0.23,0.08-0.32,0.27-0.38,0.49c-0.67,2.22-1.34,4.43-2.03,6.64
					c0.16,0.38,0.07,0.2,0.22,0.75c0.02,0.07,0.05,0.39,0.04,0.44c-0.19,0.82-0.34,1.54-1.07,2.12
					C10.8,22.28,10.88,22.09,10.99,21.95z M7.98,21.56c-0.68-0.61-1.01-1.31-0.69-2.21c0.08-0.23,0.01-0.42-0.08-0.6
					c-0.86-1.76-1.73-3.51-2.57-5.28c-0.17-0.36-0.42-0.54-0.8-0.62C2.37,12.54,1,13.05,0.14,14.21c-0.27,0.38-0.3,0.64,0.08,0.99
					c2.03,1.78,4.06,3.58,6.07,5.38c0.61,0.54,1.21,1.1,1.83,1.64c0.15,0.13,0.27,0.35,0.58,0.19C8.46,22.11,8.24,21.79,7.98,21.56z
					 M13.07,12.23c0.09-0.28,0.01-0.47-0.23-0.62c-1.08-0.68-2.76-0.56-3.76,0.25c-0.26,0.21-0.29,0.47-0.26,0.76
					c0.12,1.34,0.24,2.69,0.37,4.04c0.01,0.12,0.06,0.25,0.04,0.37c-0.07,0.64,0.13,1.05,0.81,1.18c0.45,0.08,0.47,0.68,0.97,0.83
					C11.69,16.75,12.37,14.49,13.07,12.23z M8.56,12.61c-0.03-0.33-0.17-0.52-0.47-0.64c-1.06-0.48-2.47-0.16-3.23,0.7
					c-0.22,0.24-0.14,0.45-0.03,0.68c0.51,1.04,1.02,2.07,1.52,3.12c0.37,0.75,0.73,1.5,1.09,2.26c0.13,0.27,0.25,0.33,0.44,0.05
					c0.14-0.21,0.36-0.35,0.57-0.48C9.02,17.97,9.02,17.97,9,17.3C8.84,15.72,8.69,14.17,8.56,12.61z"/>
				<circle cx="9.25" cy="19.81" r="2.1"/>
			</g>
		</g>
	</g>
</g>
</svg>
