<?xml version="1.0" encoding="utf-8"?>
<!-- Generator: Adobe Illustrator 24.2.0, SVG Export Plug-In . SVG Version: 6.00 Build 0)  -->
<svg version="1.1" id="Lager_1" xmlns="http://www.w3.org/2000/svg" xmlns:xlink="http://www.w3.org/1999/xlink" x="0px" y="0px"
	 viewBox="0 0 39.69 39.69" style="enable-background:new 0 0 39.69 39.69;" xml:space="preserve">
<style type="text/css">
	.st0{fill-rule:evenodd;clip-rule:evenodd;fill:#F9C6C0;}
	.st1{fill:#E30613;}
</style>
<g>
	<path class="st0" d="M0.13,21.57C-0.83,10.68,7.23,1.08,18.12,0.13c10.89-0.95,20.49,7.1,21.44,17.99
		c0.95,10.89-7.1,20.49-17.99,21.44C10.68,40.51,1.08,32.46,0.13,21.57z"/>
	<path class="st1" d="M30.6,12.63c2.88,4.43,0.56,8.55-3.32,10.77c-3.29,1.99-5.82,7.03-5.97,7.72c-0.37,1.79-1.87,1.38-2.22,0.16
		c-0.86-2.45-2.44-4.87-4.85-6.31c-1.13-0.65-5.24-3.02-6.19-6.06c-0.8-2.58,0.5-5.48,2.77-7.03c2.87-1.43,4.63-0.72,6.27,0.43
		c1.29,0.88,2.15,2.08,2.71,3.53c0.35,0.43,0.6-0.74,0.8-1.13C23.03,9.97,28.69,9.69,30.6,12.63z"/>
</g>
</svg>
