<?xml version="1.0" encoding="utf-8"?>
<!-- Generator: Adobe Illustrator 24.2.0, SVG Export Plug-In . SVG Version: 6.00 Build 0)  -->
<svg version="1.1" id="Lager_1" xmlns="http://www.w3.org/2000/svg" xmlns:xlink="http://www.w3.org/1999/xlink" x="0px" y="0px"
	 viewBox="0 0 39.69 39.69" style="enable-background:new 0 0 39.69 39.69;" xml:space="preserve">
<style type="text/css">
	.st0{fill:#F6D858;}
	.st1{fill-rule:evenodd;clip-rule:evenodd;fill:#FFFFFF;}
	.st2{fill:none;}
	.st3{fill:#A2A6CF;}
	.st4{fill:#C6C9E6;}
	.st5{clip-path:url(#SVGID_2_);fill:#0D0E0B;}
	.st6{clip-path:url(#SVGID_2_);fill:#FFFFFF;}
	.st7{clip-path:url(#SVGID_2_);fill:#7166AB;}
	.st8{clip-path:url(#SVGID_5_);}
	.st9{clip-path:url(#SVGID_6_);fill:#FFFFFF;}
	.st10{fill:#FFFFFF;}
	.st11{fill:#7166AB;}
</style>
<g>
	<path class="st0" d="M0,19.84C0,8.88,8.88,0,19.84,0s19.84,8.88,19.84,19.84c0,10.96-8.88,19.84-19.84,19.84S0,30.8,0,19.84
		L0,19.84z"/>
	<path class="st1" d="M26.08,15.26c-0.12-1.15-1-1.54-2.03-1.41c-0.08,0.01-0.15,0.02-0.23,0.04c-0.04,0.01-0.07,0.02-0.11,0.03
		l0.01,0.12l0.28,2.75l0.01,0.14c0.04,0,0.07,0,0.11-0.01c0.07-0.01,0.14-0.01,0.21-0.02C25.25,16.78,26.2,16.37,26.08,15.26
		L26.08,15.26z M25.28,15.34c0.09,0.44-0.05,0.84-0.41,1.04l-0.46-2.04C24.88,14.3,25.19,14.93,25.28,15.34L25.28,15.34z"/>
	<g>
		<path class="st2" d="M19.84,0C8.88,0,0,8.88,0,19.84c0,10.41,8.01,18.94,18.21,19.77l0.12-4.48c0-2.09,0.03-3.98,0.07-5.67v-10.3
			c0.41,0,0.84,0.03,1.26,0.1c0.27,0.04,0.53,0.11,0.78,0.19c0.9,0.3,1.59,0.86,1.59,1.83c0,0.87-0.27,1.34-0.27,2.21
			c0,3.33,0,5.21,0,8.54c0.05,2.99,0.14,4.93,0.18,7.54c9.97-1.05,17.74-9.48,17.74-19.73C39.69,8.88,30.8,0,19.84,0z"/>
		<path class="st3" d="M19.66,19.26c-0.42-0.07-0.85-0.1-1.26-0.1v10.3c-0.05,1.69-0.07,3.58-0.07,5.67l-0.12,4.48
			c0.38,0.03,0.76,0.05,1.14,0.06l0.13-8.73C19.48,30.94,19.72,21.25,19.66,19.26z"/>
		<path class="st3" d="M21.77,23.5c0-0.87,0.27-1.34,0.27-2.21c0-0.97-0.69-1.53-1.59-1.83c0.05,3.49,0.2,15.01,0.26,20.21
			c0.42-0.02,0.83-0.05,1.24-0.09c-0.03-2.61-0.13-4.55-0.18-7.54C21.77,28.7,21.77,26.83,21.77,23.5z"/>
		<path class="st4" d="M19.66,19.26c0.06,2-0.19,11.68-0.19,11.68l-0.13,8.73c0.16,0,0.33,0.01,0.49,0.01
			c0.29,0,0.58-0.01,0.87-0.02c-0.07-5.2-0.22-16.72-0.26-20.21C20.2,19.37,19.94,19.3,19.66,19.26z"/>
	</g>
	<g>
		<defs>
			<path id="SVGID_1_" d="M0,19.84C0,8.88,8.88,0,19.84,0s19.84,8.88,19.84,19.84c0,10.96-8.88,19.84-19.84,19.84S0,30.8,0,19.84
				L0,19.84z"/>
		</defs>
		<clipPath id="SVGID_2_">
			<use xlink:href="#SVGID_1_"  style="overflow:visible;"/>
		</clipPath>
		<path class="st5" d="M4.22,26.49c0.34,0.4,2.67-0.13,4.18-0.52c4.47-1.14,5.9-1.33,9.89-2.19c0,0.59,0.11,1.77,0.11,1.78
			c0.71-0.67,2.81-0.85,3.36-0.17l0.07-2.16c3.14-0.71,3.72-0.92,7.46-1.64c1.45-0.28,3.5-0.49,4-0.92
			c1.21-1.03,2.85-3.66,3.74-5.19c0.74-1.29,0.63-1.05,0.41-2.27c-0.1-0.56-4.67,5.25-6.55,5.63c-3.35,0.7-5.15,1.52-8.48,2.2
			c-2.63,0.53-3.96,0.72-6.59,1.36c-4.88,1.21-7.52,2.06-12.42,3.18"/>
		<path class="st6" d="M2.21,13.99c3.96-0.39,6.72-1.16,10.93-1.89c5.41-0.94,6.45-1.16,11.83-2.16c2.83-0.54,2.11-0.17,4.93-0.92
			c0.58-0.16,0.96-0.47,2.03,0.34c0.7,0.54,3.17,2.05,4.66,2.88c1.45,0.76,0.77,1.62,0.08,2.5c-1.37,1.74-2.06,2.81-3.14,4.29
			c-0.55,0.76-0.98,0.87-1.98,1.06c-1.72,0.31-2.49,0.48-4.2,0.73c-4.35,0.64-6.76,1.37-11.1,2.31c-3.16,0.68-4.65,1.14-7.81,1.82
			c-1.62,0.35-2.63,0.65-4.36,0.92c-0.8,0.13-0.83-0.79-1.01-1.59c-0.3-1.35-0.36-2.32-0.64-3.67c-0.47-2.24-0.67-3.36-1.12-5.58
			C1.18,14.33,1.37,14.1,2.21,13.99L2.21,13.99z"/>
		<path class="st7" d="M2.85,16.11c0.15,0.54,1.72,7.61,1.72,7.61c0.09,0.52,0.3,0.44,0.64,0.36c0.77-0.17,9.5-2.14,12.29-2.77
			c2.71-0.71,14.09-2.84,14.09-2.84c0.44-0.07,0.99-0.68,0.99-0.68l3.44-3.88c0.08-0.12,0.27-0.55-0.13-0.74
			c-2.11-1.26-3.72-2.28-4.85-3.07c0,0-0.54-0.27-1.28,0.04c-0.34,0.07-9.59,1.86-9.59,1.86c-2.11,0.54-9.14,1.77-9.14,1.77
			c-1.3,0.22-7.8,1.51-7.8,1.51C2.74,15.39,2.69,15.52,2.85,16.11L2.85,16.11z"/>
	</g>
	<g>
		<defs>
			<path id="SVGID_3_" d="M2.85,16.11c0.15,0.54,1.72,7.61,1.72,7.61c0.09,0.52,0.3,0.44,0.64,0.36c0.77-0.17,9.5-2.14,12.29-2.77
				c2.71-0.71,14.09-2.84,14.09-2.84c0.44-0.07,0.99-0.68,0.99-0.68l3.44-3.88c0.08-0.12,0.27-0.55-0.13-0.74
				c-2.11-1.26-3.72-2.28-4.85-3.07c0,0-0.54-0.27-1.28,0.04c-0.34,0.07-9.59,1.86-9.59,1.86c-2.11,0.54-9.14,1.77-9.14,1.77
				c-1.3,0.22-7.8,1.51-7.8,1.51C2.74,15.39,2.69,15.52,2.85,16.11L2.85,16.11z"/>
		</defs>
		<defs>
			<path id="SVGID_4_" d="M0,19.84C0,8.88,8.88,0,19.84,0s19.84,8.88,19.84,19.84c0,10.96-8.88,19.84-19.84,19.84S0,30.8,0,19.84
				L0,19.84z"/>
		</defs>
		<clipPath id="SVGID_5_">
			<use xlink:href="#SVGID_3_"  style="overflow:visible;"/>
		</clipPath>
		<clipPath id="SVGID_6_" class="st8">
			<use xlink:href="#SVGID_4_"  style="overflow:visible;"/>
		</clipPath>
		<path class="st9" d="M26.23,15.23c-0.12-1.15-1-1.54-2.03-1.41c-0.08,0.01-0.15,0.02-0.23,0.04c-0.04,0.01-0.12,0.04-0.1,0.15
			c0.01,0.12,0.28,2.75,0.28,2.75c0,0.14,0.09,0.14,0.12,0.13c0.07-0.01,0.15-0.01,0.21-0.02C25.4,16.76,26.35,16.34,26.23,15.23
			L26.23,15.23z"/>
		<path class="st9" d="M14.11,18.77c-0.27-0.52-1.07-2.01-1.36-2.49c-0.06-0.09-0.11-0.2-0.28-0.15c-0.18,0.05-0.38,0.09-0.57,0.13
			c-0.04,0.01-0.18,0.03-0.15,0.19c-0.05,0.56-0.08,1.12-0.16,1.67l-0.15,1.11c0,0-0.05,0.21,0.2,0.16
			c0.11-0.02,0.23-0.03,0.34-0.05c0.04-0.01,0.16-0.02,0.11-0.19c0.01-0.12-0.03-0.22,0-0.31c0.09-0.02,0.19-0.04,0.28-0.06
			c0.21-0.04,0.41-0.08,0.62-0.1c0.06,0.08,0.1,0.19,0.14,0.28c0.07,0.27,0.24,0.13,0.33,0.11c0.2-0.04,0.4-0.09,0.6-0.14
			C14.11,18.94,14.15,18.84,14.11,18.77L14.11,18.77z"/>
		<path class="st9" d="M10.63,18.07c0.01-1.26-0.96-1.31-2.02-1.1C8.45,17,8.28,17.03,8.12,17.08c-0.18,0.04-0.13,0.23-0.13,0.23
			l0.45,2.75c0,0.12,0.12,0.11,0.12,0.11l0.7-0.16c0.08-0.01,0.05-0.09,0.04-0.12c-0.05-0.27-0.09-0.54-0.14-0.81
			c0.06-0.02,0.11-0.03,0.17-0.04c0.07-0.01,0.12-0.02,0.19,0.02c0.14,0.06,0.29,0.55,0.37,0.81c-0.01,0.12,0.14,0.1,0.14,0.1
			l0.78-0.15c0.08-0.04,0.08-0.12,0.06-0.16c-0.2-0.46-0.21-0.66-0.8-0.81C10.38,18.73,10.64,18.42,10.63,18.07L10.63,18.07z"/>
	</g>
	<path class="st10" d="M7.43,17.72l-0.08-0.44c0-0.11-0.15-0.1-0.15-0.1l-1.86,0.39c0,0-0.15,0.07-0.12,0.2
		c0.03,0.16,0.1,0.42,0.12,0.59c0.1,0.74,0.28,1.5,0.37,2.24c0,0.14,0.15,0.12,0.15,0.12l0.64-0.16c0.15-0.06,0.08-0.2,0.08-0.2
		l-0.13-0.94c0.21-0.08,0.46-0.12,0.67-0.18c0.09-0.03,0.03-0.21,0.03-0.21l-0.07-0.36c0,0-0.04-0.08-0.14-0.08
		c-0.09,0.02-0.45,0.12-0.6,0.14l-0.11-0.6l1.1-0.23C7.45,17.86,7.43,17.72,7.43,17.72L7.43,17.72z"/>
	<path class="st11" d="M9.71,17.93c0.06,0.35-0.35,0.48-0.62,0.54l-0.16-0.92c0.02-0.01,0.04-0.01,0.07-0.02
		C9.31,17.47,9.65,17.55,9.71,17.93L9.71,17.93z"/>
	<path class="st11" d="M12.69,18.17l-0.54,0.1c0,0-0.06,0.01-0.06-0.07c0.04-0.36,0.04-0.72,0.04-1.09
		c0.11-0.29,0.36,0.63,0.58,0.95C12.76,18.16,12.69,18.17,12.69,18.17L12.69,18.17z"/>
	<path class="st10" d="M17.52,15.11l-0.96,0.25c0,0-0.1,0.01-0.13,0.11c-0.11,0.5-0.05,1.91-0.25,1.71
		c-0.08-0.19-0.12-0.31-0.2-0.49c-0.14-0.34-0.26-0.67-0.41-1.01c-0.04-0.08-0.16-0.08-0.16-0.08l-0.9,0.2c0,0-0.16,0.05-0.1,0.21
		c-0.01,0.13,0.47,2.81,0.47,2.81c0.02,0.09,0.1,0.05,0.1,0.05l0.43-0.13c0.07-0.01,0.05-0.11,0.05-0.11l-0.24-1.54
		c0.05-0.2,0.39,0.56,0.67,0.98c0.31,0.45,0.27,0.44,0.54,0.4c0.2-0.03,0.29-0.05,0.36-0.54c0.09-0.68,0.09-0.7,0.18-1.36
		c0.16-0.3,0.17,0.68,0.32,1.73c0,0.15,0.12,0.1,0.12,0.1L18,18.3c0.09,0.01,0.09-0.09,0.08-0.12c-0.04-0.16-0.06-0.33-0.09-0.49
		c-0.14-0.84-0.25-1.68-0.39-2.52C17.6,15.14,17.52,15.11,17.52,15.11L17.52,15.11z"/>
	<path class="st10" d="M21.18,15.02l-0.04-0.45c0,0-0.01-0.09-0.11-0.06c-0.08,0.01-2.44,0.5-2.44,0.5s-0.09,0-0.1,0.11
		c0,0.18,0.03,0.41,0.03,0.41s-0.02,0.18,0.12,0.17c0.2-0.07,0.54-0.12,0.74-0.17c0.05-0.02,0.05,0.03,0.06,0.05
		c0.05,0.73,0.19,1.45,0.25,2.17c0,0.13,0.11,0.11,0.11,0.11l0.77-0.16c0,0,0.11-0.01,0.07-0.14c0-0.08-0.28-2.21-0.28-2.21
		s-0.01-0.05,0.04-0.06c0.09-0.02,0.69-0.15,0.69-0.15C21.2,15.14,21.18,15.02,21.18,15.02L21.18,15.02z"/>
	<path class="st10" d="M23.14,17.11l-0.27-2.8c-0.01-0.07-0.05-0.1-0.1-0.09c-0.08,0.02-0.71,0.17-0.71,0.17
		c-0.18,0.03-0.15,0.11-0.15,0.14c0.01,0.09,0.02,0.18,0.03,0.27c0.08,0.84,0.16,1.69,0.13,2.55c-0.01,0.1,0.06,0.11,0.09,0.1
		c0.08-0.01,0.17-0.03,0.25-0.05c0.21-0.05,0.42-0.11,0.64-0.16C23.17,17.24,23.14,17.11,23.14,17.11L23.14,17.11z"/>
	<path class="st10" d="M28.63,13.6l-0.09-0.41c0-0.07-0.08-0.07-0.12-0.07c-0.59,0.11-1.19,0.21-1.77,0.35
		c-0.04,0.01-0.1,0.04-0.08,0.16c0.05,0.21,0.09,0.42,0.12,0.64c0.09,0.49,0.17,0.98,0.25,1.48c0.03,0.17,0.06,0.33,0.08,0.5
		c0.02,0.15,0.16,0.12,0.16,0.12l1.57-0.3c0.11-0.01,0.07-0.14,0.07-0.14l-0.08-0.45c0,0-0.01-0.09-0.1-0.06
		c-0.22,0.06-0.56,0.16-0.74,0.2c-0.01,0.01-0.04-0.02-0.05-0.03c-0.02-0.12-0.03-0.21-0.05-0.33c-0.01-0.04-0.02-0.16-0.03-0.2
		c-0.01-0.02,0-0.06,0.01-0.06c0.21-0.04,0.42-0.09,0.63-0.14c0.05,0,0.04-0.07,0.04-0.07l-0.08-0.45c0,0-0.01-0.11-0.1-0.08
		c-0.19,0.05-0.37,0.05-0.56,0.11c-0.05,0.02-0.05-0.04-0.05-0.04l-0.08-0.38c0,0,0.02-0.07,0.04-0.07c0.33-0.05,0.62-0.15,0.95-0.2
		C28.65,13.68,28.63,13.6,28.63,13.6L28.63,13.6z"/>
	<path class="st10" d="M32.43,15.17c-0.01-0.04-0.19-1.6-0.29-2.34c-0.01-0.1-0.02-0.22-0.05-0.32c-0.01-0.04-0.05-0.11-0.15-0.09
		c-0.08,0.02-0.57,0.08-0.57,0.08s-0.11,0.03-0.09,0.13c0.01,0.14,0.17,1.44,0.17,1.44c0.01,0.03-0.04,0.07-0.09,0.02
		c-0.33-0.31-0.59-0.58-0.92-0.9c-0.14-0.14-0.28-0.28-0.44-0.41c-0.03-0.02-0.02-0.07-0.13-0.06l-0.38,0.05c0,0-0.13,0.03-0.1,0.13
		c0.02,0.11,0.04,0.22,0.06,0.34l0.04,0.31c0.09,0.68,0.17,1.36,0.27,2.04c0.01,0.05,0.04,0.16,0.12,0.13
		c0.11-0.02,0.66-0.1,0.66-0.1c0.09-0.01,0.06-0.15,0.06-0.15l-0.22-1.2c0,0,0.03-0.1,0.12-0.02c0.43,0.42,0.64,0.71,1.07,1.12
		c0.1,0.1,0.17,0.08,0.17,0.08l0.66-0.13C32.45,15.31,32.44,15.21,32.43,15.17L32.43,15.17z"/>
	<path class="st11" d="M25.53,15.36c-0.01,0.41-0.23,0.58-0.55,0.74c-0.08,0.03-0.11-0.02-0.13-0.07c-0.01-0.08-0.22-1.58-0.22-1.58
		c-0.02-0.06,0.03-0.08,0.05-0.08C25.11,14.4,25.54,14.77,25.53,15.36L25.53,15.36z"/>
</g>
</svg>
