<?xml version="1.0" encoding="utf-8"?>
<!-- Generator: Adobe Illustrator 24.2.0, SVG Export Plug-In . SVG Version: 6.00 Build 0)  -->
<svg version="1.1" id="Lager_1" xmlns="http://www.w3.org/2000/svg" xmlns:xlink="http://www.w3.org/1999/xlink" x="0px" y="0px"
	 viewBox="0 0 39.69 39.69" style="enable-background:new 0 0 39.69 39.69;" xml:space="preserve">
<style type="text/css">
	.st0{fill-rule:evenodd;clip-rule:evenodd;fill:#BCD6F1;}
	.st1{fill:none;}
	.st2{fill:#EA5284;}
	.st3{fill:#FFFFFF;}
	.st4{fill:none;stroke:#000000;stroke-width:0;stroke-linecap:round;stroke-linejoin:round;}
</style>
<g>
	<path class="st0" d="M0.64,15.05C3.29,4.45,14.02-2,24.63,0.64c10.6,2.64,17.06,13.38,14.41,23.99
		c-2.64,10.6-13.38,17.06-23.99,14.41C4.45,36.4-2,25.66,0.64,15.05z"/>
	<g>
		<path class="st1" d="M35.41,15.24c0,0.02,0.23,0.61,0.36,0.97c0.58,1.5,0.12,3.31-0.86,4.56c-1.2,1.55-2.18,1.38-3.14,2.5
			c-0.5,0.72-1.4,5.51-4.51,5.43c-1.48-0.04-3.5-0.5-4.91-1.48c-0.91-0.63-1.49-1.81-1.18-2.94c0.35-1.22,1.02-2.43,1.28-3.68
			c0.05-1.25-0.57-2.25-0.37-4.09c0.39-1.76,1.54-3.01,2.75-4.04c0.61-0.64,0.57-1.64,0.57-2.46c-0.21-1.03-0.79-1.53-1.47-1.99
			c-0.96-0.49-2.87-0.75-3.04-1.78c0.03-0.58,0.4-1.13,0.93-1.35c1.75-0.69,3.51,0.21,4.81,1.37c0.96,0.86,1.24,2.31,1.13,3.5
			c-0.1,0.51-0.08,0.9-0.2,1.55c2.23-0.31,4.75,0.06,6.3,1.86c0.67-0.91,1.55-1.73,2.63-2.16c0.33-0.13,0.61-0.22,0.88-0.29
			c-2.53-4.85-7.04-8.63-12.76-10.06C14.02-2,3.29,4.45,0.64,15.05C-2,25.66,4.45,36.4,15.06,39.04
			c10.6,2.64,21.34-3.81,23.99-14.41c0.91-3.65,0.74-7.31-0.3-10.66C37.6,13.89,36.21,14.51,35.41,15.24z M6.89,9.17
			c0.72,0.55,1.29,0.94,1.83,1.62c1.86-0.81,3.9-1,5.83-1.33c0.64-1.09,1.04-1.97,1.97-2.83c0.32-0.37,0.55-0.22,0.55,0.19
			c0.38,1.24,0.32,2.74,0.46,4c2.71,1.44,2.21,5.47,0.79,7.28c-1.01,1.49-2.5,2.24-4.26,2.73c-3.64,0.7-5.81-0.92-6.34-1.24
			c-0.78-0.75-1.57-1.49-1.98-2.53c-0.47-1.25-0.27-3.13,0.43-4.15c-0.19-1.56-0.64-2.57-0.74-4.16C5.37,8.13,5.66,7.99,6.89,9.17z
			 M4.61,12.74l-0.09-0.06L4.61,12.74z M20.91,31.94c-0.7,1.43-2.49,2-3.93,2.29c0.06-0.01,0.12-0.02,0.17-0.03
			c0.03,0.28,0.02,0.5-0.05,0.82c-0.06,0.06-0.3,0.11-0.63,0.13c0,0,0,0,0,0l-0.36,0.04c-0.12,0.04-0.54,0.04-0.62,0
			c-0.12-0.24-0.23-0.52-0.27-0.77c0.03,0,0.07,0,0.12,0l0,0c-4.41-0.09-5.15-2.56-5.15-3.23c-0.12-1.35,0.57-2.51,2.07-3.64
			c-0.32-0.89-1.13-2.71-1.93-2.53c-1.8,0.6-2.97,2.34-4.84,2.55c-0.82,0.24-1.58-0.96-0.46-1.98c1.35-1.47,3.41-2.26,5.26-2.69
			c0.81-0.13,1.54-0.15,1.95,0.75c0,0,0.9,2.25,1.07,3.34c0.82-0.43,2.71-0.55,3.37-0.55c0.13-1.74,0.68-4.03,1.09-5.66
			c0.38-1.27,0.81-2.24,1.77-3.13c1.01-0.54,1.55,0.16,1.54,0.63c-0.1,1.91-0.9,3.74-1.64,5.35l-1.37,2.97
			C21.66,28.09,21.66,30.33,20.91,31.94z"/>
		<path class="st2" d="M33.88,13.16c-1.55-1.8-4.06-2.17-6.3-1.86c0.11-0.64,0.1-1.03,0.2-1.55c0.11-1.19-0.17-2.64-1.13-3.5
			c-1.3-1.16-3.06-2.06-4.81-1.37c-0.52,0.22-0.9,0.78-0.93,1.35c0.17,1.02,2.08,1.29,3.04,1.78c0.68,0.46,1.26,0.96,1.47,1.99
			c0,0.82,0.04,1.82-0.57,2.46c-1.21,1.03-2.36,2.29-2.75,4.04c-0.2,1.84,0.42,2.84,0.37,4.09c-0.26,1.26-0.93,2.46-1.28,3.68
			c-0.31,1.14,0.27,2.32,1.18,2.94c1.41,0.98,3.43,1.44,4.91,1.48c3.11,0.08,4.01-4.72,4.51-5.43c0.96-1.12,1.93-0.95,3.14-2.5
			c0.97-1.25,1.43-3.06,0.86-4.56c-0.13-0.36-0.36-0.95-0.36-0.97c0.81-0.73,2.19-1.36,3.34-1.27c-0.04-0.12-0.08-0.23-0.12-0.35
			c-1.14-0.08-2.5,0.58-3.39,1.34c-0.18-0.47-0.63-0.93-0.93-1.36c0.69-1.03,1.69-2.03,2.99-2.23c0.14,0,0.28-0.01,0.42-0.02
			c-0.1-0.22-0.21-0.43-0.33-0.65c-0.27,0.07-0.55,0.16-0.88,0.29C35.43,11.43,34.54,12.24,33.88,13.16z M25.23,8.85
			c-0.68-1.71-3.05-1.29-3.96-2.78c0.09-0.65,0.8-0.92,1.32-1.05c1.84-0.1,3.67,1.15,4.62,2.61c0.47,1.16,0.08,2.32-0.01,3.46
			l-0.07,0.23l-1.52,0.4C25.71,10.79,26.02,9.65,25.23,8.85z M26.54,16.02c-0.17,0.13-0.4,0.11-0.63,0.04
			c-0.17-0.06-0.31-0.27-0.29-0.45c-0.01-0.2,0.09-0.42,0.27-0.53c0.22-0.06,0.59-0.14,0.84,0.21
			C26.85,15.53,26.8,15.83,26.54,16.02z M27.71,24.43c-0.51,0.2-1.17,0.36-1.7,0.06c-0.34,0.47-0.29,1.08-0.55,1.62
			c0.25,0.22,2.07,0.56,2.07,0.56c0.46-0.42,0.55,0.26,0.16,0.37c-1.59-0.25-3.26-0.76-4.71-1.41c-0.6-0.37,0.27-0.89,0.25-0.26
			c0.75,0.34,1.16,0.56,1.94,0.64c0.18-0.54,0.34-1.06,0.48-1.59c-0.36-0.16-0.75-0.37-0.89-0.79c-0.16-0.37-0.09-0.76,0.04-1.12
			c0.22-0.49,0.63-0.76,1.14-0.87c0.83-0.09,2.28,0.33,2.39,1.39C28.35,23.5,28.18,24.18,27.71,24.43z M32.41,18.22
			c-0.3,0.05-0.62-0.01-0.72-0.28c-0.1-0.21,0-0.43,0.08-0.62c0.17-0.15,0.27-0.23,0.55-0.21c0.39,0.11,0.51,0.26,0.54,0.63
			C32.84,17.99,32.65,18.15,32.41,18.22z"/>
		<path class="st2" d="M34.3,13.6c0.3,0.43,0.75,0.89,0.93,1.36c0.89-0.76,2.25-1.42,3.39-1.34c-0.26-0.78-0.56-1.54-0.91-2.27
			c-0.14,0.01-0.28,0.02-0.42,0.02C35.99,11.58,34.99,12.57,34.3,13.6z"/>
		<path class="st2" d="M25.62,11.73l1.52-0.4l0.07-0.23c0.08-1.14,0.47-2.31,0.01-3.46c-0.95-1.47-2.78-2.71-4.62-2.61
			c-0.52,0.13-1.23,0.4-1.32,1.05c0.91,1.48,3.29,1.07,3.96,2.78C26.02,9.65,25.71,10.79,25.62,11.73z"/>
		<path d="M32.32,17.1c-0.28-0.02-0.38,0.06-0.55,0.21c-0.08,0.19-0.18,0.41-0.08,0.62c0.11,0.28,0.42,0.34,0.72,0.28
			c0.24-0.06,0.43-0.23,0.44-0.48C32.83,17.36,32.71,17.21,32.32,17.1z"/>
		<path d="M25.9,15.06c-0.18,0.12-0.28,0.33-0.27,0.53c-0.02,0.19,0.12,0.4,0.29,0.45c0.22,0.07,0.46,0.09,0.63-0.04
			c0.25-0.19,0.31-0.49,0.2-0.74C26.49,14.93,26.12,15,25.9,15.06z"/>
		<path d="M25.94,21.64c-0.5,0.1-0.92,0.38-1.14,0.87c-0.13,0.37-0.21,0.76-0.04,1.12c0.14,0.42,0.54,0.63,0.89,0.79
			c-0.14,0.53-0.3,1.04-0.48,1.59c-0.78-0.08-1.19-0.3-1.94-0.64c0.02-0.64-0.84-0.11-0.25,0.26c1.45,0.64,3.12,1.16,4.71,1.41
			c0.39-0.11,0.3-0.78-0.16-0.37c0,0-1.82-0.34-2.07-0.56c0.27-0.53,0.22-1.15,0.55-1.62c0.52,0.3,1.18,0.13,1.7-0.06
			c0.47-0.25,0.64-0.93,0.62-1.39C28.22,21.97,26.77,21.55,25.94,21.64z M25.96,23.56c-0.08,0.16-0.2,0.24-0.35,0.14
			c-0.35-0.18-0.16-0.59,0-0.66C25.9,22.95,26.07,23.32,25.96,23.56z M27.24,23.82c-0.09,0.26-0.2,0.28-0.43,0.25
			c-0.14-0.06-0.27-0.22-0.23-0.37c0.05-0.17,0.23-0.23,0.31-0.26C27.09,23.44,27.3,23.55,27.24,23.82z"/>
		<path class="st2" d="M26.89,23.45c-0.08,0.03-0.26,0.09-0.31,0.26c-0.04,0.15,0.09,0.3,0.23,0.37c0.22,0.04,0.34,0.01,0.43-0.25
			C27.3,23.55,27.09,23.44,26.89,23.45z"/>
		<path class="st2" d="M25.6,23.04c-0.16,0.06-0.34,0.48,0,0.66c0.15,0.1,0.28,0.02,0.35-0.14C26.07,23.32,25.9,22.95,25.6,23.04z"
			/>
		<path d="M18.06,26.6l1.37-2.97c0.74-1.61,1.54-3.43,1.64-5.35c0.01-0.48-0.54-1.17-1.54-0.63c-0.96,0.89-1.39,1.86-1.77,3.13
			c-0.4,1.63-0.96,3.92-1.09,5.66c-0.65,0-2.54,0.12-3.37,0.55c-0.16-1.08-1.07-3.34-1.07-3.34c-0.41-0.9-1.14-0.88-1.95-0.75
			c-1.85,0.43-3.91,1.22-5.26,2.69c-1.12,1.02-0.35,2.22,0.46,1.98c1.86-0.21,3.04-1.95,4.84-2.55c0.81-0.19,1.61,1.64,1.93,2.53
			c-1.5,1.13-2.19,2.29-2.07,3.64c0,0.67,0.74,3.14,5.15,3.23l0,0c0.26,0,0.72-0.04,0.72-0.04c0.03,0.35,0.05,0.59,0.07,0.81
			c0,0-0.01,0-0.02,0l0.36-0.04c-0.02-0.19-0.08-0.58-0.09-0.82c0.18-0.03,0.4-0.06,0.6-0.09c1.44-0.28,3.23-0.85,3.93-2.29
			C21.66,30.33,21.66,28.09,18.06,26.6z M12.72,29.34c-0.07-0.17-0.01-0.39,0.11-0.5c0.48-0.42,1.14,0.06,1.07,0.4
			C13.75,30.02,12.85,29.6,12.72,29.34z M17.15,32.73c-0.12,0.35-1.03,0.6-1.65,0.42c-0.9-0.25-0.92-1.14-0.51-1.69
			C15.41,30.89,17.95,30.79,17.15,32.73z M17.66,29.5c-0.22-0.09-0.2-0.48-0.06-0.69c0.2-0.2,0.46-0.28,0.67-0.22
			C18.79,28.75,18.67,29.92,17.66,29.5z"/>
		<path class="st3" d="M18.27,28.6c-0.2-0.06-0.47,0.02-0.67,0.22c-0.14,0.21-0.17,0.6,0.06,0.69
			C18.67,29.92,18.79,28.75,18.27,28.6z"/>
		<path class="st3" d="M12.84,28.84c-0.12,0.11-0.19,0.33-0.11,0.5c0.13,0.26,1.03,0.68,1.19-0.1
			C13.98,28.9,13.32,28.42,12.84,28.84z"/>
		<path class="st2" d="M14.99,31.46c-0.41,0.55-0.38,1.43,0.51,1.69c0.62,0.18,1.54-0.07,1.65-0.42
			C17.95,30.79,15.41,30.89,14.99,31.46z"/>
		<path class="st3" d="M16.48,35.14C16.48,35.14,16.48,35.15,16.48,35.14c0.32-0.02,0.57-0.07,0.63-0.13
			c0.07-0.32,0.08-0.54,0.05-0.82c-0.05,0.01-0.11,0.02-0.17,0.03c-0.2,0.03-0.42,0.06-0.6,0.09C16.4,34.56,16.46,34.95,16.48,35.14
			z"/>
		<path class="st3" d="M16.07,34.37c0,0-0.45,0.04-0.72,0.04c-0.05,0-0.09,0-0.12,0c0.03,0.25,0.15,0.54,0.27,0.77
			c0.08,0.05,0.5,0.04,0.62,0c0,0,0.01,0,0.02,0C16.11,34.96,16.09,34.72,16.07,34.37z"/>
		<path class="st3" d="M6.17,12.92c-0.69,1.03-0.9,2.91-0.43,4.15c0.41,1.03,1.2,1.78,1.98,2.53c0.53,0.32,2.7,1.95,6.34,1.24
			c1.76-0.49,3.25-1.24,4.26-2.73c1.41-1.81,1.91-5.84-0.79-7.28c-0.14-1.26-0.08-2.76-0.46-4c-0.01-0.42-0.23-0.56-0.55-0.19
			c-0.93,0.87-1.33,1.74-1.97,2.83c-1.93,0.32-3.97,0.52-5.83,1.33c-0.55-0.68-1.11-1.07-1.83-1.62C5.66,7.99,5.37,8.13,5.43,8.76
			C5.53,10.35,5.99,11.35,6.17,12.92z M14.98,12.79c0.1-0.18,0.1-0.27,0.43-0.39c0.39-0.07,0.6,0.11,0.61,0.41
			c0.01,0.28-0.05,0.33-0.26,0.49c-0.27,0.11-0.29,0.11-0.58,0.02C15.05,13.22,14.88,12.97,14.98,12.79z M12.83,18.2
			c-0.04-0.18-0.12-0.45-0.18-0.71c-0.32-0.13-0.73-0.52-1.19-0.89c-0.36-0.28-0.88-0.56,0.29-0.82c0.68-0.18,1.29-0.32,1.96-0.38
			c0.17-0.02,0.68-0.08,0.32,0.58c-0.44,0.69-0.44,0.86-0.98,1.49c0.1,0.44,0.17,0.94,0.25,1.22c0.29,0.19,1.5-0.16,1.58-0.54
			c0.26-0.2,0.32,0.19,0.29,0.34c-1.07,0.59-2.2,0.76-3.41,0.9c-0.27,0-0.59,0.19-0.73-0.18c-0.07-0.32,0.17-0.36,0.29-0.32
			c0.1,0.48,1.62,0.01,1.64-0.1C12.97,18.62,12.86,18.35,12.83,18.2z M8.7,13.88c0.31-0.31,0.58-0.16,0.75,0.03
			c0.14,0.21,0.18,0.46-0.08,0.69c-0.12,0.06-0.23,0.11-0.45,0.08c-0.18-0.07-0.27-0.1-0.34-0.31C8.49,14.14,8.61,13.97,8.7,13.88z"
			/>
		<path d="M15.17,13.32c0.29,0.09,0.32,0.1,0.58-0.02c0.21-0.16,0.27-0.21,0.26-0.49c-0.01-0.3-0.22-0.48-0.61-0.41
			c-0.33,0.12-0.34,0.21-0.43,0.39C14.88,12.97,15.05,13.22,15.17,13.32z"/>
		<line class="st4" x1="4.52" y1="12.68" x2="4.61" y2="12.74"/>
		<path d="M8.92,14.67c0.22,0.03,0.33-0.03,0.45-0.08c0.26-0.23,0.23-0.47,0.08-0.69c-0.17-0.19-0.44-0.33-0.75-0.03
			c-0.09,0.09-0.21,0.26-0.13,0.48C8.65,14.57,8.74,14.6,8.92,14.67z"/>
		<path d="M11.31,18.88c-0.12-0.05-0.36,0-0.29,0.32c0.14,0.37,0.46,0.18,0.73,0.18c1.2-0.14,2.34-0.31,3.41-0.9
			c0.04-0.15-0.03-0.54-0.29-0.34c-0.07,0.39-1.29,0.73-1.58,0.54c-0.08-0.28-0.15-0.78-0.25-1.22c-0.01,0.01-0.02,0.02-0.03,0.03
			c-0.1,0.07-0.23,0.06-0.38,0c0.07,0.26,0.15,0.52,0.18,0.71c0.03,0.15,0.14,0.42,0.13,0.58C12.94,18.89,11.42,19.37,11.31,18.88z"
			/>
		<path class="st2" d="M13.02,17.49c0.01-0.01,0.02-0.02,0.03-0.03c0.54-0.62,0.54-0.8,0.98-1.49c0.36-0.66-0.15-0.59-0.32-0.58
			c-0.67,0.07-1.28,0.21-1.96,0.38c-1.17,0.26-0.66,0.54-0.29,0.82c0.45,0.37,0.86,0.76,1.19,0.89
			C12.79,17.55,12.92,17.56,13.02,17.49z"/>
	</g>
</g>
</svg>
