<?xml version="1.0" encoding="utf-8"?>
<!-- Generator: Adobe Illustrator 24.2.0, SVG Export Plug-In . SVG Version: 6.00 Build 0)  -->
<svg version="1.1" id="Layer_1" xmlns="http://www.w3.org/2000/svg" xmlns:xlink="http://www.w3.org/1999/xlink" x="0px" y="0px"
	 viewBox="0 0 39.69 39.69" style="enable-background:new 0 0 39.69 39.69;" xml:space="preserve">
<style type="text/css">
	.st0{fill:#F15927;}
	.st1{fill:none;stroke:#000000;stroke-width:3.1701;stroke-linejoin:round;stroke-miterlimit:10;}
	.st2{fill:none;stroke:#000000;stroke-width:4.7551;stroke-miterlimit:10;}
</style>
<g id="Layer_1_1_">
</g>
<g id="Layer_3">
	<circle class="st0" cx="19.84" cy="19.84" r="19.85"/>
</g>
<g id="Layer_2_1_">
	<g>
		<path d="M13.28,31.7H9.33c-1.74,0-3.17-1.43-3.17-3.17v-0.9c0-1.74,1.43-3.17,3.17-3.17h3.96c1.74,0,3.17,1.43,3.17,3.17v0.9
			C16.45,30.27,15.03,31.7,13.28,31.7z"/>
		<path d="M27.22,28.75h-3.96c-1.74,0-3.17-1.43-3.17-3.17v-0.9c0-1.74,1.43-3.17,3.17-3.17h3.96c1.74,0,3.17,1.43,3.17,3.17v0.9
			C30.39,27.32,28.97,28.75,27.22,28.75z"/>
		<polyline class="st1" points="14.86,28.18 14.86,11.21 28.82,7.98 28.82,24.56 		"/>
		<line class="st2" x1="14.86" y1="12.8" x2="28.82" y2="9.57"/>
	</g>
</g>
</svg>
