<?xml version="1.0" encoding="utf-8"?>
<!-- Generator: Adobe Illustrator 24.2.0, SVG Export Plug-In . SVG Version: 6.00 Build 0)  -->
<svg version="1.1" id="Lager_1" xmlns="http://www.w3.org/2000/svg" xmlns:xlink="http://www.w3.org/1999/xlink" x="0px" y="0px"
	 viewBox="0 0 39.69 39.69" style="enable-background:new 0 0 39.69 39.69;" xml:space="preserve">
<style type="text/css">
	.st0{fill-rule:evenodd;clip-rule:evenodd;fill:#E50051;}
	.st1{fill-rule:evenodd;clip-rule:evenodd;}
	.st2{fill:#E50051;}
</style>
<g>
	<path class="st0" d="M0.13,21.57C-0.83,10.68,7.23,1.08,18.12,0.13C29-0.83,38.6,7.23,39.56,18.12
		c0.95,10.89-7.1,20.49-17.99,21.44C10.68,40.51,1.08,32.46,0.13,21.57z"/>
	<path class="st1" d="M17.29,20.27c0.28,0.75-0.75,0.65-2.01,0.65c-3.26,0-3.5-5.13-6.76-5.13c-3.22,0-5.04,6.16-5.04,6.16
		c0.09,2.47,2.1-1.08,3.78-1.91c0.98-0.05-0.51,3.59-0.05,6.58c1.17,3.78,2.52-3.96,4.76-3.96c2.61,0,1.35,3.64,1.96,6.16
		c1.63,3.36,2.24-3.68,4.48-3.68c2.75,0,2.42,2.7,2.42,5.46c0.09,0.79,1.35-0.28,5.13,0.84c0.51,0.19,0.89-0.05,0.8-0.88
		c0.36-2.34,1.81-3.6,1.06-4.02c-2.71-0.65-4.25-1.45-4.25-4.11c0-0.42,0.56-0.84,0.98-0.84c1.59,0,5.22,3.54,4.57,1.4
		c-0.37-1.12-1.58-2.05-1.58-3.27c0-0.79,0.66-0.72,1.58-0.56c1.06,0.19,2.29,0.92,2.95,0.74c1.25-0.55-2.16-2.64-3.6-4.19
		c-1.3-1.4-0.93-2.15,1.12-1.87c0.6,0.08,3.73,0.56,3.5-0.14c-0.14-2.01-7.23-2.66-6.43-3.92c-0.24-0.65,4.9,0.05,4.8-0.65
		c0,0,0.19-2.05-8.26-2.1c-0.7,0-1.82,0.56-1.82,3.59c0,2.1,0.7,3.28,0.93,5.36c0.23,2.05-0.51,2.66-1.03,2.29
		c-1.21-1.4-1.77-3.45-3.27-4.94c-0.93-0.84,0.68,3.47,0.38,3.53c-0.31,0.06-0.7,0.26-0.88,0.49c-1.59-0.79-3.36-3.27-3.04-1.55
		C15.42,17.7,16.4,18.45,17.29,20.27z"/>
	<path class="st2" d="M17.28,18.75c0-0.23,0.25-0.42,0.56-0.42c0.31,0,0.56,0.19,0.56,0.42c0,0.23-0.25,0.42-0.56,0.42
		C17.54,19.17,17.28,18.98,17.28,18.75z"/>
	<path class="st2" d="M19.43,18.33c-0.21-0.11-0.25-0.43-0.1-0.7c0.15-0.27,0.44-0.4,0.64-0.29c0.2,0.11,0.25,0.43,0.1,0.7
		C19.92,18.31,19.63,18.44,19.43,18.33z"/>
</g>
</svg>
