<?xml version="1.0" encoding="utf-8"?>
<!-- Generator: Adobe Illustrator 24.2.0, SVG Export Plug-In . SVG Version: 6.00 Build 0)  -->
<svg version="1.1" id="Lager_1" xmlns="http://www.w3.org/2000/svg" xmlns:xlink="http://www.w3.org/1999/xlink" x="0px" y="0px"
	 viewBox="0 0 39.69 39.69" style="enable-background:new 0 0 39.69 39.69;" xml:space="preserve">
<style type="text/css">
	.st0{fill:#F0A05F;}
	.st1{fill:none;}
	.st2{fill:#F5E4C1;}
	.st3{fill:#E1A38D;}
	.st4{fill:#B75A3C;}
	.st5{fill:#FFFFFF;}
	.st6{fill:#D03933;}
	.st7{fill:#E55147;}
	.st8{fill:#DAAD95;}
</style>
<g>
	<path class="st0" d="M0,19.84C0,8.88,8.88,0,19.84,0s19.84,8.88,19.84,19.84c0,10.96-8.88,19.84-19.84,19.84S0,30.8,0,19.84
		L0,19.84z"/>
	<g>
		<path class="st1" d="M4.85,19.18c0,0.01-0.03,0.04-0.08,0.08c0,0,0,0,0,0c0.51-0.38,1.14-0.59,1.85-0.59
			c1.84,0,2.47,2.66,2.47,4.51c0,2.55,0.38,7.42-2.8,5.91c0.04,0.43,0.38,3.03,0.54,5.73c3.14,2.73,7.15,4.49,11.55,4.82
			c-1.11-1.65-2.02-2.87-3.75-4.79c-0.92-1.03-0.63-1.06-0.77-2.08c-0.3-2.06-1.4-7.33-2.05-9.3c-1.96-5.89-1.96-8.33-4.41-14.06
			C7.11,8.76,7.34,8.52,7.56,8.41c0.08-0.04,0.38,0.13,0.83,0.48c1.11-0.15,1.35-0.26,2.31-0.82c0.19-0.13,0.47-0.4,0.76,0.05
			c0.97,1.01,1.54,1.71,2.77,2.66c2.72,2.14,4.87,3.43,6,6.6c0.53-1.07,1.85-1.69,3.13-2.28c1.88-0.88,10.26-3.74,14.3-4
			c-0.6-1.22-1.32-2.36-2.14-3.42c-1.7,1.73-5.57,4.7-9.24,4.77c-5.87,0.12-8.43-8.04-9.66-12.19C9.87,1.37,4.27,5.87,1.63,11.96
			C3.53,14.14,4.77,18.25,4.85,19.18z"/>
		<path class="st2" d="M23.7,2.28c1.21,0,1.98-0.39,2.93-1.09c-1.49-0.54-3.07-0.91-4.7-1.08C22.09,1.15,22.59,2.28,23.7,2.28z"/>
		<path class="st2" d="M26.27,12.45c3.67-0.08,7.55-3.04,9.24-4.77c-2.02-2.6-4.68-4.69-7.74-6.03c-0.81,0.82-2.04,1.52-3.18,1.52
			c-1.17,0-2.15-0.1-2.82-0.73c-0.81-0.75-1.13-1.51-1.32-2.43C20.25,0.01,20.05,0,19.84,0c-1.1,0-2.17,0.09-3.23,0.26
			C17.84,4.41,20.4,12.58,26.27,12.45z M23.37,4.92c2.69-0.17,4.49-0.66,6.98-1.03c0.62-0.09,0.71,0.33,0.7,0.96
			c-0.02,1.09-2.61,3.9-6.09,3.84c-2.66-0.05-3.98-3.18-3.98-3.58C20.98,4.54,22.33,4.99,23.37,4.92z"/>
		<path class="st3" d="M21.77,2.44c0.67,0.62,1.65,0.73,2.82,0.73c1.14,0,2.37-0.7,3.18-1.52c-0.37-0.16-0.75-0.32-1.14-0.46
			c-0.95,0.69-1.72,1.09-2.93,1.09c-1.11,0-1.62-1.13-1.77-2.17c-0.49-0.05-0.99-0.08-1.49-0.1C20.64,0.94,20.96,1.7,21.77,2.44z"/>
		<path class="st4" d="M24.95,8.69c3.48,0.06,6.07-2.75,6.09-3.84c0.01-0.63-0.08-1.05-0.7-0.96c-2.49,0.36-4.29,0.85-6.98,1.03
			c-1.03,0.07-2.38-0.38-2.39,0.19C20.97,5.51,22.29,8.65,24.95,8.69z M22.09,5.93c-0.28-0.54,0.44-0.35,0.71-0.35
			c2.72,0.04,4.17-0.33,7.11-1.07C30.25,4.43,29.9,5.2,29.9,5.2c-0.07,0.41-2.22,1.91-5.22,1.86C23.53,7.03,22.36,6.74,22.09,5.93z"
			/>
		<path class="st5" d="M29.9,5.2c0,0,0.36-0.76,0.01-0.69c-2.93,0.74-4.38,1.11-7.11,1.07c-0.27,0-0.99-0.19-0.71,0.35
			c0.27,0.82,1.44,1.1,2.59,1.12C27.68,7.1,29.83,5.61,29.9,5.2z"/>
		<path class="st5" d="M16.88,19.1c0.01,0.01,0.02,0.01,0.03,0.02c0.2-1.12,1.59-1.94,3.26-1.7c0.01,0,0.02,0,0.03,0.01
			c0.01-0.01,0.01-0.03,0.02-0.04c-1.13-3.16-3.28-4.46-6-6.6c-1.23-0.95-1.8-1.65-2.77-2.66c-0.29-0.45-0.57-0.19-0.76-0.05
			C9.74,8.63,9.5,8.74,8.39,8.89C10.23,10.3,14.59,14.59,16.88,19.1z"/>
		<path class="st5" d="M20.22,17.39c-0.01,0.01-0.01,0.03-0.02,0.04c1.99,0.33,2.61,1.39,2.85,2.13c0.02-0.01,0.04-0.01,0.06-0.02
			c1.18-0.32,1.03,0.33,6-1.74c2.89-1.21,3.94-2.01,6.86-3.14c1.07-0.42,1.82-0.81,2.66-1.19c-0.28-0.81-0.6-1.6-0.97-2.36
			c-4.04,0.26-12.42,3.12-14.3,4C22.08,15.7,20.75,16.31,20.22,17.39z"/>
		<path class="st4" d="M16.92,19.12c0.07,0.03,0.14,0.07,0.22,0.13c1.21,0.47,1.83,0.47,2.72,0.47c1.45,0,2.11,0.16,3.19-0.16
			c-0.24-0.74-0.86-1.79-2.85-2.13c-0.01,0-0.02,0-0.03-0.01C18.5,17.18,17.12,17.99,16.92,19.12z"/>
		<path class="st6" d="M16.65,19.84c-0.25-0.59-0.25-0.97,0.24-0.74c-2.29-4.51-6.65-8.8-8.5-10.21C7.94,8.55,7.64,8.37,7.56,8.41
			C7.34,8.52,7.11,8.76,7.39,9.39c2.45,5.73,2.44,8.17,4.41,14.06c0.65,1.96,1.75,7.24,2.05,9.3c0.14,1.01-0.15,1.05,0.77,2.08
			c1.73,1.93,2.64,3.15,3.75,4.79c0.37,0.03,0.74,0.04,1.12,0.05c-0.27-1.77-0.61-3.22-0.74-5.21
			C18.44,29.84,16.65,20.03,16.65,19.84z"/>
		<path class="st7" d="M29.11,17.79c-4.98,2.08-4.82,1.43-6,1.74c-0.02,0.01-0.04,0.01-0.06,0.02c-1.09,0.32-1.75,0.16-3.19,0.16
			c-0.88,0-1.5,0-2.72-0.47c-0.08-0.05-0.16-0.1-0.22-0.13c-0.01-0.01-0.02-0.01-0.03-0.02c-0.48-0.22-0.49,0.16-0.24,0.74
			c0,0.18,1.79,10,2.1,14.63c0.13,1.99,0.48,3.44,0.74,5.21c0.12,0,0.23,0.01,0.35,0.01c1.34,0,2.65-0.14,3.92-0.39l-0.25-18.16
			c-0.29-1.21,0.61-0.81,0.61-0.81c0.27,0.19,0.49,0.44,0.33,1.6c-0.14,2.39,0.28,12.71,0.47,17.1c4.09-1.08,7.67-3.44,10.27-6.62
			c-0.58-0.09-1.16-0.22-1.87-0.4c-0.89-0.22-2.03-0.41-2.03-1.34c0-0.16,0.04-0.31,0.11-0.47c0.12-0.28,0.33-0.55,0.48-0.8
			c0,0,0,0,0,0c-0.91-0.22-1.73-0.53-1.73-1.44c0-0.48,0.32-0.85,0.74-1.08c0.25-0.14,0.54-0.22,0.83-0.26
			c0.02,0,0.04-0.01,0.06-0.01c-0.86-0.22-1.93-0.16-1.79-1.67c0.12-1.33,0.8-1.39,1.61-1.57c0.11-0.02,0.22-0.05,0.33-0.09
			c0,0,0,0,0,0c-0.5-0.42-0.72-0.93-0.72-1.62c0-1.26,1.68-1.3,2.93-1.3c1.07,0,1.7,0,2.77,0c1.05,0,1.92-0.12,2.74-0.27
			c0-0.08,0.01-0.17,0.01-0.25c0-2.23-0.38-4.38-1.06-6.38c-0.84,0.38-1.58,0.77-2.66,1.19C33.06,15.78,32,16.59,29.11,17.79z"/>
		<path class="st6" d="M24.46,21.92c0.16-1.16-0.07-1.41-0.33-1.6c0,0-0.91-0.4-0.61,0.81l0.25,18.16c0.4-0.08,0.79-0.17,1.17-0.27
			C24.75,34.63,24.33,24.31,24.46,21.92z"/>
		<path class="st2" d="M32.31,27.67c-0.05,0.46-0.18,1.4-0.41,1.4c-0.63,0-1.68-0.26-1.48-1.1c0.1-0.41,0.4-0.77,0.83-0.77
			c0.03,0,0.06,0,0.09,0c-0.15-0.1-0.29-0.21-0.43-0.33c-0.42,0.23-0.74,0.6-0.74,1.08c0,0.91,0.82,1.21,1.73,1.44c0,0,0,0,0,0
			c0.95,0.08,1.82,0.33,2.83,0.33c0.26,0,1.16,0.03,2.3,0.02c0.33-0.57,0.63-1.17,0.91-1.78c-1.23,0-2.18,0-3.62,0
			C33.65,27.97,32.95,27.88,32.31,27.67z"/>
		<path class="st2" d="M34.16,20.36c-1.25,0-2.93,0.04-2.93,1.3c0,0.69,0.22,1.19,0.72,1.62c0.89,0.28,1.64,0.36,3.04,0.38
			c0.71,0.01,1.09,0,1.8,0c0.95,0,1.76,0.01,2.53-0.02c0.22-1.15,0.34-2.33,0.36-3.54c-0.83,0.15-1.7,0.27-2.74,0.27
			C35.86,20.36,35.23,20.36,34.16,20.36z M31.78,22.58c-0.39-0.64-0.08-1.46,0.35-1.46c0.42,0,1.05,0,1.52,0.12
			c0.04,0.35-0.1,1.07,0.02,1.72C32.92,23.07,31.97,22.89,31.78,22.58z"/>
		<path class="st2" d="M34.5,24.54c-1.78-0.26-2.6-0.85-2.88-1.18c-0.81,0.19-1.48,0.24-1.61,1.57c-0.14,1.51,0.92,1.44,1.79,1.67
			c-0.02,0-0.04,0.01-0.06,0.01c1.11,0.2,2.01,0.47,3.07,0.47c0.71,0,1.09,0,1.8,0c0.62,0,1.18,0.01,1.71,0
			c0.32-0.82,0.59-1.66,0.8-2.53C37.34,24.56,36.29,24.81,34.5,24.54z M31.92,26.17c-0.89-0.14-1.73,0.02-1.66-1.42
			c0.03-0.61,0.81-1.01,1.4-0.73c0.25,0.12,0.38,0.11,0.73,0.29C32.27,25.23,32.02,26.31,31.92,26.17z"/>
		<path class="st2" d="M32.91,30.71c-0.1,0.38-0.28,0.76-0.36,0.76c-0.51,0-0.99-0.3-0.99-0.81c0-0.08,0.02-0.2,0.07-0.33
			c-0.07-0.04-0.14-0.08-0.21-0.13c-0.06,0.15-0.11,0.31-0.11,0.47c0,0.93,1.13,1.11,2.03,1.34c0.71,0.18,1.3,0.31,1.87,0.4
			c0.43-0.53,0.84-1.08,1.21-1.65c-0.7,0-1.41,0-2.31,0C33.67,30.75,33.28,30.75,32.91,30.71z"/>
		<path class="st4" d="M36.79,23.65c-0.71,0-1.09,0.01-1.8,0c-1.4-0.02-2.15-0.1-3.04-0.38c0,0,0,0,0,0
			c-0.11,0.04-0.22,0.06-0.33,0.09c0.29,0.33,1.11,0.92,2.88,1.18c1.79,0.26,2.84,0.01,4.62,0c0.07-0.3,0.14-0.61,0.2-0.91
			C38.55,23.66,37.74,23.65,36.79,23.65z"/>
		<path class="st4" d="M36.61,27.08c-0.71,0-1.09,0-1.8,0c-1.06,0-1.96-0.27-3.07-0.47c-0.29,0.04-0.58,0.12-0.83,0.26
			c0.13,0.12,0.28,0.23,0.43,0.33c0.32,0.01,0.69,0.05,0.99,0.22c0,0-0.01,0.1-0.02,0.24c0.64,0.21,1.35,0.3,2.02,0.3
			c1.44,0,2.39,0,3.62,0c0.13-0.29,0.26-0.59,0.38-0.89C37.79,27.08,37.23,27.08,36.61,27.08z"/>
		<path class="st4" d="M34.73,29.73c-1.02,0-1.88-0.25-2.83-0.33c-0.16,0.25-0.36,0.52-0.48,0.8c0.07,0.05,0.14,0.09,0.21,0.13
			c0.13-0.38,0.5-0.81,1.27-0.32c0.13,0.08,0.1,0.39,0.02,0.7c0.37,0.04,0.76,0.04,1.2,0.04c0.9,0,1.61,0,2.31,0
			c0.22-0.33,0.42-0.66,0.62-1C35.89,29.76,35,29.73,34.73,29.73z"/>
		<path class="st5" d="M33.64,21.24c-0.47-0.12-1.09-0.12-1.52-0.12c-0.43,0-0.74,0.82-0.35,1.46c0.19,0.31,1.14,0.49,1.89,0.39
			C33.54,22.31,33.68,21.59,33.64,21.24z"/>
		<path class="st5" d="M30.26,24.76c-0.07,1.44,0.77,1.27,1.66,1.42c0.1,0.14,0.35-0.95,0.47-1.85c-0.35-0.18-0.47-0.17-0.73-0.29
			C31.08,23.75,30.29,24.15,30.26,24.76z"/>
		<path class="st5" d="M30.42,27.97c-0.21,0.83,0.85,1.1,1.48,1.1c0.23,0,0.36-0.94,0.41-1.4c-0.34-0.11-0.67-0.27-0.97-0.46
			c-0.03,0-0.06,0-0.09,0C30.83,27.2,30.53,27.56,30.42,27.97z"/>
		<path class="st8" d="M32.33,27.42c-0.3-0.17-0.67-0.21-0.99-0.22c0.3,0.2,0.62,0.35,0.97,0.46
			C32.32,27.52,32.33,27.42,32.33,27.42z"/>
		<path class="st5" d="M32.55,31.47c0.08,0,0.26-0.38,0.36-0.76c-0.46-0.05-0.89-0.15-1.29-0.38c-0.05,0.13-0.07,0.25-0.07,0.33
			C31.56,31.16,32.04,31.47,32.55,31.47z"/>
		<path class="st8" d="M32.89,30.01c-0.77-0.49-1.13-0.06-1.27,0.32c0.4,0.23,0.82,0.33,1.29,0.38
			C32.99,30.4,33.02,30.09,32.89,30.01z"/>
		<path class="st2" d="M9.09,23.17c0-1.84-0.63-4.51-2.47-4.51c-0.71,0-1.34,0.21-1.85,0.59c0,0,0,0,0,0
			c-0.33,0.24-1.5,1.03-1.5,3.09c0,0.28,0.01,0.76-0.06,0.97c0,0.59-1.09,1.21-1.27,0.28c-0.66-1.82-1.01-3.77-1.88-5.06
			C0.02,18.96,0,19.4,0,19.84c0,5.98,2.64,11.33,6.82,14.97c-0.16-2.69-0.5-5.29-0.54-5.73C9.47,30.6,9.09,25.73,9.09,23.17z
			 M7.05,24.62c0-0.99-0.67-1.96-1.58-2.37c-0.16,0.22-0.35,0.58-0.22,1.4c0.16,0.62-0.62,0.97-0.68,0.4
			c-0.18-1.65,0.83-4.12,2.45-3.79c0.31,0.06,0.4,0.41,0.09,0.81c-0.17,0.23-0.66-0.38-1.21,0.47c0.65,0.75,1.65,1.62,1.65,2.73
			c0,1.19-0.98,2.67-1.41,2.3C5.27,25.95,7.05,25.55,7.05,24.62z"/>
		<path class="st6" d="M3.2,23.31c0.07-0.21,0.06-0.69,0.06-0.97c0-2.06,1.18-2.85,1.5-3.09c0.05-0.04,0.09-0.07,0.08-0.08
			c-0.07-0.93-1.32-5.04-3.22-7.22C0.75,14,0.2,16.21,0.05,18.53c0.87,1.29,1.22,3.24,1.88,5.06C2.11,24.52,3.2,23.9,3.2,23.31z"/>
		<path class="st4" d="M7.55,24.27c0-1.11-1-1.99-1.65-2.73c0.56-0.85,1.04-0.24,1.21-0.47c0.31-0.4,0.22-0.74-0.09-0.81
			c-1.63-0.33-2.63,2.14-2.45,3.79c0.06,0.57,0.84,0.22,0.68-0.4c-0.14-0.82,0.06-1.18,0.22-1.4c0.91,0.41,1.58,1.38,1.58,2.37
			c0,0.93-1.78,1.33-0.9,1.96C6.57,26.95,7.55,25.47,7.55,24.27z"/>
	</g>
</g>
</svg>
